<svg enable-background="new 0 0 511.999 511.999" version="1.1" viewBox="0 0 512 512" xmlns="http://www.w3.org/2000/svg">
	<g transform="matrix(1.1 0 0 1.1 -25.3 -52.1)" fill="#808080" stroke-width=".828">
		<path d="m297 300c8.76 0 15.9-7.12 15.9-15.9s-7.12-15.9-15.9-15.9-15.9 7.12-15.9 15.9c0 8.76 7.12 15.9 15.9 15.9z"/>
		<path d="m243 250c3.55 0 6.44-2.89 6.44-6.44 0-3.55-2.89-6.44-6.44-6.44-3.55 0-6.44 2.89-6.44 6.44 0 3.55 2.89 6.44 6.44 6.44z"/>
		<path d="m312 74.6v-8.2c0-3.24-2.63-5.87-5.87-5.87h-99.3c-3.24 0-5.87 2.63-5.87 5.87v8.2c0 3.24 2.63 5.87 5.87 5.87h99.3c3.24 0 5.87-2.63 5.87-5.87z"/>
	</g>
	<g>
		<path d="m299 169c-1.89-1.18-3.04-3.25-3.04-5.48v-115h-80.4v115c0 2.23-1.15 4.3-3.04 5.48-51.1 31.8-106 104-106 188 0 95.5 47.4 140 149 140 102 0 149-44.5 149-140 0-83.9-55-156-106-188zm1.91 60.4c16.7 0 30.4 13.6 30.4 30.4 0 16.7-13.6 30.4-30.4 30.4-16.7 0-30.4-13.6-30.4-30.4 0-16.7 13.6-30.4 30.4-30.4zm-59-34.2c11 0 20 8.96 20 20 0 11-8.96 20-20 20-11 0-20-8.96-20-20 0-11 8.96-20 20-20zm117 76.9c3.04-1.86 7.01-0.897 8.87 2.14 8.33 13.6 13.1 33 13.7 35.9 7e-3 0.022 0.0176 0.0429 0.0242 0.0648 4.12 15.1 6.21 30.4 6.21 45.5 0 45.4-13.2 78.8-39.2 99.2-21.7 17-52 25.3-92.7 25.3s-71-8.28-92.7-25.3c-26-20.4-39.2-53.8-39.2-99.2 0-15 2.07-30.3 6.16-45.3 0.354-1.55 5.14-22 13.8-36.2 1.86-3.04 5.83-4 8.87-2.14 3.04 1.86 4 5.83 2.14 8.87-4.62 7.57-8.09 17.6-10.1 24.5h27.3c3.14-21.7 21.8-38.4 44.4-38.4 22.5 0 41.3 16.7 44.4 38.4l106-2e-3c-2.05-6.89-5.51-16.9-10.1-24.5-1.86-3.04-0.899-7.01 2.14-8.87z" fill="#e6e6e6"/>
		<path id="potionColor" d="m137 356c0 41.8 11.2 70.9 34.3 89 19.4 15.2 47.1 22.6 84.8 22.6 37.7 0 65.4-7.38 84.8-22.6 23.1-18.1 34.3-47.2 34.3-89 0-12.4-1.52-24.9-4.53-37.3l-229 5e-3c-3.01 12.4-4.53 25-4.53 37.3z" fill="#412559"/>
		<path d="m217 280c-15.4 0-28.3 11-31.3 25.5l62.6-1e-3c-2.99-14.5-15.9-25.5-31.3-25.5z" fill="#808080"/>
		<path d="m301 291c16.7 0 30.4-13.6 30.4-30.4 0-16.7-13.6-30.4-30.4-30.4-16.7 0-30.4 13.6-30.4 30.4 0 16.7 13.6 30.4 30.4 30.4zm0-47.8c9.63 0 17.5 7.83 17.5 17.5 0 9.63-7.83 17.5-17.5 17.5s-17.5-7.83-17.5-17.5c0-9.63 7.83-17.5 17.5-17.5z"/>
		<path d="m242 236c11 0 20-8.96 20-20 0-11-8.96-20-20-20-11 0-20 8.96-20 20 0 11 8.96 20 20 20zm0-27.1c3.9 0 7.07 3.17 7.07 7.07s-3.17 7.08-7.07 7.08c-3.9 0-7.07-3.17-7.07-7.08 0-3.9 3.17-7.07 7.07-7.07z"/>
		<path d="m309 160v-111h1.45c10.7 0 19.4-8.68 19.4-19.4v-9.02c0-10.7-8.68-19.4-19.4-19.4l-109-0.0011c-10.7 0-19.4 8.68-19.4 19.4v9.02c0 10.7 8.68 19.4 19.4 19.4h1.46v111c-53.1 34.6-109 110-109 197 0 103 53 153 162 153 109 0 162-50 162-153 2e-3 -87.2-56-163-109-197zm-108-124c-3.56 0-6.45-2.89-6.45-6.45v-9.02c0-3.56 2.89-6.45 6.45-6.45h109c3.56 0 6.45 2.89 6.45 6.45v9.02c0 3.56-2.89 6.45-6.45 6.45zm54.5 461c-102 0-149-44.5-149-140 0-83.9 55-156 106-188 1.89-1.18 3.04-3.25 3.04-5.48v-115h80.4v115c0 2.23 1.15 4.3 3.04 5.48 51.1 31.8 106 104 106 188-1e-3 95.5-47.4 140-149 140z"/>
		<path d="m367 306-106 2e-3c-3.14-21.7-21.8-38.4-44.4-38.4-22.6 0-41.3 16.7-44.4 38.4h-27.3c2.05-6.89 5.51-16.9 10.1-24.5 1.86-3.04 0.898-7.01-2.14-8.87-3.04-1.86-7.01-0.897-8.87 2.14-8.68 14.2-13.5 34.6-13.8 36.2-4.09 15-6.16 30.3-6.16 45.3 0 45.4 13.2 78.8 39.2 99.2 21.7 17 52 25.3 92.7 25.3 40.7 0 71-8.28 92.7-25.3 26-20.4 39.2-53.8 39.2-99.2 0-15.1-2.09-30.4-6.21-45.5-7e-3 -0.0231-0.0176-0.0429-0.0242-0.0649-0.679-2.9-5.42-22.3-13.7-35.9-1.86-3.04-5.83-4-8.87-2.14-3.04 1.86-4 5.83-2.14 8.87 4.62 7.57 8.09 17.6 10.1 24.5zm-151-25.5c15.4 0 28.3 11 31.3 25.5l-62.6 1e-3c2.99-14.5 15.9-25.5 31.3-25.5zm154 38.4c3.01 12.4 4.53 25 4.53 37.3 0 41.8-11.2 70.9-34.3 89-19.4 15.2-47.1 22.6-84.8 22.6-37.7 0-65.4-7.38-84.8-22.6-23.1-18.1-34.3-47.2-34.3-89 0-12.4 1.52-24.9 4.53-37.3z"/>
	</g>
</svg>
