<?xml version="1.0" encoding="iso-8859-1"?>
<!-- Generator: Adobe Illustrator 19.0.0, SVG Export Plug-In . SVG Version: 6.00 Build 0)  -->
<svg version="1.1" id="Layer_1" xmlns="http://www.w3.org/2000/svg" xmlns:xlink="http://www.w3.org/1999/xlink" x="0px" y="0px"
	 viewBox="0 0 511.999 511.999" style="enable-background:new 0 0 511.999 511.999;" xml:space="preserve">
<path style="fill:#E6E6E6;" d="M452.521,199.348c-3.692,5.181-8.728,10.219-13.909,13.909c5.181,3.691,10.219,8.728,13.909,13.909
	c3.69-5.181,8.728-10.219,13.909-13.909C461.249,209.565,456.211,204.529,452.521,199.348z"/>
<path style="fill:#333333;" d="M123.131,490.228v3.453c0,3.646,2.966,6.611,6.611,6.611h244.883c3.646,0,6.611-2.966,6.611-6.611
	v-3.453c0-3.646-2.966-6.611-6.611-6.611H129.743C126.097,483.615,123.131,486.582,123.131,490.228z"/>
<g>
	<path style="fill:#808080;" d="M342.734,103.514c6.027-9.607,15.869-19.448,25.476-25.475
		c-9.607-6.027-19.449-15.868-25.476-25.475c-6.026,9.607-15.868,19.448-25.474,25.475
		C326.867,84.066,336.708,93.907,342.734,103.514z"/>
	<path style="fill:#808080;" d="M66.391,142.913c-4.968,7.468-12.461,14.962-19.929,19.929c7.468,4.968,14.962,12.461,19.929,19.928
		c4.968-7.467,12.461-14.962,19.928-19.928C78.852,157.875,71.358,150.382,66.391,142.913z"/>
</g>
<path style="fill:#E6E6E6;" d="M270.695,42.068c3.092-4.162,7.1-8.171,11.263-11.263c-4.162-3.092-8.171-7.101-11.263-11.263
	c-3.092,4.162-7.1,8.171-11.263,11.263C263.595,33.897,267.604,37.904,270.695,42.068z"/>
<path style="fill:#FFAA2A;" d="M252.185,129.523c-85.452,0-154.974,69.52-154.974,154.973s69.52,154.974,154.974,154.974
	s154.974-69.52,154.974-154.974C407.158,199.043,337.637,129.523,252.185,129.523z M252.185,158.544
	c-69.451,0-125.955,56.502-125.955,125.952c0,3.233-2.621,5.854-5.854,5.854c-3.233,0-5.854-2.621-5.854-5.854
	c0-75.906,61.756-137.66,137.663-137.66c3.233,0,5.854,2.621,5.854,5.854C258.039,155.922,255.418,158.544,252.185,158.544z"/>
<path style="fill:#808080;" d="M252.185,451.177c-34.212,0-66.045-10.366-92.537-28.115l-14.388,48.845H359.11l-14.389-48.845
	C318.23,440.811,286.397,451.177,252.185,451.177z"/>
<path d="M252.185,146.836c-75.907,0-137.663,61.754-137.663,137.66c0,3.233,2.621,5.854,5.854,5.854
	c3.233,0,5.854-2.621,5.854-5.854c0-69.45,56.503-125.952,125.955-125.952c3.233,0,5.854-2.621,5.854-5.854
	S255.418,146.836,252.185,146.836z"/>
<path d="M245.746,36.659c4.997,0,19.097,14.099,19.097,19.096c0,3.233,2.621,5.854,5.854,5.854s5.854-2.621,5.854-5.854
	c0-4.997,14.1-19.096,19.097-19.096c3.233,0,5.854-2.621,5.854-5.854s-2.621-5.854-5.854-5.854c-4.997,0-19.097-14.1-19.097-19.097
	c0-3.233-2.621-5.854-5.854-5.854c-3.233,0-5.854,2.621-5.854,5.854c0,4.997-14.099,19.097-19.097,19.097
	c-3.233,0-5.854,2.621-5.854,5.854S242.512,36.659,245.746,36.659z M270.695,19.542c3.092,4.162,7.1,8.171,11.263,11.263
	c-4.162,3.092-8.171,7.1-11.263,11.263c-3.092-4.162-7.1-8.171-11.263-11.263C263.595,27.713,267.604,23.705,270.695,19.542z"/>
<path d="M107.348,162.843c0-3.233-2.621-5.854-5.854-5.854c-8.474,0-29.249-20.776-29.249-29.249c0-3.233-2.621-5.854-5.854-5.854
	c-3.233,0-5.854,2.621-5.854,5.854c0,8.474-20.776,29.249-29.249,29.249c-3.233,0-5.854,2.621-5.854,5.854
	c0,3.233,2.621,5.854,5.854,5.854c8.474,0,29.249,20.774,29.249,29.249c0,3.233,2.621,5.854,5.854,5.854
	c3.233,0,5.854-2.621,5.854-5.854c0-8.474,20.774-29.249,29.249-29.249C104.726,168.697,107.348,166.075,107.348,162.843z
	 M66.391,182.771c-4.968-7.467-12.461-14.962-19.929-19.928c7.468-4.968,14.962-12.461,19.929-19.929
	c4.968,7.468,12.461,14.962,19.928,19.929C78.852,167.81,71.358,175.303,66.391,182.771z"/>
<path d="M480.711,207.402c-1.919,0-7.37-2.748-13.479-8.856c-6.109-6.109-8.857-11.56-8.857-13.479c0-3.233-2.621-5.854-5.854-5.854
	c-3.233,0-5.854,2.621-5.854,5.854c0,1.92-2.748,7.37-8.857,13.479c-6.109,6.108-11.56,8.856-13.48,8.856
	c-3.233,0-5.854,2.621-5.854,5.854s2.621,5.854,5.854,5.854c1.919,0,7.37,2.748,13.479,8.857s8.857,11.56,8.857,13.48
	c0,3.233,2.621,5.854,5.854,5.854c3.233,0,5.854-2.621,5.854-5.854c0-1.92,2.748-7.371,8.857-13.48
	c6.109-6.109,11.56-8.857,13.479-8.857c3.233,0,5.854-2.621,5.854-5.854S483.944,207.402,480.711,207.402z M452.521,227.166
	c-3.692-5.181-8.728-10.219-13.909-13.909c5.181-3.69,10.219-8.728,13.909-13.909c3.69,5.181,8.728,10.219,13.909,13.909
	C461.249,216.947,456.211,221.984,452.521,227.166z"/>
<path d="M295.259,78.039c0,3.233,2.621,5.854,5.854,5.854c10.696,0,35.766,25.071,35.766,35.769c0,3.233,2.621,5.854,5.854,5.854
	c3.233,0,5.854-2.621,5.854-5.854c0-10.698,25.074-35.769,35.771-35.769c3.233,0,5.854-2.621,5.854-5.854
	c0-3.233-2.621-5.854-5.854-5.854c-10.698,0-35.771-25.071-35.771-35.769c0-3.233-2.621-5.854-5.854-5.854
	c-3.233,0-5.854,2.621-5.854,5.854c0,10.697-25.07,35.769-35.766,35.769C297.881,72.185,295.259,74.806,295.259,78.039z
	 M342.734,52.564c6.027,9.607,15.869,19.448,25.476,25.475c-9.607,6.027-19.449,15.868-25.476,25.475
	c-6.026-9.607-15.868-19.448-25.474-25.475C326.867,72.012,336.708,62.171,342.734,52.564z"/>
<path d="M418.865,284.496c0-91.908-74.772-166.681-166.682-166.681c-91.908,0-166.682,74.772-166.682,166.681
	c0,53.247,25.099,100.74,64.087,131.277l-16.535,56.135h-3.312c-10.102,0-18.319,8.219-18.319,18.319v3.453
	c0,10.102,8.219,18.319,18.319,18.319h244.883c10.102,0,18.321-8.218,18.321-18.319v-3.453c0-10.102-8.219-18.319-18.321-18.319
	h-3.312l-16.536-56.135C393.766,385.236,418.865,337.743,418.865,284.496z M374.626,483.615c3.646,0,6.611,2.966,6.611,6.611v3.453
	c0,3.646-2.966,6.611-6.611,6.611H129.743c-3.646,0-6.611-2.966-6.611-6.611v-3.453c0-3.646,2.966-6.611,6.611-6.611H374.626z
	 M359.11,471.907H145.26l14.388-48.845c26.491,17.749,58.324,28.115,92.537,28.115s66.045-10.366,92.537-28.115L359.11,471.907z
	 M252.185,439.47c-85.452,0-154.974-69.52-154.974-154.974c0-85.452,69.52-154.973,154.974-154.973s154.974,69.52,154.974,154.973
	C407.158,369.948,337.637,439.47,252.185,439.47z"/>
<g>
</g>
<g>
</g>
<g>
</g>
<g>
</g>
<g>
</g>
<g>
</g>
<g>
</g>
<g>
</g>
<g>
</g>
<g>
</g>
<g>
</g>
<g>
</g>
<g>
</g>
<g>
</g>
<g>
</g>
</svg>
