<?xml version="1.0" encoding="UTF-8" standalone="no"?>
<!-- Generator: Adobe Illustrator 19.0.0, SVG Export Plug-In . SVG Version: 6.00 Build 0)  -->

<svg
   version="1.1"
   id="Layer_1"
   x="0px"
   y="0px"
   viewBox="0 0 511.999 511.999"
   style="enable-background:new 0 0 511.999 511.999;"
   xml:space="preserve"
   xmlns="http://www.w3.org/2000/svg"
   xmlns:svg="http://www.w3.org/2000/svg"><defs
   id="defs59" />

<g
   id="g10"
   transform="matrix(1.0990248,0,0,1.0990248,-25.348107,-52.137934)"
   style="stroke-width:0.909898">
	<path
   style="fill:#808080;stroke-width:0.827914"
   d="m 297.066,300.044 c 8.758,0 15.883,-7.125 15.883,-15.884 0,-8.759 -7.125,-15.884 -15.883,-15.884 -8.758,0 -15.883,7.125 -15.883,15.884 0,8.76 7.125,15.884 15.883,15.884 z"
   id="path4" />
	<path
   style="fill:#808080;stroke-width:0.827914"
   d="m 243.352,249.998 c 3.549,0 6.437,-2.888 6.437,-6.438 0,-3.549 -2.887,-6.437 -6.437,-6.437 -3.549,0 -6.437,2.888 -6.437,6.437 0,3.551 2.887,6.438 6.437,6.438 z"
   id="path6" />
	<path
   style="fill:#808080;stroke-width:0.827914"
   d="m 311.5,74.564 v -8.203 c 0,-3.237 -2.634,-5.871 -5.871,-5.871 h -99.26 c -3.237,0 -5.871,2.634 -5.871,5.871 v 8.203 c 0,3.237 2.634,5.871 5.871,5.871 h 99.26 c 3.237,0 5.871,-2.634 5.871,-5.871 z"
   id="path8" />
</g>
<path
   style="fill:#e6e6e6;stroke-width:1"
   d="m 299.22799,169.3925 c -1.89142,-1.17816 -3.041,-3.24982 -3.041,-5.47644 V 49.165776 H 215.8219 V 163.91496 c 0,2.22882 -1.14958,4.29828 -3.041,5.47644 -51.07498,31.81567 -106.04711,104.28866 -106.04711,188.22668 0,95.54042 47.43062,140.03884 149.26955,140.03884 101.83564,0 149.26516,-44.49842 149.26516,-140.03884 0,-83.93802 -54.96773,-156.41101 -106.04051,-188.22558 z m 1.90681,60.4079 c 16.74034,0 30.35946,13.62021 30.35946,30.36165 0,16.74035 -13.62022,30.36166 -30.35946,30.36166 -16.74035,0 -30.35946,-13.62021 -30.35946,-30.36166 0,-16.74144 13.61911,-30.36165 30.35946,-30.36165 z m -59.03302,-34.23792 c 11.01662,0 19.97807,8.96254 19.97807,19.97807 0,11.01662 -8.96255,19.97917 -19.97807,19.97917 -11.01663,0 -19.97807,-8.96365 -19.97807,-19.97917 0,-11.01553 8.96144,-19.97807 19.97807,-19.97807 z m 117.00218,76.93723 c 3.0432,-1.85845 7.01397,-0.89681 8.86913,2.14309 8.32731,13.6378 13.0696,33.0213 13.7477,35.91943 0.007,0.022 0.0176,0.0429 0.0242,0.0648 4.12244,15.07972 6.21388,30.38035 6.21388,45.47875 0,45.39962 -13.19709,78.7759 -39.22749,99.19908 -21.71453,17.03708 -52.04652,25.32043 -92.72912,25.32043 -40.6826,0 -71.01348,-8.28335 -92.72802,-25.32043 -26.0304,-20.42318 -39.22859,-53.79946 -39.22859,-99.19908 0,-15.02037 2.07496,-30.25286 6.16333,-45.27652 0.35389,-1.54963 5.13575,-21.9838 13.81255,-36.18759 1.85735,-3.04101 5.82813,-4.00265 8.86913,-2.1431 3.041,1.85735 4.00155,5.82923 2.1431,8.86913 -4.6225,7.56678 -8.08883,17.62286 -10.13631,24.51484 h 27.26241 c 3.13662,-21.69584 21.84861,-38.4197 44.3984,-38.4197 22.5487,0 41.25849,16.72386 44.39731,38.41751 l 106.13832,-0.002 c -2.04748,-6.88979 -5.51381,-16.94367 -10.13411,-24.50935 -1.85735,-3.0421 -0.899,-7.01288 2.1442,-8.86913 z"
   id="path12" />
<path
   style="fill:#ff55dd;stroke-width:1"
   d="m 136.94818,356.10582 c 0,41.8146 11.21665,70.94315 34.29068,89.04739 19.35382,15.18632 47.08002,22.56847 84.76228,22.56847 37.68337,0 65.40956,-7.38215 84.76339,-22.56847 23.07293,-18.10424 34.28958,-47.23279 34.28958,-89.04739 0,-12.36952 -1.52435,-24.9028 -4.53348,-37.32398 l -229.04117,0.005 c -3.00693,12.42668 -4.53128,24.95886 -4.53128,37.31849 z"
   id="potionColor" />
<path
   style="fill:#808080;stroke-width:1"
   d="m 216.55714,280.36543 c -15.41712,0 -28.31967,10.97046 -31.31121,25.51386 l 62.61804,-0.001 c -2.98935,-14.5423 -15.8908,-25.51276 -31.30683,-25.51276 z"
   id="path16" />
<path
   d="m 301.1348,290.52152 c 16.74034,0 30.35946,-13.62022 30.35946,-30.36166 0,-16.74145 -13.62022,-30.36166 -30.35946,-30.36166 -16.74035,0 -30.35946,13.62021 -30.35946,30.36166 0,16.74254 13.61911,30.36166 30.35946,30.36166 z m 0,-47.81747 c 9.62526,0 17.45581,7.83055 17.45581,17.45691 0,9.62635 -7.83055,17.45691 -17.45581,17.45691 -9.62526,0 -17.45581,-7.83056 -17.45581,-17.45691 0,-9.62636 7.83055,-17.45691 17.45581,-17.45691 z"
   id="path18"
   style="stroke-width:1" />
<path
   d="m 242.10178,235.52082 c 11.01662,0 19.97807,-8.96365 19.97807,-19.98027 0,-11.01663 -8.96255,-19.97807 -19.97807,-19.97807 -11.01663,0 -19.97807,8.96254 -19.97807,19.97807 0,11.01552 8.96144,19.98027 19.97807,19.98027 z m 0,-27.0536 c 3.90044,0 7.07442,3.17399 7.07442,7.07443 0,3.90044 -3.17288,7.07552 -7.07442,7.07552 -3.90044,0 -7.07442,-3.17398 -7.07442,-7.07552 0,-3.90044 3.17288,-7.07443 7.07442,-7.07443 z"
   id="path20"
   style="stroke-width:1" />
<path
   d="M 309.09174,160.3761 V 49.166875 h 1.45401 c 10.67263,0 19.35602,-8.683395 19.35602,-19.356025 v -9.0153 c 0,-10.67263 -8.68339,-19.356025 -19.35602,-19.356025 l -109.09031,-0.0011 c -10.67262,0 -19.35602,8.683395 -19.35602,19.356025 v 9.0153 c 0,10.67263 8.6834,19.356025 19.35602,19.356025 h 1.46061 V 160.375 C 149.79249,194.95691 93.827944,270.42255 93.827944,357.61808 c 0,102.91598 53.046636,152.94249 162.173196,152.94249 109.12438,0 162.16991,-50.02761 162.16991,-152.94249 0.002,-87.19663 -55.96015,-162.66117 -109.07931,-197.24198 z M 201.45654,36.262126 c -3.55754,0 -6.45237,-2.894832 -6.45237,-6.452375 v -9.0153 c 0,-3.557544 2.89483,-6.452375 6.45237,-6.452375 h 109.08921 c 3.55754,0 6.45237,2.894831 6.45237,6.452375 v 9.0153 c 0,3.557543 -2.89483,6.452375 -6.45237,6.452375 z m 54.5468,461.395894 c -101.83673,0 -149.26955,-44.49732 -149.26955,-140.03884 0,-83.93802 54.97213,-156.41211 106.04711,-188.22668 1.89142,-1.17816 3.041,-3.24982 3.041,-5.47644 V 49.165776 h 80.36509 V 163.91496 c 0,2.22882 1.14958,4.29828 3.041,5.47644 51.07278,31.81457 106.0416,104.28756 106.0416,188.22668 -10e-4,95.54262 -47.43171,140.03994 -149.26625,140.03994 z"
   id="path22"
   style="stroke-width:1" />
<path
   d="m 367.09277,305.87709 -106.13832,0.002 c -3.13882,-21.69365 -21.84861,-38.41751 -44.39731,-38.41751 -22.55198,0 -41.26178,16.72496 -44.3984,38.41971 h -27.26241 c 2.04748,-6.88979 5.51381,-16.94587 10.13631,-24.51485 1.85735,-3.0399 0.8979,-7.01178 -2.1431,-8.86913 -3.041,-1.85955 -7.01178,-0.89681 -8.86913,2.1431 -8.6757,14.20379 -13.45756,34.63906 -13.81254,36.18759 -4.08838,15.02367 -6.16334,30.25395 -6.16334,45.27652 0,45.39962 13.19819,78.7759 39.2286,99.19908 21.71563,17.03708 52.04651,25.32043 92.72801,25.32043 40.68151,0 71.01459,-8.28335 92.72912,-25.32043 26.03041,-20.42318 39.2275,-53.79946 39.2275,-99.19908 0,-15.0984 -2.09035,-30.40012 -6.21389,-45.47874 -0.007,-0.0231 -0.0176,-0.0429 -0.0242,-0.0649 -0.6792,-2.89812 -5.42149,-22.28272 -13.7477,-35.91942 -1.85515,-3.03991 -5.82593,-4.00265 -8.86913,-2.1431 -3.041,1.85735 -4.00155,5.82813 -2.1442,8.86913 4.6203,7.56678 8.08663,17.62066 10.13411,24.50935 z M 216.55714,280.36543 c 15.41603,0 28.31638,10.97046 31.30792,25.51276 l -62.61803,10e-4 c 2.99264,-14.5423 15.89409,-25.51386 31.31011,-25.51386 z m 153.96459,38.41641 c 3.00913,12.42118 4.53347,24.95446 4.53347,37.32398 0,41.8146 -11.21664,70.94315 -34.28957,89.04739 -19.35383,15.18632 -47.08002,22.56847 -84.76339,22.56847 -37.68226,0 -65.40846,-7.38215 -84.76228,-22.56847 -23.07403,-18.10424 -34.29068,-47.23279 -34.29068,-89.04739 0,-12.36073 1.52435,-24.89291 4.53348,-37.31958 z"
   id="path24"
   style="stroke-width:1" />
<g
   id="g26">
</g>
<g
   id="g28">
</g>
<g
   id="g30">
</g>
<g
   id="g32">
</g>
<g
   id="g34">
</g>
<g
   id="g36">
</g>
<g
   id="g38">
</g>
<g
   id="g40">
</g>
<g
   id="g42">
</g>
<g
   id="g44">
</g>
<g
   id="g46">
</g>
<g
   id="g48">
</g>
<g
   id="g50">
</g>
<g
   id="g52">
</g>
<g
   id="g54">
</g>
</svg>
