<?xml version="1.0" encoding="iso-8859-1"?>
<!-- Generator: Adobe Illustrator 19.0.0, SVG Export Plug-In . SVG Version: 6.00 Build 0)  -->
<svg version="1.1" id="Layer_1" xmlns="http://www.w3.org/2000/svg" xmlns:xlink="http://www.w3.org/1999/xlink" x="0px" y="0px"
	 viewBox="0 0 512 512" style="enable-background:new 0 0 512 512;" xml:space="preserve">
<g>
	<path style="fill:#808080;" d="M251.178,303.579c-1.57,0-2.845,1.276-2.845,2.846v7.21c0,1.57,1.276,2.846,2.845,2.846h9.639
		c1.571,0,2.847-1.277,2.847-2.846v-7.21c0-1.57-1.277-2.846-2.847-2.846H251.178z"/>
	<path style="fill:#808080;" d="M274.439,318.527l20.734,3.901v-24.796l-20.734,3.9c0.553,1.531,0.869,3.174,0.869,4.893v7.21
		C275.309,315.353,274.992,316.996,274.439,318.527z"/>
</g>
<path style="fill:#E6E6E6;" d="M201.585,274.004c-4.684,8.568-6.348,21.864-6.666,33.803l10.259,5.099v-22.295
	c0-1.733,0.771-3.374,2.106-4.482c1.333-1.105,3.088-1.56,4.791-1.24l0.973,0.183C209.028,281.73,205.175,278.016,201.585,274.004z"
	/>
<path style="fill:#808080;" d="M237.558,301.532l-20.734-3.9v24.796l20.734-3.901c-0.553-1.531-0.869-3.174-0.869-4.893v-7.21
	C236.689,304.705,237.005,303.063,237.558,301.532z"/>
<g>
	<path style="fill:#E6E6E6;" d="M255.999,158.349c-0.968,0-1.865-0.258-2.668-0.675l-2.985,44.715l5.653,2.809l5.652-2.809
		l-2.987-44.714C257.862,158.09,256.966,158.349,255.999,158.349z"/>
	<path style="fill:#E6E6E6;" d="M317.076,307.809c-0.316-11.941-1.975-25.243-6.658-33.813c-3.592,4.014-7.449,7.732-11.474,11.078
		l0.975-0.183c1.701-0.319,3.458,0.135,4.793,1.24c1.333,1.106,2.105,2.749,2.105,4.482v22.295L317.076,307.809z"/>
</g>
<path style="fill:#C43333;" d="M334.512,214.595v2.793c0,16.575-6.523,33.005-16.44,47.006c7.664,10.585,10.124,27.079,10.645,41.08
	c24.626-33.954,71.226-56.546,88.432-64.053c-7.782-11.532-28.595-38.213-62.184-51.921
	C350.854,201.732,344.387,213.348,334.512,214.595z"/>
<g>
	<path style="fill:#E6E6E6;" d="M322.868,137.071c0-14.495-8.478-24.619-20.618-24.619c-1.826,0-3.546-0.856-4.646-2.314
		c-1.099-1.457-1.453-3.345-0.954-5.101l8.267-29.059c-5.871-3.14-20.978-8.736-47.719-3.109c-0.01,0.002-0.543,0.123-1.198,0.123
		c-0.657,0-1.19-0.121-1.198-0.123c-26.702-5.618-41.804-0.048-47.719,3.116l8.265,29.052c0.501,1.757,0.148,3.645-0.952,5.101
		c-1.1,1.457-2.82,2.314-4.646,2.314c-12.14,0-20.62,10.123-20.62,24.619v80.317c0,17.429,8.683,36.289,23.822,51.747
		c13.534,13.819,30.433,22.749,43.051,22.749c12.616,0,29.515-8.929,43.049-22.749c15.138-15.457,23.821-34.319,23.821-51.747
		v-80.317H322.868z M298.964,250.478c-3.128,0-5.679-2.466-5.816-5.559c-0.476-0.616-2.567-1.846-5.828-1.846h-0.114v8.904
		c0,3.215-2.606,5.822-5.822,5.822s-5.822-2.607-5.822-5.822v-8.904h-37.193v8.904c0,3.215-2.606,5.822-5.822,5.822
		c-3.216,0-5.822-2.607-5.822-5.822v-8.904h-0.113c-3.261,0-5.352,1.23-5.828,1.846c-0.137,3.094-2.689,5.56-5.816,5.56
		c-3.215,0-5.822-2.607-5.822-5.822c0-7.417,7.672-13.227,17.466-13.227h60.708c9.794,0,17.466,5.81,17.466,13.227
		C304.786,247.871,302.18,250.478,298.964,250.478z M211.627,161.331c0-3.215,2.606-5.822,5.822-5.822h4.901
		c3.216,0,5.822,2.607,5.822,5.822c0,3.215-2.606,5.822-5.822,5.822h-4.901C214.233,167.153,211.627,164.546,211.627,161.331z
		 M283.825,161.331c0-3.215,2.606-5.822,5.822-5.822h4.901c3.216,0,5.822,2.607,5.822,5.822c0,3.215-2.606,5.822-5.822,5.822h-4.901
		C286.431,167.153,283.825,164.546,283.825,161.331z M321,154.189c-1.887,2.601-5.529,3.181-8.131,1.29l-8.714-6.327l-33.743,9.673
		l2.628,39.321c1.685,0.354,3.203,1.423,4.028,3.084c1.431,2.88,0.256,6.374-2.623,7.805l-15.854,7.877l-0.006-0.012
		c-0.802,0.398-1.686,0.621-2.59,0.621c-0.871,0-1.754-0.196-2.586-0.609l-15.856-7.877c-2.881-1.431-4.054-4.925-2.625-7.805
		c0.826-1.662,2.345-2.73,4.03-3.084l2.627-39.321l-33.743-9.673l-8.714,6.327c-2.6,1.889-6.241,1.312-8.13-1.29
		c-1.89-2.601-1.312-6.242,1.289-8.131l11.012-7.995c1.449-1.053,3.302-1.379,5.023-0.885c0,0,41.677,12.005,41.854,12.088v-0.616
		c0-3.215,2.606-5.822,5.822-5.822c3.215,0,5.821,2.607,5.821,5.822v0.616c0.178-0.084,41.853-12.088,41.853-12.088
		c1.723-0.494,3.575-0.168,5.024,0.885l11.012,7.994C322.311,147.946,322.89,151.587,321,154.189z"/>
	<path style="fill:#E6E6E6;" d="M334.512,148.502v53.959c3.89-2.524,9.816-13.122,13.648-33.262c0,0,4.23-22.201,2.162-25.016
		c-0.453-0.616-1.535-1.026-3.218-1.22C342.176,142.391,337.07,145.236,334.512,148.502z"/>
</g>
<g>
	<path style="fill:#333333;" d="M202.28,101.665l-7.57-26.611c-0.609-2.14,0.056-4.441,1.713-5.927
		c0.748-0.67,18.602-16.134,59.576-7.886c40.969-8.245,58.829,7.217,59.574,7.886c1.658,1.485,2.322,3.785,1.714,5.927
		l-7.571,26.611c13.898,3.289,23.629,15.779,24.691,32.37c3.591-1.776,7.563-2.769,11.49-2.768V82.841
		c0-39.922-39.488-71.197-89.898-71.197c-50.412,0-89.9,31.273-89.9,71.197v48.429c3.929,0.001,7.899,0.994,11.49,2.769
		C178.649,117.445,188.382,104.955,202.28,101.665z"/>
	<path style="fill:#333333;" d="M164.631,301.271c-51.106,23.476-93.597,58.88-99.59,83.291
		c-9.816,39.978-15.571,96.981-17.294,115.794h49.038v-54.272c0-0.076,0.001-0.153,0.005-0.228
		c0.077-1.964,1.021-19.476,10.269-29.322c2.201-2.345,5.886-2.46,8.229-0.258c2.344,2.202,2.459,5.886,0.258,8.229
		c-5.279,5.621-6.918,17.465-7.117,21.709v54.143h109.953l-34.041-168.398C180.515,320.804,173.389,310.518,164.631,301.271z"/>
	<path style="fill:#333333;" d="M347.367,301.286c-8.764,9.25-15.894,19.533-19.717,30.682l-34.037,168.39h109.952v-54.145
		c-0.197-4.229-1.834-16.083-7.116-21.707c-2.202-2.344-2.085-6.028,0.258-8.229c2.342-2.202,6.029-2.087,8.229,0.258
		c9.246,9.846,10.191,27.357,10.268,29.322c0.003,0.076,0.005,0.153,0.005,0.228v54.272h49.038
		c-1.722-18.817-7.479-75.818-17.294-115.794C440.963,360.153,398.47,324.761,347.367,301.286z"/>
</g>
<path style="fill:#E6E6E6;" d="M316.928,320.885l-10.112,5.026v3.536c0,1.733-0.772,3.376-2.105,4.482
	c-1.054,0.873-2.371,1.34-3.717,1.34c-0.359,0-0.718-0.033-1.077-0.1l-37.795-7.111c-0.431,0.04-0.865,0.066-1.306,0.066h-9.639
	c-0.44,0-0.874-0.027-1.305-0.066l-37.795,7.111c-0.357,0.068-0.717,0.1-1.076,0.1c-1.346,0-2.663-0.467-3.716-1.34
	c-1.334-1.106-2.106-2.749-2.106-4.482v-3.537l-10.114-5.026c0.163,3.383,0.403,6.34,0.656,8.608l34.539,170.864h51.472
	l34.538-170.864C316.526,327.224,316.765,324.268,316.928,320.885z M260.111,462.675c-1.084,1.083-2.586,1.701-4.11,1.701
	c-1.537,0-3.039-0.617-4.122-1.701c-1.083-1.083-1.7-2.585-1.7-4.121c0-1.537,0.617-3.039,1.7-4.122
	c1.083-1.083,2.585-1.7,4.122-1.7c1.536,0,3.027,0.617,4.11,1.7c1.083,1.095,1.712,2.585,1.712,4.122
	S261.194,461.581,260.111,462.675z M260.111,413.014c-1.084,1.083-2.574,1.7-4.11,1.7c-1.537,0-3.039-0.617-4.122-1.7
	c-1.083-1.083-1.7-2.585-1.7-4.122c0-1.525,0.617-3.027,1.7-4.11c1.083-1.083,2.585-1.712,4.122-1.712
	c1.536,0,3.027,0.629,4.11,1.712c1.083,1.083,1.712,2.585,1.712,4.11C261.823,410.43,261.194,411.932,260.111,413.014z
	 M260.111,363.354c-1.084,1.083-2.586,1.7-4.11,1.7c-1.537,0-3.039-0.617-4.122-1.7c-1.083-1.083-1.7-2.585-1.7-4.122
	c0-1.525,0.617-3.027,1.7-4.11c1.083-1.083,2.585-1.712,4.122-1.712c1.525,0,3.027,0.629,4.11,1.712
	c1.083,1.083,1.712,2.585,1.712,4.11C261.823,360.768,261.194,362.271,260.111,363.354z"/>
<path style="fill:#C43333;" d="M183.279,305.476c0.52-14.001,2.981-30.495,10.644-41.081c-9.917-14.002-16.44-30.43-16.44-47.006
	v-2.805c-9.882-1.289-16.345-12.879-20.449-25.086c-33.693,13.737-54.446,40.392-62.197,51.919
	C112.032,248.916,158.647,271.511,183.279,305.476z"/>
<path style="fill:#E6E6E6;" d="M177.482,202.429v-53.928c-2.558-3.265-7.665-6.101-12.592-5.54c-1.683,0.194-2.764,0.605-3.217,1.22
	c-2.069,2.814,2.161,25.017,2.161,25.017C167.651,189.26,173.545,199.851,177.482,202.429z"/>
<path d="M217.449,167.153h4.901c3.216,0,5.822-2.607,5.822-5.822c0-3.215-2.606-5.822-5.822-5.822h-4.901
	c-3.216,0-5.822,2.607-5.822,5.822C211.627,164.546,214.233,167.153,217.449,167.153z"/>
<path d="M294.548,167.153c3.216,0,5.822-2.607,5.822-5.822c0-3.215-2.606-5.822-5.822-5.822h-4.901
	c-3.216,0-5.822,2.607-5.822,5.822c0,3.215,2.606,5.822,5.822,5.822H294.548z"/>
<path d="M256.001,353.41c-1.537,0-3.039,0.629-4.122,1.712c-1.083,1.083-1.7,2.585-1.7,4.11c0,1.537,0.617,3.039,1.7,4.122
	c1.083,1.083,2.585,1.7,4.122,1.7c1.525,0,3.027-0.617,4.11-1.7c1.083-1.083,1.712-2.585,1.712-4.122
	c0-1.525-0.629-3.027-1.712-4.11C259.027,354.039,257.525,353.41,256.001,353.41z"/>
<path d="M256.001,403.07c-1.537,0-3.039,0.629-4.122,1.712c-1.083,1.083-1.7,2.585-1.7,4.11c0,1.537,0.617,3.039,1.7,4.122
	c1.083,1.083,2.585,1.7,4.122,1.7c1.536,0,3.027-0.617,4.11-1.7c1.083-1.083,1.712-2.585,1.712-4.122
	c0-1.525-0.629-3.027-1.712-4.11C259.027,403.699,257.536,403.07,256.001,403.07z"/>
<path d="M256.001,452.733c-1.537,0-3.039,0.617-4.122,1.7c-1.083,1.083-1.7,2.585-1.7,4.122s0.617,3.039,1.7,4.121
	c1.083,1.083,2.585,1.701,4.122,1.701c1.525,0,3.027-0.617,4.11-1.701c1.083-1.095,1.712-2.585,1.712-4.121
	c0-1.537-0.629-3.027-1.712-4.122C259.027,453.35,257.536,452.733,256.001,452.733z"/>
<path d="M319.709,146.058l-11.012-7.994c-1.45-1.053-3.301-1.379-5.024-0.885c0,0-41.675,12.004-41.853,12.088v-0.616
	c0-3.215-2.606-5.822-5.821-5.822c-3.216,0-5.822,2.607-5.822,5.822v0.616c-0.177-0.083-41.854-12.088-41.854-12.088
	c-1.722-0.494-3.575-0.168-5.023,0.885l-11.012,7.995c-2.601,1.89-3.179,5.53-1.289,8.131c1.889,2.602,5.53,3.179,8.13,1.29
	l8.714-6.327l33.743,9.673l-2.627,39.321c-1.685,0.354-3.204,1.423-4.03,3.084c-1.431,2.88-0.256,6.374,2.625,7.805l15.856,7.877
	c0.833,0.413,1.715,0.609,2.586,0.609c0.902,0,1.786-0.222,2.59-0.621l0.006,0.012l15.854-7.877c2.88-1.431,4.053-4.925,2.623-7.805
	c-0.824-1.662-2.343-2.73-4.028-3.084l-2.628-39.321l33.743-9.673l8.714,6.327c2.602,1.891,6.243,1.311,8.131-1.29
	C322.89,151.587,322.311,147.946,319.709,146.058z M255.999,205.197l-5.653-2.809l2.985-44.715c0.802,0.417,1.7,0.675,2.668,0.675
	c0.966,0,1.864-0.258,2.665-0.675l2.987,44.714L255.999,205.197z"/>
<path d="M287.32,231.428h-60.708c-9.794,0-17.466,5.81-17.466,13.227c0,3.215,2.607,5.822,5.822,5.822
	c3.128,0,5.679-2.466,5.816-5.56c0.476-0.616,2.566-1.846,5.828-1.846h0.113v8.904c0,3.215,2.606,5.822,5.822,5.822
	s5.822-2.607,5.822-5.822v-8.904h37.193v8.904c0,3.215,2.606,5.822,5.822,5.822c3.216,0,5.822-2.607,5.822-5.822v-8.904h0.114
	c3.26,0,5.352,1.231,5.828,1.846c0.137,3.094,2.69,5.559,5.816,5.559c3.216,0,5.822-2.607,5.822-5.822
	C304.786,237.239,297.114,231.428,287.32,231.428z"/>
<path d="M356.348,292.618c30.125-26.724,70.907-42.816,71.491-43.042c1.561-0.607,2.788-1.857,3.362-3.431s0.444-3.32-0.36-4.79
	c-1.014-1.85-24.627-44.094-72.705-63.102c0.571-2.424,1.723-8.251,1.723-8.251c2.961-15.542,4.918-25.81-0.157-32.714
	c-0.631-0.858-1.355-1.624-2.162-2.302V82.841C357.541,36.387,312.938,0,255.999,0c-56.941,0-101.544,36.387-101.544,82.841v52.145
	c-0.807,0.678-1.531,1.443-2.162,2.302c-5.074,6.905-3.118,17.171-0.157,32.714c0,0,1.152,5.823,1.722,8.245
	c-48.08,19.006-71.69,61.259-72.702,63.109c-0.805,1.471-0.936,3.217-0.362,4.791c0.575,1.575,1.8,2.825,3.364,3.431
	c0.583,0.226,41.375,16.294,71.504,43.034c-45.063,21.485-94.061,57.13-101.928,89.175
	c-12.076,49.185-18.082,123.187-18.141,123.928c-0.129,1.62,0.424,3.22,1.525,4.413C38.22,511.321,39.77,512,41.395,512h429.208
	c1.624,0,3.175-0.679,4.278-1.872c1.102-1.194,1.656-2.793,1.527-4.413c-0.059-0.742-6.068-74.743-18.144-123.928
	C450.398,349.745,401.409,314.105,356.348,292.618z M417.149,241.42c-17.206,7.507-63.806,30.1-88.432,64.053
	c-0.519-14.001-2.981-30.494-10.645-41.08c9.918-14.002,16.44-30.43,16.44-47.006v-2.793c9.874-1.246,16.341-12.863,20.453-25.096
	C388.554,203.207,409.367,229.889,417.149,241.42z M304.713,286.132c-1.334-1.105-3.091-1.559-4.793-1.24l-0.975,0.183
	c4.025-3.346,7.882-7.063,11.474-11.078c4.682,8.569,6.341,21.871,6.658,33.813l-10.258,5.098v-22.295
	C306.817,288.881,306.045,287.239,304.713,286.132z M299.047,269.136c-13.534,13.819-30.432,22.749-43.049,22.749
	c-12.618,0-29.517-8.929-43.051-22.749c-15.139-15.457-23.822-34.319-23.822-51.747v-80.317c0-14.495,8.48-24.619,20.62-24.619
	c1.826,0,3.546-0.856,4.646-2.314c1.1-1.457,1.453-3.345,0.952-5.101l-8.265-29.052c5.915-3.164,21.018-8.734,47.719-3.116
	c0.009,0.002,0.541,0.123,1.198,0.123c0.656,0,1.188-0.121,1.198-0.123c26.743-5.627,41.849-0.031,47.719,3.109l-8.267,29.059
	c-0.5,1.757-0.146,3.645,0.954,5.101c1.1,1.457,2.82,2.314,4.646,2.314c12.14,0,20.618,10.123,20.618,24.619v80.317
	C322.868,234.817,314.185,253.678,299.047,269.136z M274.439,301.532l20.734-3.9v24.796l-20.734-3.901
	c0.553-1.531,0.869-3.174,0.869-4.893v-7.21C275.309,304.705,274.992,303.063,274.439,301.532z M263.665,306.424v7.21
	c0,1.57-1.277,2.846-2.847,2.846h-9.639c-1.57,0-2.845-1.277-2.845-2.846v-7.21c0-1.57,1.276-2.846,2.845-2.846h9.639
	C262.387,303.579,263.665,304.855,263.665,306.424z M237.558,318.527l-20.734,3.901v-24.796l20.734,3.9
	c-0.553,1.531-0.869,3.174-0.869,4.893v7.21C236.689,315.353,237.005,316.996,237.558,318.527z M213.051,285.074l-0.973-0.183
	c-1.704-0.319-3.459,0.135-4.791,1.24c-1.334,1.106-2.106,2.749-2.106,4.482v22.295l-10.259-5.099
	c0.317-11.94,1.981-25.236,6.666-33.803C205.175,278.016,209.028,281.73,213.051,285.074z M347.104,142.963
	c1.683,0.194,2.765,0.604,3.218,1.22c2.068,2.814-2.162,25.016-2.162,25.016c-3.832,20.14-9.758,30.738-13.648,33.262v-53.959
	C337.07,145.236,342.176,142.391,347.104,142.963z M166.099,82.841c0-39.923,39.488-71.197,89.9-71.197
	c50.41,0,89.898,31.273,89.898,71.197v48.427c-3.927-0.001-7.899,0.992-11.49,2.768c-1.062-16.591-10.794-29.081-24.691-32.37
	l7.571-26.611c0.609-2.14-0.056-4.441-1.714-5.927c-0.746-0.67-18.606-16.131-59.574-7.886c-40.974-8.247-58.828,7.217-59.576,7.886
	c-1.657,1.486-2.321,3.785-1.713,5.927l7.57,26.611c-13.898,3.291-23.631,15.78-24.692,32.374c-3.59-1.775-7.56-2.768-11.49-2.769
	V82.841H166.099z M161.674,144.183c0.452-0.615,1.535-1.026,3.217-1.22c4.925-0.561,10.032,2.275,12.592,5.54v53.928
	c-3.938-2.579-9.831-13.17-13.647-33.231C163.837,169.199,159.605,146.997,161.674,144.183z M94.836,241.417
	c7.753-11.527,28.505-38.182,62.197-51.919c4.104,12.206,10.567,23.797,20.449,25.086v2.805c0,16.575,6.523,33.005,16.44,47.006
	c-7.663,10.585-10.123,27.079-10.644,41.081C158.647,271.511,112.032,248.916,94.836,241.417z M108.429,500.356v-54.143
	c0.199-4.244,1.837-16.087,7.117-21.709c2.202-2.344,2.087-6.028-0.258-8.229c-2.344-2.202-6.028-2.087-8.229,0.258
	c-9.248,9.846-10.191,27.357-10.269,29.322c-0.003,0.076-0.005,0.153-0.005,0.228v54.272H47.747
	c1.721-18.812,7.478-75.815,17.294-115.794c5.993-24.411,48.484-59.815,99.59-83.291c8.759,9.248,15.886,19.533,19.711,30.688
	l34.041,168.398L108.429,500.356L108.429,500.356z M230.262,500.356l-34.539-170.864c-0.254-2.268-0.494-5.225-0.656-8.608
	l10.114,5.026v3.537c0,1.733,0.771,3.376,2.106,4.482c1.053,0.873,2.37,1.34,3.716,1.34c0.359,0,0.718-0.033,1.076-0.1l37.795-7.111
	c0.431,0.04,0.865,0.066,1.305,0.066h9.639c0.441,0,0.876-0.027,1.306-0.066l37.795,7.111c0.359,0.068,0.718,0.1,1.077,0.1
	c1.346,0,2.663-0.467,3.717-1.34c1.333-1.106,2.105-2.749,2.105-4.482v-3.536l10.112-5.026c-0.163,3.383-0.403,6.339-0.657,8.607
	l-34.538,170.864H230.262z M415.21,500.356v-54.272c0-0.076-0.001-0.153-0.005-0.228c-0.077-1.964-1.021-19.476-10.268-29.322
	c-2.201-2.345-5.888-2.46-8.229-0.258c-2.344,2.201-2.459,5.886-0.258,8.229c5.282,5.624,6.919,17.478,7.116,21.707v54.145H293.614
	l34.037-168.389c3.822-11.149,10.951-21.432,19.717-30.682c51.103,23.476,93.596,58.867,99.588,83.277
	c9.815,39.976,15.571,96.977,17.294,115.794L415.21,500.356L415.21,500.356z"/>
<g>
</g>
<g>
</g>
<g>
</g>
<g>
</g>
<g>
</g>
<g>
</g>
<g>
</g>
<g>
</g>
<g>
</g>
<g>
</g>
<g>
</g>
<g>
</g>
<g>
</g>
<g>
</g>
<g>
</g>
</svg>
