<?xml version="1.0" encoding="iso-8859-1"?>
<!-- Generator: Adobe Illustrator 19.0.0, SVG Export Plug-In . SVG Version: 6.00 Build 0)  -->
<svg version="1.1" id="Layer_1" xmlns="http://www.w3.org/2000/svg" xmlns:xlink="http://www.w3.org/1999/xlink" x="0px" y="0px"
	 viewBox="0 0 512 512" style="enable-background:new 0 0 512 512;" xml:space="preserve">
<g>
	<path style="fill:#333333;" d="M325.521,336.355c0,11.552,9.399,20.949,20.952,20.949c11.554,0,20.954-9.397,20.954-20.949
		c0-11.553-9.4-20.952-20.954-20.952C334.919,315.403,325.521,324.803,325.521,336.355z"/>
	<path style="fill:#333333;" d="M234.186,118.716c-5.227,0-9.48,4.253-9.48,9.48c0,5.227,4.252,9.478,9.48,9.478
		c5.228,0,9.48-4.252,9.48-9.478C243.665,122.969,239.414,118.716,234.186,118.716z"/>
</g>
<path style="fill:#E6E6E6;" d="M205.854,326.787c0-15.448-12.569-28.017-28.018-28.017c-2.82,0-5.608,0.419-8.286,1.243
	c-1.94,0.597-4.041,0.106-5.513-1.28c-1.474-1.387-2.087-3.458-1.61-5.425c0.867-3.563,1.306-7.222,1.306-10.872
	c0-25.336-20.611-45.949-45.947-45.949c-23.27,0-42.879,17.407-45.612,40.488c-0.207,1.76-1.233,3.317-2.765,4.205
	c-1.53,0.887-3.392,1.005-5.023,0.308c-4.74-2.017-9.774-3.04-14.961-3.04c-21.049,0-38.175,17.125-38.175,38.176
	s17.125,38.177,38.175,38.177h128.41C193.285,354.803,205.854,342.235,205.854,326.787z"/>
<path style="fill:#333333;" d="M215.141,170.103c-15.726,0-28.521,12.795-28.521,28.522s12.795,28.522,28.521,28.522
	c15.728,0,28.524-12.795,28.524-28.522S230.869,170.103,215.141,170.103z"/>
<path style="fill:#808080;" d="M338.95,234.121c0-15.164,12.336-27.499,27.499-27.499c1.167,0,2.323,0.074,3.469,0.219
	c1.539-23.471,18.91-42.687,41.507-47.054c-31.345-44.546-81.741-70.889-136.607-70.889c-80.682,0-149.969,58.274-164.357,136.807
	c2.401-0.307,4.846-0.468,7.324-0.468c31.538,0,57.197,25.66,57.197,57.199c0,1.736-0.08,3.473-0.239,5.204
	c1.026-0.08,2.057-0.12,3.09-0.12c21.652,0,39.268,17.615,39.268,39.267c0,21.651-17.616,39.265-39.268,39.265h-28.749
	c31.769,36.387,76.963,57.045,125.733,57.045c90.256,0,164.012-71.93,166.992-161.474h-75.359
	C351.286,261.623,338.95,249.287,338.95,234.121z M215.141,238.397c-21.93,0-39.771-17.841-39.771-39.772
	c0-21.93,17.841-39.772,39.771-39.772c21.931,0,39.775,17.841,39.775,39.772C254.915,220.555,237.074,238.397,215.141,238.397z
	 M234.186,148.925c-11.43,0-20.73-9.3-20.73-20.729c0-11.43,9.3-20.73,20.73-20.73c11.43,0,20.73,9.3,20.73,20.73
	C254.915,139.625,245.616,148.925,234.186,148.925z M378.676,336.355c0,17.754-14.447,32.2-32.204,32.2
	c-17.756,0-32.202-14.445-32.202-32.2c0-17.756,14.445-32.202,32.202-32.202C364.23,304.153,378.676,318.598,378.676,336.355z"/>
<path style="fill:#E6E6E6;" d="M478.567,206.009c-3.356,0-6.616,0.759-9.687,2.258c-1.607,0.784-3.491,0.757-5.075-0.071
	c-1.583-0.829-2.679-2.361-2.951-4.128c-2.985-19.363-20.037-33.964-39.664-33.964c-22.129,0-40.132,18.004-40.132,40.135
	c0,1.117,0.054,2.279,0.165,3.553c0.174,1.999-0.729,3.941-2.372,5.093c-1.641,1.154-3.777,1.344-5.596,0.501
	c-2.169-1.005-4.459-1.513-6.806-1.513c-8.96,0-16.249,7.29-16.249,16.249c0,8.961,7.289,16.251,16.249,16.251h112.117
	c12.231,0,22.182-9.952,22.182-22.183C500.75,215.959,490.799,206.009,478.567,206.009z"/>
<path d="M478.567,194.759c-2.738,0-5.428,0.332-8.051,0.99c-5.994-20.707-24.241-35.439-46.059-36.784
	C391.376,107.999,335.669,77.65,274.82,77.65c-43.46,0-85.328,15.811-117.894,44.519c-31.377,27.66-52.006,65.326-58.355,106.388
	c-17.86,6.374-31.762,21.395-36.35,40.316c-4.149-1.11-8.431-1.671-12.795-1.671C22.172,267.2,0,289.372,0,316.626
	c0,27.254,22.172,49.427,49.425,49.427h85.061c16.055,20.433,36.657,37.383,59.766,49.103c25.11,12.735,52.217,19.193,80.567,19.193
	c96.458,0,175.268-76.976,178.251-172.725h25.497c18.435,0,33.433-14.998,33.433-33.434
	C512,209.755,497.002,194.759,478.567,194.759z M49.425,354.803c-21.049,0-38.175-17.126-38.175-38.177
	c0-21.051,17.125-38.176,38.175-38.176c5.186,0,10.221,1.023,14.961,3.04c1.631,0.695,3.492,0.578,5.023-0.308
	c1.532-0.889,2.557-2.447,2.765-4.205c2.734-23.082,22.342-40.488,45.612-40.488c25.336,0,45.947,20.612,45.947,45.949
	c0,3.651-0.44,7.309-1.306,10.872c-0.478,1.967,0.136,4.038,1.61,5.425c1.473,1.385,3.574,1.878,5.513,1.28
	c2.678-0.825,5.465-1.243,8.286-1.243c15.449,0,28.018,12.569,28.018,28.017c0,15.447-12.569,28.015-28.018,28.015L49.425,354.803
	L49.425,354.803z M274.818,423.098c-48.77,0-93.964-20.658-125.733-57.045h28.749c21.652,0,39.268-17.614,39.268-39.265
	c0-21.652-17.616-39.267-39.268-39.267c-1.034,0-2.064,0.04-3.09,0.12c0.159-1.731,0.239-3.468,0.239-5.204
	c0-31.539-25.659-57.199-57.197-57.199c-2.478,0-4.923,0.161-7.324,0.468c14.388-78.533,83.675-136.807,164.357-136.807
	c54.866,0,105.261,26.343,136.607,70.889c-22.597,4.366-39.967,23.583-41.507,47.054c-1.145-0.146-2.302-0.219-3.468-0.219
	c-15.163,0-27.499,12.336-27.499,27.499c0,15.164,12.336,27.502,27.499,27.502h75.359
	C438.832,351.167,365.075,423.098,274.818,423.098z M478.567,250.373H366.451c-8.96,0-16.249-7.29-16.249-16.251
	c0-8.96,7.289-16.249,16.249-16.249c2.348,0,4.637,0.509,6.806,1.513c1.819,0.844,3.955,0.654,5.596-0.501
	c1.643-1.152,2.547-3.094,2.372-5.093c-0.112-1.274-0.165-2.436-0.165-3.553c0-22.131,18.003-40.135,40.132-40.135
	c19.627,0,36.68,14.602,39.664,33.964c0.272,1.766,1.368,3.299,2.951,4.128c1.584,0.828,3.469,0.856,5.075,0.071
	c3.07-1.499,6.331-2.258,9.687-2.258c12.231,0,22.182,9.951,22.182,22.181C500.75,240.422,490.799,250.373,478.567,250.373z"/>
<path d="M314.27,336.355c0,17.754,14.445,32.2,32.202,32.2c17.758,0,32.204-14.445,32.204-32.2
	c0-17.756-14.447-32.202-32.204-32.202C328.716,304.153,314.27,318.598,314.27,336.355z M367.426,336.355
	c0,11.552-9.4,20.949-20.954,20.949c-11.553,0-20.952-9.397-20.952-20.949c0-11.553,9.399-20.952,20.952-20.952
	C358.025,315.403,367.426,324.803,367.426,336.355z"/>
<path d="M234.186,107.466c-11.43,0-20.73,9.3-20.73,20.73c0,11.429,9.3,20.729,20.73,20.729c11.43,0,20.73-9.3,20.73-20.729
	C254.915,116.765,245.616,107.466,234.186,107.466z M234.186,137.674c-5.227,0-9.48-4.252-9.48-9.478s4.252-9.48,9.48-9.48
	c5.228,0,9.48,4.253,9.48,9.48S239.414,137.674,234.186,137.674z"/>
<path d="M215.141,158.853c-21.93,0-39.771,17.841-39.771,39.772c0,21.93,17.841,39.772,39.771,39.772
	c21.931,0,39.775-17.841,39.775-39.772S237.074,158.853,215.141,158.853z M215.141,227.146c-15.726,0-28.521-12.795-28.521-28.522
	s12.795-28.522,28.521-28.522c15.728,0,28.524,12.795,28.524,28.522S230.869,227.146,215.141,227.146z"/>
<g>
</g>
<g>
</g>
<g>
</g>
<g>
</g>
<g>
</g>
<g>
</g>
<g>
</g>
<g>
</g>
<g>
</g>
<g>
</g>
<g>
</g>
<g>
</g>
<g>
</g>
<g>
</g>
<g>
</g>
</svg>
