<?xml version="1.0" encoding="iso-8859-1"?>
<!-- Generator: Adobe Illustrator 19.0.0, SVG Export Plug-In . SVG Version: 6.00 Build 0)  -->
<svg version="1.1" id="Layer_1" xmlns="http://www.w3.org/2000/svg" xmlns:xlink="http://www.w3.org/1999/xlink" x="0px" y="0px"
	 viewBox="0 0 512.001 512.001" style="enable-background:new 0 0 512.001 512.001;" xml:space="preserve">
<path style="fill:#E6E6E6;" d="M259.068,263.293l-0.059,0.038l-0.003-0.005c-1.807,1.161-4.175,1.255-6.117,0.092v14.168
	c1.017,0.029,2.042,0.056,3.109,0.056c1.068,0,2.092-0.026,3.111-0.056v-14.318l-0.026,0.017
	C259.078,263.288,259.073,263.29,259.068,263.293z"/>
<path style="fill:#FFAA2A;" d="M302.607,186.179c14.157,0,23.551-5.88,23.551-9.768c0-3.89-9.395-9.77-23.553-9.77
	c-14.157,0-23.551,5.881-23.551,9.77C279.054,180.299,288.449,186.179,302.607,186.179z M298.496,172.301
	c1.081-1.08,2.578-1.695,4.11-1.695c1.533,0,3.03,0.615,4.11,1.695c1.08,1.08,1.695,2.578,1.695,4.11
	c0,1.521-0.615,3.019-1.695,4.11c-1.09,1.08-2.578,1.695-4.11,1.695c-1.533,0-3.029-0.615-4.11-1.695
	c-1.08-1.08-1.695-2.578-1.695-4.11C296.801,174.879,297.417,173.381,298.496,172.301z"/>
<g>
	<path style="fill:#E6E6E6;" d="M288.551,270.286c0.477-0.421,0.786-0.802,0.898-1.116c0.016-1.156,0.376-2.227,0.974-3.126
		l-1.872-0.535V270.286z"/>
	<path style="fill:#E6E6E6;" d="M235.059,275.268c1.871,0.476,3.938,0.909,6.22,1.271v-16.13l-6.22,1.779V275.268z"/>
	<path style="fill:#E6E6E6;" d="M270.72,276.538c2.282-0.362,4.348-0.795,6.219-1.271v-13.08l-6.219-1.779V276.538z"/>
	<path style="fill:#E6E6E6;" d="M335.779,291.432c-19.303,26.793-48.397,44.541-79.689,44.598c-0.008,0-0.016,0.002-0.023,0.002
		c-0.022,0-0.043-0.001-0.064-0.001c-0.022,0-0.043,0.001-0.065,0.001c-0.008,0-0.015-0.002-0.024-0.002
		c-31.295-0.057-60.393-17.809-79.696-44.609c3.799,18.118,13.122,47.795,13.512,48.778c15.104,15.579,39.713,24.863,66.182,24.863
		c26.662,0,51.401-9.399,66.478-25.167C322.741,339.013,331.98,309.545,335.779,291.432z"/>
</g>
<g>
	<path style="fill:#7DA1BC;" d="M93.981,470.568c0.081,2.662-1.657,5.038-4.218,5.765c-2.565,0.727-5.29-0.383-6.617-2.689
		c-1.408-2.449-34.168-60.508-4.648-106.638c5.811-9.081,8.862-18.287,10.242-26.866c-16.863,9.637-52.087,35.289-55.905,82.982
		v77.267h65.828v-73.953C95.618,438.439,93.443,453.281,93.981,470.568z"/>
	<path style="fill:#7DA1BC;" d="M166.94,475.818c-1.959,1.095-4.379,0.959-6.205-0.347c-1.828-1.306-2.737-3.55-2.336-5.76
		c0.071-0.387,6.097-35.42-6.756-76.071c-2.487,8.663-5.153,20.372-6.161,33.234c-2.406,30.732-11.343,49.701-11.723,50.493
		c-0.94,1.963-2.9,3.237-5.076,3.296c-0.055,0.001-3.27,0.309-5.251-3.013c-0.583-0.976-7.317-13.518-13.159-31.02v53.76h139.92
		V376.54c-19.795-0.918-38.481-6.59-53.426-15.939C212.103,413.545,201.44,456.57,166.94,475.818z M234.474,384.296
		c1.08-1.08,2.578-1.696,4.11-1.696c1.521,0,3.019,0.615,4.099,1.696c1.09,1.091,1.707,2.578,1.707,4.109
		c0,1.521-0.615,3.019-1.707,4.099c-1.081,1.091-2.579,1.707-4.099,1.707c-1.533,0-3.03-0.615-4.11-1.707
		c-1.08-1.08-1.695-2.566-1.695-4.099C232.779,386.873,233.394,385.376,234.474,384.296z"/>
</g>
<path style="fill:#E6E6E6;" d="M222.547,269.17c0.113,0.315,0.421,0.697,0.901,1.118v-4.779l-1.874,0.536
	C222.171,266.944,222.531,268.013,222.547,269.17z"/>
<g>
	<path style="fill:#7DA1BC;" d="M383.318,480.663c-2.178,0-4.137-1.332-5.078-3.296c-0.38-0.792-9.318-19.761-11.725-50.493
		c-1.007-12.86-3.673-24.569-6.16-33.233c-12.856,40.651-6.827,75.686-6.758,76.077c0.397,2.208-0.514,4.451-2.342,5.754
		c-1.825,1.305-4.239,1.44-6.199,0.347c-34.527-19.263-45.179-62.343-29.789-115.349c-14.933,9.4-33.63,15.113-53.464,16.059V500.39
		h139.921v-53.758c-5.84,17.501-12.611,30.02-13.158,31.018C387.548,479.512,385.717,480.663,383.318,480.663z"/>
	<path style="fill:#7DA1BC;" d="M423.295,340.135c1.37,8.595,4.409,17.81,10.206,26.87c29.522,46.131-3.238,104.188-4.648,106.638
		c-1.327,2.308-4.053,3.417-6.617,2.689c-2.561-0.727-4.3-3.104-4.218-5.765c0.538-17.285-1.637-32.124-4.68-44.129v73.95h65.827
		v-77.267C475.336,375.306,440.164,349.737,423.295,340.135z"/>
</g>
<path style="fill:#E6E6E6;" d="M221.339,59.643c-9.289,2.449-22.932,6.722-32,19.372l19.001,11.849
	C211.877,77.842,216.219,67.406,221.339,59.643z"/>
<path style="fill:#754C24;" d="M423.72,373.264c-23.949-37.426-7.961-75.781-6.815-78.411
	c23.544-57.701,13.223-106.838-6.342-128.078c-12.619-13.701-12.461-22.136-12.08-42.516c0.078-4.146,0.166-8.845,0.166-14.284
	c0-40.469-23.689-69.294-70.409-85.671c-34.669-12.152-69.722-12.672-72.232-12.693c-2.283,0.02-37.699,0.526-72.497,12.78
	c-46.556,16.395-70.161,45.189-70.161,85.583c0,5.442,0.088,10.142,0.166,14.29c0.382,20.376,0.54,28.811-12.08,42.51
	c-19.563,21.239-29.885,70.375-6.342,128.078c1.146,2.631,17.137,40.985-6.816,78.411c-15.099,23.596-10.91,51.842-4.794,71.288
	c4.365-37.052,19.199-58.426,19.961-59.503c0.002-0.003,0.007-0.007,0.009-0.01c0.002-0.002,0.002-0.006,0.005-0.008
	c18.542-25.959,9.263-57.861-1.48-94.803c-2.859-9.829-5.815-19.993-8.339-30.412c-6.457-26.654,1.526-36.737,9.979-47.414
	c8.344-10.539,17.8-22.485,15.93-57.767c-3.897-73.547,16.607-86.667,18.957-87.921c0,0,4.478-2.289,7.534,1.684
	c3.421,4.447-2.069,8.561-2.069,8.561s0.088-0.037,0.244-0.14c-0.166,0.11-16.535,11.832-13.072,77.203
	c2.103,39.665-9.277,54.039-18.422,65.59c-7.779,9.828-12.921,16.322-7.797,37.472c2.463,10.163,5.382,20.199,8.203,29.903
	c10.948,37.642,21.271,73.222,0.666,103.484c-2.749,25.318,7.201,53.569,13.994,69.304c2.368-8.024,5.008-19.588,6.12-33.808
	c1.919-24.536,9.27-44.658,11.517-50.337c-1.197-7.678-6.809-43.248-16.262-97.018c-6.756-38.44-2.897-56.126,1.19-74.85
	c2.496-11.439,5.079-23.267,5.079-40.919c0-29.049,0-50.036,11.308-65.787c1.871-2.604,5.497-3.2,8.102-1.331
	c2.604,1.869,3.2,5.497,1.331,8.102c-9.129,12.716-9.129,31.135-9.129,59.016c0,18.904-2.718,31.354-5.346,43.395
	c-3.836,17.576-7.46,34.176-1.097,70.363c9.911,56.382,15.612,92.822,16.44,98.148c14.51,34.293,15.255,66.544,14.2,83.877
	c24.189-21.492,27.541-62.918,8.456-112.26c-0.381-0.599-1.492-3.768-1.874-4.698c-8.311-20.2-16.64-64.684-21.258-92.013
	c-2.63-10.045-4.049-20.553-4.049-31.287V137.03c0-42.37,22.017-63.213,22.415-63.645c15.207-16.463,41.866-29.523,80.474-29.523
	s66.288,12.96,81.576,29.486c24.243,26.206,22.737,60.16,22.509,63.677v81.34c0,10.752-1.425,21.276-4.062,31.336
	c-4.62,27.332-12.944,71.776-21.251,91.964c-0.428,1.042-1.427,3.624-1.545,3.876c-19.438,49.703-16.193,91.472,8.128,113.082
	c-1.052-17.333-0.309-49.584,14.203-83.877c0.828-5.328,6.528-41.77,16.438-98.148c6.363-36.188,2.739-52.789-1.097-70.363
	c-2.629-12.041-5.347-24.491-5.347-43.395c0-27.88,0-46.3-9.129-59.016c-1.869-2.604-1.275-6.232,1.329-8.102
	c2.604-1.869,6.232-1.275,8.102,1.331c11.308,15.752,11.308,36.74,11.308,65.787c0,17.651,2.582,29.479,5.08,40.919
	c4.087,18.724,7.948,36.41,1.189,74.851c-9.454,53.772-15.064,89.342-16.26,97.018c2.247,5.679,9.595,25.8,11.515,50.337
	c1.114,14.221,3.753,25.784,6.123,33.809c6.79-15.735,16.742-43.988,13.994-69.305c-20.606-30.261-10.282-65.838,0.663-103.478
	c2.824-9.707,5.742-19.745,8.204-29.91c5.124-21.152-0.017-27.645-7.797-37.472c-9.145-11.551-20.525-25.925-18.422-65.59
	c3.464-65.37-12.906-77.092-13.072-77.203c0.156,0.103,0.244,0.14,0.244,0.14s-4.898-3.705-1.81-8.46
	c2.763-4.257,7.275-1.785,7.275-1.785c2.35,1.254,22.855,14.374,18.957,87.921c-1.869,35.283,7.587,47.228,15.93,57.767
	c8.452,10.676,16.434,20.759,9.979,47.414c-2.524,10.422-5.482,20.588-8.34,30.419c-10.743,36.938-20.019,68.838-1.477,94.796
	c0.002,0.002,0.002,0.006,0.005,0.008c0.002,0.003,0.007,0.007,0.009,0.01c0.762,1.076,15.576,22.42,19.951,59.431
	C434.603,425.015,438.77,396.78,423.72,373.264z"/>
<path style="fill:#FFAA2A;" d="M232.943,176.41c0-3.89-9.393-9.77-23.552-9.77c-14.157,0-23.551,5.881-23.551,9.77
	c0,3.889,9.395,9.768,23.553,9.768C223.55,186.179,232.943,180.299,232.943,176.41z M205.282,180.51
	c-1.08-1.068-1.695-2.566-1.695-4.099s0.615-3.03,1.695-4.11c1.081-1.08,2.579-1.695,4.11-1.695c1.533,0,3.02,0.615,4.099,1.695
	c1.08,1.08,1.707,2.578,1.707,4.11c0,1.533-0.627,3.019-1.707,4.099c-1.08,1.091-2.566,1.707-4.099,1.707
	C207.861,182.217,206.363,181.602,205.282,180.51z"/>
<path style="fill:#E6E6E6;" d="M189.789,246.879c-1.059,0.822-2.314,1.221-3.558,1.221c-1.731,0-3.444-0.77-4.589-2.243
	l-17.396-22.386c0.021,0.462,1.555,11.08,3.788,24.255c6.502,24.174,20.671,45.276,38.925,59.194l4.473-10.132
	c1.293-2.932,4.719-4.262,7.656-2.967c2.932,1.295,4.261,4.722,2.967,7.655l-5.295,11.994c12.043,6.965,25.402,10.935,39.244,10.948
	c27.69-0.024,53.446-15.89,70.599-39.885l-14.702-5.403c-3.01-1.107-4.553-4.442-3.447-7.452c1.105-3.008,4.437-4.555,7.452-3.447
	l17.09,6.28c4.689-8.282,8.417-17.282,10.968-26.754c2.235-13.192,3.7-22.833,3.72-22.933c0.124-2.141,0.195-21.274,0.195-21.274
	l-17.447,12.497c-1.024,0.733-2.205,1.087-3.375,1.087c-1.809,0-3.591-0.843-4.723-2.426c-1.867-2.607-1.268-6.234,1.339-8.101
	l24.208-17.34c0,0,0.006-52.746,0.017-52.895c0.015-0.203,0.929-14.328-4.853-30.617c0.704,6.04,1.055,12.845,0.939,20.568
	c-0.048,3.176-2.637,5.718-5.802,5.718c-0.03,0-0.06,0-0.089,0c-3.206-0.049-5.766-2.686-5.717-5.893
	c0.519-34.55-9.936-48.222-17.052-55.904c-5.842-6.306-14.712-7.851-23.532-10.289c7.808,11.424,15.454,31.265,18.625,65.748
	c0.294,3.193-1.305,5.939-5.249,6.313c-2.546,0.242-6.035-2.237-6.312-5.249c-5.846-63.561-26.723-70.119-29.159-70.665
	c-2.576-0.224-5.194-0.405-7.889-0.504v70.637c0,3.206-2.599,5.806-5.806,5.806s-5.806-2.6-5.806-5.806V55.602
	c-2.851,0.103-5.615,0.3-8.333,0.543c-2.189,0.552-14.233,5.189-23.226,41.138l18.538,11.56c2.722,1.696,3.552,5.277,1.854,7.998
	c-1.1,1.765-2.993,2.734-4.931,2.734c-1.048,0-2.11-0.284-3.066-0.88l-15.042-9.381c-1.032,5.346-1.996,11.226-2.866,17.696
	c-0.391,2.916-2.893,5.571-6.527,4.981c-3.164-0.514-5.407-3.35-4.98-6.528c1.095-8.156,2.385-15.725,3.861-22.705l-21.205-13.223
	c-2.993,8.517-4.892,20.106-4.643,36.614c0.049,3.206-2.511,5.844-5.717,5.893c-0.029,0-0.059,0-0.089,0
	c-3.165,0-5.754-2.542-5.802-5.718c-0.118-7.798,0.243-14.655,0.961-20.734c-5.829,16.354-4.855,31.089-4.855,31.234v67.569
	l26.683,34.336C192.777,241.264,192.32,244.911,189.789,246.879z M271.584,306.953c-2.067,0-3.883-1.081-4.91-2.709
	c-1.549-0.548-5.244-1.321-10.673-1.321c-5.43,0-9.124,0.774-10.673,1.321c-1.029,1.628-2.844,2.709-4.911,2.709
	c-3.207,0-5.806-2.6-5.806-5.806c0-8.557,13.401-9.836,21.39-9.836c7.988,0,21.39,1.278,21.39,9.836
	C277.389,304.354,274.79,306.953,271.584,306.953z M310.722,265.812c-0.73,2.549-3.054,4.211-5.579,4.211
	c-0.529,0-1.067-0.073-1.6-0.225l-2.5-0.715c0.002,0.057,0.017,0.109,0.017,0.167c0,13.743-23.358,20.002-45.061,20.002
	s-45.064-6.26-45.064-20.002c0-0.057,0.015-0.109,0.017-0.166l-2.496,0.714c-0.533,0.152-1.071,0.225-1.6,0.225
	c-2.525,0-4.849-1.662-5.579-4.211c-0.881-3.083,0.902-6.297,3.986-7.178l40.314-11.532c1.633-0.468,3.388-0.196,4.806,0.743
	l5.534,3.669l5.771-3.713c1.406-0.905,3.134-1.16,4.738-0.699l40.312,11.532C309.819,259.515,311.603,262.729,310.722,265.812z
	 M263.276,136.575c3.173-0.49,6.133,1.688,6.619,4.857l0.171,1.112h58.216c7.227,0,11.457,3.096,13.732,5.692
	c5.813,6.631,4.738,16.221,4.597,17.292c-0.385,2.921-2.88,5.046-5.749,5.046c-0.253,0-0.509-0.016-0.767-0.051
	c-3.169-0.419-5.4-3.32-4.999-6.486c0.165-1.405,0.183-5.9-1.833-8.171c-0.375-0.424-1.521-1.713-4.981-1.713H271.85l1.542,10.039
	c6.205-5.614,16.756-9.165,29.213-9.165c20.048,0,35.164,9.192,35.164,21.381c0,12.188-15.115,21.379-35.162,21.379
	c-9.998,0-18.77-2.287-25.052-6.091c0.146,2.935-1.919,5.568-4.888,6.024c-0.298,0.046-0.596,0.069-0.888,0.069
	c-2.818,0-5.291-2.054-5.731-4.925l-7.628-49.671C257.933,140.026,260.107,137.062,263.276,136.575z M273.294,203.371
	c18.839,0.553,20.921,12.528,20.921,17.751c0,3.206-2.599,5.806-5.806,5.806s-5.806-2.6-5.806-5.806
	c0-1.605-0.007-4.237-4.415-5.478c0.045,0.577,0.088,1.154,0.088,1.742c0,3.206-2.599,5.806-5.806,5.806s-5.806-2.6-5.806-5.806
	c0-5.881-4.785-10.666-10.668-10.666c-5.882,0-10.668,4.785-10.668,10.666c0,3.206-2.599,5.806-5.806,5.806
	c-3.207,0-5.806-2.6-5.806-5.806c0-0.588,0.043-1.165,0.088-1.742c-4.406,1.24-4.413,3.873-4.413,5.478
	c0,3.206-2.599,5.806-5.806,5.806s-5.806-2.6-5.806-5.806c0-5.221,2.081-17.198,20.92-17.751c4.088-5.035,10.319-8.264,17.296-8.264
	C262.975,195.109,269.207,198.337,273.294,203.371z M174.23,176.41c0-12.189,15.116-21.381,35.162-21.381
	c12.459,0,23.01,3.552,29.216,9.166l1.542-10.04h-56.431c-3.461,0-4.607,1.289-4.983,1.713c-2.019,2.275-2.001,6.779-1.833,8.176
	c0.376,3.17-1.873,6.068-5.04,6.465c-0.247,0.031-0.492,0.046-0.735,0.046c-2.868,0-5.356-2.111-5.741-5.029
	c-0.142-1.072-1.213-10.662,4.599-17.292c2.277-2.596,6.507-5.692,13.734-5.692h58.213l0.171-1.112
	c0.488-3.169,3.455-5.346,6.619-4.857c3.169,0.487,5.345,3.451,4.858,6.619l-7.628,49.671c-0.441,2.871-2.914,4.925-5.732,4.925
	c-0.293,0-0.59-0.022-0.888-0.069c-2.969-0.455-5.035-3.089-4.888-6.024c-6.282,3.805-15.053,6.091-25.05,6.091
	C189.346,197.79,174.23,188.598,174.23,176.41z"/>
<path d="M238.704,203.371c-18.839,0.553-20.92,12.528-20.92,17.751c0,3.206,2.599,5.806,5.806,5.806c3.207,0,5.806-2.6,5.806-5.806
	c0-1.605,0.007-4.237,4.413-5.478c-0.045,0.577-0.088,1.154-0.088,1.742c0,3.206,2.599,5.806,5.806,5.806s5.806-2.6,5.806-5.806
	c0-5.881,4.785-10.666,10.668-10.666c5.882,0,10.668,4.785,10.668,10.666c0,3.206,2.599,5.806,5.806,5.806
	c3.207,0,5.806-2.6,5.806-5.806c0-0.588-0.043-1.165-0.088-1.742c4.408,1.24,4.415,3.873,4.415,5.478
	c0,3.206,2.599,5.806,5.806,5.806s5.806-2.6,5.806-5.806c0-5.221-2.082-17.198-20.921-17.751
	c-4.087-5.035-10.319-8.264-17.295-8.264C249.022,195.109,242.792,198.337,238.704,203.371z"/>
<path d="M215.198,176.411c0-1.533-0.627-3.03-1.707-4.11c-1.08-1.08-2.566-1.695-4.099-1.695c-1.531,0-3.029,0.615-4.11,1.695
	c-1.08,1.08-1.695,2.578-1.695,4.11c0,1.533,0.615,3.03,1.695,4.099c1.081,1.091,2.579,1.707,4.11,1.707
	c1.533,0,3.02-0.615,4.099-1.707C214.571,179.43,215.198,177.944,215.198,176.411z"/>
<path d="M302.606,182.217c1.533,0,3.02-0.615,4.11-1.695c1.08-1.093,1.695-2.589,1.695-4.11c0-1.533-0.615-3.03-1.695-4.11
	c-1.08-1.08-2.578-1.695-4.11-1.695c-1.533,0-3.029,0.615-4.11,1.695c-1.08,1.08-1.695,2.578-1.695,4.11
	c0,1.533,0.615,3.03,1.695,4.11C299.577,181.602,301.074,182.217,302.606,182.217z"/>
<path d="M306.736,258.634l-40.312-11.532c-1.605-0.46-3.332-0.204-4.738,0.699l-5.771,3.713l-5.534-3.669
	c-1.418-0.939-3.172-1.211-4.806-0.743l-40.314,11.532c-3.083,0.881-4.866,4.095-3.986,7.178c0.73,2.55,3.054,4.211,5.579,4.211
	c0.529,0,1.067-0.073,1.6-0.225l2.496-0.714c-0.002,0.057-0.017,0.109-0.017,0.166c0,13.743,23.359,20.002,45.064,20.002
	c21.702,0,45.061-6.26,45.061-20.002c0-0.057-0.015-0.11-0.017-0.167l2.5,0.715c0.533,0.152,1.071,0.225,1.6,0.225
	c2.525,0,4.849-1.662,5.579-4.211C311.603,262.729,309.819,259.515,306.736,258.634z M223.448,270.288
	c-0.48-0.421-0.79-0.803-0.901-1.118c-0.016-1.156-0.376-2.226-0.973-3.125l1.874-0.536V270.288z M241.279,276.538
	c-2.282-0.362-4.348-0.795-6.22-1.271v-13.081l6.22-1.779V276.538z M259.109,277.586c-1.018,0.029-2.042,0.056-3.111,0.056
	c-1.067,0-2.092-0.026-3.109-0.056v-14.168c1.941,1.163,4.31,1.069,6.117-0.092l0.003,0.005l0.059-0.038
	c0.005-0.003,0.009-0.006,0.015-0.009l0.026-0.017L259.109,277.586L259.109,277.586z M276.94,275.267
	c-1.871,0.476-3.938,0.909-6.219,1.271v-16.13l6.219,1.779V275.267z M289.449,269.17c-0.113,0.314-0.42,0.694-0.898,1.116v-4.777
	l1.872,0.535C289.825,266.943,289.465,268.013,289.449,269.17z"/>
<path d="M234.444,191.699c-0.146,2.935,1.919,5.569,4.888,6.024c0.298,0.046,0.596,0.069,0.888,0.069
	c2.818,0,5.291-2.054,5.732-4.925l7.628-49.671c0.487-3.169-1.688-6.133-4.858-6.619c-3.165-0.489-6.132,1.688-6.619,4.857
	l-0.171,1.112h-58.213c-7.227,0-11.457,3.096-13.734,5.692c-5.812,6.63-4.741,16.221-4.599,17.292
	c0.384,2.918,2.874,5.029,5.741,5.029c0.243,0,0.488-0.015,0.735-0.046c3.167-0.397,5.417-3.295,5.04-6.465
	c-0.167-1.398-0.186-5.902,1.833-8.176c0.376-0.424,1.522-1.713,4.983-1.713h56.431l-1.542,10.04
	c-6.206-5.614-16.757-9.166-29.216-9.166c-20.046,0-35.162,9.192-35.162,21.381c0,12.188,15.118,21.379,35.164,21.379
	C219.391,197.79,228.162,195.502,234.444,191.699z M185.841,176.41c0-3.89,9.393-9.77,23.551-9.77
	c14.159,0,23.552,5.881,23.552,9.77c0,3.889-9.393,9.768-23.55,9.768C195.235,186.179,185.841,180.299,185.841,176.41z"/>
<path d="M266.048,192.865c0.441,2.871,2.914,4.925,5.731,4.925c0.293,0,0.59-0.022,0.888-0.069c2.969-0.455,5.035-3.089,4.888-6.024
	c6.282,3.804,15.054,6.091,25.052,6.091c20.046,0,35.162-9.191,35.162-21.379c0-12.189-15.118-21.381-35.164-21.381
	c-12.459,0-23.008,3.552-29.213,9.165l-1.542-10.039h56.432c3.46,0,4.606,1.289,4.981,1.713c2.017,2.271,1.999,6.765,1.833,8.171
	c-0.403,3.166,1.83,6.068,4.999,6.486c0.259,0.034,0.514,0.051,0.768,0.051c2.869,0,5.363-2.125,5.749-5.046
	c0.142-1.072,1.216-10.662-4.597-17.292c-2.276-2.596-6.507-5.692-13.732-5.692h-58.216l-0.171-1.112
	c-0.487-3.169-3.446-5.347-6.619-4.857c-3.169,0.486-5.343,3.451-4.858,6.619L266.048,192.865z M302.605,166.641
	c14.159,0,23.553,5.881,23.553,9.77c0,3.889-9.393,9.768-23.551,9.768c-14.159,0-23.553-5.88-23.553-9.768
	C279.054,172.522,288.448,166.641,302.605,166.641z"/>
<path d="M255.999,291.312c-7.988,0-21.39,1.278-21.39,9.836c0,3.206,2.599,5.806,5.806,5.806c2.067,0,3.883-1.081,4.911-2.709
	c1.549-0.548,5.244-1.321,10.673-1.321c5.43,0,9.124,0.774,10.673,1.321c1.029,1.628,2.844,2.709,4.91,2.709
	c3.207,0,5.806-2.6,5.806-5.806C277.389,292.59,263.988,291.312,255.999,291.312z"/>
<path d="M238.584,394.212c1.521,0,3.019-0.615,4.099-1.707c1.09-1.08,1.707-2.578,1.707-4.099c0-1.533-0.615-3.019-1.707-4.109
	c-1.081-1.08-2.579-1.696-4.099-1.696c-1.533,0-3.03,0.615-4.11,1.696c-1.08,1.08-1.695,2.578-1.695,4.109
	c0,1.533,0.615,3.019,1.695,4.099C235.552,393.596,237.05,394.212,238.584,394.212z"/>
<path d="M452.648,346.987c-12.411-11.122-24.41-17.649-30.272-20.478c0.32-15.622,5.101-26.847,5.183-27.038
	c0.024-0.052,0.046-0.106,0.069-0.159c25.5-62.427,13.458-116.541-8.523-140.403c-9.463-10.275-9.377-14.913-9.012-34.433
	c0.079-4.197,0.168-8.953,0.168-14.501c0-45.287-27.034-78.7-78.178-96.628C295.683,0.589,259.043,0,255.999,0
	c-3.043,0-39.684,0.589-76.081,13.348c-51.144,17.927-78.178,51.342-78.178,96.628c0,5.55,0.089,10.308,0.168,14.507
	c0.365,19.516,0.453,24.152-9.013,34.426c-21.98,23.861-34.022,77.976-8.523,140.404c0.022,0.053,0.044,0.107,0.069,0.159
	c0.086,0.195,4.91,11.386,5.233,27.013c-5.844,2.816-17.875,9.348-30.322,20.503c-22.667,20.316-35.863,46.407-38.127,75.454
	c-0.012,0.15,0,83.753,0,83.753c0,3.206,2.599,5.806,5.806,5.806h457.94c3.207,0,5.806-2.6,5.806-5.806c0,0,0.012-83.602,0-83.753
	C488.511,393.395,475.315,367.303,452.648,346.987z M98.663,500.389H32.834v-77.267c3.818-47.692,39.043-73.345,55.905-82.982
	c-1.381,8.577-4.431,17.785-10.242,26.866c-29.52,46.131,3.239,104.188,4.648,106.638c1.328,2.307,4.052,3.416,6.617,2.689
	c2.561-0.727,4.3-3.104,4.218-5.765c-0.538-17.288,1.637-32.128,4.682-44.132v73.953H98.663z M250.194,500.389h-139.92v-53.76
	c5.842,17.504,12.576,30.044,13.159,31.02c1.981,3.322,5.197,3.015,5.251,3.013c2.176-0.059,4.137-1.333,5.076-3.296
	c0.38-0.793,9.316-19.762,11.723-50.493c1.007-12.862,3.674-24.57,6.161-33.234c12.853,40.651,6.827,75.685,6.756,76.071
	c-0.402,2.211,0.509,4.454,2.336,5.76c1.826,1.307,4.246,1.443,6.205,0.347c34.501-19.248,45.162-62.274,29.828-115.217
	c14.945,9.348,33.631,15.02,53.426,15.938V500.389z M189.729,340.199c-0.39-0.983-9.711-30.66-13.512-48.778
	c19.303,26.799,48.401,44.552,79.696,44.609c0.009,0,0.016,0.002,0.024,0.002c0.021,0,0.043-0.001,0.065-0.001
	c0.021,0,0.042,0.001,0.064,0.001c0.008,0,0.016-0.002,0.023-0.002c31.292-0.057,60.386-17.806,79.689-44.598
	c-3.799,18.114-13.038,47.582-13.389,48.465c-15.077,15.768-39.815,25.167-66.478,25.167
	C229.444,365.062,204.833,355.779,189.729,340.199z M190.81,238.731l-26.683-34.336v-67.569c0-0.146-0.974-14.88,4.855-31.234
	c-0.719,6.08-1.08,12.937-0.961,20.734c0.048,3.176,2.637,5.718,5.802,5.718c0.03,0,0.06,0,0.089,0
	c3.206-0.049,5.766-2.686,5.717-5.893c-0.248-16.509,1.65-28.098,4.643-36.614l21.205,13.223c-1.476,6.981-2.766,14.55-3.861,22.705
	c-0.427,3.178,1.816,6.013,4.98,6.528c3.633,0.591,6.135-2.066,6.527-4.981c0.87-6.471,1.833-12.351,2.866-17.696l15.042,9.381
	c0.956,0.596,2.017,0.88,3.066,0.88c1.938,0,3.832-0.97,4.931-2.734c1.698-2.72,0.867-6.301-1.854-7.998l-18.539-11.561
	c8.993-35.949,21.037-40.588,23.226-41.138c2.718-0.244,5.483-0.44,8.333-0.543v70.637c0,3.206,2.599,5.806,5.806,5.806
	c3.207,0,5.806-2.6,5.806-5.806V55.602c2.695,0.098,5.312,0.279,7.889,0.504c2.437,0.547,23.313,7.105,29.159,70.665
	c0.276,3.012,3.765,5.491,6.312,5.249c3.943-0.374,5.542-3.12,5.249-6.313c-3.172-34.484-10.817-54.325-18.625-65.748
	c8.82,2.437,17.689,3.983,23.532,10.289c7.116,7.682,17.571,21.354,17.052,55.904c-0.049,3.206,2.511,5.844,5.717,5.893
	c0.029,0,0.059,0,0.089,0c3.165,0,5.754-2.542,5.802-5.718c0.117-7.724-0.235-14.529-0.939-20.568
	c5.781,16.288,4.867,30.414,4.853,30.617c-0.012,0.15-0.017,52.895-0.017,52.895l-24.208,17.34
	c-2.607,1.867-3.207,5.494-1.339,8.101c1.132,1.583,2.915,2.426,4.723,2.426c1.17,0,2.351-0.353,3.375-1.087l17.447-12.497
	c0,0-0.071,19.133-0.195,21.274c-0.021,0.1-1.485,9.741-3.72,22.933c-2.551,9.472-6.279,18.472-10.968,26.754l-17.09-6.28
	c-3.015-1.109-6.347,0.438-7.452,3.447s0.438,6.345,3.447,7.452l14.702,5.403c-17.152,23.997-42.909,39.861-70.599,39.885
	c-13.843-0.013-27.201-3.984-39.244-10.948l5.295-11.994c1.295-2.933-0.034-6.361-2.967-7.655c-2.936-1.296-6.363,0.035-7.656,2.967
	l-4.473,10.132c-18.255-13.918-32.424-35.021-38.925-59.194c-2.233-13.175-3.765-23.793-3.788-24.255l17.396,22.386
	c1.145,1.473,2.857,2.243,4.589,2.243c1.244,0,2.499-0.398,3.558-1.221C192.32,244.911,192.777,241.264,190.81,238.731z
	 M189.34,79.014c9.068-12.651,22.711-16.923,32-19.372c-5.12,7.763-9.462,18.199-12.997,31.222L189.34,79.014z M401.726,500.389
	H261.805V376.528c19.834-0.946,38.531-6.658,53.464-16.059c-15.389,53.004-4.737,96.086,29.789,115.349
	c1.96,1.093,4.374,0.958,6.199-0.347c1.826-1.304,2.738-3.546,2.342-5.754c-0.07-0.391-6.098-35.424,6.758-76.077
	c2.487,8.664,5.153,20.373,6.16,33.233c2.406,30.732,11.344,49.701,11.725,50.493c0.94,1.965,2.899,3.296,5.078,3.296
	c2.399,0,4.23-1.151,5.249-3.013c0.547-0.997,7.317-13.516,13.158-31.018L401.726,500.389L401.726,500.389z M408.548,385.04
	c-0.002-0.002-0.002-0.006-0.005-0.008c-18.542-25.958-9.266-57.859,1.477-94.796c2.859-9.831,5.816-19.998,8.34-30.419
	c6.457-26.654-1.526-36.737-9.979-47.414c-8.344-10.539-17.8-22.485-15.93-57.767c3.897-73.547-16.607-86.667-18.957-87.921
	c0,0-4.512-2.471-7.275,1.785c-3.087,4.755,1.81,8.46,1.81,8.46s-0.088-0.037-0.244-0.14c0.166,0.11,16.535,11.832,13.072,77.203
	c-2.102,39.665,9.277,54.039,18.422,65.59c7.779,9.828,12.921,16.322,7.797,37.472c-2.463,10.165-5.382,20.203-8.204,29.91
	c-10.946,37.638-21.269,73.217-0.663,103.478c2.748,25.318-7.204,53.57-13.994,69.305c-2.37-8.026-5.009-19.589-6.123-33.809
	c-1.919-24.538-9.268-44.658-11.515-50.337c1.196-7.676,6.806-43.247,16.26-97.019c6.758-38.441,2.897-56.126-1.189-74.851
	c-2.498-11.439-5.08-23.267-5.08-40.919c0-29.049,0-50.036-11.308-65.787c-1.869-2.604-5.497-3.2-8.102-1.331
	c-2.604,1.869-3.2,5.497-1.329,8.102c9.129,12.716,9.129,31.135,9.129,59.016c0,18.903,2.718,31.353,5.347,43.395
	c3.837,17.576,7.461,34.176,1.097,70.363c-9.91,56.379-15.61,92.819-16.438,98.148c-14.511,34.293-15.256,66.545-14.203,83.877
	c-24.32-21.609-27.566-63.379-8.128-113.082c0.118-0.252,1.117-2.835,1.545-3.876c8.305-20.188,16.63-64.632,21.251-91.964
	c2.637-10.06,4.062-20.584,4.062-31.336v-81.34c0.228-3.517,1.734-37.471-22.509-63.677c-15.288-16.526-42.968-29.486-81.576-29.486
	s-65.267,13.061-80.474,29.523c-0.398,0.431-22.415,21.275-22.415,63.645v81.335c0,10.734,1.42,21.242,4.049,31.287
	c4.618,27.329,12.945,71.813,21.258,92.013c0.382,0.93,1.493,4.099,1.874,4.698c19.084,49.342,15.733,90.768-8.456,112.26
	c1.053-17.333,0.31-49.584-14.2-83.877c-0.828-5.326-6.529-41.767-16.44-98.148c-6.362-36.187-2.738-52.787,1.097-70.363
	c2.629-12.041,5.346-24.491,5.346-43.395c0-27.88,0-46.3,9.129-59.016c1.869-2.604,1.275-6.232-1.331-8.102
	c-2.604-1.869-6.23-1.275-8.102,1.331c-11.308,15.752-11.308,36.74-11.308,65.787c0,17.651-2.582,29.479-5.079,40.919
	c-4.088,18.724-7.948,36.41-1.19,74.85c9.454,53.771,15.065,89.34,16.262,97.018c-2.247,5.679-9.598,25.801-11.517,50.337
	c-1.113,14.221-3.753,25.785-6.12,33.808c-6.792-15.736-16.743-43.987-13.994-69.304c20.605-30.262,10.282-65.843-0.666-103.484
	c-2.823-9.705-5.741-19.74-8.203-29.903c-5.124-21.152,0.017-27.645,7.797-37.472c9.145-11.551,20.525-25.925,18.422-65.59
	c-3.464-65.37,12.906-77.092,13.072-77.203c-0.156,0.103-0.244,0.14-0.244,0.14s5.491-4.115,2.069-8.561
	c-3.056-3.971-7.534-1.684-7.534-1.684c-2.35,1.254-22.855,14.374-18.957,87.921c1.869,35.283-7.587,47.228-15.93,57.767
	c-8.452,10.676-16.434,20.759-9.979,47.414c2.524,10.42,5.48,20.584,8.339,30.412c10.744,36.941,20.022,68.844,1.48,94.803
	c-0.002,0.002-0.002,0.006-0.005,0.008c-0.002,0.003-0.007,0.007-0.009,0.01c-0.762,1.076-15.597,22.451-19.961,59.503
	c-6.117-19.447-10.305-47.694,4.794-71.288c23.952-37.426,7.962-75.781,6.816-78.411c-23.543-57.703-13.222-106.839,6.342-128.078
	c12.62-13.7,12.462-22.134,12.08-42.51c-0.077-4.147-0.166-8.849-0.166-14.29c0-40.395,23.605-69.189,70.161-85.583
	c34.798-12.255,70.214-12.763,72.496-12.783c2.509,0.021,37.563,0.54,72.231,12.693c46.719,16.376,70.409,45.201,70.409,85.671
	c0,5.439-0.087,10.138-0.166,14.284c-0.381,20.38-0.539,28.814,12.08,42.516c19.565,21.239,29.886,70.377,6.342,128.078
	c-1.146,2.631-17.134,40.985,6.815,78.411c15.05,23.515,10.883,51.75,4.787,71.218c-4.375-37.011-19.188-58.355-19.951-59.431
	C408.554,385.047,408.549,385.044,408.548,385.04z M479.164,500.389h-65.827v-73.95c3.043,12.004,5.218,26.844,4.68,44.129
	c-0.081,2.661,1.657,5.038,4.218,5.765c2.564,0.727,5.29-0.382,6.617-2.689c1.41-2.449,34.17-60.508,4.648-106.638
	c-5.797-9.06-8.836-18.276-10.206-26.87c16.869,9.602,52.041,35.171,55.869,82.988V500.389z"/>
<g>
</g>
<g>
</g>
<g>
</g>
<g>
</g>
<g>
</g>
<g>
</g>
<g>
</g>
<g>
</g>
<g>
</g>
<g>
</g>
<g>
</g>
<g>
</g>
<g>
</g>
<g>
</g>
<g>
</g>
</svg>
