<?xml version="1.0" encoding="iso-8859-1"?>
<!-- Generator: Adobe Illustrator 19.0.0, SVG Export Plug-In . SVG Version: 6.00 Build 0)  -->
<svg version="1.1" id="Layer_1" xmlns="http://www.w3.org/2000/svg" xmlns:xlink="http://www.w3.org/1999/xlink" x="0px" y="0px"
	 viewBox="0 0 511.999 511.999" style="enable-background:new 0 0 511.999 511.999;" xml:space="preserve">
<g>
	<path style="fill:#FFAA2A;" d="M299.138,196.142c5.103,0,9.254-4.151,9.254-9.252c0-5.103-4.151-9.254-9.254-9.254
		s-9.254,4.151-9.254,9.254C289.885,191.991,294.036,196.142,299.138,196.142z"/>
	<path style="fill:#FFAA2A;" d="M212.752,196.142c5.102,0,9.254-4.151,9.254-9.252c0-5.103-4.152-9.254-9.254-9.254
		s-9.251,4.151-9.251,9.254C203.501,191.991,207.651,196.142,212.752,196.142z"/>
</g>
<path style="fill:#754C24;" d="M170.682,207.209c25.448,3.464,115.445,13.487,178.637-7.568
	c-7.088-15.907-14.699-28.927-17.92-34.215c-9.214,0.171-18.107,0.256-26.643,0.256c-0.978,0-1.924-0.007-2.894-0.01
	c10.52,1.344,18.686,10.335,18.686,21.215c0,11.805-9.604,21.408-21.409,21.408s-21.409-9.604-21.409-21.408
	c0-10.92,8.224-19.939,18.799-21.233c-44.055-0.267-78.762-2.651-104.783-5.476C187.755,166.613,178.384,183.125,170.682,207.209z
	 M212.752,165.481c11.804,0,21.409,9.604,21.409,21.409s-9.605,21.408-21.409,21.408c-11.804,0-21.406-9.604-21.406-21.408
	C191.346,175.084,200.948,165.481,212.752,165.481z"/>
<g>
	<path style="fill:#E6E6E6;" d="M250.54,224.946c-38.02,0-70.642-4.095-83.313-5.923c-3.491,13.146-6.296,28.067-7.539,44.484
		c16.193,6.999,85.77,33.518,189.681,23.655c6.629-10.745,11.416-21.89,14.864-32.517c-0.294-13.946-4.672-29.485-10.213-43.755
		C322.063,221.724,284.193,224.946,250.54,224.946z"/>
	<path style="fill:#E6E6E6;" d="M421.832,381.592c-6.181-2.489-12.482-5.179-18.729-8.635c-10.722-5.93-22.892-12.323-34.528-18.295
		c-8.041,8.348-30.372,28.753-65.667,39.926C335.528,395.99,375.001,392.864,421.832,381.592z"/>
	<path style="fill:#E6E6E6;" d="M295.88,471.404c-30.921,0-62.016-5.127-92.82-15.284c21.634,18.032,58.422,41.884,103.271,43.723
		h76.251v-35.012c0-3.356,2.72-6.078,6.078-6.078c3.357,0,6.078,2.722,6.078,6.078v35.012h73.185v-64.248
		c0-7.124-0.703-13.086-2.001-18.166c-47.094,30.83-96.176,48.641-146.006,52.94C311.921,471.06,303.906,471.404,295.88,471.404z"/>
	<path style="fill:#E6E6E6;" d="M373.019,164.108c-9.517,0.423-18.733,0.751-27.66,0.998c6.978,12.072,19.065,34.914,25.915,58.857
		c2.187-15.416,1.766-25.995,1.752-26.29c-0.005-0.098-0.007-0.203-0.007-0.301v-33.264H373.019z"/>
	<path style="fill:#E6E6E6;" d="M173.647,444.864c-14.875-6.507-28.27-13.606-40.013-20.61
		c-25.98,25.748-57.517,45.276-89.557,55.433v20.157h73.187v-35.012c0-3.356,2.72-6.078,6.078-6.078
		c3.356,0,6.078,2.722,6.078,6.078v35.012h119.301h2.532C207.955,482.271,179.321,451.338,173.647,444.864z"/>
	<path style="fill:#E6E6E6;" d="M328.588,36.718c-19.976-15.37-45.222-24.563-72.642-24.563c-50.902,0-94.314,31.669-110.402,75.753
		C174.369,89.927,279.952,93.084,328.588,36.718z"/>
	<path style="fill:#E6E6E6;" d="M260.815,389.873c50.69-2.48,83.983-29.19,96.339-41.028c-14.908-7.541-27.633-13.779-33.333-16.555
		c-0.96,0.69-1.906,1.399-2.887,2.064c-6.796,4.612-11.406,9.047-15.475,12.961c-10.452,10.053-18.709,17.996-49.513,17.996
		c-30.806,0-39.062-7.941-49.513-17.996c-4.07-3.914-8.68-8.349-15.476-12.961c-0.964-0.655-1.897-1.353-2.842-2.032
		c-4.59,2.237-13.643,6.671-24.704,12.212c8.409,7.985,27.08,23.046,58.027,34.571C232.356,383.171,245.457,387,260.815,389.873z"/>
	<path style="fill:#E6E6E6;" d="M197.782,324.295c7.652,5.193,12.658,10.009,17.077,14.258c9.465,9.104,15.179,14.601,41.088,14.601
		c25.907,0,31.621-5.495,41.088-14.601c4.417-4.249,9.424-9.065,17.075-14.258c10.449-7.09,19.046-15.342,26.126-24.167
		c-12.965,0.974-25.377,1.423-37.165,1.423c-74.406,0-124.875-17.223-144.004-25.066c-0.034,1.532-0.067,3.064-0.072,4.618
		C167.679,296.934,180.078,312.281,197.782,324.295z"/>
	<path style="fill:#E6E6E6;" d="M80.561,385.424c-21.453,8.668-36.485,16.968-36.485,50.171v31.29
		c28.118-9.589,55.72-26.79,78.928-49.214C101.167,403.617,86.508,390.89,80.561,385.424z"/>
	<path style="fill:#E6E6E6;" d="M461.186,405.975c-4.802-7.749-11.94-12.526-20.628-16.618
		c-43.77,11.829-85.117,17.821-123.087,17.821c-3.42,0-6.81-0.049-10.175-0.146c-33.258-0.959-63.886-6.64-91.033-16.886
		c-36.552-13.794-56.834-32.043-64.325-39.83c-14.035,7.124-29.664,15.242-43.041,22.641c-5.228,2.892-10.493,5.245-15.695,7.395
		c14.917,12.852,52.875,42.459,105.515,61.431C288.433,474.116,376.71,462.043,461.186,405.975z"/>
	<path style="fill:#E6E6E6;" d="M138.872,152.007v45.364c0,0.102-0.002,0.205-0.009,0.308c-0.022,0.472-1.096,27.426,9.263,58.398
		c4.755-47.799,21.598-82.324,30.343-97.459C159.5,156.189,146.409,153.667,138.872,152.007z"/>
	<path style="fill:#E6E6E6;" d="M373.019,151.942v-26.256c0-31.722-13.492-60.444-35.196-81.062
		c-24.86,28.765-66.564,47.327-121.163,53.809c-16.58,1.969-32.032,2.582-44.847,2.582c-13.434,0-23.971-0.673-29.88-1.166
		c-2.001,8.303-3.061,16.951-3.061,25.837v13.826C157.193,143.68,232.76,158.194,373.019,151.942z"/>
</g>
<path d="M212.752,208.297c11.804,0,21.409-9.604,21.409-21.408c0-11.805-9.605-21.409-21.409-21.409
	c-11.804,0-21.406,9.604-21.406,21.409C191.346,198.693,200.948,208.297,212.752,208.297z M212.752,177.636
	c5.102,0,9.254,4.151,9.254,9.254c0,5.102-4.152,9.252-9.254,9.252s-9.251-4.151-9.251-9.252
	C203.501,181.787,207.651,177.636,212.752,177.636z"/>
<path d="M277.73,186.889c0,11.805,9.604,21.408,21.409,21.408s21.409-9.604,21.409-21.408c0-10.88-8.166-19.871-18.686-21.215
	c-1.787-0.004-3.576-0.006-5.334-0.017C285.954,166.95,277.73,175.969,277.73,186.889z M299.138,177.636
	c5.103,0,9.254,4.151,9.254,9.254c0,5.102-4.151,9.252-9.254,9.252s-9.254-4.151-9.254-9.252
	C289.885,181.787,294.036,177.636,299.138,177.636z"/>
<path d="M430.918,372.129c-7.278-2.884-14.806-5.867-21.931-9.809c-25.566-14.14-59.222-30.852-74.671-38.431
	c21.207-18.851,36.514-44.723,44.621-75.802c7.05-27.026,6.336-48.589,6.238-50.858v-71.544c0-33.525-13.575-65.112-38.224-88.946
	C322.446,13.048,290.125,0,255.945,0c-34.181,0-66.5,13.048-91.004,36.741c-24.649,23.832-38.224,55.421-38.224,88.945v71.544
	c-0.1,2.269-0.812,23.831,6.237,50.858c8.112,31.096,23.434,56.982,44.66,75.837c-15.472,7.59-49.064,24.272-74.599,38.397
	c-7.127,3.942-14.654,6.925-21.934,9.809c-24.168,9.577-49.159,19.481-49.159,63.465v70.326c0,3.356,2.72,6.078,6.078,6.078h435.999
	c3.357,0,6.078-2.722,6.078-6.078v-70.326C480.077,391.611,455.086,381.707,430.918,372.129z M368.576,354.662
	c11.636,5.973,23.806,12.364,34.528,18.295c6.248,3.454,12.548,6.146,18.729,8.635c-46.831,11.271-86.304,14.398-118.924,12.996
	C338.202,383.415,360.534,363.01,368.576,354.662z M349.369,287.163c-103.911,9.863-173.488-16.656-189.681-23.655
	c1.242-16.417,4.048-31.338,7.539-44.484c12.672,1.828,45.293,5.923,83.313,5.923c33.653,0,71.523-3.221,103.481-14.056
	c5.542,14.27,9.919,29.809,10.213,43.755C360.784,265.273,355.999,276.418,349.369,287.163z M301.862,165.674
	c0.97,0.002,1.916,0.01,2.894,0.01c8.535,0,17.429-0.086,26.643-0.256c3.221,5.289,10.833,18.308,17.92,34.215
	c-63.192,21.055-153.189,11.032-178.637,7.568c7.701-24.084,17.073-40.596,21.064-47.028c26.02,2.825,60.728,5.208,104.783,5.476
	C298.285,165.666,300.076,165.67,301.862,165.674z M371.274,223.962c-6.851-23.943-18.936-46.785-25.915-58.857
	c8.927-0.247,18.143-0.575,27.66-0.998v33.262c0,0.098,0.002,0.203,0.007,0.301C373.04,197.969,373.461,208.546,371.274,223.962z
	 M255.945,12.155c27.421,0,52.667,9.193,72.642,24.563c-48.636,56.366-154.219,53.209-183.045,51.19
	C161.633,43.824,205.044,12.155,255.945,12.155z M138.872,125.686c0-8.885,1.06-17.535,3.061-25.837
	c5.909,0.492,16.446,1.166,29.88,1.166c12.816,0,28.269-0.613,44.847-2.582c54.599-6.484,96.303-25.046,121.163-53.809
	c21.705,20.62,35.196,49.34,35.196,81.062v26.256c-140.26,6.251-215.827-8.262-234.147-12.43L138.872,125.686L138.872,125.686z
	 M138.864,197.678c0.006-0.102,0.009-0.205,0.009-0.308v-45.364c7.536,1.662,20.627,4.183,39.598,6.61
	c-8.744,15.137-25.588,49.661-30.343,97.459C137.768,225.104,138.842,198.15,138.864,197.678z M158.995,281.103
	c0.005-1.553,0.036-3.087,0.072-4.618c19.127,7.844,69.598,25.066,144.004,25.066c11.788,0,24.201-0.45,37.165-1.423
	c-7.08,8.826-15.678,17.077-26.126,24.167c-7.652,5.193-12.658,10.009-17.075,14.258c-9.466,9.105-15.179,14.601-41.088,14.601
	c-25.907,0-31.623-5.495-41.088-14.601c-4.418-4.249-9.425-9.065-17.077-14.258C180.078,312.281,167.679,296.934,158.995,281.103z
	 M188.115,332.32c0.944,0.679,1.878,1.377,2.842,2.032c6.797,4.612,11.408,9.047,15.476,12.961
	c10.452,10.053,18.708,17.996,49.512,17.996s39.062-7.941,49.513-17.996c4.07-3.914,8.68-8.349,15.475-12.961
	c0.981-0.665,1.927-1.374,2.887-2.064c5.7,2.776,18.425,9.014,33.333,16.555c-12.356,11.839-45.648,38.549-96.339,41.028
	c-15.358-2.872-28.459-6.701-39.378-10.768c-30.947-11.525-49.618-26.587-58.027-34.571
	C174.472,338.991,183.524,334.556,188.115,332.32z M108.898,372.957c13.377-7.399,29.006-15.517,43.041-22.641
	c7.491,7.787,27.773,26.035,64.325,39.83c27.147,10.245,57.774,15.926,91.033,16.886c3.365,0.097,6.755,0.146,10.175,0.146
	c37.969,0,79.317-5.991,123.087-17.821c8.687,4.094,15.826,8.871,20.628,16.618c-84.477,56.068-172.753,68.141-262.47,35.809
	c-52.64-18.972-90.597-48.579-105.515-61.431C98.405,378.202,103.67,375.849,108.898,372.957z M44.077,435.596
	c0-33.202,15.031-41.504,36.485-50.171c5.947,5.466,20.607,18.191,42.443,32.247c-23.208,22.424-50.809,39.624-78.928,49.214
	V435.596z M248.719,499.845H129.418v-35.012c0-3.356-2.722-6.078-6.078-6.078c-3.357,0-6.078,2.722-6.078,6.078v35.012H44.077
	v-20.157c32.04-10.156,63.577-29.685,89.557-55.433c11.743,7.004,25.138,14.104,40.013,20.61
	c5.674,6.474,34.308,37.407,77.604,54.98H248.719z M467.921,435.596v64.248h-73.185v-35.012c0-3.356-2.72-6.078-6.078-6.078
	c-3.357,0-6.078,2.722-6.078,6.078v35.012h-76.251c-44.849-1.839-81.637-25.691-103.271-43.723
	c30.803,10.156,61.9,15.284,92.82,15.284c8.027,0,16.041-0.344,24.034-1.034c49.83-4.299,98.912-22.11,146.006-52.94
	C467.219,422.511,467.921,428.471,467.921,435.596z"/>
<g>
</g>
<g>
</g>
<g>
</g>
<g>
</g>
<g>
</g>
<g>
</g>
<g>
</g>
<g>
</g>
<g>
</g>
<g>
</g>
<g>
</g>
<g>
</g>
<g>
</g>
<g>
</g>
<g>
</g>
</svg>
