<?xml version="1.0" encoding="iso-8859-1"?>
<!-- Generator: Adobe Illustrator 19.0.0, SVG Export Plug-In . SVG Version: 6.00 Build 0)  -->
<svg version="1.1" id="Layer_1" xmlns="http://www.w3.org/2000/svg" xmlns:xlink="http://www.w3.org/1999/xlink" x="0px" y="0px"
	 viewBox="0 0 511.999 511.999" style="enable-background:new 0 0 511.999 511.999;" xml:space="preserve">
<path style="fill:#333333;" d="M180.51,186.2c0-4.544-3.697-8.241-8.241-8.241c-4.544,0-8.24,3.697-8.24,8.241
	c0,4.543,3.697,8.239,8.24,8.239C176.813,194.439,180.51,190.743,180.51,186.2z"/>
<path style="fill:#FFAA2A;" d="M210.366,186.2c0-21.008-17.091-38.099-38.098-38.099s-38.098,17.091-38.098,38.099
	c0,21.007,17.091,38.096,38.098,38.096S210.366,207.207,210.366,186.2z M152.548,186.2c0-10.875,8.847-19.722,19.721-19.722
	c10.875,0,19.722,8.847,19.722,19.722c0,10.874-8.847,19.72-19.722,19.72S152.548,197.074,152.548,186.2z"/>
<g>
	<path style="fill:#808080;" d="M206.762,318.299c-5.373,8.363-14.081,14.381-24.235,16.166
		c2.39,11.187,12.344,19.607,24.235,19.607c11.891,0,21.845-8.419,24.236-19.607C220.844,332.681,212.135,326.661,206.762,318.299z"
		/>
	<path style="fill:#808080;" d="M267.825,354.072c11.891,0,21.844-8.419,24.234-19.607c-10.155-1.785-18.862-7.804-24.235-16.166
		c-5.373,8.363-14.081,14.381-24.235,16.166C245.979,345.652,255.933,354.072,267.825,354.072z"/>
</g>
<g>
	<path style="fill:#333333;" d="M302.317,194.439c4.544,0,8.241-3.696,8.241-8.239c0-4.544-3.697-8.241-8.241-8.241
		c-4.544,0-8.24,3.697-8.24,8.241C294.077,190.743,297.774,194.439,302.317,194.439z"/>
	<polygon style="fill:#333333;" points="252.596,222.408 221.992,222.408 237.293,248.913 	"/>
</g>
<path style="fill:#FFAA2A;" d="M302.317,224.296c21.007,0,38.098-17.09,38.098-38.096c0-21.008-17.091-38.099-38.098-38.099
	S264.22,165.192,264.22,186.2C264.22,207.207,281.311,224.296,302.317,224.296z M302.317,166.478
	c10.875,0,19.722,8.847,19.722,19.722c0,10.874-8.847,19.72-19.722,19.72c-10.875,0-19.721-8.846-19.721-19.72
	C282.596,175.325,291.443,166.478,302.317,166.478z"/>
<g>
	<path style="fill:#808080;" d="M387.965,419.955c-1,0.761-2.222,1.173-3.479,1.173h-95.584v12.972
		c0,3.984-1.054,7.721-2.882,10.968h121.845c1.241,0,2.448,0.402,3.441,1.146l44.295,33.166l13.428-26.859l-34.616-26.019
		c-1.39-1.045-2.232-2.664-2.288-4.403c-0.056-1.738,0.679-3.409,1.998-4.542l56.639-48.629h-35.824L387.965,419.955z"/>
	<path style="fill:#808080;" d="M244.001,421.128h-13.414v12.972c0,3.984-1.054,7.721-2.882,10.968h19.178
		c-1.828-3.247-2.882-6.984-2.882-10.968V421.128z"/>
	<path style="fill:#808080;" d="M185.685,421.128H35.453l-18.154,23.94h171.267c-1.828-3.247-2.882-6.984-2.882-10.968v-12.972
		H185.685z"/>
</g>
<g>
	<path style="fill:#333333;" d="M197.166,434.101c0,6.048,4.921,10.968,10.97,10.968c6.049,0,10.97-4.92,10.97-10.968v-12.972
		h-21.939v12.972H197.166z"/>
	<path style="fill:#333333;" d="M255.482,434.101c0,6.048,4.92,10.968,10.968,10.968c6.049,0,10.971-4.92,10.971-10.968v-12.972
		h-21.938v12.972H255.482z"/>
</g>
<path style="fill:#808080;" d="M239.762,409.647c89.281-0.948,127.435-53.438,127.435-174.996c0-3.171,2.571-5.741,5.741-5.741
	c3.17,0,5.741,2.569,5.741,5.741c0,42.847-4.819,77.8-14.83,105.385c20.378-8.591,45.962-42.708,48.102-83.484
	c1.162-22.142-2.495-37.845-10.871-46.672c-6.208-6.542-15.411-9.722-28.139-9.722c-3.17,0-5.741-2.569-5.741-5.741
	c0-0.002,0-0.003,0-0.006V40.614l-43.89,56.331c-1.088,1.396-2.759,2.212-4.528,2.212H155.806c-1.769,0-3.441-0.816-4.528-2.212
	l-43.891-56.332v153.784c0,0.008,0.002,0.015,0.002,0.023c0,3.171-2.571,5.741-5.741,5.741c-12.728,0-21.932,3.18-28.14,9.722
	c-8.377,8.827-12.034,24.529-10.873,46.672c2.138,40.727,27.629,74.816,47.964,83.464c-9.85-27.385-14.692-62.257-14.692-105.365
	c0-3.171,2.571-5.741,5.741-5.741s5.741,2.569,5.741,5.741c0,63.875,10.718,108.495,32.766,136.41
	c20.401,25.829,50.483,38.118,94.51,38.587h5.098V409.647z M122.69,186.2c0-27.337,22.241-49.58,49.579-49.58
	s49.579,22.241,49.579,49.58c0,9.001-2.424,17.442-6.635,24.727h44.161c-4.21-7.285-6.634-15.726-6.634-24.727
	c0-27.337,22.241-49.58,49.577-49.58c27.337,0,49.579,22.241,49.579,49.58c0,27.337-22.241,49.577-49.579,49.577
	c-13.912,0-26.495-5.767-35.507-15.028l-24.545,42.514c-1.025,1.776-2.921,2.87-4.971,2.87c-2.052,0-3.946-1.094-4.971-2.87
	l-24.544-42.514c-9.013,9.259-21.597,15.028-35.509,15.028C144.931,235.778,122.69,213.538,122.69,186.2z M206.762,365.553
	c-18.184,0-33.282-13.452-35.875-30.928c-17.475-2.59-30.928-17.688-30.928-35.871c0-3.171,2.571-5.741,5.741-5.741
	c3.17,0,5.741,2.569,5.741,5.741c0,13.667,11.121,24.788,24.789,24.788c13.67,0,24.792-11.119,24.792-24.788
	c0-3.171,2.571-5.741,5.741-5.741c3.17,0,5.741,2.569,5.741,5.741c0,13.667,11.121,24.788,24.789,24.788
	c13.67,0,24.792-11.119,24.792-24.788c0-3.171,2.571-5.741,5.741-5.741c3.17,0,5.741,2.569,5.741,5.741
	c0,13.667,11.121,24.788,24.789,24.788c13.67,0,24.792-11.119,24.792-24.788c0-3.171,2.571-5.741,5.741-5.741
	c3.17,0,5.741,2.569,5.741,5.741c0,18.184-13.452,33.279-30.928,35.871c-2.591,17.475-17.689,30.928-35.872,30.928
	c-12.806,0-24.076-6.676-30.531-16.726C230.838,358.877,219.568,365.553,206.762,365.553z"/>
<path d="M207.777,220.75l24.544,42.514c1.025,1.776,2.921,2.87,4.971,2.87s3.946-1.094,4.971-2.87l24.545-42.514
	c9.013,9.259,21.596,15.028,35.507,15.028c27.337,0,49.579-22.24,49.579-49.577s-22.241-49.58-49.579-49.58
	s-49.577,22.241-49.577,49.58c0,9.001,2.424,17.442,6.634,24.727h-44.161c4.211-7.285,6.635-15.726,6.635-24.727
	c0-27.337-22.241-49.58-49.579-49.58s-49.579,22.241-49.579,49.58c0,27.337,22.241,49.577,49.579,49.577
	C186.18,235.778,198.765,230.009,207.777,220.75z M302.317,148.103c21.007,0,38.098,17.091,38.098,38.099
	c0,21.007-17.091,38.096-38.098,38.096s-38.096-17.089-38.096-38.096C264.22,165.192,281.311,148.103,302.317,148.103z
	 M252.596,222.408l-15.303,26.505l-15.302-26.505H252.596z M134.171,186.2c0-21.008,17.091-38.099,38.097-38.099
	s38.098,17.091,38.098,38.099c0,21.007-17.091,38.096-38.098,38.096S134.171,207.207,134.171,186.2z"/>
<path d="M191.991,186.2c0-10.875-8.847-19.722-19.722-19.722s-19.721,8.847-19.721,19.722c0,10.874,8.847,19.72,19.721,19.72
	C183.144,205.92,191.991,197.074,191.991,186.2z M164.029,186.2c0-4.544,3.697-8.241,8.24-8.241c4.544,0,8.241,3.697,8.241,8.241
	c0,4.543-3.697,8.239-8.241,8.239C167.725,194.439,164.029,190.743,164.029,186.2z"/>
<path d="M302.317,205.92c10.875,0,19.722-8.846,19.722-19.72c0-10.875-8.847-19.722-19.722-19.722
	c-10.875,0-19.721,8.847-19.721,19.722C282.596,197.074,291.443,205.92,302.317,205.92z M302.317,177.959
	c4.544,0,8.241,3.697,8.241,8.241c0,4.543-3.697,8.239-8.241,8.239c-4.544,0-8.24-3.696-8.24-8.239
	C294.077,181.656,297.774,177.959,302.317,177.959z"/>
<path d="M267.825,365.553c18.184,0,33.281-13.452,35.872-30.928c17.475-2.592,30.928-17.688,30.928-35.871
	c0-3.171-2.571-5.741-5.741-5.741c-3.17,0-5.741,2.569-5.741,5.741c0,13.667-11.122,24.788-24.792,24.788
	c-13.668,0-24.789-11.119-24.789-24.788c0-3.171-2.571-5.741-5.741-5.741c-3.17,0-5.741,2.569-5.741,5.741
	c0,13.667-11.122,24.788-24.792,24.788c-13.668,0-24.789-11.119-24.789-24.788c0-3.171-2.571-5.741-5.741-5.741
	c-3.17,0-5.741,2.569-5.741,5.741c0,13.667-11.122,24.788-24.792,24.788c-13.668,0-24.789-11.119-24.789-24.788
	c0-3.171-2.571-5.741-5.741-5.741c-3.17,0-5.741,2.569-5.741,5.741c0,18.184,13.452,33.281,30.928,35.871
	c2.592,17.475,17.69,30.928,35.875,30.928c12.806,0,24.076-6.676,30.531-16.726C243.75,358.877,255.019,365.553,267.825,365.553z
	 M267.824,318.299c5.373,8.363,14.081,14.381,24.235,16.166c-2.39,11.188-12.343,19.607-24.234,19.607
	c-11.892,0-21.846-8.42-24.236-19.607C253.743,332.68,262.451,326.661,267.824,318.299z M206.762,354.072
	c-11.891,0-21.845-8.42-24.235-19.607c10.154-1.785,18.862-7.804,24.235-16.166c5.373,8.363,14.081,14.382,24.236,16.166
	C228.607,345.653,218.653,354.072,206.762,354.072z"/>
<path d="M506.26,357.447h-53.26c-1.257,0-2.479,0.412-3.479,1.173l-66.972,51.027h-80.782
	c25.233-10.797,43.938-29.337,56.573-56.281c13.265-1.708,28.211-12.325,40.728-29.179c14.245-19.179,23.118-43.612,24.348-67.034
	c1.352-25.768-3.23-43.816-14.008-55.176c-7.447-7.848-17.536-12.158-30.727-13.101V23.905c0-2.451-1.557-4.633-3.876-5.429
	c-2.318-0.798-4.887-0.032-6.394,1.9l-52.434,67.297H158.611l-52.435-67.296c-1.507-1.933-4.077-2.699-6.394-1.9
	c-2.319,0.796-3.876,2.978-3.876,5.429v164.972c-13.189,0.943-23.279,5.253-30.726,13.1c-10.78,11.36-15.362,29.408-14.01,55.177
	c1.23,23.426,10.088,47.859,24.302,67.031c12.465,16.814,27.354,27.414,40.59,29.161c4.321,9.292,9.342,17.563,15.083,24.831
	c10.975,13.895,24.703,24.349,41.383,31.471H32.602c-1.796,0-3.489,0.84-4.574,2.271L1.167,447.34
	c-1.318,1.737-1.537,4.07-0.567,6.023c0.97,1.952,2.962,3.186,5.141,3.186h400.213l48.266,36.141
	c1.003,0.751,2.212,1.146,3.441,1.146c0.441,0,0.884-0.051,1.321-0.154c1.656-0.393,3.053-1.498,3.813-3.02l18.642-37.287
	c1.24-2.48,0.53-5.49-1.685-7.156l-32.732-24.604l62.979-54.073c1.822-1.565,2.478-4.098,1.643-6.349
	C510.81,358.941,508.662,357.447,506.26,357.447z M140.156,371.061c-22.048-27.915-32.766-72.535-32.766-136.41
	c0-3.171-2.571-5.741-5.741-5.741s-5.741,2.569-5.741,5.741c0,43.109,4.843,77.981,14.692,105.365
	c-20.335-8.648-45.827-42.738-47.964-83.464c-1.162-22.142,2.496-37.845,10.873-46.672c6.208-6.542,15.412-9.722,28.14-9.722
	c3.17,0,5.741-2.569,5.741-5.741c0-0.008-0.002-0.015-0.002-0.023V40.613l43.891,56.332c1.088,1.396,2.759,2.212,4.528,2.212
	h162.976c1.77,0,3.44-0.816,4.528-2.212l43.89-56.331v153.8c0,0.002,0,0.003,0,0.006c0,3.171,2.571,5.741,5.741,5.741
	c12.727,0,21.931,3.18,28.139,9.722c8.377,8.827,12.033,24.529,10.871,46.672c-2.14,40.776-27.724,74.892-48.102,83.484
	c10.011-27.585,14.83-62.538,14.83-105.386c0-3.171-2.571-5.741-5.741-5.741c-3.17,0-5.741,2.569-5.741,5.741
	c0,121.558-38.154,174.048-127.435,174.996h-5.096C190.64,409.179,160.557,396.89,140.156,371.061z M17.299,445.069l18.154-23.94
	h150.232v12.972c0,3.984,1.054,7.721,2.882,10.968L17.299,445.069L17.299,445.069z M219.106,434.101
	c0,6.048-4.921,10.968-10.97,10.968s-10.97-4.92-10.97-10.968v-12.972h21.939v12.972H219.106z M227.705,445.069
	c1.828-3.247,2.882-6.984,2.882-10.968v-12.972h13.414v12.972c0,3.984,1.054,7.721,2.882,10.968H227.705z M277.42,434.101
	c0,6.048-4.922,10.968-10.971,10.968c-6.048,0-10.968-4.92-10.968-10.968v-12.972h21.938v12.972H277.42z M434.122,417.558
	c-1.319,1.133-2.054,2.804-1.998,4.542c0.056,1.739,0.898,3.358,2.288,4.403l34.616,26.019l-13.428,26.859l-44.295-33.166
	c-0.993-0.744-2.201-1.146-3.441-1.146H286.02c1.827-3.247,2.882-6.984,2.882-10.968v-12.972h95.584
	c1.257,0,2.479-0.412,3.479-1.173l66.973-51.026h35.824L434.122,417.558z"/>
<g>
</g>
<g>
</g>
<g>
</g>
<g>
</g>
<g>
</g>
<g>
</g>
<g>
</g>
<g>
</g>
<g>
</g>
<g>
</g>
<g>
</g>
<g>
</g>
<g>
</g>
<g>
</g>
<g>
</g>
</svg>
