<?xml version="1.0" encoding="iso-8859-1"?>
<!-- Generator: Adobe Illustrator 19.0.0, SVG Export Plug-In . SVG Version: 6.00 Build 0)  -->
<svg version="1.1" id="Layer_1" xmlns="http://www.w3.org/2000/svg" xmlns:xlink="http://www.w3.org/1999/xlink" x="0px" y="0px"
	 viewBox="0 0 511.999 511.999" style="enable-background:new 0 0 511.999 511.999;" xml:space="preserve">
<path style="fill:#754C24;" d="M135.073,270.436v8.649c0,16.889,5.403,27.101,16.058,30.523
	c-4.286-11.655-6.754-23.245-7.237-34.356C140.543,274.759,137.619,273.012,135.073,270.436z"/>
<path style="fill:#E6E6E6;" d="M143.795,263.107v-48.873c-2.31-2.885-6.836-5.378-11.198-4.866c-0.814,0.094-2.25,0.346-2.717,0.981
	c-1.812,2.467,2.051,22.752,2.051,22.752C135.279,250.701,140.295,260.307,143.795,263.107z"/>
<path style="fill:#754C24;" d="M306.038,285.559c-11.87-1.509-26.799-9.385-31.612-12.067h-36.848
	c-4.813,2.682-19.743,10.558-31.612,12.067c3.486,2.647,8.719,4.674,16.573,4.674c8.588,0,19.16-2.381,31.42-7.078
	c0.658-0.252,1.35-0.378,2.043-0.378c0.692,0,1.385,0.126,2.042,0.378c12.26,4.696,22.831,7.078,31.42,7.078
	C297.319,290.234,302.552,288.204,306.038,285.559z"/>
<path style="fill:#333333;" d="M196.316,233.526c7.183,3.387,16.31,2.138,27.128-3.712c7.636-4.13,11.768-9.122,12.629-15.261
	c1.436-10.226-6.489-22.217-12.137-28.919c-15.034,11.595-30.039,20.311-43.164,26.91
	C182.675,218.499,187.241,229.245,196.316,233.526z"/>
<g>
	<path style="fill:#E6E6E6;" d="M193.014,288.457c-3.545-4.919-5.09-10.246-5.36-14.144c-0.209-3.023,1.98-5.684,4.988-6.061
		c2.997-0.379,5.784,1.662,6.327,4.645c0.134,0.734,0.272,1.494,3.279,1.494c7.81,0,21.065-6.208,28.114-9.973v-3.568
		c0-8.914,4.448-19.538,25.64-19.538c21.191,0,25.638,10.626,25.638,19.538v3.567c7.048,3.764,20.304,9.975,28.115,9.975
		c3.007,0,3.145-0.759,3.279-1.494c0.542-2.983,3.323-5.022,6.328-4.645c3.008,0.377,5.197,3.038,4.987,6.062
		c-0.267,3.857-1.782,9.115-5.248,13.99c1.713,2.227,7.838,5.577,17.854,5.577c10.781,0,17.356-3.932,18.254-6.282
		c1.02-5.442,1.577-10.904,1.577-16.344V248.98c-13.956-2.678-24.536-14.972-24.536-29.699v-44.709
		c-35.591-12.742-73.629-14.178-76.249-14.261c-0.46,0.015-2.037,0.074-4.486,0.227c-6.085,6.558-12.377,12.503-18.733,17.916
		c6.194,7.4,16.728,22.512,14.598,37.686c-1.382,9.846-7.608,17.825-18.506,23.719c-8.586,4.644-16.589,6.97-23.929,6.97
		c-4.815,0-9.342-1-13.565-3.004c-6.148-2.916-10.748-7.592-14.149-12.529c-3.927,9.022-12.11,15.781-22.017,17.682v22.274
		c0,5.056,1.64,15.817,1.729,16.156c0.614,2.322,7.266,6.47,18.331,6.47C185.062,293.88,191.142,290.68,193.014,288.457z
		 M292.647,228.809h-5.184c-3.153,0-5.71-2.557-5.71-5.71c0-3.153,2.557-5.71,5.71-5.71h5.184c3.153,0,5.71,2.557,5.71,5.71
		C298.357,226.252,295.8,228.809,292.647,228.809z M269.56,199.111l44.521-6.509c3.118-0.464,6.021,1.704,6.475,4.824
		c0.456,3.12-1.704,6.02-4.824,6.475l-44.521,6.509c-0.28,0.041-0.558,0.061-0.834,0.061c-2.788,0-5.228-2.044-5.643-4.885
		C264.28,202.467,266.44,199.567,269.56,199.111z"/>
	<path style="fill:#E6E6E6;" d="M168.331,219.281v-0.798c-4.859,2.196-9.271,4.065-13.115,5.663v13.071
		C162.812,234.791,168.331,227.672,168.331,219.281z"/>
</g>
<path style="fill:#754C24;" d="M168.331,179.119c-10.841,4.789-21.006,10.817-29.392,18.337v1.058
	c6.373,1.487,12.283,5.55,15.504,11.096c0.4,0.688,0.637,1.423,0.729,2.165c3.961-1.685,8.381-3.627,13.16-5.878v-26.777H168.331z"
	/>
<g>
	<path style="fill:#E6E6E6;" d="M179.752,174.579v25.646c16.674-8.729,35.961-20.907,54.008-37.982
		C219.057,164.093,199.049,167.675,179.752,174.579z"/>
	<path style="fill:#E6E6E6;" d="M326.154,365.458c-4.147,4.59-8.411,8.876-12.72,12.857l18.377,17.352l27.188-27.061
		c-5.249-9.536-11.858-18.187-16.53-23.822C337.64,351.85,332.19,358.777,326.154,365.458z"/>
</g>
<path style="fill:#333333;" d="M62.519,440.175c0,20.491-6.33,47.567-9.663,60.403h37.293v-94.876
	C79.637,411.892,62.519,424.392,62.519,440.175z"/>
<path style="fill:#754C24;" d="M373.059,197.436c-8.388-7.517-18.559-13.528-29.387-18.316v40.16c0,8.391,5.52,15.511,13.115,17.936
	c0,0,0-23.123,0-24.739c0-1.616,0.979-3.193,0.994-3.215c3.263-5.364,9.045-9.293,15.278-10.749V197.436z"/>
<path style="fill:#E6E6E6;" d="M225.801,107.765h8.294c3.153,0,5.71,2.557,5.71,5.71v3.825h32.399v-3.825
	c0-3.153,2.557-5.71,5.71-5.71h8.291c5.178,0,9.39-4.224,9.39-9.417c0-11.353-4.89-22.175-13.416-29.69
	c-3.596-3.168-13.698-9.163-26.17-9.163c-15.379,0-25.119,8.219-26.179,9.157c-8.528,7.52-13.416,18.342-13.416,29.695
	C216.415,103.54,220.625,107.765,225.801,107.765z M266.352,84.383c1.062-1.074,2.535-1.679,4.031-1.679
	c1.508,0,2.981,0.605,4.043,1.679c1.062,1.062,1.667,2.524,1.667,4.031s-0.605,2.981-1.667,4.043
	c-1.062,1.062-2.535,1.667-4.043,1.667c-1.496,0-2.969-0.605-4.031-1.667c-1.062-1.062-1.679-2.535-1.679-4.043
	S265.29,85.444,266.352,84.383z M237.582,84.37c1.062-1.062,2.535-1.667,4.031-1.667c1.508,0,2.981,0.605,4.043,1.667
	c1.062,1.074,1.667,2.547,1.667,4.043c0,1.507-0.605,2.969-1.667,4.043c-1.062,1.062-2.535,1.667-4.043,1.667
	c-1.496,0-2.969-0.605-4.031-1.667c-1.062-1.074-1.679-2.535-1.679-4.043C235.905,86.917,236.521,85.444,237.582,84.37z"/>
<path style="fill:#333333;" d="M255.865,148.89c0.046-0.001,0.091-0.001,0.136-0.001c0.045,0,0.091,0.001,0.136,0.001
	c3.34,0.08,79.704,2.315,122.22,37.983l56.23-61.585c-0.604-2.042-2.083-4.566-5.691-4.566c-1.446,0-3.155,0.325-5.081,0.967
	c-6.869,2.29-13.612,4.344-20.576,4.345c-14.461,0.001-26.026-9.122-36.396-28.711c-17.648-33.341-42.345-72.5-78.529-84.485
	c-4.672,13.501-17.59,23.049-32.312,23.049c-14.722,0-27.641-9.547-32.314-23.05c-36.18,11.983-60.88,51.144-78.53,84.486
	c-10.369,19.587-21.934,28.71-36.395,28.711c-6.963,0-13.707-2.056-20.578-4.345c-1.925-0.642-3.635-0.967-5.08-0.967
	c-3.664,0-5.124,2.55-5.707,4.546l56.243,61.604C176.159,151.205,252.525,148.97,255.865,148.89z M222.271,60.091
	c2.265-2.002,14.562-12.018,33.738-12.018c15.852,0,28.654,7.552,33.72,12.015c10.985,9.683,17.285,23.628,17.285,38.258
	c0,11.49-9.335,20.838-20.81,20.838h-2.581l-0.005,14.325c0,3.153-2.557,5.71-5.71,5.71c-3.153,0-5.71-2.557-5.71-5.71v-4.79H261.71
	v4.79c0,3.153-2.557,5.71-5.71,5.71c-3.153,0-5.71-2.557-5.71-5.71v-4.79h-10.487v4.79c0,3.153-2.557,5.71-5.71,5.71
	s-5.71-2.557-5.71-5.71v-14.325h-2.583c-11.473,0-20.807-9.348-20.807-20.838C204.994,83.718,211.291,69.775,222.271,60.091z"/>
<path style="fill:#754C24;" d="M360.867,309.621c10.679-3.411,16.094-13.628,16.094-30.536v-8.652
	c-2.555,2.594-5.49,4.349-8.852,4.83C367.624,286.375,365.154,297.967,360.867,309.621z"/>
<path style="fill:#E6E6E6;" d="M379.405,209.369c-4.371-0.507-8.887,1.981-11.198,4.866v48.906
	c3.462-2.757,8.503-12.369,11.864-30.038c0,0,3.866-20.284,2.052-22.752C381.656,209.715,380.219,209.463,379.405,209.369z"/>
<polygon style="fill:#808080;" points="323.712,403.728 310.983,391.709 317.424,409.987 "/>
<g>
	<path style="fill:#C43333;" d="M368.632,445.45v-2.846c0-2.077-1.69-3.768-3.768-3.768h-45.594
		c-0.284,3.476-0.569,6.948-0.85,10.382h46.443C366.942,449.219,368.632,447.529,368.632,445.45z"/>
	<path style="fill:#C43333;" d="M364.864,490.197h-49.811c-0.34,4.133-0.632,7.663-0.855,10.381h50.667
		c2.077,0,3.768-1.69,3.768-3.768v-2.846C368.632,491.887,366.942,490.197,364.864,490.197z"/>
</g>
<path style="fill:#E6E6E6;" d="M300.687,396.854l-2.17-6.158c-15.54,11.42-30.729,18.073-42.516,18.073
	c-11.787,0-26.975-6.652-42.516-18.073l-2.17,6.158c3.494,28.06,35.586,46.879,44.681,51.675
	C265.081,443.722,297.199,424.841,300.687,396.854z"/>
<path style="fill:#808080;" d="M261.712,458.448v42.13h41.027c1.081-13.109,3.998-48.492,6.515-79.414l-2.157-6.12
	C296.03,438.625,270.834,453.628,261.712,458.448z"/>
<path style="fill:#754C24;" d="M336.955,305.301c-11.553,0-21.168-3.609-26.137-9.168c-5.194,3.294-12.154,5.522-21.353,5.522
	c-0.31,0-0.637-0.024-0.951-0.029c-0.643,12.407-27.143,13.051-32.512,13.051s-31.87-0.644-32.514-13.051
	c-0.313,0.005-0.64,0.029-0.948,0.029c-9.116,0-16.034-2.186-21.213-5.428c-4.993,5.506-14.563,9.075-26.051,9.075
	c-5.217,0-10.081-0.751-14.304-2.1c17.351,50.018,69.533,94.149,95.029,94.149c25.486,0,77.637-44.097,95.008-94.091
	C346.842,304.563,342.077,305.301,336.955,305.301z"/>
<path style="fill:#333333;" d="M320.564,422.976c-0.12,1.471-0.241,2.953-0.362,4.44h44.662c8.375,0,15.188,6.813,15.188,15.188
	v2.846c0,8.375-6.813,15.188-15.188,15.188h-47.38c-0.528,6.433-1.031,12.564-1.49,18.137h48.87c8.375,0,15.188,6.813,15.188,15.188
	v2.846c0,1.303-0.183,2.56-0.492,3.768h30.874V388.798l-42.796-12.68L320.564,422.976z"/>
<path style="fill:#E6E6E6;" d="M235.933,300.279c3.144,1.357,10.111,2.976,20.069,2.976c9.959,0,16.924-1.621,20.068-2.976
	c-6.19-1.161-12.883-3.045-20.068-5.692C248.818,297.236,242.124,299.118,235.933,300.279z"/>
<path style="fill:#333333;" d="M421.855,405.645v94.932h37.293c-3.332-12.835-9.663-39.912-9.663-60.403
	C449.485,425.294,433.483,412.525,421.855,405.645z"/>
<path style="fill:#808080;" d="M204.91,415.033l-2.161,6.13c2.517,30.922,5.434,66.305,6.515,79.414h41.026v-42.13
	C241.167,453.628,215.973,438.621,204.91,415.033z"/>
<g>
	<path style="fill:#C43333;" d="M143.371,442.604v2.846c0,2.077,1.691,3.768,3.769,3.768h46.443
		c-0.281-3.434-0.565-6.906-0.85-10.382h-45.594C145.061,438.837,143.371,440.527,143.371,442.604z"/>
	<path style="fill:#C43333;" d="M147.139,490.197c-2.077,0-3.769,1.69-3.769,3.768v2.846c0,2.077,1.691,3.768,3.769,3.768h50.667
		c-0.224-2.718-0.516-6.249-0.857-10.381L147.139,490.197L147.139,490.197z"/>
</g>
<path style="fill:#333333;" d="M147.139,478.776h48.87c-0.458-5.573-0.963-11.704-1.49-18.137h-47.38
	c-8.376,0-15.189-6.813-15.189-15.188v-2.846c0-8.376,6.813-15.188,15.189-15.188h44.662c-0.121-1.487-0.242-2.969-0.362-4.44
	l-47.075-46.856l-42.795,12.68V500.58h30.873c-0.31-1.207-0.492-2.466-0.492-3.768v-2.846
	C131.95,485.588,138.764,478.776,147.139,478.776z"/>
<g>
	<path style="fill:#E6E6E6;" d="M256.002,252.73c-14.22,0-14.22,5.082-14.22,8.118v1.223h28.437v-1.223
		C270.22,257.812,270.22,252.73,256.002,252.73z"/>
	<path style="fill:#E6E6E6;" d="M198.569,378.316c-4.309-3.981-8.573-8.268-12.72-12.857c-6.037-6.681-11.487-13.606-16.313-20.672
		c-4.673,5.635-11.281,14.282-16.531,23.82l27.189,27.062L198.569,378.316z"/>
</g>
<polygon style="fill:#808080;" points="194.579,409.987 201.02,391.708 188.291,403.729 "/>
<path d="M270.379,210.471c0.275,0,0.553-0.019,0.834-0.061l44.521-6.509c3.12-0.456,5.281-3.355,4.824-6.475
	c-0.456-3.12-3.358-5.288-6.475-4.824l-44.521,6.509c-3.12,0.456-5.281,3.355-4.824,6.475
	C265.151,208.427,267.591,210.471,270.379,210.471z"/>
<path d="M292.647,217.389h-5.184c-3.153,0-5.71,2.557-5.71,5.71c0,3.153,2.557,5.71,5.71,5.71h5.184c3.153,0,5.71-2.557,5.71-5.71
	C298.357,219.946,295.8,217.389,292.647,217.389z"/>
<path d="M241.615,94.124c1.508,0,2.981-0.605,4.043-1.667c1.062-1.074,1.667-2.535,1.667-4.043c0-1.496-0.605-2.969-1.667-4.043
	c-1.062-1.062-2.535-1.667-4.043-1.667c-1.496,0-2.969,0.605-4.031,1.667c-1.062,1.074-1.679,2.547-1.679,4.043
	c0,1.507,0.617,2.969,1.679,4.043C238.646,93.519,240.119,94.124,241.615,94.124z"/>
<path d="M270.383,94.124c1.508,0,2.981-0.605,4.043-1.667c1.062-1.062,1.667-2.535,1.667-4.043s-0.605-2.969-1.667-4.031
	c-1.062-1.074-2.535-1.679-4.043-1.679c-1.496,0-2.969,0.605-4.031,1.679c-1.062,1.062-1.679,2.524-1.679,4.031
	s0.617,2.981,1.679,4.043C267.414,93.519,268.887,94.124,270.383,94.124z"/>
<path d="M225.801,119.185h2.583v14.325c0,3.153,2.557,5.71,5.71,5.71c3.153,0,5.71-2.557,5.71-5.71v-4.79h10.487v4.79
	c0,3.153,2.557,5.71,5.71,5.71c3.153,0,5.71-2.557,5.71-5.71v-4.79H272.2v4.79c0,3.153,2.557,5.71,5.71,5.71
	c3.153,0,5.71-2.557,5.71-5.71l0.005-14.325h2.581c11.474,0,20.81-9.348,20.81-20.838c0-14.631-6.299-28.575-17.285-38.258
	c-5.066-4.462-17.868-12.015-33.72-12.015c-19.177,0-31.474,10.015-33.738,12.018c-10.98,9.682-17.276,23.627-17.276,38.256
	C204.994,109.838,214.328,119.185,225.801,119.185z M229.83,68.652c1.06-0.938,10.8-9.157,26.179-9.157
	c12.472,0,22.573,5.995,26.17,9.163c8.525,7.516,13.416,18.337,13.416,29.69c0,5.193-4.212,9.417-9.39,9.417h-8.291
	c-3.153,0-5.71,2.557-5.71,5.71v3.825h-32.399v-3.825c0-3.153-2.557-5.71-5.71-5.71h-8.294c-5.176,0-9.386-4.224-9.386-9.417
	C216.415,86.995,221.303,76.173,229.83,68.652z"/>
<path d="M460.906,440.175c0-25.363-28.914-42.35-39.051-47.527v-8.112c0-2.528-1.664-4.757-4.089-5.475l-47.797-14.16
	c-6.705-12.711-15.622-23.901-21.086-30.218c2.438-4.143,4.669-8.314,6.667-12.5c12.117-1.019,32.829-7.913,32.829-43.097
	l0.001-31.527c1.259-4.373,9.455-37.086,2.943-43.97c-1.912-2.02-4.009-3.769-6.847-4.739v-1.742l60.42-66.173
	c1.039-1.139,1.574-2.647,1.484-4.186c-0.412-7.012-5.409-17.445-17.486-17.445c-2.675,0-5.599,0.522-8.692,1.553
	c-5.943,1.98-11.712,3.758-16.966,3.76c-6.666,0-15.68-2.572-26.301-22.633c-19.642-37.108-47.78-81.081-91.386-91.817
	c-1.568-0.387-3.227-0.09-4.565,0.815c-1.337,0.904-2.23,2.334-2.454,3.934c-1.568,11.147-11.254,19.553-22.529,19.553
	c-11.275,0-20.962-8.407-22.531-19.554c-0.225-1.599-1.117-3.029-2.454-3.933c-1.338-0.906-2.998-1.203-4.565-0.815
	C182.85,10.9,154.709,54.873,135.064,91.982c-10.62,20.06-19.634,22.633-26.302,22.633c-5.252,0-11.022-1.778-16.966-3.76
	c-3.093-1.031-6.016-1.553-8.691-1.553c-12.078,0-17.074,10.433-17.485,17.446c-0.09,1.537,0.444,3.046,1.484,4.184l60.415,66.175
	v1.744c-2.832,0.972-4.923,2.725-6.841,4.737c-6.56,6.884,1.697,39.664,2.972,44.073l0.002,31.426
	c0,35.153,20.676,42.066,32.796,43.094c1.999,4.186,4.23,8.36,6.67,12.503c-5.464,6.319-14.379,17.506-21.086,30.217l-47.796,14.16
	c-2.425,0.718-4.089,2.946-4.089,5.475v8.112c-10.137,5.177-39.051,22.165-39.051,47.527c0,25.586-11.084,64.137-11.194,64.524
	c-0.5,1.724-0.16,3.584,0.919,5.019c1.078,1.436,2.769,2.281,4.565,2.281h421.228c1.795,0,3.487-0.845,4.565-2.281
	c1.079-1.436,1.42-3.295,0.919-5.019C471.989,504.312,460.906,465.761,460.906,440.175z M90.149,500.578H52.856
	c3.332-12.835,9.663-39.912,9.663-60.403c0-15.783,17.118-28.283,27.631-34.474V500.578z M358.998,368.607l-27.188,27.061
	l-18.377-17.352c4.309-3.981,8.573-8.268,12.72-12.857c6.038-6.682,11.487-13.607,16.314-20.673
	C347.14,350.42,353.749,359.072,358.998,368.607z M357.78,209.263c-0.015,0.022-0.994,1.599-0.994,3.215c0,1.616,0,24.739,0,24.739
	c-7.596-2.425-13.115-9.545-13.115-17.936v-40.16c10.829,4.789,20.999,10.799,29.387,18.316v1.077
	C366.825,199.97,361.043,203.899,357.78,209.263z M376.961,279.085c0,16.908-5.414,27.125-16.094,30.536
	c4.287-11.656,6.756-23.246,7.242-34.358c3.363-0.481,6.298-2.236,8.852-4.83V279.085z M380.071,233.102
	c-3.36,17.669-8.402,27.282-11.864,30.038v-48.906c2.309-2.884,6.826-5.373,11.198-4.866c0.814,0.094,2.251,0.346,2.718,0.981
	C383.935,212.818,380.071,233.102,380.071,233.102z M77.398,125.269c0.582-1.997,2.043-4.546,5.707-4.546
	c1.445,0,3.154,0.325,5.08,0.967c6.871,2.29,13.614,4.345,20.578,4.345c14.462-0.001,26.026-9.124,36.395-28.711
	c17.65-33.342,42.35-72.503,78.53-84.486c4.673,13.501,17.592,23.05,32.314,23.05c14.723,0,27.641-9.547,32.312-23.049
	c36.185,11.986,60.882,51.145,78.529,84.485c10.37,19.588,21.935,28.712,36.396,28.711c6.965-0.001,13.707-2.056,20.576-4.345
	c1.925-0.642,3.636-0.967,5.081-0.967c3.608,0,5.087,2.524,5.691,4.566l-56.23,61.585c-42.515-35.668-118.88-37.903-122.22-37.983
	c-0.046-0.001-0.091-0.001-0.136-0.001c-0.046,0-0.091,0.001-0.136,0.001c-3.34,0.08-79.707,2.315-122.224,37.983L77.398,125.269z
	 M179.752,200.224v-25.646c19.297-6.903,39.306-10.486,54.008-12.337C215.713,179.317,196.425,191.495,179.752,200.224z
	 M223.936,185.634c5.647,6.702,13.572,18.694,12.137,28.919c-0.861,6.14-4.993,11.132-12.629,15.261
	c-10.819,5.85-19.944,7.1-27.128,3.712c-9.075-4.28-13.641-15.027-15.543-20.982C193.897,205.945,208.902,197.229,223.936,185.634z
	 M131.932,233.102c0,0-3.865-20.285-2.051-22.752c0.467-0.635,1.903-0.887,2.717-0.981c4.361-0.512,8.887,1.981,11.198,4.866v48.873
	C140.295,260.307,135.279,250.701,131.932,233.102z M135.073,279.085v-8.649c2.547,2.575,5.47,4.323,8.821,4.816
	c0.484,11.111,2.952,22.702,7.237,34.356C140.476,306.186,135.073,295.974,135.073,279.085z M154.444,209.61
	c-3.221-5.546-9.132-9.609-15.504-11.096v-1.058c8.387-7.518,18.55-13.547,29.392-18.337v26.778
	c-4.778,2.251-9.199,4.194-13.16,5.878C155.08,211.033,154.842,210.296,154.444,209.61z M168.331,218.483v0.798
	c0,8.391-5.52,15.511-13.115,17.936v-13.071C159.061,222.546,163.472,220.679,168.331,218.483z M156.945,287.411
	c-0.09-0.339-1.729-11.102-1.729-16.156V248.98c9.907-1.902,18.09-8.66,22.017-17.682c3.402,4.937,8.001,9.614,14.149,12.529
	c4.223,2.003,8.75,3.004,13.565,3.004c7.34,0,15.343-2.326,23.929-6.97c10.899-5.894,17.124-13.874,18.506-23.719
	c2.13-15.173-8.403-30.285-14.598-37.686c6.354-5.413,12.648-11.359,18.733-17.916c2.449-0.153,4.026-0.214,4.486-0.227
	c2.62,0.083,40.658,1.519,76.249,14.261v44.709c0,14.727,10.58,27.021,24.536,29.699v22.274c0,5.44-0.557,10.902-1.577,16.344
	c-0.899,2.35-7.474,6.282-18.254,6.282c-10.017,0-16.142-3.35-17.854-5.577c3.466-4.875,4.979-10.133,5.248-13.99
	c0.21-3.023-1.979-5.684-4.987-6.062c-3.005-0.377-5.786,1.663-6.328,4.645c-0.134,0.734-0.272,1.494-3.279,1.494
	c-7.81,0-21.067-6.21-28.115-9.975v-3.567c0-8.914-4.448-19.538-25.638-19.538c-21.192,0-25.64,10.626-25.64,19.538v3.568
	c-7.048,3.765-20.303,9.973-28.114,9.973c-3.007,0-3.145-0.759-3.279-1.494c-0.542-2.983-3.329-5.024-6.327-4.645
	c-3.007,0.377-5.197,3.037-4.988,6.061c0.27,3.898,1.815,9.225,5.36,14.144c-1.872,2.225-7.952,5.424-17.738,5.424
	C164.211,293.88,157.559,289.732,156.945,287.411z M258.044,283.155c-0.658-0.252-1.35-0.378-2.042-0.378
	c-0.692,0-1.385,0.126-2.043,0.378c-12.26,4.696-22.831,7.078-31.42,7.078c-7.854,0-13.088-2.026-16.573-4.674
	c11.869-1.509,26.799-9.385,31.612-12.067h36.848c4.813,2.682,19.741,10.558,31.612,12.067c-3.486,2.645-8.718,4.674-16.573,4.674
	C280.876,290.234,270.305,287.852,258.044,283.155z M276.07,300.279c-3.144,1.356-10.109,2.976-20.068,2.976
	s-16.925-1.619-20.069-2.976c6.191-1.161,12.885-3.044,20.069-5.692C263.186,297.235,269.879,299.118,276.07,300.279z
	 M241.783,262.072v-1.223c0-3.037,0-8.118,14.22-8.118c14.217,0,14.217,5.082,14.217,8.118v1.223H241.783z M169.536,344.787
	c4.827,7.065,10.276,13.99,16.313,20.672c4.147,4.59,8.411,8.876,12.72,12.857l-18.377,17.352l-27.189-27.062
	C158.255,359.069,164.863,350.422,169.536,344.787z M132.442,500.578H101.57V388.799l42.795-12.68l47.075,46.856
	c0.12,1.471,0.241,2.953,0.362,4.44h-44.662c-8.376,0-15.189,6.813-15.189,15.188v2.846c0,8.375,6.813,15.188,15.189,15.188h47.38
	c0.528,6.433,1.031,12.564,1.49,18.137h-48.87c-8.376,0-15.189,6.813-15.189,15.188v2.846
	C131.95,498.112,132.133,499.371,132.442,500.578z M192.733,438.837c0.284,3.476,0.569,6.948,0.85,10.382h-46.443
	c-2.077,0-3.769-1.69-3.769-3.768v-2.846c0-2.077,1.691-3.768,3.769-3.768h45.594V438.837z M147.139,500.578
	c-2.077,0-3.769-1.69-3.769-3.768v-2.846c0-2.077,1.691-3.768,3.769-3.768h49.811c0.34,4.133,0.632,7.663,0.857,10.381
	L147.139,500.578L147.139,500.578z M194.579,409.987l-6.288-6.258l12.729-12.02L194.579,409.987z M250.291,500.578h-41.026
	c-1.082-13.11-3.998-48.492-6.515-79.414l2.161-6.131c11.063,23.588,36.256,38.594,45.381,43.415v42.13H250.291z M211.315,396.854
	l2.17-6.158c15.54,11.42,30.729,18.073,42.516,18.073c11.787,0,26.975-6.652,42.516-18.073l2.17,6.158
	c-3.488,27.987-35.607,46.868-44.69,51.675C246.902,443.733,214.809,424.914,211.315,396.854z M302.738,500.578h-41.027v-42.13
	c9.123-4.819,34.318-19.822,45.386-43.405l2.157,6.12C306.737,452.085,303.821,487.468,302.738,500.578z M256.001,397.348
	c-25.496,0-77.678-44.131-95.029-94.149c4.224,1.35,9.087,2.1,14.304,2.1c11.488,0,21.057-3.569,26.051-9.075
	c5.179,3.242,12.098,5.428,21.213,5.428c0.308,0,0.636-0.024,0.948-0.029c0.644,12.407,27.145,13.051,32.514,13.051
	c5.369,0,31.868-0.644,32.512-13.051c0.313,0.005,0.641,0.029,0.951,0.029c9.2,0,16.159-2.228,21.353-5.522
	c4.97,5.559,14.584,9.168,26.137,9.168c5.122,0,9.888-0.738,14.055-2.042C333.639,353.252,281.487,397.348,256.001,397.348z
	 M323.712,403.728l-6.288,6.258l-6.441-18.278L323.712,403.728z M319.271,438.837h45.594c2.077,0,3.768,1.69,3.768,3.768v2.846
	c0,2.077-1.69,3.768-3.768,3.768h-46.443C318.702,445.785,318.986,442.313,319.271,438.837z M368.632,496.81
	c0,2.077-1.69,3.768-3.768,3.768h-50.667c0.224-2.718,0.516-6.249,0.855-10.381h49.811c2.077,0,3.768,1.69,3.768,3.768V496.81z
	 M410.434,500.578H379.56c0.311-1.207,0.492-2.466,0.492-3.768v-2.846c0-8.375-6.813-15.188-15.188-15.188h-48.87
	c0.458-5.573,0.963-11.704,1.49-18.137h47.38c8.375,0,15.188-6.813,15.188-15.188v-2.846c0-8.376-6.813-15.188-15.188-15.188
	h-44.662c0.121-1.487,0.242-2.969,0.362-4.44l47.074-46.856l42.796,12.68L410.434,500.578L410.434,500.578z M421.855,500.578
	v-94.932c11.628,6.879,27.631,19.649,27.631,34.529c0,20.491,6.33,47.567,9.663,60.403h-37.293V500.578z"/>
<g>
</g>
<g>
</g>
<g>
</g>
<g>
</g>
<g>
</g>
<g>
</g>
<g>
</g>
<g>
</g>
<g>
</g>
<g>
</g>
<g>
</g>
<g>
</g>
<g>
</g>
<g>
</g>
<g>
</g>
</svg>
