<?xml version="1.0" encoding="iso-8859-1"?>
<!-- Generator: Adobe Illustrator 19.0.0, SVG Export Plug-In . SVG Version: 6.00 Build 0)  -->
<svg version="1.1" id="Layer_1" xmlns="http://www.w3.org/2000/svg" xmlns:xlink="http://www.w3.org/1999/xlink" x="0px" y="0px"
	 viewBox="0 0 512.001 512.001" style="enable-background:new 0 0 512.001 512.001;" xml:space="preserve">
<g>
	<path style="fill:#333333;" d="M374.041,235.03c-27.258,17.016-53.107,22.13-66.449,23.667l18.717,37.43
		C365.428,280.992,372.935,250.92,374.041,235.03z"/>
	<path style="fill:#333333;" d="M403.144,318.299c0-3.57-0.215-7.133-0.643-10.673c-12.163,22.723-32.539,42.065-59.02,55.813
		l7.945,21.964c0.585,1.618,0.445,3.411-0.384,4.917c-0.829,1.508-2.268,2.585-3.948,2.956l-32.681,7.227
		c-0.433,0.096-0.867,0.142-1.295,0.142c-2.47,0-4.749-1.538-5.62-3.947l-6.412-17.721c-14.585,3.393-29.723,5.121-45.087,5.121
		c-15.365,0-30.502-1.728-45.087-5.122l-6.409,17.721c-0.872,2.409-3.15,3.963-5.621,3.948c-1.537-0.01-33.976-7.37-33.976-7.37
		c-1.68-0.371-3.118-1.448-3.948-2.956c-0.829-1.507-0.97-3.3-0.384-4.917l7.946-21.962c-26.482-13.751-46.857-33.091-59.021-55.816
		c-0.428,3.539-0.643,7.102-0.643,10.673c0,56.311,52.938,103.741,124.181,112.347v-21.605c0-3.303,2.678-5.98,5.98-5.98h33.964
		c3.303,0,5.98,2.677,5.98,5.98v21.605C350.206,422.04,403.144,374.609,403.144,318.299z"/>
	<path style="fill:#333333;" d="M204.41,258.697c-13.343-1.537-39.193-6.653-66.453-23.667c1.105,15.879,8.609,45.96,47.735,61.097
		L204.41,258.697z"/>
</g>
<path style="fill:#754C24;" d="M244.774,86.557c3.717-0.208,7.458-0.323,11.227-0.323c4.182,0,8.33,0.145,12.45,0.401v-38.92
	c0-4.987-3.464-10.937-7.52-15.847l-22.094,17.071c2.916,4.239,5.939,10.141,5.939,15.906v21.712H244.774z"/>
<g>
	<path style="fill:#FFAA2A;" d="M171.66,198.978c-3.186,11.573-5.667,25.469-7.341,36.384c27.192,11.78,49.155,12.033,49.447,12.035
		c2.069,0.007,3.992,1.082,5.078,2.844c1.085,1.763,1.186,3.96,0.262,5.81l-25.09,50.172c-1.037,2.071-3.137,3.307-5.35,3.307
		c-0.628,0-1.265-0.099-1.89-0.307c-10.782-3.591-19.626-8.189-26.897-13.319c0.517,18.179,2.053,37.33,4.179,51.281
		c4.59,2.834,9.425,5.478,14.488,7.909c2.79,1.339,4.038,4.559,3.008,7.409l0.022,0.008l-7.438,20.56l20.906,4.622l6.452-17.84
		c1.062-2.931,4.175-4.5,7.134-3.722l0.006-0.025c15.214,4.004,31.149,6.035,47.364,6.035c16.211,0,32.145-2.03,47.359-6.032
		l0.005,0.019c2.958-0.779,6.077,0.785,7.139,3.719l6.456,17.846l20.904-4.622l-7.439-20.56l0.03-0.012
		c-1.031-2.85,0.215-6.07,3.007-7.41c5.06-2.43,9.893-5.072,14.481-7.905c2.125-13.947,3.663-33.1,4.181-51.282
		c-7.273,5.132-16.118,9.73-26.9,13.322c-0.624,0.208-1.262,0.307-1.89,0.307c-2.213,0-4.311-1.233-5.348-3.307l-25.09-50.172
		c-0.927-1.854-0.828-4.056,0.262-5.818c1.088-1.763,3.014-2.836,5.086-2.836c0.285-0.001,22.238-0.255,49.419-12.028
		c-1.799-11.691-4.166-26.562-6.871-36.392c-17.09-62.052-49.495-100.598-84.566-100.598
		C221.154,98.379,188.75,136.926,171.66,198.978z"/>
	<path style="fill:#FFAA2A;" d="M347.777,108.667c65.106,33.851,109.756,102.52,109.756,181.561
		c0,79.025-44.625,147.697-109.706,181.559c84.547-4.148,152.214-83.993,152.214-181.561
		C500.04,192.641,432.347,112.785,347.777,108.667z"/>
	<path style="fill:#FFAA2A;" d="M445.574,290.227c0-90.65-62.33-166.818-145.852-186.869c22.306,18.217,41.006,50.345,52.602,92.444
		c2.618,9.509,4.791,22.501,6.602,34.134c5.729-3.056,11.581-6.636,17.419-10.855c1.705-1.231,3.93-1.476,5.861-0.647
		c1.931,0.829,3.285,2.612,3.565,4.697c0.087,0.653,2.075,16.189-4.415,34.562c-3.01,8.516-8.189,18.48-17.088,27.789
		c-0.093,15.055-1.062,34.987-3.05,52.436c18.01-14.191,30.935-31.82,37.396-51.434c0.807-2.452,3.098-4.109,5.68-4.109
		c2.581,0,4.871,1.656,5.68,4.109c3.405,10.332,5.131,21.036,5.131,31.815c0,45.942-31.118,86.485-78.354,108.416
		c-10.354,21.8-23.014,38.865-37.033,50.381C383.241,457.049,445.574,380.877,445.574,290.227z"/>
	<path style="fill:#FFAA2A;" d="M54.467,290.227c0-79.045,44.655-147.714,109.765-181.561
		C79.657,112.779,11.96,192.638,11.96,290.224c0,97.568,67.668,177.413,152.214,181.561
		C99.093,437.924,54.467,369.251,54.467,290.227z"/>
	<path style="fill:#FFAA2A;" d="M175.252,426.716c-47.237-21.93-78.355-62.474-78.355-108.417c0-10.782,1.726-21.486,5.13-31.815
		c0.808-2.453,3.099-4.109,5.68-4.109h0.001c2.581,0,4.871,1.658,5.678,4.109c6.461,19.613,19.385,37.241,37.394,51.431
		c-1.988-17.449-2.955-37.381-3.049-52.435c-8.899-9.309-14.078-19.272-17.087-27.788c-6.492-18.374-4.505-33.91-4.417-34.562
		c0.28-2.083,1.635-3.867,3.566-4.697c1.933-0.83,4.158-0.585,5.861,0.647c5.836,4.216,11.683,7.795,17.41,10.85
		c1.704-10.614,4.077-23.28,7.062-34.128c11.628-42.22,30.402-74.413,52.794-92.604c-83.847,19.812-146.495,96.146-146.495,187.028
		c0,90.66,62.343,166.838,145.882,186.876C198.28,465.59,185.609,448.528,175.252,426.716z"/>
	<path style="fill:#FFAA2A;" d="M272.989,443.259h-0.017v-0.001c-3.298-0.005-5.97-2.679-5.97-5.979v-22.258h-22.005v22.258
		c0,3.301-2.674,5.975-5.973,5.98c-0.002,0-0.004,0-0.005,0h-0.002c-0.001,0-0.004,0-0.005,0
		c-11.688-1.043-32.367-4.756-46.736-9.692c17.633,31.136,40.354,48.691,63.72,48.693c0.001,0,0.001,0,0.002,0
		c23.369,0,46.1-17.552,63.738-48.696C305.362,438.503,276.882,443.034,272.989,443.259z"/>
</g>
<path d="M340.917,96.526h-21.732c-12.438-4.167-25.404-7.151-38.774-8.793V47.714c0-12.304-10.172-23.805-14.545-28.178
	c-2.128-2.129-5.506-2.344-7.884-0.505l-31.275,24.165c-1.36,1.051-2.202,2.636-2.312,4.352c-0.11,1.715,0.524,3.394,1.739,4.609
	c2.332,2.332,6.681,8.744,6.681,12.688v22.749c-13.803,1.609-27.182,4.64-39.998,8.934h-21.732C76.748,96.526,0,183.419,0,290.224
	c0,106.808,76.748,193.703,171.084,193.703h21.696c19.894,6.669,41.146,10.291,63.22,10.291c22.075,0,43.326-3.623,63.22-10.291
	h21.696c94.337,0,171.084-86.894,171.084-193.703C512,183.419,435.254,96.526,340.917,96.526z M260.93,31.867
	c4.057,4.909,7.52,10.859,7.52,15.847v38.922c-4.119-0.256-8.268-0.401-12.45-0.401c-3.767,0-7.509,0.115-11.227,0.323V64.845
	c0-5.766-3.023-11.668-5.939-15.906L260.93,31.867z M256.227,98.379c35.072,0,67.475,38.546,84.566,100.598
	c2.706,9.83,5.072,24.7,6.871,36.392c-27.182,11.773-49.134,12.027-49.419,12.028c-2.073,0-3.998,1.073-5.086,2.836
	c-1.09,1.764-1.189,3.965-0.262,5.818l25.09,50.172c1.036,2.073,3.136,3.307,5.348,3.307c0.628,0,1.267-0.099,1.89-0.307
	c10.783-3.591,19.627-8.19,26.9-13.322c-0.518,18.182-2.056,37.335-4.181,51.282c-4.588,2.833-9.421,5.475-14.481,7.905
	c-2.791,1.341-4.038,4.56-3.007,7.41l-0.03,0.012l7.439,20.56l-20.904,4.622l-6.456-17.846c-1.062-2.935-4.181-4.499-7.139-3.719
	l-0.005-0.019c-15.214,4.003-31.148,6.032-47.359,6.032c-16.215,0-32.15-2.031-47.364-6.035l-0.006,0.025
	c-2.959-0.777-6.072,0.791-7.134,3.722l-6.452,17.84l-20.906-4.622l7.438-20.56l-0.022-0.008c1.029-2.851-0.218-6.07-3.008-7.409
	c-5.063-2.431-9.898-5.074-14.488-7.909c-2.125-13.951-3.662-33.102-4.179-51.281c7.273,5.131,16.117,9.728,26.897,13.319
	c0.624,0.208,1.262,0.307,1.89,0.307c2.213,0,4.313-1.234,5.35-3.307l25.09-50.172c0.924-1.851,0.824-4.048-0.262-5.81
	c-1.085-1.762-3.008-2.837-5.078-2.844c-0.292-0.001-22.256-0.255-49.447-12.035c1.674-10.914,4.156-24.81,7.341-36.384
	C188.75,136.926,221.154,98.379,256.227,98.379z M272.982,403.061h-33.964c-3.302,0-5.98,2.677-5.98,5.98v21.605
	c-71.243-8.606-124.181-56.036-124.181-112.347c0-3.57,0.215-7.134,0.643-10.673c12.164,22.725,32.539,42.065,59.021,55.816
	l-7.946,21.962c-0.586,1.618-0.445,3.411,0.384,4.917c0.83,1.508,2.268,2.585,3.948,2.956c0,0,32.439,7.36,33.976,7.37
	c2.471,0.016,4.749-1.539,5.621-3.948l6.409-17.721c14.584,3.394,29.722,5.122,45.087,5.122c15.363,0,30.501-1.728,45.087-5.121
	l6.412,17.721c0.872,2.409,3.15,3.947,5.62,3.947c0.428,0,0.862-0.047,1.295-0.142l32.681-7.227
	c1.679-0.371,3.118-1.448,3.948-2.956c0.829-1.507,0.97-3.3,0.384-4.917l-7.945-21.964c26.481-13.749,46.857-33.09,59.02-55.813
	c0.428,3.54,0.643,7.102,0.643,10.673c0,56.31-52.938,103.741-124.182,112.347v-21.605
	C278.962,405.738,276.285,403.061,272.982,403.061z M374.041,235.03c-1.106,15.89-8.613,45.962-47.732,61.097l-18.717-37.43
	C320.934,257.16,346.783,252.045,374.041,235.03z M137.957,235.03c27.259,17.015,53.109,22.13,66.453,23.667l-18.718,37.43
	C146.566,280.99,139.062,250.909,137.957,235.03z M11.96,290.224c0-97.586,67.698-177.445,152.273-181.558
	c-65.11,33.846-109.766,102.515-109.766,181.56c0,79.025,44.625,147.697,109.707,181.559
	C79.628,467.638,11.96,387.792,11.96,290.224z M66.426,290.227c0-90.882,62.648-167.215,146.495-187.028
	c-22.392,18.191-41.166,50.384-52.794,92.604c-2.986,10.849-5.358,23.514-7.062,34.128c-5.726-3.056-11.573-6.634-17.41-10.85
	c-1.704-1.232-3.93-1.477-5.861-0.647c-1.931,0.829-3.285,2.612-3.566,4.697c-0.087,0.653-2.074,16.189,4.417,34.562
	c3.009,8.516,8.188,18.479,17.087,27.788c0.094,15.054,1.061,34.986,3.049,52.435c-18.009-14.19-30.934-31.818-37.394-51.431
	c-0.807-2.452-3.098-4.109-5.678-4.109h-0.001c-2.581,0-4.871,1.656-5.68,4.109c-3.404,10.33-5.13,21.033-5.13,31.815
	c0,45.943,31.118,86.486,78.355,108.417c10.357,21.812,23.027,38.874,37.056,50.386C128.771,457.064,66.426,380.887,66.426,290.227z
	 M255.999,482.26c-0.001,0-0.001,0-0.002,0c-23.366-0.001-46.087-17.557-63.72-48.693c14.371,4.937,35.048,8.649,46.736,9.692
	c0.001,0,0.004,0,0.005,0h0.002c0.001,0,0.004,0,0.005,0c3.298-0.005,5.973-2.679,5.973-5.98v-22.258h22.005v22.258
	c0,3.3,2.672,5.974,5.97,5.979v0.001h0.017c3.893-0.225,32.372-4.756,46.748-9.696C302.099,464.708,279.369,482.26,255.999,482.26z
	 M299.717,477.097c14.019-11.516,26.68-28.58,37.033-50.381c47.236-21.93,78.354-62.474,78.354-108.416
	c0-10.779-1.726-21.483-5.131-31.815c-0.808-2.453-3.099-4.109-5.68-4.109c-2.582,0-4.872,1.658-5.68,4.109
	c-6.459,19.614-19.385,37.242-37.396,51.434c1.988-17.449,2.956-37.381,3.05-52.436c8.899-9.309,14.079-19.273,17.088-27.789
	c6.492-18.374,4.504-33.91,4.415-34.562c-0.28-2.083-1.634-3.867-3.565-4.697c-1.931-0.829-4.157-0.584-5.861,0.647
	c-5.84,4.218-11.691,7.799-17.419,10.855c-1.812-11.633-3.984-24.625-6.602-34.134c-11.595-42.098-30.295-74.225-52.602-92.444
	c83.522,20.05,145.852,96.219,145.852,186.869C445.574,380.877,383.241,457.049,299.717,477.097z M347.826,471.785
	c65.082-33.861,109.706-102.534,109.706-181.559c0-79.042-44.65-147.71-109.756-181.561c84.57,4.119,152.263,83.975,152.263,181.559
	C500.04,387.792,432.372,467.638,347.826,471.785z"/>
<g>
</g>
<g>
</g>
<g>
</g>
<g>
</g>
<g>
</g>
<g>
</g>
<g>
</g>
<g>
</g>
<g>
</g>
<g>
</g>
<g>
</g>
<g>
</g>
<g>
</g>
<g>
</g>
<g>
</g>
</svg>
