<?xml version="1.0" encoding="iso-8859-1"?>
<!-- Generator: Adobe Illustrator 19.0.0, SVG Export Plug-In . SVG Version: 6.00 Build 0)  -->
<svg version="1.1" id="Layer_1" xmlns="http://www.w3.org/2000/svg" xmlns:xlink="http://www.w3.org/1999/xlink" x="0px" y="0px"
	 viewBox="0 0 512 512" style="enable-background:new 0 0 512 512;" xml:space="preserve">
<g>
	<path style="fill:#333333;" d="M377.039,325.18c-1.876,7.209-6.177,17.986-15.84,25.042c-9.305,6.794-21.276,8.59-35.574,5.339
		c-2.693-0.376-17.885-3.082-27.909-17.178c-6.447-9.067-9.313-20.682-8.579-34.668l-7.306,7.865
		c-1.909,2.054-5.041,2.386-7.338,0.777c-0.067-0.047-7.536-5.198-15.752-7.1c-8.221-1.901-17.19-0.556-17.28-0.543
		c-2.762,0.433-5.431-1.247-6.241-3.925l-3.107-10.274c-5.486,12.887-13.056,22.265-22.939,27.372
		c-14.017,7.241-30.032,4.016-32.618,3.17c-14.231-3.352-23.78-10.114-28.382-20.103c-4.744-10.293-2.892-21.471-0.663-28.744
		c-52.601-1.529-93.785,8.574-117.342,16.405c39.324,5.729,60.514,22.261,71.697,36.32c10.045,12.628,13.758,25.129,15.116,32.038
		c0.616-0.007,52.964-4.798,91.345,38.028c11.405,12.725,18.37,25.398,21.929,33.318c6.677-5.55,18.448-14.012,34.339-20.295
		c22.475-8.885,57.553-14.809,98.764,5.975c4.256-5.609,13.085-15.207,27.656-22.138c16.443-7.821,43.242-13.405,81.91-0.62
		C456.478,374.123,425.34,346.996,377.039,325.18z"/>
	<path style="fill:#333333;" d="M399.07,79.778c1.528,5.768,2.436,13.848-1.033,21.372c-3.708,8.045-11.325,13.479-22.644,16.154
		c-2.3,0.736-15.585,3.271-26.025-2.548c-6.905-3.848-12.548-9.971-16.754-18.506l-1.391,4.602
		c-0.812,2.685-3.485,4.362-6.249,3.923c-0.056-0.008-6.718-0.999-12.775,0.4c-6.055,1.401-11.605,5.22-11.66,5.258
		c-2.295,1.594-5.426,1.263-7.328-0.784l-3.272-3.522c-0.028,9.514-2.211,17.635-6.92,23.987
		c-6.776,9.139-19.867,13.374-22.258,13.721c-11.352,2.574-20.886,1.117-28.343-4.329c-7.081-5.171-10.557-12.817-12.242-18.48
		c-32.995,15.118-55.264,33.326-68.311,46.183c27.484-7.939,46.827-3.712,58.971,2.063c10.701,5.09,17.478,12.042,21.059,16.545
		c31.676-15.616,58.644-11.02,75.989-4.162c11.376,4.498,20.049,10.441,25.425,14.739c2.941-6.223,8.421-15.107,16.365-24.411
		c25.657-30.048,69.969-29.649,70.09-29.648c1.238-5.62,4.269-14.842,11.647-24.116c8.218-10.331,23.319-22.369,50.529-27.485
		C463.665,85.17,434.868,78.942,399.07,79.778z"/>
</g>
<path d="M375.043,312.028c-1.657-0.71-3.553-0.572-5.096,0.353c-1.546,0.925-2.554,2.543-2.712,4.336
	c-0.015,0.164-1.563,16.378-12.715,24.472c-6.605,4.794-15.567,5.924-26.633,3.364c-0.199-0.046-0.433-0.085-0.636-0.11
	c-0.126-0.015-12.685-1.625-20.473-12.71c-7.053-10.037-8.394-24.775-3.989-43.807c0.574-2.48-0.591-5.036-2.838-6.229
	c-2.248-1.194-5.018-0.726-6.75,1.138l-16.464,17.722c-3.646-2.059-9.289-4.818-15.459-6.247h-0.002
	c-6.173-1.428-12.453-1.43-16.633-1.183l-7.002-23.153c-0.737-2.437-3.046-4.086-5.564-3.989c-2.544,0.084-4.713,1.868-5.287,4.347
	c-4.405,19.034-12.07,31.716-22.833,37.602c-9.643,5.274-24.374,2.291-24.594,2.24c-10.797-2.5-17.851-7.168-20.964-13.877
	c-5.432-11.706,2.112-26.66,2.183-26.796c0.882-1.698,0.84-3.726-0.11-5.386c-0.951-1.659-2.681-2.721-4.591-2.818
	c-91.258-4.58-150.325,24.671-152.795,25.918c-2.298,1.162-3.512,3.737-2.946,6.25c0.565,2.511,2.767,4.318,5.341,4.38
	c40.022,0.988,70.168,12.597,87.182,33.573c12.758,15.729,13.86,31.48,13.869,31.614c0.164,3.08,2.785,5.421,5.864,5.313
	c35.787-1.628,65.162,9.788,87.327,33.893c16.689,18.151,22.88,37.134,22.959,37.379c0.757,2.393,2.97,3.922,5.354,3.922
	c0.56,0,2.589,0,4.055-1.765l0.018,0.018c0.135-0.142,13.733-14.269,36.621-23.318c30.629-12.11,62.175-9.5,93.76,7.757
	c2.708,1.48,6.101,0.498,7.602-2.197c0.074-0.134,7.613-13.398,25.754-22.025c24.582-11.692,56.968-8.969,93.662,7.868
	c2.295,1.055,5.01,0.446,6.638-1.483c1.628-1.93,1.767-4.709,0.343-6.793C495.002,399.432,459.184,348.052,375.043,312.028z
	 M391.016,391.863c-14.571,6.931-23.4,16.53-27.656,22.138c-41.212-20.785-76.289-14.861-98.764-5.975
	c-15.891,6.283-27.661,14.743-34.339,20.295c-3.561-7.92-10.524-20.592-21.929-33.318c-38.382-42.824-90.729-38.034-91.345-38.028
	c-1.358-6.908-5.072-19.409-15.116-32.038c-11.183-14.06-32.373-30.592-71.697-36.32c23.559-7.831,64.741-17.934,117.342-16.405
	c-2.228,7.273-4.081,18.451,0.663,28.744c4.603,9.988,14.151,16.75,28.382,20.103c2.586,0.846,18.601,4.072,32.618-3.17
	c9.884-5.107,17.453-14.486,22.939-27.372l3.107,10.274c0.81,2.677,3.48,4.357,6.241,3.925c0.09-0.013,9.059-1.358,17.28,0.543
	c8.217,1.902,15.685,7.053,15.752,7.1c2.297,1.609,5.429,1.276,7.338-0.777l7.306-7.865c-0.734,13.986,2.133,25.601,8.579,34.668
	c10.023,14.096,25.215,16.802,27.909,17.178c14.298,3.25,26.269,1.455,35.574-5.339c9.663-7.056,13.963-17.833,15.84-25.042
	c48.301,21.816,79.438,48.943,95.887,66.062C434.258,378.458,407.459,384.042,391.016,391.863z"/>
<path d="M508.916,88.885c-1.91-0.963-47.572-23.591-118.047-20.05c-1.903,0.097-3.625,1.16-4.577,2.81
	c-0.954,1.65-1.001,3.68-0.133,5.376c0.056,0.11,5.563,11.066,1.656,19.467c-2.217,4.765-7.336,8.106-15.215,9.93
	c-0.192,0.044-10.343,2.588-18.009-1.613c-7.917-4.337-13.575-13.796-16.867-28.022c-0.574-2.48-2.743-4.263-5.286-4.347
	c-2.537-0.083-4.827,1.552-5.564,3.989l-5.086,16.817c-3.256-0.127-7.722-0.027-12.119,0.99l0,0h-0.001
	c-4.396,1.017-8.452,2.884-11.322,4.436l-11.959-12.872c-1.731-1.864-4.501-2.332-6.749-1.138c-2.248,1.193-3.413,3.749-2.839,6.228
	c3.292,14.226,2.432,25.257-2.839,32.585c-4.65,6.465-15.249,9.31-15.469,9.36c-8.113,1.876-14.636,1.084-19.391-2.361
	c-8.083-5.854-9.24-17.754-9.249-17.853c-0.148-1.801-1.153-3.42-2.7-4.353c-1.548-0.933-3.448-1.062-5.11-0.352
	c-64.989,27.828-92.714,67.602-93.863,69.281c-1.425,2.083-1.285,4.863,0.343,6.793s4.344,2.538,6.638,1.483
	c65.935-30.258,89.125,8.681,90.066,10.327c1.5,2.695,4.894,3.675,7.602,2.197c23.759-12.981,47.485-15.018,70.515-6.055
	c17.432,6.785,27.991,17.664,28.095,17.773c1.103,1.155,2.582,1.738,4.064,1.738l0.001,0.001c2.386,0,4.601-1.533,5.356-3.93
	c0.18-0.569,18.661-56.799,83.431-53.842c3.076,0.14,5.7-2.232,5.864-5.314c0.025-0.471,3.344-47.05,76.37-48.851
	c2.575-0.063,4.776-1.868,5.341-4.38C512.428,92.623,511.213,90.048,508.916,88.885z M431.414,118.219
	c-7.376,9.274-10.409,18.496-11.647,24.116c-0.121-0.001-44.433-0.4-70.09,29.648c-7.944,9.303-13.423,18.188-16.365,24.411
	c-5.376-4.298-14.049-10.241-25.425-14.739c-17.345-6.858-44.313-11.455-75.989,4.162c-3.581-4.503-10.357-11.455-21.059-16.545
	c-12.144-5.775-31.486-10.001-58.971-2.063c13.047-12.857,35.315-31.065,68.311-46.183c1.684,5.663,5.162,13.311,12.242,18.48
	c7.457,5.447,16.99,6.904,28.343,4.329c2.391-0.347,15.481-4.582,22.258-13.721c4.709-6.35,6.891-14.472,6.92-23.987l3.272,3.522
	c1.902,2.047,5.032,2.379,7.328,0.784c0.055-0.038,5.605-3.857,11.66-5.258c6.057-1.399,12.717-0.408,12.775-0.4
	c2.764,0.438,5.437-1.239,6.249-3.923l1.391-4.602c4.205,8.534,9.849,14.658,16.754,18.506c10.44,5.819,23.725,3.284,26.025,2.548
	c11.319-2.675,18.936-8.11,22.644-16.154c3.468-7.524,2.561-15.605,1.033-21.372c35.798-0.836,64.595,5.392,82.874,10.956
	C454.734,95.85,439.631,107.887,431.414,118.219z"/>
<g>
</g>
<g>
</g>
<g>
</g>
<g>
</g>
<g>
</g>
<g>
</g>
<g>
</g>
<g>
</g>
<g>
</g>
<g>
</g>
<g>
</g>
<g>
</g>
<g>
</g>
<g>
</g>
<g>
</g>
</svg>
