<?xml version="1.0" encoding="iso-8859-1"?>
<!-- Generator: Adobe Illustrator 19.0.0, SVG Export Plug-In . SVG Version: 6.00 Build 0)  -->
<svg version="1.1" id="Layer_1" xmlns="http://www.w3.org/2000/svg" xmlns:xlink="http://www.w3.org/1999/xlink" x="0px" y="0px"
	 viewBox="0 0 512.001 512.001" style="enable-background:new 0 0 512.001 512.001;" xml:space="preserve">
<g>
	<path style="fill:#E6E6E6;" d="M143.756,470.03h-5.997c-2.431,0-4.408,1.977-4.408,4.409v20.585c0,2.431,1.977,4.408,4.408,4.408
		h5.997c2.431,0,4.408-1.977,4.408-4.408v-20.585C148.164,472.009,146.187,470.03,143.756,470.03z"/>
	<path style="fill:#E6E6E6;" d="M282.05,470.03h-5.996c-2.431,0-4.408,1.977-4.408,4.409v20.585c0,2.431,1.977,4.408,4.408,4.408
		h5.996c2.431,0,4.408-1.977,4.408-4.408v-20.585C286.457,472.009,284.48,470.03,282.05,470.03z"/>
</g>
<path style="fill:#333333;" d="M101.331,247.949c-2.976,6.949-4.482,14.325-4.482,21.978c0,30.936,25.169,56.105,56.105,56.105
	c30.937,0,56.106-25.167,56.106-56.105c0-7.651-1.507-15.028-4.483-21.978L101.331,247.949L101.331,247.949z"/>
<g>
	<path style="fill:#E6E6E6;" d="M189.855,470.03h-5.997c-2.431,0-4.408,1.977-4.408,4.409v20.585c0,2.431,1.977,4.408,4.408,4.408
		h5.997c2.431,0,4.408-1.977,4.408-4.408v-20.585C194.262,472.009,192.285,470.03,189.855,470.03z"/>
	<path style="fill:#E6E6E6;" d="M235.953,470.03h-5.996c-2.431,0-4.408,1.977-4.408,4.409v20.585c0,2.431,1.977,4.408,4.408,4.408
		h5.996c2.431,0,4.408-1.977,4.408-4.408v-20.585C240.359,472.009,238.382,470.03,235.953,470.03z"/>
	<path style="fill:#E6E6E6;" d="M328.147,470.03h-5.996c-2.431,0-4.408,1.977-4.408,4.409v20.585c0,2.431,1.977,4.408,4.408,4.408
		h5.996c2.431,0,4.408-1.977,4.408-4.408v-20.585C332.555,472.009,330.578,470.03,328.147,470.03z"/>
	<path style="fill:#E6E6E6;" d="M374.246,470.03h-5.997c-2.431,0-4.408,1.977-4.408,4.409v20.585c0,2.431,1.977,4.408,4.408,4.408
		h5.997c2.431,0,4.408-1.977,4.408-4.408v-20.585C378.654,472.009,376.675,470.03,374.246,470.03z"/>
</g>
<path style="fill:#808080;" d="M475.833,202.998c0-61.035-27.559-115.451-70.32-150.323l-57.662,42.686l16.376,36.609
	c1.418,3.168-0.001,6.886-3.17,8.302c-0.833,0.372-1.704,0.549-2.563,0.549c-2.403,0-4.695-1.385-5.74-3.719l-18.439-41.222
	c-1.204-2.693-0.373-5.862,1.997-7.617l58.763-43.502c-28.911-20.324-63.668-32.194-101.025-32.194h-76.095
	c-43.269,0-83.048,15.929-114.295,42.469l39.037,52.353h41.899c3.47,0,6.284,2.813,6.284,6.284c0,3.471-2.814,6.284-6.284,6.284
	h-45.052c-1.984,0-3.852-0.936-5.037-2.527L94.319,63.535c-35.743,34.797-58.147,84.437-58.147,139.463
	c0,34.086,8.698,67.523,25.152,96.702c1.267,2.149,1.186,4.937-0.432,7.031c-8.076,10.449-12.346,22.894-12.346,35.988
	c0,33.104,27.759,60.037,61.879,60.037c5.133,0,10.23-0.608,15.154-1.81c1.87-0.456,3.853-0.029,5.37,1.163
	c1.517,1.191,2.403,3.013,2.403,4.943v51.015c1.409-0.381,2.881-0.601,4.408-0.601h5.997c8.426,0,15.417,6.176,16.733,14.234h6.633
	c1.317-8.059,8.309-14.234,16.733-14.234h5.997c8.426,0,15.417,6.176,16.733,14.234h6.633c1.317-8.059,8.309-14.234,16.733-14.234
	h5.996c8.426,0,15.416,6.176,16.733,14.234h6.635c1.317-8.059,8.307-14.234,16.733-14.234h5.996c8.426,0,15.417,6.176,16.733,14.234
	h6.633c1.317-8.059,8.309-14.234,16.733-14.234h5.996c8.426,0,15.417,6.176,16.733,14.234h6.633
	c1.317-8.059,8.309-14.234,16.733-14.234h5.997c1.526,0,2.999,0.221,4.408,0.601v-51.015c0-1.929,0.886-3.75,2.403-4.943
	c1.518-1.19,3.5-1.619,5.37-1.163c4.923,1.201,10.022,1.81,15.153,1.81c34.12,0,61.879-26.933,61.879-60.037
	c0-13.095-4.269-25.539-12.346-35.988c-1.619-2.094-1.699-4.88-0.434-7.029C467.134,270.52,475.832,237.084,475.833,202.998z
	 M152.954,338.599c-37.866,0-68.673-30.807-68.673-68.673c0-10.927,2.509-21.394,7.459-31.113c1.073-2.106,3.236-3.432,5.6-3.432
	h111.231c2.364,0,4.528,1.327,5.6,3.432c4.949,9.72,7.459,20.188,7.459,31.113C221.628,307.793,190.82,338.599,152.954,338.599z
	 M275.301,404.227c-4.83,0-9.421-1.878-12.593-5.154c-5.832-6.021-11.404-1.922-13.529,0.119c-3.411,3.265-7.824,5.035-12.474,5.035
	c-9.909,0-17.968-8.06-17.968-17.967c0-5.182,6.035-16.651,15.132-33.014c16.409-29.512,20.018-29.512,23.51-29.512
	c6.987,0,19.62,24.52,22.252,29.733c2.98,5.899,13.64,26.508,13.64,32.792C293.269,396.167,285.208,404.227,275.301,404.227z
	 M359.052,338.599c-37.867,0-68.674-30.807-68.674-68.673c0-10.924,2.51-21.392,7.459-31.113c1.072-2.106,3.236-3.432,5.6-3.432
	h111.23c2.363,0,4.527,1.327,5.6,3.432c4.949,9.718,7.459,20.187,7.459,31.113C427.725,307.793,396.919,338.599,359.052,338.599z"/>
<g>
	<path style="fill:#333333;" d="M231.34,386.624c0.191,2.804,2.51,5.035,5.364,5.035c1.386,0,2.702-0.523,3.709-1.474
		c0.973-0.951,7.337-6.823,16.093-6.823c0.059,0,0.117,0,0.176,0.001c5.482,0.049,10.687,2.457,15.054,6.966
		c0.818,0.845,2.118,1.33,3.564,1.33c2.878,0,5.217-2.27,5.372-5.109c-1.555-6.54-16.313-36.7-23.449-47.581
		C249.483,349.755,233.2,379.957,231.34,386.624z"/>
	<path style="fill:#333333;" d="M307.429,247.949c-2.976,6.95-4.483,14.326-4.483,21.978c0,30.936,25.169,56.105,56.106,56.105
		c30.936,0,56.105-25.167,56.105-56.105c0-7.653-1.506-15.029-4.482-21.978L307.429,247.949L307.429,247.949z"/>
</g>
<path d="M214.169,238.815c-1.072-2.106-3.236-3.432-5.6-3.432H97.339c-2.363,0-4.527,1.327-5.6,3.432
	c-4.949,9.718-7.459,20.187-7.459,31.113c0,37.866,30.807,68.673,68.673,68.673c37.867,0,68.674-30.807,68.674-68.673
	C221.628,259.002,219.118,248.535,214.169,238.815z M152.954,326.031c-30.936,0-56.105-25.167-56.105-56.105
	c0-7.653,1.506-15.029,4.482-21.978h103.246c2.976,6.95,4.483,14.326,4.483,21.978C209.06,300.864,183.89,326.031,152.954,326.031z"
	/>
<path d="M414.667,235.381h-111.23c-2.364,0-4.528,1.327-5.6,3.432c-4.949,9.72-7.459,20.188-7.459,31.113
	c0,37.866,30.807,68.673,68.674,68.673c37.866,0,68.673-30.807,68.673-68.673c0-10.927-2.51-21.394-7.459-31.113
	C419.194,236.708,417.03,235.381,414.667,235.381z M359.052,326.031c-30.937,0-56.106-25.167-56.106-56.105
	c0-7.651,1.507-15.028,4.483-21.978h103.246c2.976,6.949,4.482,14.325,4.482,21.978
	C415.157,300.864,389.989,326.031,359.052,326.031z"/>
<path d="M257.377,323.734c-3.491,0-7.101,0-23.51,29.512c-9.097,16.362-15.132,27.832-15.132,33.014
	c0,9.907,8.061,17.967,17.968,17.967c4.651,0,9.063-1.77,12.474-5.035c2.125-2.041,7.697-6.141,13.529-0.119
	c3.172,3.276,7.762,5.154,12.593,5.154c9.909,0,17.968-8.06,17.968-17.967c0-6.284-10.66-26.892-13.64-32.792
	C276.997,348.254,264.364,323.734,257.377,323.734z M275.301,391.659c-1.447,0-2.746-0.485-3.564-1.33
	c-4.367-4.509-9.572-6.917-15.054-6.966c-0.059-0.001-0.117-0.001-0.176-0.001c-8.755,0-15.119,5.872-16.093,6.823
	c-1.007,0.951-2.323,1.474-3.709,1.474c-2.853,0-5.173-2.23-5.364-5.035c1.859-6.667,18.143-36.869,25.883-47.657
	c7.136,10.881,21.893,41.041,23.449,47.581C280.518,389.389,278.179,391.659,275.301,391.659z"/>
<path d="M294.051,0h-76.095C110.789,0,23.604,91.064,23.604,202.998c0,34.914,8.614,69.191,24.9,99.424
	c-8.199,11.94-12.525,25.782-12.525,40.297c0,40.034,33.397,72.605,74.447,72.605c3.475,0,6.938-0.234,10.36-0.699v80.4
	c0,9.359,7.615,16.976,16.976,16.976h5.997c9.361,0,16.976-7.616,16.976-16.976v-10.758h6.148v10.758
	c0,9.359,7.616,16.976,16.976,16.976h5.997c9.361,0,16.976-7.616,16.976-16.976v-10.758h6.15v10.758
	c0,9.359,7.616,16.976,16.976,16.976h5.996c9.361,0,16.976-7.616,16.976-16.976v-10.758h6.15v10.758
	c0,9.359,7.615,16.976,16.976,16.976h5.996c9.361,0,16.976-7.616,16.976-16.976v-10.758h6.15v10.758
	c0,9.359,7.616,16.976,16.976,16.976h5.996c9.361,0,16.976-7.616,16.976-16.976v-10.758h6.15v10.758
	c0,9.359,7.616,16.976,16.976,16.976h5.997c9.361,0,16.976-7.616,16.976-16.976v-80.4c3.422,0.464,6.885,0.699,10.359,0.699
	c41.051,0,74.447-32.57,74.447-72.605c0-14.515-4.326-28.357-12.525-40.297c16.286-30.236,24.898-64.512,24.898-99.424
	C488.401,91.064,401.216,0,294.051,0z M148.164,495.024c0,2.431-1.977,4.408-4.408,4.408h-5.997c-2.431,0-4.408-1.977-4.408-4.408
	v-20.585c0-2.431,1.977-4.409,4.408-4.409h5.997c2.431,0,4.408,1.977,4.408,4.409V495.024z M194.262,495.024
	c0,2.431-1.977,4.408-4.408,4.408h-5.997c-2.431,0-4.408-1.977-4.408-4.408v-20.585c0-2.431,1.977-4.409,4.408-4.409h5.997
	c2.431,0,4.408,1.977,4.408,4.409V495.024z M240.359,495.024c0,2.431-1.977,4.408-4.408,4.408h-5.996
	c-2.431,0-4.408-1.977-4.408-4.408v-20.585c0-2.431,1.977-4.409,4.408-4.409h5.996c2.431,0,4.408,1.977,4.408,4.409V495.024z
	 M286.457,495.024c0,2.431-1.977,4.408-4.408,4.408h-5.996c-2.431,0-4.408-1.977-4.408-4.408v-20.585
	c0-2.431,1.977-4.409,4.408-4.409h5.996c2.431,0,4.408,1.977,4.408,4.409V495.024z M332.555,495.024
	c0,2.431-1.977,4.408-4.408,4.408h-5.996c-2.431,0-4.408-1.977-4.408-4.408v-20.585c0-2.431,1.977-4.409,4.408-4.409h5.996
	c2.431,0,4.408,1.977,4.408,4.409V495.024z M378.654,495.024c0,2.431-1.977,4.408-4.408,4.408h-5.997
	c-2.431,0-4.408-1.977-4.408-4.408v-20.585c0-2.431,1.977-4.409,4.408-4.409h5.997c2.431,0,4.408,1.977,4.408,4.409V495.024z
	 M451.113,306.731c8.076,10.449,12.346,22.894,12.346,35.988c0,33.104-27.759,60.037-61.879,60.037
	c-5.132,0-10.23-0.608-15.153-1.81c-1.871-0.456-3.852-0.029-5.37,1.163c-1.517,1.191-2.403,3.013-2.403,4.943v51.015
	c-1.409-0.381-2.881-0.601-4.408-0.601h-5.997c-8.426,0-15.417,6.176-16.733,14.234h-6.633c-1.317-8.059-8.309-14.234-16.733-14.234
	h-5.996c-8.426,0-15.417,6.176-16.733,14.234h-6.633c-1.317-8.059-8.309-14.234-16.733-14.234h-5.996
	c-8.426,0-15.416,6.176-16.733,14.234h-6.635c-1.317-8.059-8.307-14.234-16.733-14.234h-5.996c-8.426,0-15.417,6.176-16.733,14.234
	h-6.633c-1.317-8.059-8.309-14.234-16.733-14.234h-5.997c-8.426,0-15.417,6.176-16.733,14.234h-6.633
	c-1.317-8.059-8.309-14.234-16.733-14.234h-5.997c-1.527,0-2.999,0.221-4.408,0.601v-51.015c0-1.929-0.886-3.75-2.403-4.943
	c-1.518-1.19-3.5-1.619-5.37-1.163c-4.924,1.201-10.022,1.81-15.154,1.81c-34.12,0-61.879-26.933-61.879-60.037
	c0-13.095,4.269-25.539,12.346-35.988c1.619-2.094,1.699-4.881,0.432-7.031c-16.46-29.18-25.157-62.616-25.159-96.702
	c0-55.026,22.404-104.666,58.147-139.463l40.187,53.897c1.185,1.591,3.054,2.527,5.037,2.527h45.053c3.47,0,6.284-2.813,6.284-6.284
	s-2.814-6.284-6.284-6.284h-41.899L103.66,55.037c31.248-26.54,71.027-42.469,114.295-42.469h76.095
	c37.357,0,72.114,11.87,101.027,32.194l-58.763,43.502c-2.37,1.755-3.201,4.924-1.997,7.617l18.439,41.221
	c1.044,2.334,3.337,3.719,5.74,3.719c0.857,0,1.729-0.177,2.563-0.549c3.168-1.418,4.587-5.134,3.17-8.302L347.851,95.36
	l57.662-42.686c42.761,34.872,70.32,89.288,70.32,150.323c0,34.086-8.698,67.523-25.152,96.703
	C449.415,301.851,449.496,304.637,451.113,306.731z"/>
<g>
</g>
<g>
</g>
<g>
</g>
<g>
</g>
<g>
</g>
<g>
</g>
<g>
</g>
<g>
</g>
<g>
</g>
<g>
</g>
<g>
</g>
<g>
</g>
<g>
</g>
<g>
</g>
<g>
</g>
</svg>
