<?xml version="1.0" encoding="iso-8859-1"?>
<!-- Generator: Adobe Illustrator 19.0.0, SVG Export Plug-In . SVG Version: 6.00 Build 0)  -->
<svg version="1.1" id="Layer_1" xmlns="http://www.w3.org/2000/svg" xmlns:xlink="http://www.w3.org/1999/xlink" x="0px" y="0px"
	 viewBox="0 0 512 512" style="enable-background:new 0 0 512 512;" xml:space="preserve">
<path style="fill:#808080;" d="M387.209,222.82c2.433,0,4.611,1.507,5.472,3.782l4.647,12.299h11.014c2.344,0,4.462,1.4,5.38,3.557
	l5.706,13.393v-78.097c-1.723,0.581-3.56,0.911-5.476,0.911c-7.416,0-13.748-4.725-16.145-11.324h-0.949v12.437
	c0,9.468-7.703,17.172-17.173,17.172c-1.916,0-3.752-0.329-5.474-0.91v24.412l0.898,2.369h12.1V222.82z"/>
<path style="fill:#FFAA2A;" d="M322.778,56.604c2.942,0,6.376-1.371,6.376-5.237c0-5.163-3.525-16.761-6.376-20.441
	c-2.851,3.681-6.374,15.279-6.374,20.441C316.404,55.234,319.837,56.604,322.778,56.604z"/>
<path style="fill:#E6E6E6;" d="M305.647,108.302c3.019,0,5.475-2.456,5.475-5.475c0-3.229,2.618-5.848,5.848-5.848h11.618
	c3.231,0,5.848,2.619,5.848,5.848v18.285c0,3.019,2.456,5.475,5.475,5.475s5.475-2.456,5.475-5.475V97.5
	c0-6.192-5.038-11.229-11.229-11.229h-22.757c-6.191,0-11.229,5.037-11.229,11.229v5.327
	C300.171,105.845,302.627,108.302,305.647,108.302z"/>
<path style="fill:#808080;" d="M345.385,203.018v-65.645c-1.722,0.581-3.559,0.91-5.475,0.91c-9.469,0-17.172-7.703-17.172-17.172
	v-12.436h-0.947c-2.398,6.598-8.73,11.324-16.146,11.324c-1.916,0-3.752-0.329-5.475-0.91v88.756
	c11.786-2.936,26.202-4.839,43.78-4.839C344.422,203.004,344.909,203.016,345.385,203.018z"/>
<path style="fill:#E6E6E6;" d="M379.684,185.254c3.019,0,5.476-2.456,5.476-5.475v-18.285c0-3.229,2.618-5.848,5.848-5.848h11.619
	c3.231,0,5.848,2.619,5.848,5.848c0,3.019,2.456,5.475,5.474,5.475c3.019,0,5.476-2.456,5.476-5.475v-5.327
	c0-6.19-5.038-11.228-11.229-11.228h-22.759c-6.191,0-11.228,5.037-11.228,11.228v23.612
	C374.212,182.798,376.667,185.254,379.684,185.254z"/>
<path style="fill:#808080;" d="M445.654,347.256l-41.178-96.659h-2.73l35.426,93.768c0.356,0.94,0.443,1.934,0.306,2.891
	L445.654,347.256L445.654,347.256z"/>
<path style="fill:#FFAA2A;" d="M396.819,115.272c2.942,0,6.375-1.371,6.375-5.237c0-5.162-3.524-16.76-6.375-20.441
	c-2.852,3.681-6.376,15.279-6.376,20.441C390.443,113.901,393.877,115.272,396.819,115.272z"/>
<g>
	<path style="fill:#808080;" d="M383.167,234.517h-3.622l34.084,89.897c0.373,0.772,0.584,1.638,0.584,2.552
		c0,3.225-2.608,5.84-5.832,5.848c-0.784-0.012-1.682-0.168-2.475-0.531c-0.18-0.082-19.307-8.612-47.675-8.612
		c-29.238,0-57.197,8.631-83.346,25.68c1.105-0.536,2.217-1.059,3.329-1.567c0.075-0.034,0.149-0.069,0.226-0.099
		c54.759-24.943,118.566-15.091,143.862-9.581L383.167,234.517z"/>
	<path style="fill:#808080;" d="M407.352,347.256c-21.383-3.531-55.087-6.666-88.908,0H407.352z"/>
</g>
<polygon style="fill:#333333;" points="89.614,481.791 418.777,481.791 429.417,460.757 78.975,460.757 "/>
<path style="fill:#808080;" d="M74.094,347.256c-0.137-0.958-0.049-1.951,0.306-2.891l35.423-93.768h-2.729l-41.176,96.659
	L74.094,347.256L74.094,347.256z"/>
<path style="fill:#754C24;" d="M451.02,280.484h-21.1c0,0,29.415,69.048,29.96,70.325c0.545,1.278,0.469,2.271,0.469,2.295v17.797
	c0,3.229-2.618,5.848-5.848,5.848H279.398c-3.294,7.137-12.483,12.158-23.613,12.158c-11.131,0-20.318-5.02-23.613-12.158H57.071
	c-3.231,0-5.848-2.619-5.848-5.848v-17.797c0-0.023-0.154-0.752,0.436-2.201c0.485-1.238,29.992-70.419,29.992-70.419H60.984
	L14.59,392.913h482.823L451.02,280.484z"/>
<path style="fill:#E6E6E6;" d="M398.447,317.371l-38.735-102.17c-5.413-0.332-10.7-0.501-15.763-0.501
	c-60.864,0-78.967,23.578-82.178,28.701v100.726c29.953-21.345,62.348-32.153,96.457-32.153
	C375.312,311.975,389.231,314.78,398.447,317.371z"/>
<g>
	<rect x="11.697" y="404.612" style="fill:#808080;" width="488.607" height="44.447"/>
	<path style="fill:#808080;" d="M104.136,347.256h89.048C159.283,340.55,125.52,343.709,104.136,347.256z"/>
	<path style="fill:#808080;" d="M241.905,358.551c-1.035,2.021-3.086,3.184-5.21,3.184c-0.898,0-1.808-0.207-2.661-0.644
		c-1.453-0.744-2.92-1.45-4.391-2.138H62.919v6.1H236.7c3.231,0,5.848,2.619,5.848,5.848c0,2.511,5.28,6.309,13.236,6.309
		c7.957,0,13.236-3.797,13.236-6.309c0-3.229,2.618-5.848,5.848-5.848h173.783v-6.1H281.927c-1.473,0.688-2.939,1.394-4.392,2.138
		c-0.853,0.437-1.764,0.644-2.661,0.644c-2.124,0-4.175-1.161-5.21-3.184c-1.008-1.97-0.768-4.231,0.392-5.941
		c-3.525,2.46-7.018,5.067-10.473,7.838c-1.059,0.848-2.353,1.285-3.66,1.285c-0.047,0-0.092-0.006-0.139-0.007
		c-0.047,0.001-0.095,0.007-0.142,0.007c-1.284,0-2.576-0.42-3.655-1.285c-3.455-2.771-6.948-5.377-10.473-7.837
		C242.675,354.322,242.915,356.583,241.905,358.551z"/>
</g>
<path style="fill:#E6E6E6;" d="M149.917,312.014c24.822-0.547,61.602,4.868,100.16,32.343V243.898
	c-2.655-4.325-23.348-33.288-98.218-28.697l-38.737,102.171C121.714,314.958,134.394,312.356,149.917,312.014z"/>
<path style="fill:#808080;" d="M233.131,347.684c0.077,0.032,0.153,0.067,0.229,0.101c1.172,0.536,2.335,1.103,3.497,1.673
	c-27.005-17.657-55.913-26.315-86.137-25.762c-26.915,0.492-44.888,8.512-45.066,8.592c-2.157,0.978-4.696,0.561-6.423-1.059
	c-1.728-1.621-2.312-4.121-1.471-6.336l34.266-90.377h-3.625L89.268,338.104C114.561,332.593,178.368,322.741,233.131,347.684z"/>
<path d="M460.339,272.404c-0.903-2.19-3.039-3.618-5.406-3.618h-23.81V156.167c0-12.641-10.284-22.924-22.926-22.924h-5.531v-7.127
	c7.252-2.178,12.223-8.364,12.223-16.081c0-5.575-4.922-32.856-18.071-32.856c-13.151,0-18.073,27.283-18.073,32.856
	c0,7.716,4.971,13.903,12.224,16.081v7.127h-5.531c-12.641,0-22.924,10.284-22.924,22.924v47.505
	c-1.825-0.125-3.634-0.232-5.433-0.32V97.5c0-12.641-10.284-22.926-22.926-22.926h-5.53v-7.126
	c7.253-2.178,12.224-8.364,12.224-16.081c0-5.575-4.922-32.857-18.073-32.857c-13.148,0-18.07,27.283-18.07,32.857
	c0,7.715,4.97,13.903,12.222,16.081v7.126h-5.53c-12.642,0-22.926,10.284-22.926,22.926v113.866
	c-17.46,6.25-27.408,14.707-32.682,20.701c-10.438-11.88-39.235-33.442-108.508-28.278c-2.266,0.17-4.227,1.634-5.033,3.759
	l-5.79,15.272h-12.1c-2.433,0-4.611,1.507-5.472,3.782l-4.647,12.299h-11.012c-2.344,0-4.461,1.4-5.38,3.557l-11.216,26.33H57.071
	c-2.367,0-4.503,1.428-5.406,3.618c0,0-50.546,122.57-51.221,124.125c-0.488,0.871-0.442,2.217-0.442,2.231v56.149
	c0,3.229,2.618,5.848,5.848,5.848h60.017L80.8,490.281c0.997,1.969,3.013,3.208,5.219,3.208h336.354
	c2.206,0,4.223-1.241,5.219-3.208l14.933-29.521h63.627c3.231,0,5.848-2.619,5.848-5.848v-56.149c0-0.015,0.007-1.209-0.442-2.231
	L460.339,272.404z M437.171,344.364l-35.426-93.768h2.73l41.178,96.659h-8.176C437.615,346.298,437.527,345.305,437.171,344.364z
	 M278.439,347.685c-0.077,0.03-0.151,0.065-0.226,0.099c-1.112,0.51-2.222,1.033-3.329,1.567
	c26.148-17.049,54.108-25.68,83.346-25.68c28.368,0,47.495,8.53,47.675,8.612c0.793,0.364,1.691,0.521,2.475,0.531
	c3.224-0.008,5.832-2.624,5.832-5.848c0-0.915-0.211-1.78-0.584-2.552l-34.084-89.897h3.622l39.135,103.587
	C397.005,332.593,333.197,322.742,278.439,347.685z M407.352,347.256h-88.908C352.265,340.59,385.968,343.725,407.352,347.256z
	 M390.443,110.035c0-5.162,3.525-16.76,6.376-20.441c2.852,3.681,6.375,15.279,6.375,20.441c0,3.866-3.433,5.237-6.375,5.237
	C393.877,115.272,390.443,113.901,390.443,110.035z M374.212,156.167c0-6.19,5.037-11.228,11.228-11.228h22.759
	c6.191,0,11.229,5.037,11.229,11.228v5.327c0,3.019-2.457,5.475-5.476,5.475c-3.018,0-5.474-2.456-5.474-5.475
	c0-3.229-2.618-5.848-5.848-5.848h-11.619c-3.231,0-5.848,2.619-5.848,5.848v18.285c0,3.019-2.457,5.475-5.476,5.475
	c-3.018,0-5.474-2.456-5.474-5.475v-23.612H374.212z M374.212,196.04c1.722,0.581,3.558,0.91,5.474,0.91
	c9.47,0,17.173-7.703,17.173-17.172v-12.437h0.949c2.397,6.598,8.729,11.324,16.145,11.324c1.916,0,3.754-0.329,5.476-0.911v78.095
	l-5.706-13.393c-0.918-2.157-3.036-3.557-5.38-3.557h-11.014l-4.647-12.299c-0.86-2.275-3.039-3.782-5.472-3.782h-12.1l-0.898-2.369
	V196.04z M316.404,51.369c0-5.163,3.524-16.761,6.374-20.441c2.852,3.681,6.376,15.279,6.376,20.441
	c0,3.865-3.434,5.237-6.376,5.237C319.837,56.604,316.404,55.234,316.404,51.369z M300.171,97.5c0-6.192,5.038-11.229,11.229-11.229
	h22.757c6.191,0,11.229,5.037,11.229,11.229v23.612c0,3.019-2.456,5.475-5.475,5.475c-3.019,0-5.475-2.456-5.475-5.475v-18.285
	c0-3.229-2.618-5.848-5.848-5.848h-11.618c-3.231,0-5.848,2.619-5.848,5.848c0,3.019-2.456,5.475-5.475,5.475
	c-3.019,0-5.475-2.456-5.475-5.475V97.5H300.171z M300.171,119.087c1.723,0.581,3.559,0.91,5.475,0.91
	c7.416,0,13.748-4.725,16.146-11.324h0.947v12.437c0,9.468,7.703,17.172,17.172,17.172c1.916,0,3.753-0.329,5.475-0.91v65.645
	c-0.476-0.002-0.963-0.014-1.435-0.014c-17.577,0-31.994,1.903-43.78,4.839v-88.756H300.171z M261.773,243.402
	c3.211-5.123,21.314-28.701,82.178-28.701c5.061,0,10.349,0.168,15.762,0.501l38.735,102.17c-9.216-2.591-23.135-5.396-40.218-5.396
	c-34.109,0-66.503,10.808-96.457,32.153V243.402z M255.643,361.734c0.047,0,0.095-0.006,0.142-0.007
	c0.047,0.001,0.092,0.007,0.139,0.007c1.307,0,2.601-0.437,3.66-1.285c3.455-2.771,6.948-5.378,10.473-7.838
	c-1.16,1.71-1.4,3.971-0.392,5.941c1.035,2.021,3.086,3.184,5.21,3.184c0.898,0,1.808-0.207,2.661-0.645
	c1.453-0.744,2.919-1.45,4.392-2.138h166.725v6.1H274.87c-3.231,0-5.848,2.619-5.848,5.848c0,2.511-5.28,6.309-13.236,6.309
	c-7.957,0-13.236-3.797-13.236-6.309c0-3.229-2.618-5.848-5.848-5.848H62.919v-6.1h166.725c1.471,0.688,2.938,1.394,4.391,2.138
	c0.853,0.437,1.764,0.645,2.661,0.645c2.124,0,4.175-1.163,5.21-3.184c1.008-1.97,0.768-4.23-0.392-5.941
	c3.525,2.46,7.018,5.066,10.473,7.837C253.066,361.314,254.359,361.734,255.643,361.734z M104.136,347.256
	c21.384-3.546,55.146-6.706,89.048,0H104.136z M151.858,215.201c74.871-4.591,95.563,24.371,98.218,28.697v100.458
	c-38.558-27.476-75.339-32.89-100.16-32.343c-15.523,0.343-28.203,2.944-36.796,5.359L151.858,215.201z M128.402,234.517h3.625
	l-34.266,90.377c-0.841,2.214-0.256,4.715,1.471,6.336c1.728,1.621,4.266,2.036,6.423,1.059c0.178-0.081,18.152-8.1,45.066-8.592
	c30.224-0.553,59.132,8.105,86.137,25.762c-1.163-0.568-2.325-1.136-3.497-1.673c-0.077-0.035-0.152-0.07-0.229-0.101
	c-54.763-24.943-118.57-15.091-143.862-9.58L128.402,234.517z M107.095,250.597h2.729L74.4,344.364
	c-0.356,0.94-0.443,1.934-0.306,2.891h-8.175L107.095,250.597z M60.984,280.484H81.65c0,0-29.506,69.181-29.992,70.419
	c-0.591,1.449-0.436,2.179-0.436,2.201v17.797c0,3.229,2.618,5.848,5.848,5.848h175.102c3.294,7.137,12.483,12.158,23.613,12.158
	c11.131,0,20.318-5.02,23.613-12.158h175.103c3.231,0,5.848-2.619,5.848-5.848v-17.797c0-0.023,0.075-1.016-0.469-2.295
	c-0.545-1.278-29.96-70.325-29.96-70.325h21.1l46.393,112.429H14.59L60.984,280.484z M418.777,481.791H89.614l-10.639-21.033
	h350.442L418.777,481.791z M500.303,449.061H11.698v-44.452h488.605V449.061z"/>
<g>
</g>
<g>
</g>
<g>
</g>
<g>
</g>
<g>
</g>
<g>
</g>
<g>
</g>
<g>
</g>
<g>
</g>
<g>
</g>
<g>
</g>
<g>
</g>
<g>
</g>
<g>
</g>
<g>
</g>
</svg>
