<?xml version="1.0" encoding="UTF-8" standalone="no"?>
<!-- Generator: Adobe Illustrator 19.0.0, SVG Export Plug-In . SVG Version: 6.00 Build 0)  -->

<svg
   version="1.1"
   id="Layer_1"
   x="0px"
   y="0px"
   viewBox="0 0 511.996 511.996"
   style="enable-background:new 0 0 511.996 511.996;"
   xml:space="preserve"
   sodipodi:docname="24.svg"
   inkscape:version="1.1 (c68e22c387, 2021-05-23)"
   xmlns:inkscape="http://www.inkscape.org/namespaces/inkscape"
   xmlns:sodipodi="http://sodipodi.sourceforge.net/DTD/sodipodi-0.dtd"
   xmlns="http://www.w3.org/2000/svg"
   xmlns:svg="http://www.w3.org/2000/svg"><defs
   id="defs51" /><sodipodi:namedview
   id="namedview49"
   pagecolor="#ffffff"
   bordercolor="#666666"
   borderopacity="1.0"
   inkscape:pageshadow="2"
   inkscape:pageopacity="0.0"
   inkscape:pagecheckerboard="0"
   showgrid="false"
   inkscape:zoom="5.2149532"
   inkscape:cx="232.12097"
   inkscape:cy="319.37007"
   inkscape:window-width="3440"
   inkscape:window-height="1377"
   inkscape:window-x="-8"
   inkscape:window-y="239"
   inkscape:window-maximized="1"
   inkscape:current-layer="Layer_1" />
<path
   style="fill:#d40000"
   d="M243.112,316.044c0.942,0.422,1.935,0.636,2.951,0.636c2.846,0,5.436-1.677,6.6-4.275  c0.789-1.761,0.846-3.725,0.158-5.529c-0.687-1.804-2.036-3.232-3.8-4.021c-0.94-0.421-1.93-0.634-2.945-0.634  c-2.847,0-5.438,1.678-6.602,4.275c-0.789,1.761-0.845,3.724-0.158,5.528C240.002,313.827,241.351,315.255,243.112,316.044z"
   id="path2" />
<path
   style="fill:#333333;"
   d="M212.655,338.976c0.03-0.073,0.053-0.146,0.084-0.217c0.236-0.527,0.503-1.032,0.783-1.528  l-3.592-1.609C210.57,336.697,211.466,337.828,212.655,338.976z"
   id="path4" />
<path
   style="fill:#808080;"
   d="M277,345.433c-6.263,13.975-6.327,29.744-0.185,44.402c6.195,14.787,17.947,26.667,33.089,33.452  c8.566,3.838,17.572,5.784,26.765,5.784c23.351,0,44.249-12.97,53.243-33.042c6.263-13.976,6.328-29.745,0.185-44.403  c-6.196-14.786-17.948-26.667-33.092-33.451c-8.567-3.839-17.571-5.785-26.765-5.785C306.893,312.389,285.994,325.36,277,345.433z"
   id="path6" />
<g
   id="g12">
	<path
   style="fill:#333333;"
   d="M286.63,315.83c-1.894-2.812-4.212-5.195-6.903-7.056c-1.676-0.089-3.283-0.922-4.305-2.392   c-3.686-1.615-7.639-2.334-11.691-2.141c1.249,4.216,0.971,8.689-0.846,12.746c-2.965,6.62-9.57,10.896-16.823,10.896   c-0.001,0,0,0-0.001,0c-2.607,0-5.141-0.543-7.532-1.617c-1.246-0.559-2.402-1.254-3.474-2.049   c-0.336,0.653-0.659,1.316-0.961,1.992c-0.3,0.671-0.579,1.35-0.841,2.032c1.311,0.27,2.595,0.677,3.84,1.235   c4.492,2.012,7.932,5.655,9.685,10.255c1.754,4.6,1.61,9.609-0.404,14.101c-1.827,4.083-5.045,7.272-8.943,9.117   c2.596,3.203,5.821,5.712,9.558,7.388c4.449,1.992,9.302,2.656,14.246,1.997c-0.771-10.749,1.063-21.487,5.543-31.485   C271.243,330.884,278.131,322.381,286.63,315.83z"
   id="path8" />
	<path
   style="fill:#333333;"
   d="M229.249,301.916c0.033-0.072,0.071-0.14,0.104-0.211c-1.658-0.128-3.104-0.044-4.336,0.193   l3.607,1.615C228.808,302.975,229.013,302.441,229.249,301.916z"
   id="path10" />
</g>
<path
   style="fill:#d40000"
   d="M232.512,339.7c-0.94-0.421-1.931-0.635-2.946-0.635c-2.847,0-5.439,1.678-6.603,4.275  c-1.629,3.637,0.003,7.921,3.639,9.551c0.94,0.421,1.933,0.634,2.949,0.634c2.848,0,5.438-1.677,6.6-4.272  c0.791-1.766,0.848-3.73,0.161-5.533C235.622,341.917,234.274,340.49,232.512,339.7z"
   id="path14" />
<path
   d="M146.302,291.788c5.57,6.936,8.473,13.266,8.144,17.633l-3.167,14.278c-0.67,3.02,1.237,6.012,4.256,6.682  c0.409,0.091,0.817,0.134,1.219,0.134c2.569,0,4.883-1.778,5.464-4.389l2.718-12.251c0.125-0.304,0.229-0.621,0.302-0.952  c2.874-12.996,39.499-26.235,72.57-26.235c13.305,0,23.513,2.328,28.4,6.331c-3.325-0.104-6.698,0.233-10.073,1.015  c-0.803-0.522-1.641-1.004-2.533-1.403c-2.39-1.07-4.922-1.613-7.525-1.613c-2.434,0-4.79,0.492-6.966,1.381  c-17.095-5.644-27.219,2.464-30.259,7.793c-0.784,1.372-0.952,3.013-0.462,4.515c0.491,1.502,1.593,2.728,3.035,3.374l15.903,7.126  c-1.284,2.046-2.451,4.183-3.454,6.418c-0.999,2.232-1.818,4.526-2.492,6.848l-15.9-7.125c-1.442-0.646-3.09-0.652-4.538-0.019  c-1.447,0.634-2.56,1.851-3.063,3.349c-1.953,5.819-1.268,18.776,14.337,27.781c1.628,4.578,5.032,8.514,9.805,10.653  c0.888,0.398,1.803,0.698,2.728,0.95c4.07,7.446,10.123,13.12,17.66,16.499c4.816,2.158,9.936,3.243,15.164,3.243  c0.737,0,1.479-0.039,2.219-0.083l-32.03,17.213l-19.988-8.956l-21.986-28.524c-1.888-2.449-5.405-2.906-7.857-1.017  c-2.45,1.889-2.905,5.405-1.016,7.856l22.846,29.641c0.565,0.733,1.302,1.314,2.146,1.693l23.789,10.659  c0.729,0.327,1.51,0.49,2.29,0.49c0.913,0,1.826-0.224,2.652-0.668l35.416-19.034c0.146,0.363,0.274,0.729,0.427,1.091  c2.018,4.814,4.547,9.352,7.503,13.586l-25.593,25.545l-43.909-10.552l-41.931-36.625c-2.33-2.034-5.868-1.797-7.904,0.534  c-2.034,2.33-1.797,5.868,0.534,7.904l42.968,37.531c0.681,0.595,1.497,1.016,2.376,1.228l48.295,11.607  c0.434,0.104,0.873,0.155,1.309,0.155c1.466,0,2.895-0.576,3.957-1.637l27.027-26.977c3.731,3.91,7.898,7.431,12.447,10.5  l18.68,57.832c0.487,1.51,1.592,2.741,3.039,3.39l52.042,23.32c0.726,0.325,1.508,0.49,2.291,0.49c0.557,0,1.116-0.083,1.657-0.251  l47.68-14.764c2.957-0.915,4.609-4.053,3.695-7.008c-0.914-2.956-4.054-4.608-7.008-3.694l-45.663,14.139l-47.839-21.437  l-14.356-44.444c3.973,1.623,8.02,2.911,12.131,3.845l14.743,26.673c0.587,1.063,1.505,1.906,2.611,2.403l34.782,15.586  c0.729,0.327,1.511,0.49,2.291,0.49c0.862,0,1.72-0.198,2.508-0.593l39.686-19.878c2.766-1.386,3.885-4.751,2.501-7.517  c-1.386-2.767-4.75-3.885-7.517-2.501l-37.311,18.689l-30.65-13.734l-9.84-17.803c0.984,0.038,1.967,0.077,2.954,0.077  c27.758,0,52.67-15.569,63.465-39.664c7.543-16.833,7.648-35.767,0.295-53.314c-3.54-8.449-8.621-16.078-14.928-22.612l19.81-4.499  l30.649,13.734l10.883,40.284c0.674,2.497,2.935,4.143,5.404,4.143c0.484,0,0.975-0.064,1.464-0.195  c2.987-0.807,4.753-3.882,3.947-6.869l-11.575-42.849c-0.439-1.623-1.583-2.964-3.117-3.651l-34.782-15.585  c-1.108-0.495-2.348-0.62-3.531-0.351l-29.722,6.75c-3.428-2.439-7.08-4.613-10.938-6.5l42.722-18.864l47.837,21.438l19.84,43.488  c0.94,2.061,2.972,3.278,5.1,3.278c0.777,0,1.567-0.162,2.321-0.506c2.815-1.284,4.056-4.607,2.772-7.421l-20.717-45.41  c-0.566-1.239-1.563-2.229-2.805-2.787l-52.039-23.32c-1.449-0.65-3.103-0.654-4.553-0.012l-55.61,24.555  c-5.279-1.339-10.661-2.101-16.111-2.281l2.148-38.15c0.11-1.944-0.799-3.806-2.4-4.917l-34.172-23.714  c13.634-17.768,29.849-30.789,39.785-30.882c1.684-0.016,11.218,2.605,13.711,2.682c2.568,0.08,4.883-1.778,5.464-4.39  c0.67-3.02-1.236-6.012-4.256-6.682c0,0-10.654-2.376-10.72-2.389c-4.212-1.034-8.626-5.68-12.668-12.764  c-5.351-9.38-10.047-23.042-12.738-38.31c-4.525-25.67-2.018-47.994,5.963-53.091l10.238-6.52c2.608-1.661,3.378-5.124,1.714-7.733  c-1.66-2.609-5.122-3.378-7.733-1.715l-10.224,6.512c-0.002,0.001-0.004,0.002-0.006,0.003c-1.736,1.106-4.187,1.667-7.283,1.667  c-18.938,0-54.263-20.869-71.318-42.131c-6.082-7.582-9.011-14.451-8.034-18.844c0.065-0.292,2.821-13.072,2.821-13.072  c0.67-3.02-1.237-6.012-4.256-6.682c-3.019-0.67-6.012,1.233-6.683,4.255l-3.113,14.035c-4.408,12.485-39.943,24.88-72.147,24.88  c-16.103,0-27.802-3.275-31.296-8.761c-0.001-0.001-0.001-0.002-0.001-0.002l-6.515-10.228c-1.664-2.609-5.125-3.378-7.733-1.715  c-2.609,1.661-3.379,5.124-1.715,7.733l6.511,10.223c0.002,0.002,0.003,0.006,0.004,0.008c3.849,6.044,0.537,20.52-8.44,36.879  c-14.711,26.809-38.283,48.838-51.442,49.457c-1.822,0.086-12.499-2.523-12.499-2.523c-3.03-0.672-6.012,1.236-6.683,4.256  c-0.67,3.02,1.237,6.012,4.256,6.682l10.934,2.425c9.734,2.628,20.514,24.376,25.201,50.999c4.525,25.694,2.012,48.035-5.977,53.129  l-10.234,6.518c-2.608,1.661-3.378,5.124-1.714,7.733c1.068,1.677,2.878,2.592,4.73,2.592c1.03,0,2.071-0.283,3.005-0.877  l10.243-6.525c1.741-1.101,4.193-1.661,7.295-1.661c10.199,0,25.117,6.006,39.394,14.853  C126.515,272.15,138.382,281.925,146.302,291.788z M212.741,338.759c-0.031,0.072-0.054,0.145-0.084,0.217  c-1.191-1.147-2.085-2.28-2.725-3.355l3.592,1.609C213.244,337.726,212.977,338.232,212.741,338.759z M167.947,248.549  c-0.164-0.21-0.314-0.416-0.483-0.625c-10.011-12.467-29.407-26.104-45.843-31.1l26.52-16.89c0.072-0.024,7.479-1.069,22.349,11.826  c3.529,3.061,4.162,5.483,4.252,6.153L167.947,248.549z M114.168,180.049c-1.722-9.779-4.779-20.174-9.166-28.387l31.073,6.892  c1.375,0.634,4.742,5.755,6.541,15.057c0.456,2.362,0.719,4.515,0.847,6.438c0.391,5.934-0.54,9.664-1.296,10.407l0,0  c-0.006,0.002-0.011,0.007-0.017,0.009l-0.003,0.002l-26.771,17.05C116.711,196.751,115.049,185.053,114.168,180.049z   M270.16,150.429c1.725,9.794,4.788,20.207,9.186,28.428c0,0-31.063-6.9-31.094-6.907c-1.378-0.644-4.742-5.764-6.543-15.049  c-1.869-9.646-0.558-15.861,0.444-16.845l26.794-17.066C267.618,133.746,269.277,145.43,270.16,150.429z M276.074,248.061  c-0.949,1.73-1.964,3.68-2.981,5.776l-4.129-1.851c-0.844-0.378-1.769-0.539-2.69-0.475l-11.985,0.859l-0.423-0.665  c-0.001-0.001-0.002-0.003-0.003-0.004c-1.466-2.301-1.2-7.789,1.946-15.682l25.528,3.198  C279.456,242.152,277.691,245.113,276.074,248.061z M285.657,271.742l8.466,35.348c-3.035-3.828-6.715-6.986-10.943-9.355  l-5.58-8.763c-2.326-4.031-1.76-11.253,1.363-20.229L285.657,271.742z M250.005,222.195c-0.295,0.537-0.597,1.106-0.905,1.694  l-14.078-1.763l-8.179-12.842c-0.471-1.368,0.751-6.899,5.863-14.342c5.762-8.387,11.483-12.023,13.091-12.05l31.208,6.922  C266.759,197.456,256.664,210.059,250.005,222.195z M244.403,234.59c-0.171,0.492-0.337,0.986-0.495,1.484l-1.07-1.68  L244.403,234.59z M153.816,172.563c-0.381-2.159-1.256-6.355-2.878-10.713l26.808,5.947l-19.239,12.253l-3.743,2.384  c-0.008-0.811-0.038-1.605-0.08-2.384C154.523,177.098,154.146,174.439,153.816,172.563z M194.618,180.049l0.083-0.376l0.241,0.376  l14.272,22.409c-0.139-0.001-0.27-0.008-0.411-0.008c-5.021,0-12.942,0.959-19.908,3.398L194.618,180.049z M189.621,150.839  l-14.519-22.796c0.131,0.001,0.255,0.008,0.388,0.008c5.029,0,12.96-0.958,19.94-3.396L189.621,150.839z M180.172,156.858  l-26.794-5.943c4.699-4.645,8.576-10.355,10.73-14.281c0.483-0.879,0.954-1.819,1.412-2.783L180.172,156.858z M179.362,180.049  l4.402-2.803l-0.622,2.803l-5.181,23.356c-4.582-4.492-10.8-8.849-16.973-11.653L179.362,180.049z M185.557,220.897  c0.009-0.031,0.025-0.058,0.034-0.09c0.039-0.127,0.075-0.257,0.106-0.388c1.136-2.336,11.585-6.768,23.105-6.768  c5.785,0,8.207,1.227,8.556,1.594c0.002,0.003,0.004,0.007,0.007,0.01c0.001,0.002,0.003,0.006,0.004,0.008  c0.001,0.001,0.001,0.002,0.002,0.002c0.001,0.002,0.002,0.004,0.003,0.007c0.001,0.001,0.002,0.002,0.003,0.003  c0.001,0.002,0.003,0.006,0.004,0.008c0.001,0,0.001,0.001,0.001,0.001c0.002,0.004,0.006,0.007,0.008,0.01l16.895,26.527  c-3.561-0.501-7.153-0.688-10.439-0.688c-14.105,0-32.313,3.427-44.996,9.994L185.557,220.897z M220.211,193.881  c-0.482,0.877-0.952,1.816-1.408,2.776l-10.578-16.609l-4.073-6.396l26.792,5.943c-0.149,0.147-0.289,0.304-0.437,0.453  C226.007,184.611,222.298,190.08,220.211,193.881z M206.577,162.715l22.983-14.638c0.035,3.88,0.532,7.488,0.95,9.856  c0.381,2.162,1.258,6.366,2.885,10.729L206.577,162.715z M200.559,153.264l5.817-26.225c4.575,4.509,10.799,8.89,16.976,11.708  L200.559,153.264z M198.656,110.105c-1.293,2.365-11.694,6.744-23.168,6.744c-5.757,0-8.175-1.217-8.524-1.583l-16.937-26.593  c3.545,0.496,7.12,0.682,10.391,0.682c14.115,0,32.331-3.42,45.053-9.977L198.656,110.105z M157.472,121.217  c0.001,0.002,0.002,0.004,0.003,0.007c0.476,1.36-0.741,6.892-5.855,14.341c-5.768,8.402-11.503,12.038-13.095,12.049  c-0.027-0.006-31.209-6.915-31.209-6.915c10.246-7.638,20.344-20.243,27.002-32.377c2.012-3.667,4.418-8.617,6.099-13.884  L157.472,121.217z M237.805,275.484c-21.262,0-50.344,5.882-68.098,16.866l5.013-22.601c0.082-0.226,0.165-0.453,0.218-0.696  c1.614-7.299,25.62-16.716,48.907-16.716c5.335,0,9.533,0.519,12.738,1.302l-7.642,0.548c-3.085,0.221-5.408,2.902-5.187,5.988  c0.221,3.086,2.893,5.408,5.988,5.187l18.682-1.339l8.439,13.252C250.524,275.931,243.792,275.484,237.805,275.484z   M261.128,263.113l4.541-0.325l3.049,1.366c-0.864,2.404-1.63,4.873-2.242,7.355L261.128,263.113z M239.472,306.496  c1.164-2.597,3.755-4.275,6.602-4.275c1.015,0,2.005,0.213,2.945,0.634c1.763,0.79,3.112,2.217,3.8,4.021  c0.688,1.804,0.631,3.768-0.158,5.529c-1.164,2.597-3.754,4.275-6.6,4.275c-1.016,0-2.009-0.214-2.951-0.636  c-1.761-0.79-3.11-2.217-3.798-4.02C238.627,310.22,238.683,308.258,239.472,306.496z M225.018,301.898  c1.231-0.236,2.679-0.32,4.336-0.193c-0.033,0.071-0.071,0.139-0.104,0.211c-0.236,0.527-0.441,1.06-0.625,1.599L225.018,301.898z   M236.149,349.254c-1.162,2.595-3.752,4.272-6.6,4.272c-1.016,0-2.009-0.214-2.949-0.634c-3.635-1.63-5.268-5.914-3.639-9.551  c1.164-2.597,3.756-4.275,6.603-4.275c1.015,0,2.006,0.214,2.946,0.635c1.762,0.79,3.11,2.217,3.799,4.021  C236.997,345.525,236.94,347.488,236.149,349.254z M261.234,372.337c-4.944,0.659-9.797-0.006-14.246-1.997  c-3.737-1.676-6.963-4.184-9.558-7.388c3.899-1.845,7.117-5.034,8.943-9.117c2.014-4.492,2.159-9.5,0.404-14.101  c-1.752-4.601-5.193-8.243-9.685-10.255c-1.245-0.558-2.53-0.965-3.84-1.235c0.262-0.682,0.54-1.361,0.841-2.032  c0.304-0.676,0.626-1.338,0.961-1.992c1.071,0.795,2.227,1.49,3.474,2.049c2.391,1.073,4.925,1.617,7.532,1.617c0.001,0,0,0,0.001,0  c7.253,0,13.856-4.277,16.823-10.896c1.817-4.057,2.095-8.53,0.846-12.746c4.051-0.193,8.006,0.525,11.692,2.141  c1.023,1.47,2.629,2.304,4.305,2.392c2.691,1.861,5.009,4.244,6.903,7.056c-8.5,6.552-15.386,15.055-19.853,25.022  C262.297,350.849,260.462,361.588,261.234,372.337z M357.006,318.175c15.143,6.786,26.895,18.665,33.092,33.451  c6.143,14.658,6.078,30.429-0.185,44.403c-8.994,20.073-29.893,33.042-53.243,33.042c-9.193,0-18.198-1.946-26.765-5.784  c-15.143-6.786-26.894-18.665-33.089-33.452c-6.143-14.658-6.078-30.427,0.185-44.402c8.994-20.073,29.893-33.043,53.24-33.043  C339.435,312.389,348.44,314.336,357.006,318.175z M323.535,265.603l-2.033,36.113c-5.616,0.672-11.059,1.974-16.223,3.862  l-9.37-39.126c-0.404-1.691-1.571-3.097-3.157-3.807l-9.428-4.224c0.799-1.629,1.647-3.284,2.572-4.971  c1.837-3.349,3.831-6.643,5.939-9.849L323.535,265.603z M288.562,228.831l-27.488-3.444c9.945-17.071,25.144-31.534,33.34-31.602  c1.288-0.01,24.621,5.348,24.621,5.348C308.572,205.769,297.747,216.647,288.562,228.831z M305.87,143.684  c2.118,12.018,5.878,25.301,11.186,36.364c1.387,2.891,2.874,5.64,4.472,8.165c0,0-23.808-5.291-23.86-5.301  c-1.261-0.329-2.644-1.311-4.067-2.863c-4.653-5.081-9.731-16.352-12.412-31.564c-3.3-18.735-0.848-32.749,3.432-35.478  l20.447-13.024C302.438,112.896,303.308,129.146,305.87,143.684z M220.459,63.793c0.054-0.244,0.086-0.488,0.108-0.73l5.03-22.674  c1.161,1.749,2.461,3.53,3.92,5.348c15.124,18.855,45.427,39.622,69.232,44.989l-20.143,12.829l-0.001,0.001  c-0.929,0.592-2.381,0.905-4.199,0.905c-12.62,0-37.171-14.577-48.647-28.884C221.877,70.737,219.895,66.332,220.459,63.793z   M216.412,81.797c0.205,0.263,0.397,0.524,0.608,0.79c9.992,12.457,29.324,26.082,45.701,31.086l-26.539,16.903  c-0.068,0.022-0.314,0.09-0.823,0.09c-5.067,0-15.298-5.689-21.465-11.935c-3.493-3.538-4.262-5.784-4.271-6.187  c0.001-0.007,0.003-0.013,0.004-0.021c0.021-0.094,0.018-0.188,0.032-0.282L216.412,81.797z M146.845,54.505  c21.163,0,50.077-5.773,67.815-16.557l-5.326,24.013c-2.75,7.238-26.177,16.192-48.917,16.192c-12.581,0-18.896-2.871-20.494-5.34  l-12.853-20.18C133.631,54.04,140.629,54.505,146.845,54.505z M107.481,82.828c3.455-6.297,7.766-15.326,9.967-24.451l13.001,20.413  c0.004,0.007,0.007,0.013,0.011,0.02c1.943,3.052,0.853,11.694-5.966,24.122c-9.873,17.993-26.024,33.776-34.566,33.776  c-0.355,0-24.647-5.333-24.647-5.333C80.962,121.365,97.133,101.684,107.481,82.828z M78.46,186.793  c-2.666-15.141-7.927-32.304-15.624-44.485l23.905,5.302c5.383,1.501,12.913,14.617,16.395,34.381  c3.303,18.753,0.848,32.78-3.435,35.511l-20.443,13.02C81.892,217.604,81.022,201.342,78.46,186.793z M85.596,239.77  c0,0,20.807-13.087,21.176-13.299c1.138-0.652,3.747-0.642,7.396,0.187c9.883,2.243,27.458,10.536,44.561,28.281  c4.017,4.168,5.554,8.626,5.316,11.2l-5.261,23.717c-1.116-1.663-2.362-3.356-3.747-5.082  c-9.451-11.769-24.835-24.283-40.869-33.331C104.494,245.982,94.585,241.783,85.596,239.77z"
   id="path16" />
<g
   id="g18">
</g>
<g
   id="g20">
</g>
<g
   id="g22">
</g>
<g
   id="g24">
</g>
<g
   id="g26">
</g>
<g
   id="g28">
</g>
<g
   id="g30">
</g>
<g
   id="g32">
</g>
<g
   id="g34">
</g>
<g
   id="g36">
</g>
<g
   id="g38">
</g>
<g
   id="g40">
</g>
<g
   id="g42">
</g>
<g
   id="g44">
</g>
<g
   id="g46">
</g>
</svg>
