<?xml version="1.0" encoding="iso-8859-1"?>
<!-- Generator: Adobe Illustrator 19.0.0, SVG Export Plug-In . SVG Version: 6.00 Build 0)  -->
<svg version="1.1" id="Layer_1" xmlns="http://www.w3.org/2000/svg" xmlns:xlink="http://www.w3.org/1999/xlink" x="0px" y="0px"
	 viewBox="0 0 512 512" style="enable-background:new 0 0 512 512;" xml:space="preserve">
<g>
	<path style="fill:#808080;" d="M338.415,216.989c0-12.401-10.09-22.49-22.491-22.49h-3.924v45.152c0,0,3.836-0.018,3.924-0.018
		C328.324,239.633,338.415,229.39,338.415,216.989z"/>
	<path style="fill:#808080;" d="M199.999,216.989c0-12.401-10.088-22.49-22.487-22.49h-3.927v45.152c0,0,3.839,0.002,3.927,0.002
		C189.911,239.653,199.999,229.39,199.999,216.989z"/>
</g>
<g>
	<path style="fill:#81AF31;" d="M382.212,429.588c-0.722,1.866-2.346,3.241-4.307,3.639c-1.966,0.402-3.992-0.224-5.385-1.66
		c-4.353-4.484-7.344-10.751-9.264-15.98c-7.507,8.503-10.706,18.069-12.071,24.856c30.563,2.246,58.643,5.585,82.72,9.909
		c2.748,0.493,5.42,0.998,8.031,1.511c4.219-14.6,17.629-23.243,29.32-28.142c-26.737-5.322-49.822,1.287-50.104,1.369
		c-2.892,0.854-5.969-0.625-7.104-3.419c-2.372-5.832-1.963-17.297-1.279-25.388C392.511,403.55,382.325,429.299,382.212,429.588z"
		/>
	<path style="fill:#81AF31;" d="M78.094,450.352c15.454-2.776,32.564-5.144,50.914-7.079
		c-12.578-37.182-35.962-49.637-50.307-53.786c9.842,21.729-0.727,44.392-1.266,45.517c-0.811,1.698-2.39,2.904-4.241,3.242
		c-1.851,0.335-3.752-0.232-5.113-1.534c-11.07-10.592-23.36-13.345-33.291-13.288c13.308,8.976,20.475,23.219,23.565,30.913
		C64.482,452.946,71.06,451.616,78.094,450.352z"/>
</g>
<path style="fill:#808080;" d="M141.001,442.086c35.159-3.257,74.348-4.985,114.999-4.985c28.838,0,56.938,0.87,83.391,2.538
	c1.844-10.3,7.269-27.004,23.19-39.481c1.596-1.253,3.732-1.591,5.643-0.891c1.908,0.7,3.318,2.338,3.729,4.328
	c0.479,2.3,1.856,7.312,4.039,12.043c4.456-7.862,12.13-18.715,23.358-25.795v-54.091l-21.939-8.706
	c-1.783-0.707-3.107-2.24-3.547-4.106c-0.442-1.866,0.055-3.829,1.332-5.259l24.155-27.077V130.188
	c0-55.261-64.308-100.218-143.353-100.218c-26.885,0-52.061,5.205-73.585,14.244c0.642,5.743,2.798,16.824,10.01,24.025
	l47.141-21.207c2.959-1.328,6.434-0.011,7.763,2.946c1.33,2.958,0.012,6.432-2.945,7.763l-36.57,16.451
	c15.73,2.592,38.926,1.972,51.611,0.56c3.911-0.43,8.802,0.803,24.741,19.417l28.123,2.142c3.233,0.245,5.654,3.067,5.407,6.3
	c-0.234,3.081-2.808,5.425-5.848,5.425c-0.149,0-0.299-0.005-0.452-0.018l-16.924-1.289c5.568,7.038,9.653,12.563,9.889,12.883
	c1.926,2.609,1.37,6.286-1.239,8.21c-1.049,0.774-2.271,1.147-3.482,1.147c-1.8,0-3.578-0.825-4.729-2.385
	c-12.96-17.563-29.817-37.45-35.036-40.076c-4.139,0.409-22.747,2.057-40.841,0.808l-24.707,30.238
	c-1.16,1.42-2.849,2.156-4.55,2.156c-1.306,0-2.621-0.433-3.712-1.325c-2.511-2.053-2.883-5.75-0.831-8.262l3.628-4.44
	l-14.571,2.282c-0.308,0.048-0.614,0.072-0.915,0.072c-2.843,0-5.34-2.068-5.794-4.964c-0.503-3.203,1.689-6.207,4.892-6.708
	l27.523-4.309l5.216-6.384c-8.26-1.5-15.449-3.962-19.789-7.881c-9.197-8.304-12.753-20.27-14.138-28.395
	c-35.534,18.257-58.642,47.673-58.642,80.796v35.787l19.619,8.122c1.968,0.815,3.341,2.633,3.586,4.747
	c0.245,2.116-0.675,4.199-2.405,5.444l-20.8,14.957v196.377C123.22,405.212,133.937,419.842,141.001,442.086z M327.075,276.173
	c-1.093,1.092-2.608,1.726-4.145,1.726c-1.55,0-3.054-0.634-4.157-1.726c-1.092-1.092-1.714-2.595-1.714-4.145
	c0-1.55,0.622-3.065,1.714-4.157c1.103-1.092,2.617-1.714,4.157-1.714c1.538,0,3.053,0.622,4.145,1.714
	c1.103,1.092,1.726,2.607,1.726,4.157C328.801,273.567,328.178,275.082,327.075,276.173z M300.256,245.825c0-0.025,0-0.048,0-0.072
	v-57.126c0-3.242,2.628-5.871,5.871-5.871h9.796c18.877,0,34.234,15.357,34.234,34.233c0,18.83-15.282,34.318-34.095,34.392
	l-4.063,0.023v20.621c0,3.242-2.628,5.871-5.871,5.871c-3.243,0-5.871-2.629-5.871-5.871V245.825z M265.545,267.872
	c1.092-1.092,2.607-1.714,4.157-1.714c1.538,0,3.053,0.622,4.145,1.714s1.726,2.607,1.726,4.157c0,1.538-0.634,3.053-1.726,4.145
	c-1.093,1.092-2.608,1.726-4.145,1.726c-1.55,0-3.065-0.634-4.157-1.726c-1.092-1.092-1.714-2.607-1.714-4.145
	C263.83,270.479,264.453,268.964,265.545,267.872z M245.274,188.627c0-3.242,2.628-5.871,5.871-5.871s5.871,2.629,5.871,5.871
	v83.399c0,3.242-2.628,5.871-5.871,5.871s-5.871-2.629-5.871-5.871V188.627z M216.473,266.158c1.538,0,3.053,0.622,4.145,1.714
	c1.092,1.092,1.726,2.607,1.726,4.157c0,1.538-0.634,3.053-1.726,4.145c-1.093,1.092-2.608,1.726-4.145,1.726
	c-1.55,0-3.065-0.634-4.157-1.726c-1.092-1.08-1.714-2.595-1.714-4.145s0.622-3.065,1.714-4.157
	C213.407,266.779,214.922,266.158,216.473,266.158z M161.843,188.627c0-3.242,2.628-5.871,5.871-5.871h9.798
	c18.874,0,34.229,15.216,34.229,34.233c0,12.721-6.979,23.836-17.304,29.736l9.848,22.989c1.278,2.981-0.105,6.431-3.085,7.709
	c-0.754,0.323-1.538,0.476-2.31,0.476c-2.277,0-4.446-1.334-5.399-3.561l-10.121-23.629c-1.861,0.323-3.77,0.504-5.72,0.511
	l-4.066,0.184v20.621c0,3.242-2.628,5.871-5.871,5.871s-5.871-2.629-5.871-5.871L161.843,188.627L161.843,188.627z"/>
<path style="fill:#754C24;" d="M256.001,448.844c-66.475,0-128.92,4.641-175.829,13.067c-37.876,6.802-56.252,14.492-63.872,20.119
	h479.402c-7.618-5.627-25.995-13.317-63.872-20.119C384.92,453.484,322.475,448.844,256.001,448.844z"/>
<path d="M251.145,277.898c3.243,0,5.871-2.629,5.871-5.871v-83.399c0-3.242-2.628-5.871-5.871-5.871s-5.871,2.629-5.871,5.871
	v83.399C245.274,275.269,247.902,277.898,251.145,277.898z"/>
<path d="M306.128,277.898c3.243,0,5.871-2.629,5.871-5.871v-20.622l4.063-0.023c18.814-0.074,34.095-15.563,34.095-34.392
	c0-18.876-15.357-34.233-34.234-34.233h-9.796c-3.243,0-5.871,2.629-5.871,5.871v57.126c0,0.023,0,0.048,0,0.072v26.201
	C300.256,275.269,302.884,277.898,306.128,277.898z M311.999,194.499h3.924c12.402,0,22.491,10.089,22.491,22.49
	c0,12.401-10.09,22.644-22.491,22.644c-0.088,0-3.924,0.018-3.924,0.018V194.499z"/>
<path d="M167.714,277.898c3.243,0,5.871-2.629,5.871-5.871v-20.622l4.066-0.184c1.949-0.007,3.859-0.188,5.72-0.511l10.121,23.629
	c0.953,2.226,3.121,3.561,5.399,3.561c0.771,0,1.556-0.153,2.31-0.476c2.98-1.276,4.362-4.727,3.085-7.709l-9.848-22.989
	c10.325-5.901,17.304-17.016,17.304-29.736c0-19.017-15.356-34.233-34.229-34.233h-9.798c-3.243,0-5.871,2.629-5.871,5.871v83.399
	C161.843,275.269,164.471,277.898,167.714,277.898z M173.585,194.499h3.927c12.399,0,22.487,10.089,22.487,22.49
	c0,12.401-10.088,22.664-22.487,22.664c-0.088,0-3.927-0.002-3.927-0.002V194.499z"/>
<path d="M212.315,276.173c1.092,1.092,2.607,1.726,4.157,1.726c1.538,0,3.053-0.634,4.145-1.726
	c1.092-1.092,1.726-2.607,1.726-4.145c0-1.55-0.634-3.065-1.726-4.157c-1.093-1.092-2.608-1.714-4.145-1.714
	c-1.55,0-3.065,0.622-4.157,1.714c-1.092,1.092-1.714,2.607-1.714,4.157C210.602,273.578,211.224,275.093,212.315,276.173z"/>
<path d="M269.702,277.9c1.538,0,3.053-0.634,4.145-1.726c1.092-1.092,1.726-2.607,1.726-4.145c0-1.55-0.634-3.065-1.726-4.157
	c-1.093-1.092-2.608-1.714-4.145-1.714c-1.55,0-3.065,0.622-4.157,1.714c-1.092,1.092-1.714,2.607-1.714,4.157
	c0,1.538,0.622,3.053,1.714,4.145C266.636,277.266,268.15,277.9,269.702,277.9z"/>
<path d="M322.93,266.158c-1.538,0-3.054,0.622-4.157,1.714c-1.092,1.092-1.714,2.607-1.714,4.157c0,1.55,0.622,3.053,1.714,4.145
	c1.103,1.092,2.607,1.726,4.157,1.726c1.538,0,3.053-0.634,4.145-1.726c1.103-1.092,1.726-2.607,1.726-4.145
	c0-1.55-0.622-3.065-1.726-4.157C325.982,266.779,324.467,266.158,322.93,266.158z"/>
<path d="M488.768,465.008c-9.12-3.873-20.934-7.454-35.248-10.698c6.538-19.174,38.634-24.684,38.978-24.74
	c2.587-0.418,4.584-2.501,4.893-5.103c0.31-2.602-1.144-5.095-3.56-6.107c-28.818-12.075-57.382-8.518-69.723-6.027
	c-0.378-5.93,0.183-15.22,1.2-22.807c0.238-1.788-0.358-3.588-1.618-4.88c-1.259-1.292-3.035-1.933-4.838-1.737
	c-2.71,0.295-5.293,0.833-7.758,1.563v-52.705c0-2.406-1.469-4.57-3.706-5.457l-17.837-7.078l20.054-22.48
	c0.959-1.076,1.489-2.467,1.489-3.909V130.188c0-30.291-16.399-58.632-46.175-79.801c-29.17-20.738-67.852-32.159-108.921-32.159
	c-41.067,0-79.747,11.421-108.917,32.159c-29.778,21.17-46.177,49.511-46.177,79.801v39.71c0,2.375,1.431,4.516,3.625,5.425
	l13.5,5.589l-14.682,10.558c-1.535,1.103-2.444,2.877-2.444,4.767V386.76c-1.18-0.73-2.339-1.41-3.468-2.029
	c-16.301-8.95-30.244-9.063-30.9-9.063h-0.005c-2.316,0.002-4.414,1.366-5.357,3.48c-0.944,2.115-0.555,4.587,0.991,6.31
	c11.286,12.588,9.629,28.109,7.249,37.101c-27.219-19.683-56.925-6.967-58.276-6.368c-2.419,1.067-3.826,3.618-3.438,6.232
	c0.387,2.615,2.474,4.648,5.097,4.967c19.562,2.385,29.877,20.388,33.981,29.793c-9.172,2.449-17.043,5.064-23.547,7.825
	C7.6,471.648,0,479.137,0,487.901c0,1.557,0.618,3.051,1.72,4.152c1.1,1.101,2.594,1.719,4.151,1.719h500.258
	c1.557,0,3.051-0.619,4.151-1.719c1.103-1.101,1.72-2.595,1.72-4.152C512,479.137,504.401,471.648,488.768,465.008z
	 M412.771,396.283c-0.685,8.091-1.093,19.555,1.279,25.388c1.136,2.795,4.212,4.274,7.104,3.419
	c0.282-0.082,23.367-6.691,50.104-1.369c-11.691,4.899-25.101,13.543-29.32,28.142c-2.61-0.514-5.283-1.018-8.031-1.511
	c-24.078-4.325-52.157-7.664-82.72-9.909c1.366-6.786,4.565-16.354,12.071-24.856c1.92,5.23,4.911,11.497,9.264,15.98
	c1.393,1.435,3.419,2.062,5.385,1.66c1.961-0.398,3.585-1.773,4.307-3.639C382.325,429.299,392.511,403.55,412.771,396.283z
	 M112.647,199.246l20.8-14.957c1.73-1.245,2.65-3.327,2.405-5.444c-0.245-2.116-1.618-3.934-3.586-4.747l-19.619-8.122v-35.787
	c0-33.123,23.109-62.539,58.642-80.796c1.384,8.126,4.941,20.091,14.138,28.395c4.339,3.92,11.529,6.382,19.789,7.881L200,92.053
	l-27.523,4.309c-3.204,0.501-5.394,3.505-4.892,6.708c0.453,2.896,2.951,4.964,5.794,4.964c0.302,0,0.608-0.023,0.915-0.072
	l14.571-2.282l-3.628,4.44c-2.051,2.511-1.679,6.209,0.831,8.262c1.091,0.891,2.406,1.325,3.712,1.325
	c1.701,0,3.39-0.736,4.55-2.156l24.707-30.238c18.094,1.249,36.702-0.398,40.841-0.808c5.217,2.627,22.076,22.513,35.036,40.076
	c1.151,1.561,2.929,2.386,4.729,2.385c1.211,0,2.432-0.372,3.482-1.147c2.609-1.926,3.163-5.601,1.239-8.21
	c-0.236-0.319-4.321-5.845-9.889-12.883l16.924,1.289c0.153,0.012,0.303,0.018,0.452,0.018c3.041,0,5.614-2.344,5.848-5.425
	c0.247-3.233-2.176-6.054-5.407-6.3l-28.124-2.141c-15.939-18.614-20.83-19.847-24.741-19.417
	c-12.685,1.411-35.881,2.031-51.611-0.56l36.571-16.451c2.957-1.33,4.275-4.806,2.945-7.763c-1.329-2.957-4.804-4.274-7.763-2.946
	l-47.141,21.207c-7.213-7.2-9.369-18.282-10.01-24.025c21.524-9.038,46.699-14.244,73.585-14.244
	c79.045,0,143.353,44.958,143.353,100.218v160.415l-24.155,27.077c-1.276,1.43-1.773,3.395-1.332,5.259
	c0.44,1.866,1.765,3.399,3.547,4.106l21.939,8.706v54.091c-11.229,7.078-18.903,17.933-23.358,25.795
	c-2.183-4.731-3.56-9.743-4.039-12.043c-0.411-1.99-1.821-3.628-3.729-4.328c-1.912-0.701-4.046-0.363-5.643,0.891
	c-15.921,12.477-21.346,29.181-23.19,39.481c-26.452-1.667-54.553-2.538-83.391-2.538c-40.65,0-79.839,1.727-114.999,4.985
	c-7.065-22.244-17.783-36.873-28.354-46.462V199.246H112.647z M34.79,423.425c9.931-0.058,22.221,2.696,33.291,13.288
	c1.361,1.301,3.262,1.868,5.113,1.534c1.852-0.338,3.43-1.543,4.241-3.242c0.539-1.125,11.108-23.788,1.266-45.517
	c14.344,4.147,37.728,16.604,50.307,53.786c-18.35,1.935-35.46,4.304-50.914,7.079c-7.034,1.263-13.612,2.594-19.738,3.985
	C55.264,446.645,48.098,432.401,34.79,423.425z M16.3,482.03c7.618-5.627,25.995-13.317,63.872-20.119
	c46.91-8.426,109.355-13.067,175.829-13.067s128.92,4.641,175.829,13.067c37.876,6.802,56.252,14.492,63.872,20.119H16.3z"/>
<g>
</g>
<g>
</g>
<g>
</g>
<g>
</g>
<g>
</g>
<g>
</g>
<g>
</g>
<g>
</g>
<g>
</g>
<g>
</g>
<g>
</g>
<g>
</g>
<g>
</g>
<g>
</g>
<g>
</g>
</svg>
