<?xml version="1.0" encoding="iso-8859-1"?>
<!-- Generator: Adobe Illustrator 19.0.0, SVG Export Plug-In . SVG Version: 6.00 Build 0)  -->
<svg version="1.1" id="Layer_1" xmlns="http://www.w3.org/2000/svg" xmlns:xlink="http://www.w3.org/1999/xlink" x="0px" y="0px"
	 viewBox="0 0 512 512" style="enable-background:new 0 0 512 512;" xml:space="preserve">
<path style="fill:#333333;" d="M468.117,232.994c-4.872-3.419-13.791-8.742-27.15-13.351c0.965,15.328-3.069,34.379-3.423,35.926
	C452.978,246.341,462.976,237.849,468.117,232.994z"/>
<g>
	<path style="fill:#E6E6E6;" d="M84.746,249.367c1.085,5.491,2.512,10.836,4.24,16.046c0.015,0.043,0.028,0.085,0.042,0.128
		c5.958,17.893,15.677,34.109,29.073,48.428l5.288-103.331c-16.002,0.494-29.529,2.651-40.747,5.527
		C82.156,221.955,81.743,234.185,84.746,249.367z"/>
	<path style="fill:#E6E6E6;" d="M429.356,216.167c-11.216-2.876-24.743-5.033-40.746-5.526l5.287,103.312
		C431.066,274.068,430.432,229.056,429.356,216.167z"/>
	<path style="fill:#E6E6E6;" d="M250.318,217.294c-8.018-0.082-25.125-0.569-56.786-2.7l-2.437,54.748
		c16.846,1.863,36.732,3.26,59.222,3.464v-55.513H250.318z"/>
</g>
<path style="fill:#333333;" d="M71.032,219.643c-13.351,4.607-22.27,9.929-27.149,13.352c5.138,4.851,15.135,13.344,30.571,22.573
	C74.101,254.022,69.6,234.422,71.032,219.643z"/>
<g>
	<path style="fill:#E6E6E6;" d="M318.469,214.595c-31.662,2.131-48.771,2.619-56.788,2.701v55.511
		c22.506-0.203,42.388-1.596,59.222-3.456L318.469,214.595z"/>
	<path style="fill:#E6E6E6;" d="M379.37,259.096l-2.137-48.521c-5.123,0.094-10.462,0.352-16.037,0.808
		c-11.617,0.951-22.039,1.75-31.389,2.422l2.408,54.174C355.94,264.836,372.184,260.99,379.37,259.096z"/>
</g>
<path style="fill:#C43333;" d="M320.715,130.214c-4.868,1.409-9.297,2.842-13.579,4.227c-15.187,4.912-28.303,9.153-51.083,9.368
	c-0.009,0-0.018-0.002-0.026-0.002c-0.009,0-0.017,0.002-0.026,0.002c-0.019,0-0.036,0-0.055,0
	c-22.779-0.215-35.895-4.456-51.081-9.367c-4.283-1.386-8.712-2.818-13.582-4.228c-37.207-10.761-137.947,63.592-178.32,96.895
	c6.514,11.136,27.017,43.846,60.503,76.163c37.575,36.264,99.745,79.493,182.533,79.493c82.924,0,145.171-43.362,182.788-79.738
	c33.395-32.292,53.767-64.817,60.252-75.915C458.662,193.811,357.919,119.463,320.715,130.214z M480.579,228.4
	c2.136,2.089,2.289,5.474,0.35,7.748c-0.616,0.723-15.209,17.571-47.914,35.02c-6.542,18.489-18.493,40.091-40.237,59.833
	c-1.066,0.967-2.434,1.475-3.82,1.475c-0.724,0-1.451-0.137-2.146-0.422c-2.026-0.827-3.396-2.743-3.524-4.928l-2.029-34.675
	c-36.057,10.984-80.192,16.996-125.258,16.996s-89.198-6.011-125.257-16.996l-2.03,34.675c-0.127,2.185-1.497,4.1-3.524,4.928
	c-0.693,0.284-1.422,0.422-2.146,0.422c-1.388,0-2.755-0.508-3.82-1.475c-21.744-19.742-33.694-41.344-40.237-59.833
	c-32.707-17.449-47.297-34.299-47.914-35.021c-1.938-2.272-1.785-5.658,0.351-7.746c1.47-1.44,36.966-35.156,120.31-28.341
	c40.051,3.277,72.233,5.669,104.379,5.667c32.147-0.002,64.256-2.402,104.159-5.667C443.603,193.242,479.108,226.961,480.579,228.4z
	"/>
<path style="fill:#E6E6E6;" d="M182.195,213.805c-9.351-0.673-19.774-1.471-31.392-2.422c-5.575-0.457-10.914-0.715-16.037-0.809
	l-2.136,48.518c7.192,1.891,23.45,5.733,47.155,8.877L182.195,213.805z"/>
<path style="fill:#333333;" d="M132.016,270.694l-0.589,10.054c35.465,11.187,79.474,17.339,124.572,17.339
	s89.107-6.152,124.574-17.339l-0.59-10.054c-16.234,4.146-59.956,13.5-123.984,13.5C191.971,284.194,148.25,274.841,132.016,270.694
	z"/>
<path d="M151.731,200.06c-83.342-6.816-118.84,26.902-120.31,28.341c-2.136,2.089-2.289,5.474-0.351,7.746
	c0.617,0.724,15.208,17.572,47.914,35.021c6.543,18.489,18.493,40.091,40.237,59.833c1.066,0.967,2.433,1.475,3.82,1.475
	c0.724,0,1.452-0.137,2.146-0.422c2.026-0.827,3.396-2.743,3.524-4.928l2.03-34.675c36.059,10.984,80.191,16.996,125.257,16.996
	s89.2-6.011,125.258-16.996l2.029,34.675c0.127,2.185,1.497,4.1,3.524,4.928c0.694,0.284,1.422,0.422,2.146,0.422
	c1.387,0,2.755-0.508,3.82-1.475c21.744-19.742,33.695-41.344,40.237-59.833c32.706-17.449,47.299-34.299,47.914-35.02
	c1.939-2.273,1.786-5.658-0.35-7.748c-1.47-1.44-36.977-35.159-120.311-28.341c-39.903,3.265-72.013,5.665-104.159,5.667
	C223.964,205.729,191.782,203.336,151.731,200.06z M43.884,232.995c4.879-3.423,13.798-8.745,27.149-13.352
	c-1.433,14.779,3.069,34.379,3.423,35.926C59.019,246.339,49.022,237.847,43.884,232.995z M118.102,313.97
	c-13.397-14.319-23.115-30.534-29.073-48.428c-0.014-0.043-0.027-0.085-0.042-0.128c-1.728-5.21-3.155-10.555-4.24-16.046
	c-3.003-15.183-2.59-27.412-2.104-33.201c11.219-2.877,24.746-5.034,40.747-5.527L118.102,313.97z M440.967,219.643
	c13.359,4.609,22.278,9.932,27.15,13.351c-5.14,4.855-15.138,13.347-30.572,22.575C437.898,254.022,441.932,234.971,440.967,219.643
	z M429.356,216.167c1.075,12.889,1.71,57.9-35.46,97.784l-5.287-103.312C404.612,211.135,418.139,213.292,429.356,216.167z
	 M193.534,214.595c31.659,2.13,48.768,2.618,56.786,2.7v55.512c-22.489-0.204-42.376-1.601-59.222-3.464L193.534,214.595z
	 M134.766,210.574c5.123,0.094,10.462,0.351,16.037,0.809c11.618,0.951,22.04,1.75,31.392,2.422l-2.41,54.163
	c-23.705-3.144-39.964-6.985-47.155-8.877L134.766,210.574z M380.573,280.748c-35.467,11.187-79.475,17.339-124.574,17.339
	c-45.097,0-89.106-6.152-124.572-17.339l0.589-10.054c16.234,4.146,59.954,13.5,123.983,13.5s107.751-9.353,123.984-13.5
	L380.573,280.748z M361.196,211.383c5.575-0.456,10.914-0.714,16.037-0.808l2.137,48.521c-7.186,1.894-23.43,5.74-47.155,8.881
	l-2.408-54.174C339.157,213.133,349.58,212.334,361.196,211.383z M261.68,217.296c8.018-0.082,25.126-0.569,56.788-2.701
	l2.434,54.755c-16.833,1.86-36.715,3.253-59.222,3.456V217.296z"/>
<path d="M509.972,221.424c-0.347-0.291-35.08-29.362-75.459-56.277c-55.318-36.872-94.673-52.294-116.955-45.848
	c-5.039,1.458-9.553,2.918-13.918,4.33c-14.877,4.811-26.632,8.612-47.641,8.816c-21.007-0.203-32.763-4.004-47.638-8.816
	c-4.366-1.411-8.88-2.871-13.92-4.33c-22.288-6.447-61.638,8.976-116.955,45.848c-40.378,26.915-75.112,55.986-75.459,56.277
	c-2.051,1.722-2.621,4.642-1.368,7.009c0.896,1.693,22.436,41.935,64.654,82.762c24.846,24.027,51.694,43.182,79.802,56.936
	c35.248,17.249,72.556,25.995,110.883,25.995s75.633-8.746,110.884-25.995c28.107-13.753,54.956-32.91,79.801-56.936
	c42.218-40.827,63.758-81.068,64.655-82.762C512.592,226.067,512.022,223.147,509.972,221.424z M438.787,303.026
	c-37.616,36.377-99.863,79.738-182.788,79.738c-82.788,0-144.958-43.229-182.533-79.493c-33.486-32.317-53.99-65.027-60.503-76.163
	c40.374-33.302,141.113-107.655,178.32-96.895c4.87,1.409,9.298,2.842,13.582,4.228c15.186,4.911,28.302,9.152,51.081,9.367
	c0.018,0,0.035,0,0.055,0c0.009,0,0.017-0.002,0.026-0.002c0.009,0,0.018,0.002,0.026,0.002c22.78-0.215,35.896-4.456,51.083-9.368
	c4.283-1.385,8.711-2.817,13.579-4.227c37.204-10.752,137.947,63.597,178.324,96.897
	C492.554,238.21,472.182,270.735,438.787,303.026z"/>
<g>
</g>
<g>
</g>
<g>
</g>
<g>
</g>
<g>
</g>
<g>
</g>
<g>
</g>
<g>
</g>
<g>
</g>
<g>
</g>
<g>
</g>
<g>
</g>
<g>
</g>
<g>
</g>
<g>
</g>
</svg>
