<?xml version="1.0" encoding="iso-8859-1"?>
<!-- Generator: Adobe Illustrator 19.0.0, SVG Export Plug-In . SVG Version: 6.00 Build 0)  -->
<svg version="1.1" id="Layer_1" xmlns="http://www.w3.org/2000/svg" xmlns:xlink="http://www.w3.org/1999/xlink" x="0px" y="0px"
	 viewBox="0 0 512.001 512.001" style="enable-background:new 0 0 512.001 512.001;" xml:space="preserve">
<path style="fill:#333333;" d="M233.826,345.934c1.794,6.963,11.22,12.464,22.174,12.464c10.957,0,20.385-5.502,22.176-12.466
	c-5.789,4.366-13.668,6.959-22.176,6.959C247.491,352.891,239.614,350.3,233.826,345.934z"/>
<path style="fill:#E6E6E6;" d="M256,195.361h0.059h21.63v-24.817h-43.375v24.815H256V195.361z M247.614,177.166h16.774
	c3.197,0,5.787,2.592,5.787,5.787c0,3.196-2.59,5.787-5.787,5.787h-16.774c-3.197,0-5.787-2.592-5.787-5.787
	C241.826,179.757,244.417,177.166,247.614,177.166z"/>
<polygon style="fill:#808080;" points="222.738,170.545 200.482,170.545 192.768,195.361 222.738,195.361 "/>
<path style="fill:#333333;" d="M276.554,59.805c-0.428-1.36-0.339-2.831,0.251-4.13l12.882-28.365
	c0.461-1.015,1.205-1.875,2.144-2.477l17.702-11.365l-33.432,2.762l-37.805,32.673l-34.214,110.069h103.676L276.554,59.805z"/>
<path style="fill:#81AF31;" d="M256.002,396.728c-10.24,0-18.468-2.118-25.076-5.424c-1.648,5.713-4.076,11.104-7.204,16.167
	c5.368,1.487,16.626,3.212,32.335,3.212c15.557,0,26.779-1.683,32.26-3.159c-3.144-5.079-5.581-10.487-7.237-16.221
	C274.472,394.61,266.242,396.728,256.002,396.728z"/>
<polygon style="fill:#808080;" points="289.262,195.361 319.207,195.361 311.398,170.545 289.262,170.545 "/>
<g>
	<path style="fill:#333333;" d="M177.08,235.724c23.415,5.071,50.705,7.752,78.922,7.752c0.009,0,0.019,0.003,0.027,0.003
		c0.009,0,0.019-0.003,0.027-0.003c28.216,0,55.507-2.681,78.925-7.752c20.601-4.462,37.683-0.322,49.568,2.991l-58.87-31.779
		H186.38l-58.869,31.779C139.396,235.403,156.472,231.26,177.08,235.724z"/>
	<path style="fill:#333333;" d="M354.326,373.058c0.541,25.063,5.015,52.601,19.716,68.829c1.61,1.778,1.956,4.365,0.872,6.504
		c-0.992,1.957-2.998,3.169-5.159,3.169c-0.2,0-0.402-0.01-0.603-0.031c-0.816-0.086-20.203-2.19-40.929-11.415
		c-13.569-6.04-24.503-13.76-32.651-22.897c-2.985,1.313-6.643,2.162-10.288,2.814c-8.041,1.435-18.421,2.226-29.229,2.226
		c-10.798,0-21.152-0.791-29.155-2.227c-3.692-0.662-7.409-1.524-10.41-2.876c-8.155,9.165-19.11,16.906-32.71,22.96
		c-20.726,9.228-40.113,11.332-40.928,11.418c-0.203,0.021-0.404,0.031-0.603,0.031c-2.161,0-4.167-1.211-5.159-3.169
		c-1.086-2.139-0.738-4.725,0.872-6.504c14.714-16.243,19.19-43.773,19.728-68.827c-12.582,6.318-38.19,22.43-57.483,55.896
		c-11.821,20.504-19.601,44.521-23.159,71.468h59.561V467.96c0-3.196,2.59-5.787,5.787-5.787s5.787,2.592,5.787,5.787v32.466
		h215.635V467.96c0-3.196,2.59-5.787,5.787-5.787c3.197,0,5.787,2.592,5.787,5.787v32.466h59.562
		C423.766,415.77,373.669,382.781,354.326,373.058z M260.146,492.114c-1.078,1.076-2.571,1.69-4.086,1.69
		c-1.528,0-3.021-0.613-4.098-1.69c-1.076-1.088-1.69-2.57-1.69-4.098s0.613-3.009,1.69-4.098c1.076-1.076,2.57-1.69,4.098-1.69
		c1.516,0,3.009,0.613,4.086,1.69c1.076,1.088,1.702,2.581,1.702,4.098C261.847,489.546,261.222,491.026,260.146,492.114z
		 M260.146,465.7c-1.078,1.076-2.571,1.69-4.086,1.69c-1.528,0-3.021-0.613-4.098-1.69c-1.076-1.076-1.69-2.57-1.69-4.098
		c0-1.516,0.613-3.009,1.69-4.086c1.076-1.076,2.57-1.702,4.098-1.702c1.516,0,3.009,0.625,4.086,1.702
		c1.076,1.076,1.702,2.57,1.702,4.086C261.847,463.131,261.222,464.624,260.146,465.7z M260.146,439.286
		c-1.078,1.076-2.571,1.702-4.086,1.702c-1.528,0-3.021-0.625-4.098-1.702c-1.076-1.076-1.69-2.558-1.69-4.086
		s0.613-3.021,1.69-4.098c1.076-1.076,2.57-1.69,4.098-1.69c1.516,0,3.009,0.613,4.086,1.69c1.076,1.076,1.702,2.57,1.702,4.098
		S261.222,438.21,260.146,439.286z"/>
</g>
<path style="fill:#81AF31;" d="M303.135,336.825c10.928,0,18.783-4.398,23.344-13.073c3.52-6.694,3.908-13.657,3.935-14.311v-60.986
	c-22.559,4.317-48.091,6.594-74.36,6.594c-0.009,0-0.019-0.002-0.027-0.002c-0.009,0-0.019,0.002-0.027,0.002
	c-26.291,0-51.843-2.28-74.414-6.605v61.004c0.024,0.566,0.396,7.57,3.935,14.303c4.561,8.673,12.416,13.072,23.345,13.072
	c3.182,0,5.767,2.568,5.787,5.752c0.02,1.725,0.941,42.576,41.346,42.576c40.406,0,41.327-40.851,41.347-42.59
	C297.385,339.39,299.965,336.825,303.135,336.825z M266.88,267.421l35.306-9.743c3.084-0.85,6.268,0.958,7.119,4.04
	c0.85,3.081-0.958,6.268-4.04,7.119l-35.306,9.743c-0.515,0.142-1.034,0.211-1.543,0.211c-2.538,0-4.867-1.684-5.576-4.249
	C261.991,271.458,263.799,268.272,266.88,267.421z M270.181,305.052c0,1.528-0.625,3.021-1.702,4.098
	c-1.078,1.076-2.571,1.702-4.098,1.702c-1.517,0-3.011-0.625-4.086-1.702c-1.076-1.076-1.69-2.57-1.69-4.098
	c0-1.516,0.613-3.009,1.69-4.086c1.076-1.076,2.57-1.702,4.086-1.702c1.527,0,3.02,0.625,4.098,1.702
	C269.556,302.043,270.181,303.536,270.181,305.052z M256.209,275.6c0,0,4.879-1.534,6.815,3.19c2.283,5.568-3.729,7.966-3.729,7.966
	l0.122-0.036c-0.888,0.291-8.635,3.262-7.687,17.965c0.008,0.124,0.013,0.248,0.013,0.373v13.79h14.398
	c3.197,0,5.787,2.592,5.787,5.787c0,3.196-2.59,5.787-5.787,5.787h-20.185c-3.197,0-5.787-2.592-5.787-5.787V305.24
	C238.674,280.737,255.49,275.798,256.209,275.6z M206.737,268.837c-3.081-0.85-4.89-4.037-4.04-7.119
	c0.851-3.081,4.037-4.889,7.119-4.04l35.305,9.743c3.081,0.85,4.89,4.037,4.04,7.119c-0.708,2.566-3.037,4.249-5.576,4.249
	c-0.509,0-1.028-0.068-1.543-0.211L206.737,268.837z M214.138,281.177c0-3.196,2.59-5.787,5.787-5.787h8.605
	c3.197,0,5.787,2.592,5.787,5.787c0,3.196-2.59,5.787-5.787,5.787h-8.605C216.728,286.964,214.138,284.374,214.138,281.177z
	 M256,369.972c-18.779,0-34.056-11.86-34.056-26.437c0-4.689,1.573-9.284,4.551-13.29c1.24-1.668,3.287-2.54,5.34-2.293
	c2.061,0.249,3.832,1.586,4.639,3.5c2.445,5.807,10.474,9.863,19.526,9.863c9.052,0,17.081-4.056,19.526-9.863
	c0.806-1.914,2.578-3.251,4.639-3.5c2.071-0.249,4.1,0.626,5.34,2.293c2.978,4.007,4.554,8.603,4.554,13.29
	C290.058,358.113,274.779,369.972,256,369.972z M292.079,286.964h-8.604c-3.197,0-5.787-2.592-5.787-5.787
	c0-3.196,2.59-5.787,5.787-5.787h8.604c3.197,0,5.787,2.592,5.787,5.787C297.866,284.373,295.274,286.964,292.079,286.964z"/>
<g>
	<path style="fill:#808080;" d="M341.991,246.211c0,0,0,63.417-0.001,63.459c-0.28,12.562-7.775,35.621-33.489,38.443
		c-0.632,5.111-2.215,13.141-6.176,21.212c-2.445,4.98-5.987,10.339-11.074,14.986c7.376,34.637,44.993,48.264,65.588,53.186
		c-24.168-43.406-10.342-118.786-9.68-122.289c0.417-2.207,2.074-3.975,4.25-4.533c2.177-0.557,4.478,0.194,5.907,1.931
		l14.147,17.203c9.114-50.783-11.974-78.032-17.823-84.454C349.93,245.337,346.046,245.593,341.991,246.211z"/>
	<path style="fill:#808080;" d="M160.59,310.677c2.177,0.558,3.835,2.325,4.251,4.532c0.661,3.504,14.488,78.858-9.665,122.267
		c20.598-4.952,58.207-18.616,65.573-53.166c-5.087-4.647-8.627-10.004-11.07-14.984c-3.962-8.071-5.544-16.1-6.178-21.212
		c-25.715-2.823-33.21-25.882-33.489-38.444c-0.001-0.043-0.001-63.466-0.001-63.466c-4.055-0.616-7.94-0.87-11.648-0.85
		c-5.852,6.424-26.938,33.673-17.824,84.453l14.145-17.201C156.113,310.871,158.416,310.12,160.59,310.677z"/>
</g>
<path d="M247.614,188.741h16.774c3.197,0,5.787-2.592,5.787-5.787c0-3.196-2.59-5.787-5.787-5.787h-16.774
	c-3.197,0-5.787,2.592-5.787,5.787C241.826,186.149,244.417,188.741,247.614,188.741z"/>
<path d="M280.165,327.953c-2.061,0.249-3.834,1.586-4.639,3.5c-2.445,5.807-10.474,9.863-19.526,9.863s-17.081-4.056-19.526-9.863
	c-0.806-1.914-2.578-3.251-4.639-3.5c-2.052-0.247-4.1,0.625-5.34,2.293c-2.977,4.005-4.551,8.601-4.551,13.29
	c0,14.577,15.277,26.437,34.056,26.437c18.78,0,34.058-11.86,34.058-26.437c0-4.688-1.574-9.283-4.554-13.29
	C284.264,328.579,282.235,327.703,280.165,327.953z M256,358.398c-10.954,0-20.38-5.5-22.174-12.464
	c5.789,4.365,13.667,6.957,22.174,6.957c8.51,0,16.388-2.593,22.176-6.959C276.384,352.897,266.956,358.398,256,358.398z"/>
<path d="M240.167,305.24v19.396c0,3.196,2.59,5.787,5.787,5.787h20.185c3.197,0,5.787-2.592,5.787-5.787
	c0-3.196-2.59-5.787-5.787-5.787h-14.398v-13.79c0-0.124-0.005-0.249-0.013-0.373c-0.948-14.705,6.799-17.675,7.687-17.965
	l-0.122,0.036c0,0,6.011-2.399,3.729-7.966c-1.936-4.724-6.815-3.19-6.815-3.19C255.49,275.798,238.674,280.737,240.167,305.24z"/>
<path d="M264.382,299.265c-1.517,0-3.011,0.625-4.086,1.702c-1.076,1.076-1.69,2.57-1.69,4.086c0,1.528,0.613,3.021,1.69,4.098
	s2.57,1.702,4.086,1.702c1.527,0,3.02-0.625,4.098-1.702c1.076-1.076,1.702-2.57,1.702-4.098c0-1.516-0.625-3.009-1.702-4.086
	C267.402,299.89,265.909,299.265,264.382,299.265z"/>
<path d="M234.316,281.177c0-3.196-2.59-5.787-5.787-5.787h-8.605c-3.197,0-5.787,2.592-5.787,5.787c0,3.196,2.59,5.787,5.787,5.787
	h8.605C231.726,286.964,234.316,284.374,234.316,281.177z"/>
<path d="M292.079,275.389h-8.604c-3.197,0-5.787,2.592-5.787,5.787c0,3.196,2.59,5.787,5.787,5.787h8.604
	c3.197,0,5.787-2.592,5.787-5.787C297.866,277.981,295.274,275.389,292.079,275.389z"/>
<path d="M243.584,278.789c2.538,0,4.867-1.684,5.576-4.249c0.85-3.081-0.958-6.268-4.04-7.119l-35.305-9.743
	c-3.081-0.85-6.268,0.958-7.119,4.04c-0.85,3.081,0.958,6.268,4.04,7.119l35.305,9.743
	C242.558,278.722,243.075,278.789,243.584,278.789z"/>
<path d="M268.416,278.789c0.509,0,1.028-0.068,1.543-0.211l35.306-9.743c3.081-0.85,4.89-4.037,4.04-7.119
	c-0.851-3.081-4.035-4.889-7.119-4.04l-35.306,9.743c-3.081,0.85-4.89,4.037-4.04,7.119
	C263.549,277.106,265.878,278.789,268.416,278.789z"/>
<path d="M256.06,429.413c-1.528,0-3.021,0.613-4.098,1.69c-1.076,1.076-1.69,2.57-1.69,4.098s0.613,3.009,1.69,4.086
	c1.076,1.076,2.57,1.702,4.098,1.702c1.516,0,3.009-0.625,4.086-1.702c1.076-1.076,1.702-2.558,1.702-4.086
	s-0.625-3.021-1.702-4.098C259.068,430.027,257.575,429.413,256.06,429.413z"/>
<path d="M256.06,455.815c-1.528,0-3.021,0.625-4.098,1.702c-1.076,1.076-1.69,2.57-1.69,4.086c0,1.528,0.613,3.021,1.69,4.098
	c1.076,1.076,2.57,1.69,4.098,1.69c1.516,0,3.009-0.613,4.086-1.69c1.076-1.076,1.702-2.57,1.702-4.098
	c0-1.516-0.625-3.009-1.702-4.086C259.068,456.441,257.575,455.815,256.06,455.815z"/>
<path d="M256.06,482.229c-1.528,0-3.021,0.613-4.098,1.69c-1.076,1.088-1.69,2.57-1.69,4.098s0.613,3.009,1.69,4.098
	c1.076,1.076,2.57,1.69,4.098,1.69c1.516,0,3.009-0.613,4.086-1.69c1.076-1.088,1.702-2.57,1.702-4.098
	c0-1.516-0.625-3.009-1.702-4.098C259.068,482.844,257.575,482.229,256.06,482.229z"/>
<path d="M394.441,387.82c-16.861-16.375-32.818-24.425-40.071-27.536c0.318-11.863,1.34-22.521,2.294-30.245l13.444,16.35
	c1.385,1.686,3.599,2.443,5.733,1.972c2.13-0.477,3.81-2.11,4.348-4.225c12.548-49.443-0.765-81.461-10.917-97.211
	c5.432,1.035,10.311,2.412,14.596,3.623c8.828,2.496,15.207,4.297,20.003,0.667c2.68-2.027,4.039-5.254,4.039-9.59
	c0-2.126-1.167-4.082-3.038-5.093l-72.972-39.392L288.26,58.444l11.26-24.793l35.812-22.994c2.237-1.436,3.207-4.21,2.354-6.726
	c-0.852-2.518-3.322-4.13-5.956-3.911l-58.461,4.828c-1.222,0.101-2.381,0.587-3.308,1.389l-40.484,34.989
	c-0.817,0.706-1.421,1.629-1.742,2.66l-47.652,153.297l-72.895,39.351c-1.872,1.01-3.038,2.967-3.038,5.093
	c0,4.336,1.359,7.562,4.038,9.59c4.798,3.63,11.176,1.828,20.001-0.667c4.27-1.206,9.129-2.579,14.537-3.611
	c-10.152,15.751-23.46,47.758-10.914,97.198c0.537,2.115,2.218,3.749,4.349,4.225c2.129,0.475,4.345-0.288,5.732-1.972
	l13.447-16.354c0.957,7.722,1.982,18.378,2.303,30.238c-11.29,4.813-43.606,21.515-67.466,62.905
	c-13.561,23.523-22.107,51.255-25.401,82.428c-0.172,1.632,0.357,3.259,1.454,4.479c1.097,1.22,2.661,1.916,4.302,1.916H441.47
	c1.641,0,3.205-0.697,4.302-1.916c1.097-1.22,1.625-2.847,1.454-4.479C440.753,444.335,414.949,407.736,394.441,387.82z
	 M371.463,329.81l-14.147-17.203c-1.428-1.735-3.731-2.487-5.907-1.931c-2.176,0.558-3.832,2.325-4.25,4.533
	c-0.661,3.503-14.488,78.883,9.68,122.289c-20.595-4.922-58.213-18.549-65.588-53.186c5.087-4.648,8.629-10.007,11.074-14.986
	c3.961-8.071,5.544-16.101,6.176-21.212c25.714-2.823,33.207-25.882,33.489-38.443c0.001-0.043,0.001-63.459,0.001-63.459
	c4.055-0.619,7.939-0.875,11.648-0.857C359.489,251.778,380.577,279.027,371.463,329.81z M256.002,385.153
	c-40.405,0-41.326-40.851-41.346-42.576c-0.021-3.183-2.606-5.752-5.787-5.752c-10.929,0-18.785-4.398-23.345-13.072
	c-3.541-6.732-3.911-13.737-3.935-14.303v-61.004c22.571,4.324,48.123,6.605,74.414,6.605c0.009,0,0.019-0.002,0.027-0.002
	c0.009,0,0.019,0.002,0.027,0.002c26.268,0,51.8-2.277,74.36-6.594v60.986c-0.029,0.653-0.416,7.616-3.935,14.311
	c-4.562,8.674-12.416,13.073-23.344,13.073c-3.17,0-5.752,2.566-5.787,5.737C297.329,344.302,296.408,385.153,256.002,385.153z
	 M288.317,407.523c-5.482,1.476-16.704,3.159-32.26,3.159c-15.707,0-26.966-1.726-32.335-3.212
	c3.128-5.063,5.556-10.453,7.204-16.167c6.608,3.307,14.836,5.424,25.076,5.424c10.241,0,18.47-2.118,25.078-5.426
	C282.734,397.036,285.173,402.444,288.317,407.523z M319.207,195.361h-29.944v-24.817h22.136L319.207,195.361z M238.295,48.902
	l37.805-32.673l33.432-2.762L291.83,24.833c-0.939,0.603-1.682,1.462-2.144,2.477l-12.882,28.365
	c-0.59,1.299-0.679,2.769-0.251,4.13l31.202,99.165H204.079L238.295,48.902z M277.688,170.545v24.815h-21.63h-0.059h-21.686v-24.815
	H277.688z M200.482,170.545h22.257v24.815h-29.971L200.482,170.545z M127.511,238.715l58.869-31.779h139.298l58.87,31.779
	c-11.885-3.314-28.967-7.453-49.568-2.991c-23.416,5.071-50.709,7.752-78.925,7.752c-0.009,0-0.019,0.003-0.027,0.003
	c-0.009,0-0.019-0.003-0.027-0.003c-28.217,0-55.507-2.681-78.922-7.752C156.472,231.26,139.396,235.403,127.511,238.715z
	 M154.684,312.607l-14.145,17.201c-9.114-50.781,11.973-78.03,17.824-84.453c3.707-0.021,7.594,0.234,11.648,0.85
	c0,0,0,63.424,0.001,63.466c0.279,12.562,7.774,35.621,33.489,38.444c0.633,5.113,2.215,13.141,6.178,21.212
	c2.443,4.98,5.984,10.336,11.07,14.984c-7.366,34.55-44.975,48.214-65.573,53.166c24.152-43.409,10.326-118.763,9.665-122.267
	c-0.417-2.207-2.074-3.975-4.251-4.532C158.416,310.12,156.113,310.871,154.684,312.607z M375.393,500.425v-32.466
	c0-3.196-2.59-5.787-5.787-5.787c-3.197,0-5.787,2.592-5.787,5.787v32.466H148.183v-32.466c0-3.196-2.59-5.787-5.787-5.787
	s-5.787,2.592-5.787,5.787v32.466H77.047c3.558-26.948,11.338-50.964,23.159-71.468c19.293-33.467,44.901-49.578,57.483-55.896
	c-0.538,25.054-5.014,52.584-19.728,68.827c-1.61,1.778-1.956,4.365-0.872,6.504c0.992,1.958,2.998,3.169,5.159,3.169
	c0.2,0,0.402-0.01,0.603-0.031c0.815-0.086,20.202-2.19,40.928-11.418c13.599-6.054,24.555-13.796,32.71-22.96
	c3.001,1.352,6.718,2.214,10.41,2.876c8.003,1.436,18.357,2.227,29.155,2.227c10.807,0,21.188-0.791,29.229-2.226
	c3.644-0.652,7.303-1.501,10.288-2.814c8.148,9.137,19.081,16.857,32.651,22.897c20.726,9.226,40.113,11.331,40.929,11.415
	c0.201,0.021,0.403,0.031,0.603,0.031c2.161,0,4.167-1.212,5.159-3.169c1.086-2.139,0.738-4.726-0.872-6.504
	c-14.7-16.228-19.175-43.767-19.716-68.829c19.343,9.722,69.44,42.711,80.629,127.367h-59.561V500.425z"/>
<g>
</g>
<g>
</g>
<g>
</g>
<g>
</g>
<g>
</g>
<g>
</g>
<g>
</g>
<g>
</g>
<g>
</g>
<g>
</g>
<g>
</g>
<g>
</g>
<g>
</g>
<g>
</g>
<g>
</g>
</svg>
