<?xml version="1.0" encoding="iso-8859-1"?>
<!-- Generator: Adobe Illustrator 19.0.0, SVG Export Plug-In . SVG Version: 6.00 Build 0)  -->
<svg version="1.1" id="Layer_1" xmlns="http://www.w3.org/2000/svg" xmlns:xlink="http://www.w3.org/1999/xlink" x="0px" y="0px"
	 viewBox="0 0 511.998 511.998" style="enable-background:new 0 0 511.998 511.998;" xml:space="preserve">
<g>
	<rect x="238.242" y="399.739" style="fill:#333333;" width="35.51" height="26.371"/>
	<path style="fill:#333333;" d="M310.309,439.412c22.694-1.499,44.33-3.972,63.302-7.23l-13.206-50.808
		c-15.677,2.213-32.479,3.903-50.096,5.046L310.309,439.412L310.309,439.412z"/>
</g>
<path style="fill:#412559;" d="M201.691,373.906c0-3.307,2.681-5.988,5.988-5.988h96.643c3.307,0,5.988,2.681,5.988,5.988v0.516
	c16.528-1.09,32.297-2.677,47.061-4.723l-61.309-235.865c-0.206-0.794-0.248-1.62-0.121-2.43l10.241-65.562
	c0.16-1.032,0.589-2.004,1.242-2.819l35.601-44.458l-75.537,26.522l-45.956,67.235l-66.906,257.393
	c14.759,2.046,30.54,3.623,47.065,4.71L201.691,373.906L201.691,373.906z"/>
<path style="fill:#E6E6E6;" d="M298.333,445.959v-66.065h-84.666v66.065H298.333z M226.269,393.751c0-3.307,2.681-5.988,5.988-5.988
	h47.487c3.307,0,5.988,2.681,5.988,5.988v38.348c0,3.307-2.681,5.988-5.988,5.988h-47.487c-3.307,0-5.988-2.681-5.988-5.988V393.751
	z"/>
<path style="fill:#333333;" d="M201.691,386.423c-17.616-1.143-34.418-2.834-50.096-5.046l-13.206,50.805
	c18.974,3.256,40.609,5.728,63.302,7.229V386.423z"/>
<path style="fill:#412559;" d="M382.322,418.085l4.514,17.363c0.831,3.2-1.089,6.47-4.29,7.302
	c-0.139,0.036-0.277,0.038-0.414,0.065l0.002,0.014c-21.407,4.002-45.546,6.887-71.823,8.589v0.529c0,3.307-2.681,5.988-5.988,5.988
	h-96.644c-3.307,0-5.988-2.681-5.988-5.988v-0.529c-26.277-1.701-50.53-4.011-71.823-8.587c-6.549-1.407-4.702-7.382-4.702-7.382
	l4.514-17.365c-59.017,10.082-86.04,25.564-86.04,36.154c0,19.12,80.789,45.788,212.358,45.788
	c131.573,0,212.363-26.67,212.363-45.788C468.362,443.646,441.333,428.167,382.322,418.085z"/>
<path d="M232.257,438.088h47.487c3.307,0,5.988-2.681,5.988-5.988v-38.348c0-3.307-2.681-5.988-5.988-5.988h-47.487
	c-3.307,0-5.988,2.681-5.988,5.988V432.1C226.269,435.407,228.95,438.088,232.257,438.088z M238.245,399.739h35.51v26.371h-35.51
	V399.739z"/>
<path d="M379.021,405.386l-71.056-273.362l9.804-62.76l47.673-59.532c1.671-2.086,1.757-5.026,0.211-7.206
	c-1.545-2.18-4.347-3.073-6.868-2.187l-97.118,34.098c-1.204,0.423-2.241,1.218-2.96,2.271l-47.653,69.718
	c-0.39,0.57-0.678,1.204-0.852,1.872l-77.223,297.087c-39.598,6.351-101.317,20.762-101.317,48.848
	c0,17.373,23.066,31.651,68.559,42.439c41.679,9.884,97.002,15.326,155.776,15.326c58.775,0,114.099-5.443,155.78-15.326
	c45.494-10.788,68.56-25.066,68.56-42.439C480.338,426.148,418.619,411.737,379.021,405.386z M373.612,432.183
	c-18.973,3.258-40.609,5.729-63.302,7.23v-52.992c17.617-1.143,34.419-2.832,50.096-5.046L373.612,432.183z M221.532,112.322
	l45.956-67.235l75.539-26.522l-35.601,44.458c-0.653,0.816-1.081,1.787-1.242,2.819l-10.241,65.562
	c-0.127,0.81-0.085,1.637,0.121,2.43l61.308,235.865c-14.763,2.047-30.532,3.634-47.061,4.723v-0.516
	c0-3.307-2.681-5.988-5.988-5.988h-96.644c-3.307,0-5.988,2.681-5.988,5.988v0.52c-16.525-1.087-32.306-2.665-47.065-4.71
	L221.532,112.322z M298.333,379.894v66.065h-84.666v-66.065H298.333z M151.595,381.378c15.678,2.212,32.482,3.903,50.096,5.046
	v52.988c-22.694-1.501-44.328-3.972-63.302-7.229L151.595,381.378z M255.998,500.024c-131.57,0-212.358-26.67-212.358-45.788
	c0-10.589,27.023-26.072,86.04-36.154l-4.514,17.365c0,0-1.848,5.975,4.702,7.382c21.294,4.576,45.548,6.886,71.823,8.587v0.529
	c0,3.307,2.681,5.988,5.988,5.988h96.643c3.307,0,5.988-2.681,5.988-5.988v-0.529c26.277-1.701,50.416-4.587,71.823-8.589
	l-0.002-0.014c0.138-0.025,0.275-0.029,0.414-0.065c3.201-0.832,5.121-4.102,4.29-7.302l-4.514-17.363
	c59.011,10.083,86.04,25.562,86.04,36.15C468.362,473.354,387.571,500.024,255.998,500.024z"/>
<g>
</g>
<g>
</g>
<g>
</g>
<g>
</g>
<g>
</g>
<g>
</g>
<g>
</g>
<g>
</g>
<g>
</g>
<g>
</g>
<g>
</g>
<g>
</g>
<g>
</g>
<g>
</g>
<g>
</g>
</svg>
