<?xml version="1.0" encoding="iso-8859-1"?>
<!-- Generator: Adobe Illustrator 19.0.0, SVG Export Plug-In . SVG Version: 6.00 Build 0)  -->
<svg version="1.1" id="Layer_1" xmlns="http://www.w3.org/2000/svg" xmlns:xlink="http://www.w3.org/1999/xlink" x="0px" y="0px"
	 viewBox="0 0 512 512" style="enable-background:new 0 0 512 512;" xml:space="preserve">
<path style="fill:#808080;" d="M367.776,311.606c-1.387-1.74-2.71-2.006-3.855-2.006c-4.538,0-11.834,4.921-18.157,12.247
	c-1.352,1.566-3.438,2.288-5.47,1.886c-2.03-0.4-3.688-1.86-4.343-3.822c-5.587-16.725,4.21-31.338,12.855-44.232
	c4.943-7.372,9.613-14.337,11.282-21.057c0.806-3.244,0.357-11.166-1.249-19.724c-0.869,0.859-1.813,1.655-2.833,2.388
	c-6.263,4.498-14.104,5.567-20.14,5.567c-5.221,0-9.093-0.799-9.429-0.871c-2.754-0.588-4.678-3.082-4.546-5.895
	c0.368-7.947-3.941-11.606-6.722-13.134c-8.238,5.9-16.995,12.779-25.306,19.31c-4.706,3.698-9.57,7.52-14.253,11.1
	c-2.977,2.278-6.268,5.071-9.753,8.03c-8.453,7.176-17.194,14.597-25.36,18.178c-2.158,0.946-5.761,1.923-11.213,3.401
	c-21.238,5.76-65.431,17.745-96.205,47.71c-1.19,1.16-2.221,2.183-3.135,3.093c-7.546,7.501-9.028,8.575-22.503,11.583
	c-30.326,6.769-42.28,16.103-54.937,25.985c-4.971,3.881-10.07,7.863-16.325,11.751c10.636,9.794,24.091,14.571,40.912,14.571
	c13.281,0,28.265-2.885,47.155-9.08c2.464-0.809,5.17,0.133,6.597,2.302c1.428,2.167,1.228,5.022-0.488,6.971
	c-8.807,9.996-20.211,21.295-30.521,30.437c5.805-0.259,11.532-0.243,16.576,0.061c2.091,0.125,3.95,1.379,4.851,3.271
	c0.9,1.893,0.701,4.125-0.519,5.827c-10.475,14.603-24.613,43.713-32.543,63.038h190.227c0.72-14.91,3.797-42.234,21.974-46.458
	c6.543-41.865,13.163-70.25,40.116-101.917C352.385,338.17,365.782,317.66,367.776,311.606z M260.984,315.421
	c-1.094,11.636-11.054,20.082-23.68,20.082h-25.176c-1.619,0-3.165-0.682-4.255-1.88s-1.625-2.8-1.474-4.412
	c0.984-10.465,20.216-38.052,33.521-38.052c0.342,0,0.677,0.016,1.007,0.046c5.913,0.555,11.255,3.381,15.044,7.955
	C259.758,303.734,261.539,309.509,260.984,315.421z"/>
<g>
	<path style="fill:#333333;" d="M239.85,302.664c-4.073,0.223-14.752,12.513-19.582,21.331h17.036c5.449,0,11.598-3.02,12.221-9.651
		c0.268-2.852-0.59-5.637-2.418-7.843C245.28,304.293,242.703,302.932,239.85,302.664z"/>
	<path style="fill:#333333;" d="M333.17,231.269c4.794,0.314,11.634-0.091,16.148-3.351c2.769-1.999,4.449-4.931,5.14-8.913
		c-0.977-2.507-2.065-4.82-3.267-6.795c-2.376-3.906-4.005-4.462-4.308-4.533c-0.43-0.102-0.929-0.155-1.482-0.155
		c-4.87,0-11.994,3.419-20.177,8.606C328.957,219.458,332.259,224.395,333.17,231.269z"/>
</g>
<path style="fill:#FFAA2A;" d="M261.402,11.509C141.251,11.509,43.5,109.26,43.5,229.41c0,40.432,11.098,79.71,32.128,113.927
	c7.791-3.388,17.242-6.52,29.304-9.211c10.745-2.4,10.745-2.4,16.896-8.513c0.939-0.933,1.997-1.986,3.22-3.176
	c32.913-32.047,79.05-44.559,101.222-50.572c4.416-1.197,8.23-2.233,9.605-2.835c6.622-2.904,15.075-10.079,22.533-16.41
	c3.6-3.056,6.999-5.942,10.21-8.398c4.622-3.534,9.457-7.334,14.132-11.008c24.346-19.131,47.345-37.201,62.65-37.201
	c1.45,0,2.846,0.158,4.148,0.467c4.298,1.024,8.16,4.302,11.473,9.745c8.239,13.536,12.825,40.742,10.235,51.17
	c-2.156,8.679-7.613,16.82-12.892,24.693c-5.355,7.986-10.507,15.671-12.054,23.35c5.005-3.907,11.224-7.347,17.611-7.347
	c4.247,0,10.224,1.533,14.57,8.836c2.288,3.845,1.509,9.041-9.142,25.461c-5.973,9.209-13.852,19.881-20.07,27.188
	c-22.173,26.052-29.469,49.526-35.056,81.281c96.151-23.954,165.08-111.536,165.08-211.448
	C479.303,109.26,381.553,11.509,261.402,11.509z"/>
<path d="M240.926,291.205c-0.33-0.03-0.665-0.046-1.007-0.046c-13.305,0-32.536,27.588-33.521,38.052
	c-0.151,1.612,0.384,3.214,1.474,4.412c1.09,1.198,2.635,1.88,4.255,1.88h25.176c12.627,0,22.585-8.446,23.68-20.082
	c0.555-5.913-1.224-11.687-5.013-16.262C252.181,294.586,246.839,291.76,240.926,291.205z M249.525,314.345
	c-0.623,6.631-6.772,9.651-12.221,9.651h-17.036c4.829-8.818,15.509-21.108,19.582-21.331c2.854,0.267,5.431,1.63,7.258,3.837
	C248.935,308.707,249.793,311.492,249.525,314.345z"/>
<path d="M261.402,0C134.905,0,31.991,102.913,31.991,229.41c0,42.219,11.498,83.242,33.293,119.066
	c-7.883,4.447-13.923,9.156-19.864,13.795c-6.494,5.07-12.627,9.858-21.191,14.44c-1.538,0.823-2.618,2.298-2.942,4.011
	c-0.321,1.714,0.151,3.48,1.284,4.806c13.434,15.691,31.775,23.647,54.515,23.647c9.269,0,19.184-1.248,30.359-3.859
	c-10.332,10.272-21.456,20.176-29.236,25.824c-2.145,1.557-2.95,4.379-1.946,6.831c1.002,2.455,3.557,3.907,6.173,3.516
	c7.353-1.092,15.471-1.74,23.111-1.849c-11.925,19.513-25.323,48.78-31.186,64.611c-0.654,1.765-0.403,3.74,0.673,5.286
	c1.076,1.546,2.839,2.466,4.723,2.466h204.212c3.113,0,5.662-2.475,5.752-5.587c0.795-27.487,6.074-41.424,15.692-41.424
	c2.841,0,5.257-2.074,5.687-4.882c0.361-2.359,0.719-4.666,1.077-6.934c49.322-11.162,94.103-38.777,126.449-78.085
	c33.65-40.891,52.182-92.626,52.182-145.677C490.812,102.913,387.899,0,261.402,0z M300.397,454.034
	c-18.178,4.224-21.254,31.547-21.974,46.458H88.196c7.931-19.325,22.069-48.435,32.543-63.038c1.22-1.702,1.419-3.935,0.519-5.827
	c-0.901-1.892-2.759-3.144-4.851-3.271c-5.045-0.304-10.771-0.319-16.576-0.061c10.309-9.141,21.712-20.441,30.521-30.437
	c1.716-1.947,1.916-4.804,0.488-6.971c-1.427-2.168-4.134-3.111-6.597-2.302c-18.89,6.195-33.874,9.08-47.155,9.08
	c-16.821,0-30.275-4.777-40.912-14.571c6.255-3.889,11.354-7.871,16.325-11.751c12.657-9.882,24.612-19.216,54.937-25.985
	c13.474-3.008,14.956-4.082,22.503-11.583c0.914-0.909,1.944-1.933,3.135-3.093c30.775-29.965,74.968-41.95,96.205-47.71
	c5.452-1.478,9.055-2.455,11.213-3.401c8.166-3.58,16.907-11.002,25.36-18.178c3.485-2.958,6.776-5.752,9.753-8.03
	c4.682-3.58,9.547-7.403,14.253-11.1c8.313-6.532,17.068-13.41,25.306-19.31c2.782,1.527,7.09,5.187,6.722,13.134
	c-0.131,2.813,1.793,5.307,4.546,5.895c0.336,0.073,4.208,0.871,9.429,0.871c6.036,0,13.877-1.069,20.14-5.567
	c1.021-0.733,1.964-1.529,2.833-2.388c1.605,8.559,2.054,16.479,1.249,19.724c-1.669,6.72-6.339,13.685-11.282,21.057
	c-8.645,12.893-18.441,27.505-12.855,44.232c0.655,1.962,2.314,3.423,4.343,3.822c2.032,0.403,4.118-0.319,5.47-1.886
	c6.323-7.325,13.619-12.247,18.157-12.247c1.144,0,2.469,0.267,3.855,2.006c-1.993,6.055-15.391,26.564-27.261,40.511
	C313.561,383.784,306.939,412.169,300.397,454.034z M325.224,216.126c8.183-5.187,15.306-8.606,20.177-8.606
	c0.554,0,1.052,0.053,1.482,0.155c0.303,0.073,1.931,0.628,4.308,4.533c1.203,1.976,2.29,4.289,3.267,6.795
	c-0.691,3.982-2.371,6.914-5.14,8.913c-4.514,3.26-11.353,3.665-16.148,3.351C332.259,224.395,328.957,219.458,325.224,216.126z
	 M314.223,440.857c5.586-31.755,12.883-55.229,35.056-81.281c6.218-7.307,14.097-17.979,20.07-27.188
	c10.651-16.42,11.431-21.616,9.142-25.461c-4.346-7.303-10.323-8.836-14.57-8.836c-6.387,0-12.606,3.44-17.611,7.347
	c1.547-7.678,6.698-15.364,12.054-23.35c5.279-7.873,10.736-16.014,12.892-24.693c2.591-10.428-1.994-37.634-10.235-51.17
	c-3.313-5.444-7.173-8.721-11.473-9.745c-1.303-0.311-2.699-0.467-4.148-0.467c-15.306,0-38.304,18.071-62.65,37.201
	c-4.677,3.674-9.512,7.474-14.132,11.008c-3.211,2.456-6.61,5.342-10.21,8.398c-7.458,6.331-15.911,13.506-22.533,16.41
	c-1.374,0.602-5.189,1.638-9.605,2.835c-22.173,6.013-68.309,18.526-101.222,50.572c-1.223,1.19-2.28,2.242-3.22,3.176
	c-6.15,6.114-6.15,6.114-16.896,8.513c-12.061,2.692-21.513,5.823-29.304,9.211C54.597,309.119,43.5,269.84,43.5,229.408
	c0-120.149,97.751-217.9,217.902-217.9c120.15,0,217.901,97.751,217.901,217.901C479.303,329.321,410.373,416.904,314.223,440.857z"
	/>
<g>
</g>
<g>
</g>
<g>
</g>
<g>
</g>
<g>
</g>
<g>
</g>
<g>
</g>
<g>
</g>
<g>
</g>
<g>
</g>
<g>
</g>
<g>
</g>
<g>
</g>
<g>
</g>
<g>
</g>
</svg>
