<?xml version="1.0" encoding="iso-8859-1"?>
<!-- Generator: Adobe Illustrator 19.0.0, SVG Export Plug-In . SVG Version: 6.00 Build 0)  -->
<svg version="1.1" id="Layer_1" xmlns="http://www.w3.org/2000/svg" xmlns:xlink="http://www.w3.org/1999/xlink" x="0px" y="0px"
	 viewBox="0 0 512.001 512.001" style="enable-background:new 0 0 512.001 512.001;" xml:space="preserve">
<path style="fill:#333333;" d="M108.804,202.564l-33.706-30.608v54.838C83.743,216.441,95.331,208.054,108.804,202.564z"/>
<path style="fill:#FFAA2A;" d="M120.811,269.196c4.796,0,8.699-3.901,8.699-8.698c0-4.797-3.902-8.7-8.699-8.7
	c-4.797,0-8.7,3.902-8.7,8.7C112.11,265.294,116.013,269.196,120.811,269.196z"/>
<path style="fill:#333333;" d="M216.552,226.794v-54.838l-33.704,30.61C196.319,208.055,207.907,216.442,216.552,226.794z"/>
<path style="fill:#FFAA2A;" d="M170.84,269.196c4.797,0,8.7-3.901,8.7-8.698c0-4.797-3.902-8.7-8.7-8.7
	c-4.796,0-8.699,3.902-8.699,8.7C162.141,265.294,166.043,269.196,170.84,269.196z"/>
<g>
	<path style="fill:#333333;" d="M200.698,312.774c-0.287,0-0.577-0.021-0.868-0.066l-29.418-4.413c-3.17-0.475-5.355-3.43-4.879-6.6
		c0.476-3.169,3.432-5.359,6.6-4.878l29.418,4.413c3.17,0.475,5.355,3.43,4.879,6.6c-0.11,0.737-0.359,1.418-0.709,2.028
		c9.85-10.79,15.731-24.296,15.731-38.946c0-35.234-33.927-63.898-75.628-63.898c-41.7,0-75.625,28.664-75.625,63.898
		c0,14.651,5.879,28.155,15.731,38.947c-0.351-0.609-0.599-1.291-0.709-2.029c-0.476-3.17,1.709-6.125,4.879-6.6l29.418-4.413
		c3.163-0.479,6.124,1.706,6.601,4.878c0.476,3.171-1.709,6.125-4.879,6.6l-29.418,4.413c-0.293,0.044-0.583,0.066-0.868,0.066
		c-1.184,0-2.295-0.378-3.232-1.012c13.884,14.074,34.773,23.05,58.103,23.05s44.222-8.976,58.105-23.05
		C202.992,312.396,201.882,312.774,200.698,312.774z M206.431,285.641c0.476,3.171-1.709,6.125-4.879,6.601l-29.418,4.413
		c-0.291,0.044-0.582,0.066-0.868,0.066c-2.825,0-5.3-2.065-5.732-4.944c-0.476-3.171,1.709-6.125,4.879-6.601l29.418-4.413
		C202.997,280.276,205.955,282.471,206.431,285.641z M170.84,240.19c11.198,0,20.308,9.111,20.308,20.308
		c0,11.196-9.11,20.305-20.308,20.305c-11.197,0-20.306-9.11-20.306-20.305C150.533,249.3,159.643,240.19,170.84,240.19z
		 M120.811,240.19c11.197,0,20.306,9.111,20.306,20.308c0,11.196-9.11,20.305-20.306,20.305c-11.198,0-20.308-9.11-20.308-20.305
		C100.502,249.3,109.613,240.19,120.811,240.19z M126.117,291.777c-0.432,2.878-2.908,4.944-5.732,4.944
		c-0.287,0-0.577-0.022-0.868-0.066l-29.418-4.413c-3.17-0.475-5.355-3.43-4.879-6.601c0.476-3.168,3.438-5.353,6.601-4.878
		l29.418,4.413C124.408,285.652,126.593,288.607,126.117,291.777z M156.337,292.306h-4.708v16.764c0,3.206-2.599,5.804-5.804,5.804
		s-5.804-2.598-5.804-5.804v-16.764h-4.709c-3.205,0-5.804-2.598-5.804-5.804c0-3.206,2.599-5.804,5.804-5.804h21.024
		c3.205,0,5.804,2.598,5.804,5.804C162.14,289.708,159.542,292.306,156.337,292.306z"/>
	<path style="fill:#333333;" d="M396.57,219.502c28.323-21.656,45.234-56.314,45.234-92.706
		c0-63.516-49.929-115.188-111.301-115.188c-65.983,0-95.691,56.297-95.719,56.343c-0.042,0.068-0.067,0.142-0.113,0.209
		c-3.437,5.088-1.186,12.637,5.016,16.826c6.204,4.188,14.049,3.458,17.485-1.63c0.043-0.064,21.604-30.52,62.61-31.243
		c43.45-0.766,78.811,36.442,78.811,81.234c0,20.458-7.667,40.339-21.175,55.488c1.31,2.096,1.2,4.871-0.496,6.844
		c-1.148,1.336-2.773,2.022-4.405,2.022c-1.336,0-2.679-0.459-3.772-1.395c-0.161-0.137-16.326-13.763-42.018-21.04
		c-33.213-9.407-66.358-4.431-98.569,14.776v55.961c3.161,7.805,4.901,16.182,4.901,24.909c0,39.049-34.425,71.268-78.386,75.121
		l14.045,151.444c0.002,0.024-0.002,0.049-0.001,0.074h0.007c0.787,0.872,4.269,2.84,10.436,2.84s9.651-1.969,10.436-2.84
		c0.001-0.019,0.008-0.034,0.009-0.052c0.002-0.016-0.001-0.029,0-0.045l10.505-108.444c0.005-0.055,0.024-0.103,0.031-0.157
		c0.608-7.768,10.917-11.27,21.165-11.27c10.25,0,20.558,3.502,21.166,11.271c0.007,0.052,0.026,0.101,0.031,0.156l10.506,108.444
		c0.001,0.016-0.001,0.029,0,0.045c0.001,0.019,0.008,0.034,0.009,0.052c0.787,0.872,4.269,2.84,10.436,2.84
		c6.168,0,9.651-1.969,10.436-2.84c0.002-0.027,0.012-0.05,0.014-0.077c0.002-0.023-0.002-0.046,0-0.07l14.511-137.705
		c0.329-14.731,16.515-26.208,37.132-26.208c20.636,0,34.166,9.837,37.134,26.249c5.54,37.084,15.473,136.532,15.599,137.571
		c0.005,0.039-0.002,0.077,0.002,0.116c0.005,0.042,0.019,0.08,0.021,0.122c0.787,0.872,4.269,2.84,10.436,2.84
		c6.16,0,9.64-1.963,10.433-2.836c0.013-0.158,0.002-0.313,0.028-0.471c0.254-1.569,25.09-158.164-4.721-271.497
		C393.872,223.256,394.769,220.884,396.57,219.502z"/>
	<path style="fill:#333333;" d="M351.113,360.665c-0.014-0.084-4.529-15.793-25.562-15.563c-4.447,0.049-8.671,0.715-12.359,1.951
		c17.183,55.585,14.636,141.436,14.311,150.534c0.838,0.887,4.301,2.807,10.398,2.807c6.156,0,6.507-0.861,10.431-2.835
		c3.923-1.973,10.679-57.641,9.581-73.672C355.045,398.959,354.088,379.714,351.113,360.665z"/>
</g>
<path d="M453.412,126.796C453.412,56.881,398.276,0,330.503,0C257.111,0,224.799,62.087,224.78,62.12
	c-6.618,10.366-2.93,24.824,8.412,32.486c4.673,3.154,9.933,4.676,15.003,4.676c7.279,0,14.162-3.147,18.356-9.096
	c14.945-18.796,30.37-26.467,53.233-26.467c37.056,0,67.203,31.234,67.203,69.626c0,17.849-6.768,35.187-18.684,48.285
	c-7.748-5.124-20.808-12.476-37.902-17.389c-24.136-6.934-60.84-9.978-102.242,12.456v-17.854c0-2.297-1.355-4.377-3.454-5.307
	c-2.1-0.927-4.55-0.534-6.251,1.011l-48.304,43.869c-7.727-1.945-15.884-3.01-24.327-3.01c-8.441,0-16.597,1.063-24.323,3.009
	l-48.305-43.867c-1.701-1.545-4.151-1.938-6.251-1.011c-2.1,0.93-3.454,3.011-3.454,5.307v87.159
	c-3.161,7.804-4.901,16.181-4.901,24.909c0,40.829,37.639,74.169,84.456,75.446l14.114,152.191c0.003,0.039,0.017,0.075,0.022,0.115
	c0.488,7.763,9.565,13.335,21.98,13.335c12.406,0,21.48-5.565,21.979-13.32c0.003-0.036,0.017-0.071,0.021-0.107l10.416-107.522
	c1.257-0.706,4.578-1.861,9.733-1.861s8.477,1.155,9.733,1.86l10.417,107.524c0.003,0.036,0.016,0.071,0.021,0.107
	c0.499,7.755,9.573,13.32,21.979,13.32c12.389,0,21.452-5.548,21.977-13.285c0.003-0.031,0.015-0.06,0.019-0.092l14.523-137.858
	c0.012-0.104-0.005-0.204,0.001-0.308c0.006-0.102,0.03-0.198,0.03-0.302c0-2.461,1.07-4.806,2.936-6.882
	c16.222,55.797,12.97,143.588,12.933,144.51c-0.001,0.039,0.008,0.075,0.007,0.116c-0.001,0.038-0.012,0.074-0.012,0.115
	c0,8.103,9.263,13.986,22.027,13.986c12.193,0,21.168-5.373,21.95-12.916c0.728-2.303,2.471-8.708,4.315-21.958
	c1.528,12.794,2.561,21.294,2.595,21.589c0.002,0.021,0.01,0.037,0.013,0.057c0.563,7.707,9.613,13.229,21.972,13.229
	c12.523,0,20.648-5.379,21.995-13.536c1.472-9.456,24.096-159.84-4.089-272.137C435.999,202.379,453.412,165.469,453.412,126.796z
	 M216.552,171.956v54.838c-8.644-10.352-20.232-18.739-33.704-24.227L216.552,171.956z M75.099,171.956l33.706,30.608
	c-13.473,5.489-25.062,13.877-33.706,24.23V171.956z M87.721,311.762c-0.725-0.491-1.348-1.131-1.791-1.902
	c-9.851-10.792-15.731-24.296-15.731-38.947c0-35.234,33.926-63.898,75.625-63.898c41.701,0,75.628,28.664,75.628,63.898
	c0,14.65-5.879,28.155-15.731,38.946c-0.445,0.773-1.067,1.413-1.793,1.904c-13.884,14.074-34.774,23.05-58.105,23.05
	C122.494,334.812,101.604,325.836,87.721,311.762z M348.33,497.557c-3.923,1.973-4.276,2.835-10.431,2.835
	c-6.097,0-9.56-1.92-10.398-2.807c0.325-9.098,2.872-94.949-14.311-150.534c3.689-1.235,7.912-1.902,12.359-1.951
	c21.033-0.23,25.549,15.48,25.562,15.563c2.976,19.049,3.933,38.295,6.799,63.221C359.011,439.916,352.254,495.583,348.33,497.557z
	 M394.485,225.587c29.812,113.334,4.975,269.929,4.721,271.497c-0.026,0.159-0.016,0.315-0.028,0.471
	c-0.794,0.873-4.274,2.836-10.433,2.836c-6.167,0-9.649-1.969-10.436-2.84c-0.003-0.042-0.017-0.08-0.021-0.122
	c-0.005-0.038,0.002-0.075-0.002-0.116c-0.127-1.039-10.059-100.486-15.599-137.571c-2.969-16.413-16.498-26.249-37.134-26.249
	c-20.617,0-36.803,11.476-37.132,26.208l-14.511,137.705c-0.002,0.024,0.002,0.046,0,0.07c-0.002,0.027-0.012,0.05-0.014,0.077
	c-0.787,0.872-4.269,2.84-10.436,2.84c-6.167,0-9.649-1.969-10.436-2.84c-0.001-0.019-0.008-0.034-0.009-0.052
	c-0.001-0.016,0.001-0.029,0-0.045l-10.506-108.444c-0.005-0.055-0.024-0.103-0.031-0.156c-0.608-7.769-10.917-11.271-21.166-11.271
	c-10.248,0-20.557,3.502-21.165,11.27c-0.007,0.053-0.026,0.102-0.031,0.157l-10.505,108.444c-0.001,0.016,0.002,0.029,0,0.045
	c-0.001,0.019-0.008,0.034-0.009,0.052c-0.787,0.872-4.269,2.84-10.436,2.84c-6.167,0-9.651-1.969-10.436-2.84h-0.007
	c-0.001-0.026,0.003-0.049,0.001-0.074l-14.045-151.444c43.962-3.851,78.386-36.072,78.386-75.121c0-8.727-1.74-17.104-4.901-24.909
	v-55.961c32.211-19.208,65.357-24.183,98.569-14.776c25.693,7.276,41.858,20.903,42.018,21.04c1.093,0.937,2.436,1.395,3.772,1.395
	c1.632,0,3.257-0.686,4.405-2.022c1.696-1.973,1.806-4.749,0.496-6.844c13.508-15.149,21.175-35.029,21.175-55.488
	c0-44.793-35.361-82.001-78.811-81.234c-41.006,0.723-62.567,31.179-62.61,31.243c-3.436,5.089-11.281,5.819-17.485,1.63
	c-6.202-4.189-8.453-11.739-5.016-16.826c0.045-0.067,0.071-0.14,0.113-0.209c0.025-0.045,29.733-56.342,95.716-56.342
	c61.372,0,111.301,51.674,111.301,115.188c0,36.393-16.91,71.05-45.234,92.706C394.769,220.884,393.872,223.256,394.485,225.587z"/>
<path d="M120.811,280.803c11.197,0,20.306-9.11,20.306-20.305c0-11.197-9.11-20.308-20.306-20.308
	c-11.198,0-20.308,9.111-20.308,20.308C100.502,271.694,109.613,280.803,120.811,280.803z M120.811,251.798
	c4.796,0,8.699,3.902,8.699,8.7c0,4.796-3.902,8.698-8.699,8.698c-4.797,0-8.7-3.901-8.7-8.698
	C112.11,255.701,116.013,251.798,120.811,251.798z"/>
<path d="M170.84,280.803c11.198,0,20.308-9.11,20.308-20.305c0-11.197-9.11-20.308-20.308-20.308
	c-11.197,0-20.306,9.111-20.306,20.308C150.533,271.694,159.643,280.803,170.84,280.803z M170.84,251.798c4.797,0,8.7,3.902,8.7,8.7
	c0,4.796-3.902,8.698-8.7,8.698c-4.796,0-8.699-3.901-8.699-8.698C162.141,255.701,166.043,251.798,170.84,251.798z"/>
<path d="M121.238,285.177l-29.418-4.413c-3.163-0.476-6.125,1.71-6.601,4.878c-0.476,3.171,1.709,6.125,4.879,6.601l29.418,4.413
	c0.293,0.044,0.582,0.066,0.868,0.066c2.824,0,5.3-2.066,5.732-4.944C126.593,288.607,124.408,285.652,121.238,285.177z"/>
<path d="M91.821,312.708l29.418-4.413c3.17-0.475,5.355-3.43,4.879-6.6c-0.476-3.171-3.437-5.357-6.601-4.878l-29.418,4.413
	c-3.17,0.475-5.355,3.43-4.879,6.6c0.11,0.738,0.359,1.42,0.709,2.029c0.445,0.772,1.066,1.411,1.791,1.902
	c0.937,0.634,2.048,1.012,3.232,1.012C91.238,312.774,91.528,312.753,91.821,312.708z"/>
<path d="M165.533,291.777c0.432,2.878,2.908,4.944,5.732,4.944c0.287,0,0.577-0.022,0.868-0.066l29.418-4.413
	c3.17-0.475,5.355-3.43,4.879-6.601c-0.476-3.17-3.434-5.365-6.601-4.878l-29.418,4.413
	C167.242,285.652,165.058,288.607,165.533,291.777z"/>
<path d="M201.552,301.23l-29.418-4.413c-3.168-0.482-6.125,1.709-6.6,4.878c-0.476,3.171,1.709,6.125,4.879,6.6l29.418,4.413
	c0.291,0.044,0.582,0.066,0.868,0.066c1.183,0,2.294-0.378,3.23-1.012c0.727-0.491,1.349-1.131,1.793-1.904
	c0.351-0.609,0.599-1.291,0.709-2.028C206.906,304.66,204.722,301.705,201.552,301.23z"/>
<path d="M156.337,280.699h-21.024c-3.205,0-5.804,2.598-5.804,5.804c0,3.206,2.599,5.804,5.804,5.804h4.709v16.764
	c0,3.206,2.599,5.804,5.804,5.804s5.804-2.598,5.804-5.804v-16.764h4.708c3.205,0,5.804-2.598,5.804-5.804
	C162.142,283.296,159.542,280.699,156.337,280.699z"/>
<g>
</g>
<g>
</g>
<g>
</g>
<g>
</g>
<g>
</g>
<g>
</g>
<g>
</g>
<g>
</g>
<g>
</g>
<g>
</g>
<g>
</g>
<g>
</g>
<g>
</g>
<g>
</g>
<g>
</g>
</svg>
