<?xml version="1.0" encoding="iso-8859-1"?>
<!-- Generator: Adobe Illustrator 19.0.0, SVG Export Plug-In . SVG Version: 6.00 Build 0)  -->
<svg version="1.1" id="Layer_1" xmlns="http://www.w3.org/2000/svg" xmlns:xlink="http://www.w3.org/1999/xlink" x="0px" y="0px"
	 viewBox="0 0 512.002 512.002" style="enable-background:new 0 0 512.002 512.002;" xml:space="preserve">
<polygon style="fill:#754C24;" points="331.336,421.621 331.308,430.87 347.529,430.122 "/>
<path style="fill:#81AF31;" d="M194.789,340.21v98.028l9.661,4.579c0,0,62.944-8.999,63.134-9.008l52.21-2.392V316.589
	c0.002-0.754,0.148-1.501,0.43-2.2c2.836-7.031,54.812-65.43,61.021-75.055c22.612-35.046,28.574-74.696,19.955-89.737
	c-2.247-3.923-5.209-5.672-9.298-5.493c-7.434,0.319-12.294,21.002-15.197,33.362c-2.072,8.819-3.709,15.785-6.284,19.88
	c-6.53,10.374-22.782,15.242-30.658,13.907c-6.03-1.019-7.579-5.023-7.965-6.697c-0.235-1.021-0.196-2.085,0.114-3.085
	c0.076-0.247,7.703-24.885,14.251-46.848c8.29-27.807,4.387-94.365-14.051-110.882c-4.251-3.806-8.882-4.459-14.578-2.054
	c-7.082,2.989-2.916,28.05-0.159,44.633c1.613,9.705,3.138,18.871,3.504,26.661c1.25,26.633-26.305,76.72-27.48,78.839
	c-1.326,2.392-4.114,3.57-6.754,2.844c-2.638-0.724-4.437-3.16-4.355-5.895c0.027-0.919,2.761-92.222,0.383-123.122
	c-1.608-20.889-21.43-45.046-37.409-51.889c-6.23-2.668-11.156-2.573-14.649,0.277c-5.153,4.208-3.26,9.749,5.465,25.382
	c5.458,9.782,11.647,20.871,13.211,33.171c0.556,4.379-0.004,32.63-0.853,55.247c-0.364,9.68-0.967,23.482-1.786,34.257
	c-1.138,14.992-1.751,19.788-7.042,20.899c-2.109,0.444-6.071-0.142-7.552-5.138c-1.008-3.394-1.99-8.727-3.235-15.481
	c-3.402-18.464-9.096-49.366-20.266-60.345c-18.154-17.844-44.768-25.35-59.007-22.074c-2.195,0.505-6.017,1.754-6.977,4.451
	c-1.771,4.979-1.682,9.055,0.271,12.458c3.255,5.67,12.026,10.113,24.696,12.509c19.044,3.602,22.431,27.35,29.174,74.664
	c2.288,16.056,0.206,27.531-6.365,35.083c-5.507,6.327-13.907,9.527-25.014,9.487c-22.315-0.066-30.254-11.084-31.465-43.665
	c-0.637-17.163-5.128-24.364-8.782-27.384c-3.187-2.633-3.888-2.337-7.333-2.337c-3.444,0-5.43,0.997-7.448,3.134
	c-6.684,7.074-7.21,24.212-6.868,29.658c0.006,0.092,0.009,0.184,0.011,0.276c0.834,51.618,8.334,58.18,15.586,64.527
	c5.559,4.865,11.86,10.379,15.349,28.436c8.296,42.935,55.472,53.04,55.948,53.137C193.104,334.949,194.796,337.387,194.789,340.21z
	 M283.926,274.139l20.298-31.511c1.773-2.75,5.438-3.544,8.192-1.773c2.751,1.773,3.545,5.441,1.772,8.192l-20.298,31.511
	c-1.133,1.759-3.039,2.718-4.988,2.718c-1.099,0-2.211-0.306-3.204-0.945C282.947,280.559,282.153,276.892,283.926,274.139z
	 M258.195,222.956c0.009-3.267,2.661-5.909,5.927-5.909c0.006,0,0.012,0,0.018,0c3.274,0.009,5.918,2.671,5.909,5.944l-0.09,30.307
	c-0.009,3.267-2.661,5.909-5.927,5.909c-0.006,0-0.012,0-0.018,0c-3.274-0.009-5.918-2.671-5.909-5.944L258.195,222.956z
	 M217.937,240.575c2.761-1.758,6.426-0.941,8.181,1.822l20.111,31.631c1.755,2.762,0.94,6.424-1.822,8.181
	c-0.985,0.627-2.087,0.926-3.174,0.926c-1.959,0-3.877-0.971-5.008-2.748l-20.111-31.63
	C214.358,245.994,215.175,242.331,217.937,240.575z"/>
<g>
	<path style="fill:#754C24;" d="M402.435,414.109l-18.409-10.166l-52.612-8.304l-0.037,12.616l41.015,21.535
		c2.369,1.243,3.612,3.921,3.031,6.533c-0.581,2.612-2.84,4.511-5.512,4.635l-101.495,4.68l-64.05,9.167
		c-0.279,0.04-1.946,0.312-3.378-0.512l-49.875-23.637c-2.211-1.048-3.551-3.347-3.372-5.788c0.178-2.441,1.838-4.521,4.178-5.236
		l31.101-9.5l0.031-10.603l-44.32,9.976c-0.38,0.085-0.768,0.134-1.159,0.143l-36.848,0.888l7.339,11.409
		c0.919,1.431,1.181,3.186,0.718,4.822c-0.463,1.636-1.606,2.993-3.14,3.729l-39.676,19.032l29.257,8.335
		c1.642,0.468,3.001,1.62,3.731,3.162l11.535,24.358l95.652,6.19l31.223-20.654c1.571-1.038,3.539-1.267,5.307-0.622l80.771,29.547
		l97.208-28.016l-20.675-18.538c-1.536-1.377-2.245-3.454-1.873-5.482c0.372-2.028,1.772-3.718,3.697-4.46l42.631-16.439
		l-40.842-12.311C403.188,414.474,402.802,414.311,402.435,414.109z"/>
	<polygon style="fill:#754C24;" points="182.982,422.535 170.014,426.495 182.951,432.628 	"/>
</g>
<path d="M236.226,280.386c1.13,1.777,3.047,2.748,5.008,2.748c1.087,0,2.189-0.3,3.174-0.926c2.762-1.755,3.577-5.419,1.822-8.181
	l-20.111-31.631c-1.757-2.763-5.42-3.58-8.181-1.822c-2.762,1.757-3.577,5.419-1.822,8.181L236.226,280.386z"/>
<path d="M285.698,282.331c0.993,0.639,2.105,0.945,3.204,0.945c1.949,0,3.855-0.959,4.988-2.718l20.298-31.511
	c1.773-2.751,0.979-6.42-1.772-8.192c-2.753-1.771-6.418-0.977-8.192,1.773l-20.298,31.511
	C282.153,276.892,282.947,280.559,285.698,282.331z"/>
<path d="M264.013,259.207c0.006,0,0.012,0,0.018,0c3.266,0,5.917-2.642,5.927-5.909l0.09-30.307
	c0.009-3.274-2.636-5.935-5.909-5.944c-0.006,0-0.012,0-0.018,0c-3.266,0-5.917,2.642-5.927,5.909l-0.09,30.307
	C258.095,256.536,260.739,259.197,264.013,259.207z"/>
<path d="M464.398,420.543l-56.783-17.115l-18.771-10.365c-0.603-0.333-1.261-0.558-1.942-0.666l-55.453-8.752l0.196-65.739
	c3.196-6.213,52.848-61.738,59.562-72.142c23.391-36.253,32.298-81.081,20.279-102.057c-4.435-7.744-11.58-11.81-20.089-11.442
	c-16.413,0.703-21.856,23.874-26.23,42.493c-1.601,6.814-3.256,13.86-4.777,16.279c-2.936,4.664-10.661,7.721-15.467,8.473
	c2.63-8.542,7.892-25.707,12.601-41.496c8.427-28.275,6.78-101.345-17.502-123.098c-7.734-6.929-17.105-8.364-27.095-4.145
	c-15.701,6.628-11.4,32.488-7.242,57.497c1.556,9.351,3.024,18.183,3.358,25.273c0.567,12.075-6.785,32.059-14.22,48.681
	c0.645-29.85,1.29-76.456-0.327-97.481c-1.815-23.573-22.638-52.487-44.562-61.875c-10.31-4.414-19.829-3.705-26.813,1.994
	c-13.67,11.164-5.019,26.663,2.612,40.34c4.936,8.842,10.529,18.867,11.802,28.885c0.493,4.146-0.203,37.136-1.412,64.3
	c-3.933-17.279-9.696-35.41-19.253-44.803c-21.298-20.935-52.303-29.24-69.975-25.171c-7.872,1.811-13.37,6.084-15.485,12.031
	c-2.96,8.322-2.569,15.835,1.16,22.33c5.079,8.848,16.413,15.161,32.774,18.255c10.254,1.939,13.61,22.368,19.641,64.689
	c1.75,12.273,0.548,20.896-3.573,25.629c-3.19,3.667-8.399,5.444-16.036,5.416c-11.116-0.033-18.459-0.055-19.655-32.252
	c-0.642-17.304-5.042-29.443-13.077-36.082c-6.446-5.324-13.017-5.237-15.082-5.052c-6.198,0.051-11.679,2.413-15.867,6.846
	c-11.213,11.87-10.283,35.111-10.089,38.398c0.864,52.682,8.681,63.542,19.63,73.122c4.721,4.132,8.799,7.7,11.516,21.765
	c8.187,42.376,46.773,57.279,60.46,61.282l-0.126,42.592l-46.386,10.44l-46.814,1.127c-2.143,0.051-4.089,1.255-5.094,3.148
	c-1.004,1.893-0.907,4.181,0.252,5.982l9.418,14.64L46.75,445.6c-2.221,1.066-3.551,3.392-3.343,5.846
	c0.21,2.454,1.913,4.522,4.281,5.198l41.707,11.883l11.879,25.082c0.921,1.946,2.826,3.238,4.972,3.378l101.122,6.544
	c1.301,0.085,2.574-0.257,3.653-0.971l30.391-20.103l79.778,29.185c0.657,0.241,1.346,0.36,2.036,0.36
	c0.552,0,1.105-0.077,1.642-0.232l109.35-31.516c2.071-0.596,3.654-2.27,4.136-4.371c0.48-2.1-0.217-4.297-1.821-5.736
	l-21.437-19.222l49.724-19.175c2.362-0.912,3.885-3.222,3.789-5.752C468.513,423.464,466.82,421.274,464.398,420.543z
	 M134.391,281.248c-3.488-18.057-9.789-23.571-15.349-28.436c-7.252-6.347-14.751-12.909-15.586-64.527
	c-0.001-0.092-0.005-0.184-0.011-0.276c-0.343-5.445,0.184-22.584,6.868-29.658c2.019-2.137,4.004-3.134,7.448-3.134
	s4.145-0.295,7.333,2.337c3.654,3.019,8.145,10.221,8.782,27.384c1.21,32.582,9.151,43.599,31.465,43.665
	c11.105,0.041,19.505-3.16,25.014-9.487c6.571-7.552,8.653-19.027,6.365-35.083c-6.743-47.314-10.13-71.061-29.174-74.664
	c-12.67-2.396-21.441-6.838-24.696-12.509c-1.953-3.403-2.043-7.478-0.271-12.458c0.96-2.697,4.782-3.947,6.977-4.451
	c14.24-3.277,40.854,4.229,59.007,22.074c11.17,10.978,16.865,41.88,20.266,60.345c1.245,6.753,2.227,12.088,3.235,15.481
	c1.48,4.997,5.443,5.583,7.552,5.138c5.291-1.112,5.904-5.908,7.042-20.899c0.819-10.774,1.422-24.576,1.786-34.257
	c0.85-22.617,1.408-50.869,0.853-55.247c-1.563-12.3-7.752-23.388-13.211-33.171c-8.725-15.633-10.618-21.174-5.465-25.382
	c3.493-2.851,8.42-2.945,14.649-0.277c15.978,6.843,35.801,30.999,37.409,51.889c2.378,30.901-0.356,122.204-0.383,123.122
	c-0.082,2.734,1.716,5.17,4.355,5.895c2.64,0.727,5.428-0.45,6.754-2.844c1.173-2.119,28.729-52.206,27.48-78.839
	c-0.366-7.789-1.891-16.956-3.504-26.661c-2.757-16.582-6.925-41.643,0.159-44.633c5.697-2.405,10.328-1.753,14.578,2.054
	c18.437,16.517,22.341,83.075,14.051,110.882c-6.548,21.963-14.175,46.602-14.251,46.848c-0.309,1-0.348,2.065-0.114,3.085
	c0.386,1.674,1.936,5.676,7.965,6.697c7.878,1.335,24.128-3.533,30.658-13.907c2.576-4.095,4.213-11.061,6.285-19.88
	c2.903-12.359,7.763-33.043,15.197-33.362c4.088-0.179,7.049,1.569,9.298,5.493c8.62,15.043,2.657,54.692-19.955,89.737
	c-6.209,9.625-58.185,68.024-61.021,75.055c-0.282,0.699-0.428,1.446-0.43,2.2v114.828l-52.21,2.392
	c-0.19,0.008-63.134,9.008-63.134,9.008l-9.661-4.579v-98.028c0.008-2.822-1.686-5.26-4.451-5.825
	C189.862,334.288,142.687,324.183,134.391,281.248z M331.336,421.621l16.192,8.502l-16.221,0.748L331.336,421.621z M401.8,443.344
	c-1.925,0.742-3.325,2.431-3.697,4.46c-0.372,2.028,0.337,4.105,1.873,5.482l20.675,18.538l-97.208,28.016l-80.771-29.547
	c-1.766-0.645-3.735-0.416-5.307,0.622l-31.223,20.654l-95.652-6.19l-11.535-24.358c-0.73-1.542-2.091-2.695-3.731-3.162
	l-29.257-8.335l39.676-19.032c1.534-0.736,2.676-2.093,3.14-3.729c0.463-1.636,0.201-3.391-0.718-4.822l-7.339-11.409l36.848-0.888
	c0.39-0.009,0.778-0.057,1.159-0.143l44.32-9.976l-0.031,10.603l-31.101,9.5c-2.341,0.715-4,2.795-4.178,5.235
	c-0.179,2.441,1.16,4.74,3.372,5.788l49.875,23.637c1.432,0.824,3.098,0.551,3.378,0.512l64.05-9.167l101.495-4.68
	c2.673-0.123,4.931-2.022,5.512-4.635c0.581-2.612-0.661-5.289-3.031-6.533l-41.015-21.535l0.037-12.616l52.612,8.304l18.409,10.166
	c0.367,0.203,0.754,0.366,1.154,0.486l40.842,12.311L401.8,443.344z M182.982,422.535l-0.03,10.093l-12.938-6.132L182.982,422.535z"
	/>
<g>
</g>
<g>
</g>
<g>
</g>
<g>
</g>
<g>
</g>
<g>
</g>
<g>
</g>
<g>
</g>
<g>
</g>
<g>
</g>
<g>
</g>
<g>
</g>
<g>
</g>
<g>
</g>
<g>
</g>
</svg>
