<?xml version="1.0" encoding="iso-8859-1"?>
<!-- Generator: Adobe Illustrator 19.0.0, SVG Export Plug-In . SVG Version: 6.00 Build 0)  -->
<svg version="1.1" id="Layer_1" xmlns="http://www.w3.org/2000/svg" xmlns:xlink="http://www.w3.org/1999/xlink" x="0px" y="0px"
	 viewBox="0 0 511.999 511.999" style="enable-background:new 0 0 511.999 511.999;" xml:space="preserve">
<path style="fill:#754C24;" d="M305.737,332.67c-3.1-2.605-7.029-4.038-11.069-4.038c-5.107,0-9.919,2.239-13.2,6.144
	c-2.96,3.523-4.371,7.988-3.973,12.572c0.398,4.584,2.557,8.738,6.079,11.697c3.1,2.605,7.032,4.041,11.071,4.041
	c5.107,0,9.918-2.239,13.199-6.144c2.96-3.523,4.372-7.988,3.974-12.572C311.421,339.785,309.26,335.63,305.737,332.67z"/>
<path style="fill:#E6E6E6;" d="M192.922,256.467c-3.816,7.312-4.556,15.67-2.083,23.539s7.86,14.301,15.171,18.116
	c4.463,2.328,9.257,3.508,14.249,3.508c11.561,0,22.062-6.36,27.403-16.599c7.874-15.093,2.003-33.778-13.089-41.652
	c-1.559-0.813-3.161-1.477-4.796-2.009c7.577,6.236,10.041,17.145,5.325,26.182c-3.667,7.03-10.876,11.4-18.814,11.4
	c-3.39,0-6.776-0.833-9.796-2.407c-5.023-2.62-8.725-7.04-10.424-12.444c-1.276-4.061-1.307-8.31-0.131-12.303
	C194.812,253.246,193.792,254.799,192.922,256.467z"/>
<path style="fill:#81AF31;" d="M211.967,266.048c1.355,0.707,2.81,1.065,4.324,1.065c3.51,0,6.699-1.932,8.32-5.04
	c2.391-4.582,0.608-10.253-3.973-12.645c-1.355-0.708-2.81-1.065-4.322-1.065c-3.51,0-6.7,1.932-8.322,5.041
	c-1.159,2.219-1.382,4.757-0.632,7.144C208.111,262.936,209.747,264.89,211.967,266.048z"/>
<g>
	<path style="fill:#808080;" d="M258.577,407.342c2.836,5.204,5.029,10.805,6.498,16.689c3.721-8.476,9.411-14.157,9.91-14.709
		C274.686,409.327,266.188,409.664,258.577,407.342z"/>
	<path style="fill:#808080;" d="M320.693,389.02c2.759,0,5.502,0.189,8.215,0.557c-1.646-2.058-3.039-4.32-4.15-6.751
		c-1.083,1.558-2.235,3.077-3.47,4.546c-0.482,0.573-0.986,1.12-1.485,1.672C320.101,389.04,320.395,389.02,320.693,389.02z"/>
</g>
<path style="fill:#E6E6E6;" d="M306.142,309.633c-8.955-7.525-20.317-11.67-31.993-11.67c-14.752,0-28.652,6.471-38.135,17.752
	c-17.655,21.012-14.925,52.47,6.086,70.125c8.954,7.525,20.316,11.67,31.993,11.67c14.753,0,28.653-6.471,38.134-17.752
	c8.554-10.179,12.63-23.078,11.481-36.324C322.559,330.189,316.32,318.185,306.142,309.633z M316.904,364.556
	c-5.536,6.588-13.649,10.366-22.26,10.366c-6.821,0-13.457-2.42-18.685-6.816c-5.943-4.992-9.585-12.001-10.256-19.735
	c-0.671-7.733,1.709-15.266,6.703-21.21c5.536-6.587,13.65-10.366,22.262-10.366c6.821,0,13.456,2.419,18.684,6.814
	c5.944,4.993,9.587,12.004,10.257,19.737C324.28,351.08,321.899,358.612,316.904,364.556z"/>
<g>
	<path style="fill:#808080;" d="M169.765,375.295c-6.014-0.344-11.96-1.975-17.331-4.778c-6.383-3.329-11.702-8.105-15.62-13.907
		v45.652C144.746,390.23,156.228,380.735,169.765,375.295z"/>
	<rect x="167.628" y="65.487" style="fill:#808080;" width="176.742" height="31.98"/>
</g>
<polygon style="fill:#754C24;" points="320.311,53.647 323.723,11.836 188.276,11.836 191.686,53.647 "/>
<path style="fill:#E6E6E6;" d="M144.822,318.369c-3.816,7.313-4.556,15.672-2.083,23.54c2.472,7.866,7.86,14.3,15.171,18.116
	c4.462,2.328,9.256,3.508,14.248,3.508c11.561,0,22.062-6.36,27.403-16.6c3.816-7.311,4.554-15.669,2.082-23.538
	c-2.472-7.867-7.86-14.3-15.17-18.114c-1.417-0.739-2.87-1.349-4.348-1.855c2.926,2.54,5.118,5.828,6.31,9.618
	c1.698,5.404,1.189,11.147-1.431,16.168c-3.668,7.03-10.876,11.4-18.813,11.4c-3.39,0-6.778-0.832-9.798-2.409
	c-5.022-2.619-8.724-7.038-10.422-12.442c-1.239-3.94-1.29-8.059-0.219-11.949C146.66,315.231,145.669,316.745,144.822,318.369z"/>
<path style="fill:#FFAA2A;" d="M163.865,327.708c1.358,0.709,2.812,1.066,4.324,1.066c3.51,0,6.699-1.93,8.32-5.04
	c1.159-2.22,1.382-4.757,0.633-7.144c-0.75-2.388-2.386-4.341-4.605-5.499c-1.356-0.708-2.811-1.065-4.324-1.065
	c-3.51,0-6.699,1.932-8.322,5.041c-1.159,2.22-1.384,4.756-0.633,7.144C160.01,324.599,161.646,326.551,163.865,327.708z"/>
<polygon style="fill:#754C24;" points="313.531,136.804 315.774,109.298 196.226,109.298 198.468,136.804 "/>
<path style="fill:#808080;" d="M210.055,352.407c-4.054,7.769-10.263,13.91-17.674,17.884c1.252-0.066,2.512-0.103,3.779-0.103
	c7.724,0,15.158,1.256,22.126,3.547c-3.954-8.528-5.887-17.82-5.726-27.118C211.872,348.587,211.038,350.523,210.055,352.407z"/>
<path style="fill:#FFAA2A;" d="M349.053,364.151c0.743,0.387,1.541,0.585,2.37,0.585c1.929,0,3.681-1.06,4.572-2.768
	c0.637-1.219,0.76-2.612,0.348-3.922s-1.31-2.384-2.528-3.019c-0.746-0.389-1.545-0.587-2.372-0.587c-1.928,0-3.68,1.06-4.571,2.77
	c-0.636,1.218-0.759,2.611-0.347,3.922C346.937,362.442,347.835,363.516,349.053,364.151z"/>
<path style="fill:#E6E6E6;" d="M335.234,364.68c-0.217-0.688-0.372-1.384-0.498-2.081c-1.413,4.139-1.501,8.599-0.166,12.85
	c1.658,5.276,5.272,9.59,10.174,12.147c2.993,1.561,6.208,2.353,9.554,2.353c7.754,0,14.795-4.266,18.377-11.131
	c4.687-8.982,2.1-19.85-5.614-25.876c0.214,0.507,0.406,1.025,0.573,1.556c1.36,4.327,0.953,8.925-1.147,12.947
	c-2.936,5.629-8.709,9.128-15.064,9.128c-2.714,0-5.425-0.668-7.842-1.927C339.557,372.546,336.595,369.007,335.234,364.68z"/>
<g>
	<path style="fill:#808080;" d="M360.299,403.468c6.202,5.21,11.214,11.46,14.883,18.416v-27.68
		c-4.854,4.057-10.832,6.654-17.269,7.365C358.722,402.183,359.519,402.813,360.299,403.468z"/>
	<path style="fill:#808080;" d="M220.259,313.465c-3.576,0-7.148-0.472-10.617-1.368c1.335,2.443,2.439,5.035,3.293,7.75
		c1.145,3.644,1.78,7.364,1.936,11.079c1.728-6.129,4.419-12.059,8.118-17.555C222.085,313.427,221.175,313.465,220.259,313.465z"/>
</g>
<path style="fill:#E6E6E6;" d="M352.686,412.528c-8.955-7.526-20.317-11.671-31.993-11.671c-14.753,0-28.652,6.472-38.134,17.753
	c-8.552,10.179-12.629,23.077-11.479,36.324c1.149,13.244,7.388,25.249,17.565,33.801c7.724,6.491,17.24,10.46,27.203,11.43h9.55
	c12.952-1.233,24.919-7.453,33.373-17.511c8.552-10.18,12.63-23.08,11.481-36.324C369.102,433.085,362.863,421.08,352.686,412.528z
	 M363.448,467.449c-5.536,6.588-13.649,10.367-22.261,10.367c-6.821,0-13.457-2.42-18.685-6.816
	c-12.266-10.309-13.861-28.675-3.553-40.945c5.534-6.588,13.649-10.367,22.262-10.367c6.821,0,13.457,2.42,18.685,6.815
	c5.943,4.993,9.587,12.004,10.257,19.738C370.824,453.974,368.441,461.507,363.448,467.449z"/>
<path style="fill:#808080;" d="M326.083,154.763V128.5l-1.199,14.703c-0.25,3.073-2.816,5.437-5.898,5.437H193.014
	c-3.082,0-5.648-2.365-5.898-5.437l-1.199-14.714v26.274c0,8.612-6.463,15.444-14.647,24.094
	c-14.54,15.369-34.454,36.418-34.454,81.154v48.749c7.887-11.709,21.046-18.825,35.406-18.825c3.576,0,7.149,0.472,10.618,1.368
	c-1.334-2.442-2.439-5.035-3.293-7.75c-3.421-10.884-2.397-22.448,2.881-32.562c7.389-14.161,21.91-22.959,37.895-22.959
	c6.821,0,13.641,1.677,19.724,4.85c20.029,10.452,28.309,34.665,19.329,55.051c4.784-1.175,9.735-1.806,14.771-1.806
	c14.457,0,28.524,5.13,39.607,14.444c12.599,10.586,20.321,25.445,21.743,41.84c0.007,0.088,0.009,0.175,0.017,0.264
	c5.397-3.823,11.933-5.976,18.828-5.976c5.198,0,10.394,1.277,15.029,3.694c2.114,1.104,4.05,2.413,5.81,3.883v-84.265
	c0-44.736-19.914-65.785-34.454-81.154C332.546,170.207,326.083,163.375,326.083,154.763z"/>
<path style="fill:#81AF31;" d="M179.014,436.744c-11.657,0-21.14,9.483-21.14,21.139c0,11.657,9.484,21.14,21.14,21.14
	s21.14-9.484,21.14-21.14C200.155,446.226,190.671,436.744,179.014,436.744z"/>
<path style="fill:#808080;" d="M261.711,468.545c-5.402,12.908-14.512,23.89-25.985,31.619h48.332
	c-1.03-0.761-2.044-1.542-3.028-2.368C271.752,490,265.131,479.883,261.711,468.545z"/>
<path style="fill:#E6E6E6;" d="M255.351,441.213c0-32.637-26.553-59.19-59.191-59.19s-59.19,26.553-59.19,59.19
	c0,30.895,23.798,56.322,54.024,58.951h10.333C231.553,497.536,255.351,472.109,255.351,441.213z M179.014,490.858
	c-18.183,0-32.975-14.793-32.975-32.975s14.793-32.974,32.975-32.974s32.975,14.792,32.975,32.974
	C211.99,476.065,197.197,490.858,179.014,490.858z"/>
<path style="fill:#333333;" d="M352.281,435.564c-3.1-2.605-7.03-4.039-11.07-4.039c-5.107,0-9.918,2.239-13.199,6.144
	c-6.111,7.273-5.165,18.161,2.106,24.271c3.1,2.605,7.03,4.041,11.07,4.041c5.107,0,9.917-2.241,13.199-6.145
	c2.96-3.523,4.372-7.988,3.974-12.572C357.963,442.68,355.804,438.524,352.281,435.564z"/>
<path d="M179.014,424.908c-18.183,0-32.975,14.792-32.975,32.974c0,18.182,14.793,32.975,32.975,32.975s32.975-14.793,32.975-32.975
	C211.99,439.701,197.197,424.908,179.014,424.908z M179.014,479.022c-11.657,0-21.14-9.484-21.14-21.14
	c0-11.657,9.484-21.138,21.14-21.138s21.14,9.483,21.14,21.138C200.155,469.54,190.671,479.022,179.014,479.022z"/>
<path d="M359.896,426.503c-5.228-4.395-11.863-6.815-18.685-6.815c-8.612,0-16.726,3.778-22.262,10.367
	c-10.308,12.269-8.715,30.637,3.553,40.945c5.228,4.396,11.864,6.816,18.685,6.816c8.612,0,16.725-3.778,22.261-10.367
	c4.995-5.943,7.376-13.475,6.705-21.208C369.482,438.506,365.839,431.496,359.896,426.503z M354.386,459.836
	c-3.282,3.906-8.092,6.145-13.199,6.145c-4.039,0-7.97-1.436-11.07-4.041c-7.272-6.111-8.216-16.998-2.106-24.271
	c3.281-3.905,8.092-6.144,13.199-6.144c4.039,0,7.97,1.434,11.07,4.039c3.523,2.96,5.682,7.116,6.08,11.7
	C358.758,451.848,357.346,456.312,354.386,459.836z"/>
<path d="M313.352,323.609c-5.228-4.395-11.863-6.814-18.684-6.814c-8.612,0-16.726,3.778-22.262,10.366
	c-4.993,5.944-7.374,13.476-6.703,21.21c0.671,7.733,4.314,14.742,10.256,19.735c5.228,4.396,11.864,6.816,18.685,6.816
	c8.612,0,16.725-3.778,22.261-10.366c4.993-5.943,7.376-13.476,6.705-21.21C322.939,335.612,319.295,328.603,313.352,323.609z
	 M307.844,356.941c-3.281,3.905-8.092,6.144-13.199,6.144c-4.039,0-7.97-1.436-11.071-4.041c-3.522-2.959-5.681-7.113-6.079-11.697
	c-0.398-4.584,1.013-9.048,3.973-12.572c3.281-3.906,8.092-6.144,13.2-6.144c4.04,0,7.97,1.433,11.069,4.038
	c3.523,2.96,5.682,7.116,6.08,11.7C312.215,348.953,310.804,353.418,307.844,356.941z"/>
<path d="M337.918,154.763v-45.465h12.372c3.268,0,5.918-2.649,5.918-5.918V59.565c0-3.269-2.65-5.918-5.918-5.918h-18.104
	l3.854-47.249c0.135-1.648-0.426-3.275-1.547-4.492C333.373,0.691,331.796,0,330.142,0H181.856c-1.653,0-3.231,0.691-4.351,1.907
	c-1.121,1.216-1.682,2.844-1.547,4.492l3.854,47.249h-18.104c-3.268,0-5.918,2.649-5.918,5.918v43.814
	c0,3.269,2.65,5.918,5.918,5.918h12.373v45.465c0,3.901-5.287,9.49-11.408,15.96c-15.01,15.865-37.692,39.84-37.692,89.287v208.885
	c0,23.767,19.336,43.103,43.103,43.103h175.832c23.767,0,43.103-19.336,43.103-43.103V260.011c0-49.447-22.682-73.423-37.692-89.287
	C343.205,164.252,337.918,158.664,337.918,154.763z M323.723,11.836l-3.411,41.812H191.686l-3.41-41.812H323.723z M167.626,97.462
	V65.483h176.747v31.979H167.626z M315.774,109.298l-2.243,27.506H198.468l-2.242-27.506H315.774z M136.816,356.61
	c3.919,5.802,9.238,10.579,15.62,13.907c5.371,2.803,11.316,4.434,17.331,4.778c-13.538,5.441-25.019,14.935-32.95,26.968
	L136.816,356.61L136.816,356.61z M147.969,325.76c1.7,5.403,5.402,9.822,10.422,12.442c3.02,1.577,6.409,2.409,9.798,2.409
	c7.937,0,15.146-4.369,18.813-11.4c2.62-5.021,3.129-10.763,1.431-16.168c-1.191-3.79-3.384-7.078-6.31-9.618
	c1.478,0.507,2.933,1.116,4.348,1.855c7.31,3.815,12.698,10.247,15.17,18.114c2.472,7.867,1.733,16.227-2.082,23.538
	c-5.343,10.239-15.843,16.6-27.403,16.6c-4.992,0-9.786-1.18-14.248-3.508c-7.311-3.816-12.698-10.249-15.171-18.116
	c-2.472-7.868-1.733-16.227,2.083-23.54c0.847-1.624,1.838-3.138,2.928-4.558C146.679,317.702,146.73,321.82,147.969,325.76z
	 M159.892,315.066c1.623-3.109,4.81-5.041,8.322-5.041c1.513,0,2.967,0.359,4.324,1.065c2.219,1.158,3.854,3.11,4.605,5.499
	c0.75,2.388,0.525,4.924-0.633,7.144c-1.621,3.109-4.81,5.04-8.32,5.04c-1.513,0-2.966-0.359-4.324-1.066
	c-2.219-1.158-3.855-3.109-4.606-5.498C158.509,319.823,158.733,317.287,159.892,315.066z M196.07,264.099
	c1.698,5.403,5.401,9.824,10.424,12.444c3.02,1.574,6.408,2.407,9.796,2.407c7.938,0,15.146-4.369,18.814-11.4
	c4.715-9.037,2.251-19.945-5.325-26.182c1.635,0.531,3.236,1.197,4.796,2.009c15.092,7.874,20.963,26.559,13.089,41.652
	c-5.341,10.239-15.842,16.599-27.403,16.599c-4.992,0-9.786-1.18-14.249-3.508c-7.311-3.815-12.698-10.247-15.171-18.116
	c-2.472-7.867-1.733-16.227,2.083-23.539c0.87-1.668,1.89-3.222,3.017-4.673C194.764,255.788,194.793,260.038,196.07,264.099z
	 M207.992,253.404c1.623-3.109,4.811-5.041,8.322-5.041c1.513,0,2.967,0.359,4.322,1.065c4.582,2.392,6.364,8.064,3.973,12.645
	c-1.621,3.108-4.809,5.04-8.32,5.04c-1.513,0-2.967-0.36-4.324-1.065c-2.219-1.159-3.855-3.112-4.605-5.499
	C206.61,258.161,206.835,255.623,207.992,253.404z M312.228,379.758c-9.482,11.282-23.38,17.752-38.134,17.752
	c-11.676,0-23.038-4.145-31.993-11.67c-21.011-17.655-23.741-49.113-6.086-70.125c9.482-11.282,23.381-17.752,38.135-17.752
	c11.676,0,23.038,4.145,31.993,11.67c10.179,8.552,16.417,20.556,17.566,33.803C324.858,356.679,320.78,369.58,312.228,379.758z
	 M324.758,382.827c1.11,2.431,2.503,4.693,4.15,6.751c-2.713-0.367-5.456-0.557-8.215-0.557c-0.297,0-0.592,0.02-0.89,0.025
	c0.499-0.553,1.005-1.1,1.485-1.672C322.524,385.904,323.675,384.384,324.758,382.827z M274.984,409.322
	c-0.499,0.553-6.189,6.234-9.91,14.709c-1.468-5.885-3.662-11.484-6.498-16.689C266.188,409.664,274.686,409.327,274.984,409.322z
	 M214.871,330.926c-0.156-3.716-0.792-7.435-1.936-11.079c-0.853-2.715-1.958-5.306-3.293-7.75
	c3.469,0.896,7.041,1.368,10.617,1.368c0.916,0,1.826-0.037,2.732-0.094C219.292,318.866,216.6,324.798,214.871,330.926z
	 M218.286,373.736c-6.968-2.291-14.4-3.547-22.126-3.547c-1.268,0-2.527,0.037-3.779,0.103c7.411-3.973,13.619-10.115,17.674-17.884
	c0.982-1.884,1.818-3.819,2.504-5.79C212.399,355.916,214.331,365.207,218.286,373.736z M190.994,500.164
	c-30.226-2.629-54.024-28.055-54.024-58.951c0-32.637,26.553-59.19,59.19-59.19c32.638,0,59.191,26.553,59.191,59.19
	c0,30.895-23.799,56.322-54.025,58.951H190.994z M235.726,500.164c11.473-7.728,20.583-18.711,25.985-31.619
	c3.421,11.337,10.041,21.454,19.319,29.251c0.984,0.826,1.998,1.607,3.028,2.368H235.726z M358.77,482.653
	c-8.454,10.058-20.421,16.278-33.373,17.511h-9.55c-9.963-0.969-19.479-4.939-27.203-11.43
	c-10.179-8.552-16.416-20.556-17.565-33.801c-1.149-13.245,2.928-26.145,11.479-36.324c9.482-11.282,23.381-17.753,38.134-17.753
	c11.676,0,23.038,4.145,31.993,11.671c10.179,8.551,16.417,20.556,17.566,33.801C371.401,459.574,367.324,472.474,358.77,482.653z
	 M351.423,376.572c6.356,0,12.128-3.499,15.064-9.128c2.1-4.022,2.507-8.619,1.147-12.947c-0.167-0.53-0.359-1.05-0.573-1.556
	c7.715,6.027,10.301,16.894,5.614,25.876c-3.583,6.867-10.625,11.131-18.377,11.131c-3.346,0-6.561-0.792-9.554-2.353
	c-4.902-2.557-8.516-6.871-10.174-12.147c-1.335-4.253-1.249-8.711,0.166-12.85c0.128,0.697,0.283,1.393,0.498,2.081
	c1.36,4.327,4.324,7.866,8.346,9.964C345.997,375.904,348.709,376.572,351.423,376.572z M346.872,357.21
	c0.891-1.708,2.643-2.77,4.571-2.77c0.829,0,1.626,0.198,2.372,0.587c1.218,0.636,2.116,1.708,2.528,3.019
	c0.412,1.31,0.289,2.702-0.348,3.922c-0.89,1.707-2.642,2.768-4.572,2.768c-0.829,0-1.626-0.198-2.37-0.585
	c-1.218-0.636-2.116-1.708-2.529-3.02C346.113,359.821,346.236,358.428,346.872,357.21z M375.183,421.883
	c-3.669-6.956-8.681-13.205-14.883-18.416c-0.78-0.656-1.578-1.285-2.387-1.898c6.439-0.711,12.417-3.308,17.269-7.365v27.68
	H375.183z M375.183,344.277c-1.76-1.47-3.696-2.78-5.81-3.883c-4.635-2.417-9.831-3.694-15.029-3.694
	c-6.895,0-13.432,2.152-18.828,5.976c-0.007-0.088-0.008-0.175-0.017-0.264c-1.423-16.395-9.145-31.253-21.743-41.84
	c-11.083-9.315-25.15-14.444-39.607-14.444c-5.037,0-9.987,0.631-14.771,1.806c8.98-20.386,0.701-44.599-19.329-55.051
	c-6.084-3.173-12.903-4.85-19.724-4.85c-15.985,0-30.506,8.799-37.895,22.959c-5.278,10.115-6.301,21.677-2.881,32.562
	c0.853,2.715,1.958,5.307,3.293,7.75c-3.469-0.896-7.042-1.368-10.618-1.368c-14.36,0-27.519,7.116-35.406,18.825v-48.749
	c0-44.736,19.913-65.785,34.454-81.154c8.183-8.651,14.647-15.482,14.647-24.094v-26.274l1.199,14.714
	c0.251,3.073,2.816,5.437,5.898,5.437h125.973c3.082,0,5.648-2.365,5.898-5.437l1.199-14.703v26.263
	c0,8.612,6.463,15.444,14.647,24.094c14.54,15.369,34.454,36.418,34.454,81.154v84.266H375.183z"/>
<g>
</g>
<g>
</g>
<g>
</g>
<g>
</g>
<g>
</g>
<g>
</g>
<g>
</g>
<g>
</g>
<g>
</g>
<g>
</g>
<g>
</g>
<g>
</g>
<g>
</g>
<g>
</g>
<g>
</g>
</svg>
