<?xml version="1.0" encoding="iso-8859-1"?>
<!-- Generator: Adobe Illustrator 19.0.0, SVG Export Plug-In . SVG Version: 6.00 Build 0)  -->
<svg version="1.1" id="Layer_1" xmlns="http://www.w3.org/2000/svg" xmlns:xlink="http://www.w3.org/1999/xlink" x="0px" y="0px"
	 viewBox="0 0 512 512" style="enable-background:new 0 0 512 512;" xml:space="preserve">
<path style="fill:#808080;" d="M300.338,97.782v6.353c2.868,1.061,6.256,1.716,10.028,1.716c3.723,0,7.129-0.653,10.032-1.79v-6.28
	c0-5.185-4.5-9.403-10.03-9.403C304.838,88.38,300.338,92.597,300.338,97.782z"/>
<path style="fill:#E6E6E6;" d="M281.645,432.614v-70.456h-19.476c-10.41,0-18.878-8.469-18.878-18.878v-8.911h-11.949v98.246
	c0,3.006-2.296,5.512-5.291,5.776c-16.148,1.417-28.324,14.717-28.324,30.935c0,17.138,13.943,31.08,31.083,31.08
	c8.905,0,17.409-3.865,23.33-10.603c1.1-1.253,2.687-1.971,4.355-1.971c1.667,0,3.255,0.719,4.355,1.971
	c5.919,6.738,14.423,10.603,23.331,10.603c17.138,0,31.081-13.942,31.081-31.08c0-15.953-12.442-29.541-28.327-30.935
	C283.942,438.127,281.645,435.619,281.645,432.614z"/>
<g>
	<path style="fill:#81AF31;" d="M361.153,117.448c-10.762,0-20.081-3.845-25.666-9.818c-5.585,6.042-14.585,9.818-25.12,9.818
		c-10.588,0-19.779-3.722-25.389-9.531c-5.612,5.809-14.805,9.531-25.393,9.531c-17.489,0-31.189-10.146-31.189-23.1V45.435
		c0-3.201,2.595-5.798,5.798-5.798c3.203,0,5.798,2.596,5.798,5.798v43.522c3.443-7.175,10.921-12.173,19.595-12.173
		c8.673,0,16.152,4.996,19.594,12.17V18.878c0-4.015-3.268-7.283-7.284-7.283H197.8c-4.017,0-7.284,3.268-7.284,7.283V83.91
		c4.841,2.752,9.447,5.214,13.578,7.413c20.729,11.035,35.735,19.034,35.055,41.656c17.843,0.154,65.59,2.615,87.482,23.766
		c7.687,7.426,11.583,16.421,11.583,26.737c0,3.201-2.595,5.798-5.798,5.798s-5.798-2.596-5.798-5.798
		c0-7.147-2.63-13.163-8.038-18.39c-19.852-19.19-68.555-20.525-82.238-20.509c-7.296,13.318-27.493,12.641-45.707,12.02
		c-2.735-0.093-5.529-0.188-8.331-0.248c0.146,2.91,0.804,6.381,2.66,8.938c1.695,2.334,4.25,3.723,7.811,4.25
		c3.167,0.467,5.357,3.414,4.89,6.582c-0.466,3.167-3.408,5.361-6.582,4.89c-6.656-0.981-12.035-4.087-15.557-8.984
		c-6.584-9.151-4.661-21.213-4.421-22.558c0.495-2.764,2.899-4.776,5.707-4.776c4.82,0,9.596,0.162,14.217,0.319
		c2.701,0.093,5.224,0.163,7.594,0.205c-4.516-5.664-6.055-13.601-3.328-21.043c2.994-8.169,10.294-13.48,18.242-14.219
		c-4.017-2.557-33.227-18.541-33.227-18.541c-27.139-15.823-33.082-14.672-41.102-7.513c-7.614,6.796-7.975,6.369-7.959,32.247
		l0.001,56.731c0,77.348,71.253,78.482,74.287,78.491c3.198,0.01,5.787,2.61,5.783,5.808c-0.006,3.198-2.595,5.787-5.793,5.787
		c-0.455,0-6.259-0.038-14.667-1.608v54.129c0,4.016,3.266,7.283,7.283,7.283h50.945c3.203,0,5.798,2.596,5.798,5.798v14.709
		c0,4.015,3.266,7.283,7.283,7.283h50.945c4.017,0,7.283-3.268,7.283-7.283v-74.371c-3.227,0.404-6.57,0.613-10.032,0.613
		c-3.203,0-5.798-2.596-5.798-5.798s2.595-5.798,5.798-5.798c15.869,0,28.636-4.986,37.949-14.818
		c20.323-21.458,18.514-55.922,18.514-59.364c0-0.104-0.009-46.746-0.009-46.746c0-2.691,2.761-11.418,6.192-21.225
		C369.372,116.852,365.374,117.448,361.153,117.448z"/>
	<path style="fill:#81AF31;" d="M310.369,76.784c8.673,0,16.152,4.996,19.594,12.17V27.418h-39.189v61.535
		C294.217,81.78,301.694,76.784,310.369,76.784z"/>
</g>
<g>
	<path style="fill:#808080;" d="M249.554,97.782v6.353c2.868,1.061,6.257,1.716,10.029,1.716c3.774,0,7.165-0.655,10.031-1.717
		v-6.353c0-5.185-4.5-9.403-10.03-9.403S249.554,92.597,249.554,97.782z"/>
	<path style="fill:#808080;" d="M371.183,104.137v-6.353c0-5.185-4.5-9.403-10.03-9.403c-5.531,0-10.03,4.218-10.03,9.403v6.353
		c2.868,1.061,6.257,1.717,10.03,1.717C364.926,105.853,368.316,105.198,371.183,104.137z"/>
	<path style="fill:#808080;" d="M211.566,140.816l7.736,2.848c5.465-1.667,8.029-4.879,8.252-10.714
		c0.114-2.945-0.126-5.508-0.732-7.814l-8.412-3.175c-4.816-1.765-10.323,1.011-12.227,6.205
		C204.282,133.357,206.696,139.033,211.566,140.816z"/>
</g>
<path style="fill:#81AF31;" d="M373.466,27.418h-31.908v61.535c3.443-7.174,10.921-12.17,19.594-12.17
	c8.676,0,16.155,4.999,19.596,12.175V34.703C380.749,30.686,377.483,27.418,373.466,27.418z"/>
<path d="M373.466,15.823h-82.961C289.037,6.864,281.262,0,271.894,0h-74.096c-10.411,0-18.88,8.469-18.88,18.878v58.325
	c-21.548-12.359-30.549-15.457-46.946-2.361c-12.339,9.853-12.336,14.657-12.319,41.314l0.001,56.723
	c0,46.434,23.456,68.527,43.135,78.883c5.635,2.966,11.25,5.141,16.475,6.745v56.98c0,10.41,8.469,18.878,18.878,18.878h21.604
	v93.263c-19.495,4.15-33.614,21.231-33.614,41.696c0,23.532,19.145,42.676,42.678,42.676c10.195,0,20-3.678,27.685-10.247
	c7.684,6.569,17.49,10.247,27.686,10.247c23.532,0,42.677-19.144,42.677-42.676c0-20.465-14.121-37.546-33.617-41.696v-65.471
	h19.876c10.41,0,18.878-8.469,18.878-18.878v-76.858c9.591-2.979,17.875-8.094,24.74-15.341
	c23.199-24.493,21.682-60.748,21.682-67.796v-46.103c0.443-3.102,6.133-19.576,11.219-33.249c0.003-0.01,0.005-0.021,0.008-0.031
	c1.735-2.898,2.702-6.125,2.702-9.552V34.703C392.345,24.292,383.875,15.823,373.466,15.823z M290.774,27.418h39.189v61.535
	c-3.443-7.174-10.921-12.17-19.594-12.17s-16.152,4.996-19.594,12.17V27.418H290.774z M320.399,97.782v6.28
	c-2.903,1.138-6.309,1.79-10.032,1.79c-3.773,0-7.161-0.655-10.028-1.716v-6.353c0-5.185,4.5-9.403,10.03-9.403
	C315.899,88.38,320.399,92.597,320.399,97.782z M315.262,469.324c0,17.138-13.942,31.08-31.081,31.08
	c-8.908,0-17.412-3.865-23.331-10.603c-1.1-1.252-2.687-1.971-4.355-1.971c-1.667,0-3.255,0.718-4.355,1.971
	c-5.921,6.738-14.425,10.603-23.33,10.603c-17.138,0-31.083-13.942-31.083-31.08c0-16.218,12.176-29.518,28.324-30.935
	c2.994-0.263,5.291-2.77,5.291-5.776v-98.246h11.949v8.911c0,10.41,8.469,18.878,18.878,18.878h19.476v70.457
	c0,3.006,2.296,5.512,5.291,5.776C302.82,439.783,315.262,453.373,315.262,469.324z M366.83,183.744
	c0,3.441,1.81,37.905-18.514,59.364c-9.313,9.832-22.081,14.818-37.949,14.818c-3.203,0-5.798,2.596-5.798,5.798
	s2.595,5.798,5.798,5.798c3.462,0,6.805-0.21,10.032-0.613v74.371c0,4.015-3.266,7.283-7.283,7.283h-50.947
	c-4.017,0-7.283-3.268-7.283-7.283V328.57c0-3.201-2.595-5.798-5.798-5.798h-50.945c-4.017,0-7.283-3.268-7.283-7.283v-54.129
	c8.408,1.571,14.214,1.608,14.667,1.608c3.198,0,5.787-2.589,5.793-5.787c0.005-3.198-2.586-5.798-5.783-5.808
	c-3.033-0.01-74.287-1.144-74.287-78.491l-0.001-56.731c-0.016-25.877,0.346-25.451,7.959-32.247
	c8.021-7.159,13.963-8.31,41.102,7.513c0,0,29.21,15.984,33.227,18.541c-7.947,0.74-15.247,6.05-18.242,14.219
	c-2.727,7.442-1.187,15.379,3.328,21.043c-2.37-0.043-4.893-0.114-7.594-0.205c-4.62-0.157-9.397-0.319-14.217-0.319
	c-2.808,0-5.212,2.012-5.707,4.776c-0.241,1.345-2.163,13.407,4.421,22.558c3.523,4.897,8.902,8.003,15.557,8.984
	c3.172,0.471,6.114-1.723,6.582-4.89c0.467-3.168-1.722-6.114-4.89-6.582c-3.561-0.525-6.115-1.916-7.811-4.25
	c-1.856-2.558-2.514-6.028-2.66-8.938c2.803,0.06,5.595,0.155,8.331,0.248c18.214,0.622,38.411,1.299,45.707-12.02
	c13.683-0.016,62.385,1.318,82.238,20.509c5.408,5.228,8.038,11.244,8.038,18.39c0,3.201,2.595,5.798,5.798,5.798
	s5.798-2.596,5.798-5.798c0-10.315-3.896-19.311-11.583-26.737c-21.892-21.15-69.641-23.61-87.482-23.766
	c0.679-22.623-14.326-30.621-35.055-41.656c-4.131-2.198-8.737-4.662-13.578-7.413V18.878c0-4.015,3.268-7.283,7.284-7.283h74.095
	c4.017,0,7.284,3.268,7.284,7.283v70.075c-3.443-7.174-10.921-12.17-19.594-12.17c-8.674,0-16.153,4.998-19.595,12.173V45.435
	c0-3.201-2.595-5.798-5.798-5.798c-3.203,0-5.798,2.596-5.798,5.798v48.913c0,12.953,13.7,23.1,31.189,23.1
	c10.589,0,19.782-3.722,25.393-9.531c5.611,5.809,14.803,9.531,25.389,9.531c10.536,0,19.535-3.775,25.12-9.818
	c5.584,5.973,14.905,9.818,25.666,9.818c4.222,0,8.22-0.596,11.861-1.676c-3.431,9.807-6.192,18.534-6.192,21.225
	C366.821,136.998,366.83,183.638,366.83,183.744z M218.411,121.961l8.412,3.175c0.604,2.306,0.845,4.869,0.732,7.814
	c-0.224,5.836-2.788,9.047-8.252,10.714l-7.736-2.848c-4.87-1.785-7.283-7.46-5.383-12.652
	C208.087,122.972,213.595,120.196,218.411,121.961z M269.615,97.782v6.353c-2.868,1.061-6.257,1.717-10.031,1.717
	c-3.773,0-7.162-0.655-10.029-1.716v-6.353c0-5.185,4.5-9.403,10.03-9.403S269.615,92.597,269.615,97.782z M351.122,104.136v-6.353
	c0-5.185,4.5-9.403,10.03-9.403c5.531,0,10.03,4.218,10.03,9.403v6.353c-2.868,1.061-6.257,1.716-10.03,1.716
	C357.38,105.853,353.99,105.198,351.122,104.136z M380.749,88.958c-3.443-7.176-10.921-12.175-19.596-12.175
	c-8.673,0-16.152,4.996-19.594,12.17V27.418h31.908c4.017,0,7.283,3.268,7.283,7.283v54.257H380.749z"/>
<g>
</g>
<g>
</g>
<g>
</g>
<g>
</g>
<g>
</g>
<g>
</g>
<g>
</g>
<g>
</g>
<g>
</g>
<g>
</g>
<g>
</g>
<g>
</g>
<g>
</g>
<g>
</g>
<g>
</g>
</svg>
