<?xml version="1.0" encoding="iso-8859-1"?>
<!-- Generator: Adobe Illustrator 19.0.0, SVG Export Plug-In . SVG Version: 6.00 Build 0)  -->
<svg version="1.1" id="Layer_1" xmlns="http://www.w3.org/2000/svg" xmlns:xlink="http://www.w3.org/1999/xlink" x="0px" y="0px"
	 viewBox="0 0 512 512" style="enable-background:new 0 0 512 512;" xml:space="preserve">
<path style="fill:#E6E6E6;" d="M155.531,330.034l26.451-10.769c-2.378-2.858-4.595-5.801-6.675-8.806
	C169.76,313.403,160.067,319.768,155.531,330.034z"/>
<path style="fill:#333333;" d="M177.332,362.352l11.251,9.515l2.215-43.027c-0.15-0.146-0.294-0.296-0.442-0.444l-11.565,4.709
	L177.332,362.352z"/>
<g>
	<path style="fill:#E6E6E6;" d="M212.018,420.471l-17.975,7.623c-0.728,0.309-1.499,0.461-2.267,0.461
		c-1.173,0-2.338-0.355-3.328-1.049c-1.64-1.147-2.573-3.058-2.47-5.056l1.855-36.008l-11.226-9.494l-2.597,52.134l46.027,38.926
		L212.018,420.471z"/>
	<path style="fill:#E6E6E6;" d="M255.999,360.473L255.999,360.473c-6.125,0-12.672-1.107-19.374-3.176l19.374,28.01l19.375-28.01
		c-6.702,2.069-13.249,3.176-19.374,3.176H255.999z"/>
	<path style="fill:#E6E6E6;" d="M335.394,376.945l-11.226,9.495l1.853,36.009c0.103,1.999-0.83,3.909-2.47,5.056
		c-0.991,0.693-2.157,1.049-3.328,1.049c-0.768,0-1.539-0.152-2.267-0.461l-17.972-7.622l-8.021,47.537l46.03-38.927
		L335.394,376.945z"/>
	<path style="fill:#E6E6E6;" d="M216.263,348.275c-4.872-2.807-9.685-6.052-14.34-9.686l-3.871,75.191l49.113-20.828
		L216.263,348.275z"/>
</g>
<g>
	<polygon style="fill:#333333;" points="259.753,426.533 271.12,408.231 255.999,401.818 240.878,408.231 252.247,426.533 	"/>
	<path style="fill:#333333;" d="M334.665,362.352l-1.457-29.248l-11.566-4.708c-0.147,0.146-0.291,0.295-0.44,0.441l2.215,43.028
		L334.665,362.352z"/>
</g>
<path style="fill:#81AF31;" d="M229.249,297.653v-2.657h-3.196v3.1c0.405,1.049,2.352,2.642,5.562,4.211
	C230.186,301.25,229.249,299.566,229.249,297.653z"/>
<path style="fill:#E6E6E6;" d="M127.675,301.512c-0.017,0.156-1.608,16.503,7.963,36.621l6.277-2.556
	c2.865-19.219,18.368-30.223,27.239-35.025c-8.929-16.046-13.825-33.661-14.168-51.714h-2.807c-8.305,0-17.88-5.017-19.843-19.097
	c-0.009-0.069-0.019-0.137-0.024-0.207l-4.193-40.689c-0.006-0.053-0.01-0.107-0.015-0.161c-0.52-6.947,2.651-13.362,8.705-17.599
	c5.296-3.706,11.844-5.111,18.145-4.108v-38.514c0-32.817,44.385-58.524,101.046-58.524h0.001h0.001
	c56.66,0,101.046,25.707,101.046,58.524v38.508c6.301-1.001,12.85,0.409,18.144,4.113c6.054,4.236,9.228,10.65,8.709,17.599
	c-0.005,0.055-0.009,0.108-0.015,0.163l-4.196,40.689c-0.007,0.069-0.016,0.137-0.024,0.206
	c-1.96,14.081-11.536,19.098-19.843,19.098h-2.807c-0.343,18.051-5.239,35.665-14.166,51.71c8.869,4.803,24.376,15.815,27.24,35.03
	l6.278,2.556c9.67-20.278,7.979-36.45,7.958-36.623c-0.353-3.084,1.785-5.901,4.851-6.392c11.12-1.781,21.934,0.111,28.871,1.939
	c0.423-42.278-27.762-63.49-28.064-63.711c-1.752-1.286-2.638-3.443-2.298-5.589c0.34-2.147,1.851-3.923,3.914-4.605
	c19.99-6.601,38.729,1.895,49.918,9.141c-2.992-22.941-14.133-34.859-22.591-43.91c-7.238-7.744-14.722-15.751-9.587-26.664
	c12.623-26.825,12.864-47.164,0.737-62.18c-5.558-6.882-11.718-9.785-18.849-13.146c-11.626-5.478-24.801-11.687-34.746-36.124
	c-16.253-39.933-99.516-38.653-100.355-38.64c-0.043,0-0.082-0.01-0.124-0.01s-0.08,0.012-0.122,0.01
	c-0.837-0.024-84.106-1.293-100.355,38.64c-9.945,24.436-23.122,30.646-34.748,36.125c-7.133,3.361-13.292,6.264-18.85,13.146
	c-12.126,15.017-11.885,35.356,0.737,62.18c5.135,10.912-2.348,18.92-9.585,26.664c-8.458,9.05-19.598,20.97-22.59,43.91
	c11.189-7.245,29.928-15.743,49.918-9.142c2.062,0.682,3.573,2.459,3.914,4.605c0.34,2.146-0.547,4.304-2.298,5.589
	c-1.216,0.903-28.547,21.737-28.071,63.713c6.94-1.828,17.76-3.723,28.876-1.941C125.89,295.611,128.026,298.428,127.675,301.512z"
	/>
<path style="fill:#81AF31;" d="M271.136,297.653v-2.657h-2.347v2.657c0,3.206-2.599,5.807-5.807,5.807
	c-3.208,0-5.807-2.6-5.807-5.807v-2.657h-2.349v2.657c0,3.206-2.599,5.807-5.807,5.807s-5.807-2.6-5.807-5.807v-2.657h-2.349v2.657
	c0,3.206-2.599,5.807-5.807,5.807c-0.369,0-0.728-0.043-1.078-0.109c5.236,2.126,12.793,3.959,22.02,3.959
	c9.228,0,16.786-1.833,22.022-3.959c-0.351,0.066-0.707,0.109-1.078,0.109C273.735,303.46,271.136,300.86,271.136,297.653z"/>
<g>
	<polygon style="fill:#E6E6E6;" points="452.439,401.811 447.104,457.518 467.935,457.518 	"/>
	<path style="fill:#E6E6E6;" d="M202.573,99.311v-8.167c-21.703,8.652-36.008,22.296-36.008,37.322v118.352
		c0,62.304,58.724,102.044,89.433,102.044h0.001h0.001c17.114,0,39.476-11.075,56.973-28.215
		c20.931-20.509,32.46-46.728,32.46-73.829V128.465c0-15.025-14.304-28.669-36.005-37.321v8.166l6.421,8.459
		c1.939,2.554,1.44,6.197-1.114,8.135c-1.05,0.797-2.284,1.182-3.507,1.182c-1.755,0-3.487-0.792-4.629-2.297l-7.603-10.016
		c-0.766-1.01-1.182-2.242-1.182-3.511V87.199c-10.927-3.122-23.147-5.074-36.008-5.531v22.461c0,3.206-2.599,5.807-5.807,5.807
		c-3.208,0-5.807-2.6-5.807-5.807V81.67c-12.86,0.458-25.081,2.409-36.008,5.531v14.063c0,1.268-0.415,2.5-1.182,3.511
		l-7.603,10.016c-1.142,1.505-2.875,2.297-4.629,2.297c-1.224,0-2.456-0.386-3.507-1.182c-2.554-1.938-3.053-5.581-1.114-8.135
		L202.573,99.311z M301.797,294.996h-4.239v3.256c0,12.767-21.573,20.67-41.56,20.67c-19.986,0-41.558-7.903-41.558-20.67v-3.256
		h-4.236c-3.208,0-5.807-2.6-5.807-5.807s2.599-5.807,5.807-5.807h91.594c3.208,0,5.807,2.6,5.807,5.807
		S305.004,294.996,301.797,294.996z M250.194,175.698c0-3.206,2.599-5.807,5.807-5.807c3.208,0,5.807,2.6,5.807,5.807v7.727
		c0,3.206-2.599,5.807-5.807,5.807c-3.208,0-5.807-2.6-5.807-5.807V175.698z M196.532,163.004c1.693-1.024,3.785-1.117,5.558-0.247
		l41.013,20.065c2.057,1.007,3.232,3.07,3.234,5.215h0.021v61.567c0,0.008,0.002,0.015,0.002,0.023c0,5.315,4.324,9.639,9.638,9.639
		c5.315,0,9.64-4.325,9.64-9.639c0-0.008,0.002-0.015,0.002-0.023v-61.567h0.021c0.002-2.146,1.178-4.209,3.234-5.215l41.015-20.065
		c1.776-0.867,3.867-0.775,5.558,0.247c11.485,6.95,18.62,20.534,18.62,35.45c0,20.807-14.356,35.339-34.912,35.339
		c-8.735,0-16.177-2.196-21.924-6.271v16.587h2.686c3.208,0,5.807,2.6,5.807,5.807c0,3.206-2.599,5.807-5.807,5.807h-3.593
		c-2.627,8.755-10.749,15.156-20.347,15.156c-9.599,0-17.719-6.401-20.347-15.156h-3.594c-3.208,0-5.807-2.6-5.807-5.807
		c0-3.206,2.599-5.807,5.807-5.807h2.687v-16.587c-5.747,4.075-13.189,6.271-21.924,6.271c-20.555,0-34.912-14.531-34.912-35.339
		C177.909,183.539,185.044,169.956,196.532,163.004z"/>
</g>
<path style="fill:#81AF31;" d="M282.749,297.653c0,1.913-0.937,3.597-2.364,4.653c3.209-1.569,5.155-3.162,5.56-4.211v-3.1h-3.196
	V297.653z"/>
<g>
	<path style="fill:#333333;" d="M212.821,222.181c8.056,0,18.298-2.4,21.924-13.597V191.66l-34.699-16.976
		c-6.556,5.243-10.525,14.068-10.525,23.77C189.522,212.867,198.668,222.181,212.821,222.181z M205.408,192.707h14.705
		c3.208,0,5.807,2.6,5.807,5.807c0,3.206-2.599,5.807-5.807,5.807h-14.705c-3.208,0-5.807-2.6-5.807-5.807
		C199.602,195.307,202.201,192.707,205.408,192.707z"/>
	<path style="fill:#333333;" d="M299.177,222.181c14.154,0,23.299-9.314,23.299-23.726c0-9.702-3.968-18.526-10.523-23.77
		l-34.7,16.976v16.924C280.879,219.779,291.122,222.181,299.177,222.181z M291.885,192.707h14.704c3.208,0,5.807,2.6,5.807,5.807
		c0,3.206-2.599,5.807-5.807,5.807h-14.704c-3.208,0-5.807-2.6-5.807-5.807C286.078,195.307,288.678,192.707,291.885,192.707z"/>
</g>
<g>
	<path style="fill:#E6E6E6;" d="M310.076,338.587c-4.655,3.636-9.467,6.881-14.341,9.688l-30.902,44.676l49.113,20.828
		L310.076,338.587z"/>
	<polygon style="fill:#E6E6E6;" points="281.941,412.821 269.39,433.026 280.724,464.809 288.991,415.811 	"/>
	<path style="fill:#E6E6E6;" d="M336.69,310.46c-2.079,3.005-4.296,5.948-6.674,8.805l26.443,10.765
		C351.92,319.767,342.233,313.404,336.69,310.46z"/>
</g>
<polygon style="fill:#333333;" points="253.112,438.146 235.236,488.284 237.278,500.387 274.721,500.387 276.764,488.28 
	258.888,438.146 "/>
<g>
	<polygon style="fill:#E6E6E6;" points="230.059,412.819 223.009,415.81 231.276,464.81 242.609,433.026 	"/>
	<path style="fill:#E6E6E6;" d="M351.638,469.598c0.122,2.442-1.301,4.7-3.557,5.645l-18.816,7.883l12.673,17.262h39.073
		L347.21,380.753L351.638,469.598z"/>
</g>
<g>
	<polygon style="fill:#333333;" points="347.455,338.904 393.081,500.387 431.332,500.387 433.346,479.373 399.662,360.157 	"/>
	<polygon style="fill:#333333;" points="445.991,469.131 442.998,500.387 479.859,500.387 471.165,469.131 	"/>
</g>
<path style="fill:#E6E6E6;" d="M442.139,363.924c-1.381-1.498-3.793-2.259-7.168-2.259h-22.816l24.245,85.809l7.464-77.931
	C443.867,369.507,444.124,366.078,442.139,363.924z"/>
<path style="fill:#333333;" d="M314.626,479.068c0.475-1.715,1.711-3.117,3.353-3.804l21.858-9.157l-1.118-22.432l-49.751,42.074
	l-2.47,14.638h41.035l-11.992-16.333C314.488,482.621,314.151,480.783,314.626,479.068z"/>
<g>
	<path style="fill:#E6E6E6;" d="M139.678,187.748l4.174,40.488c0.868,6.049,3.593,8.99,8.328,8.99h2.774v-58.369
		c-3.869-1.169-8.222-0.542-11.487,1.744C141.941,181.669,139.43,184.012,139.678,187.748z"/>
	<polygon style="fill:#E6E6E6;" points="59.56,401.814 44.066,457.518 64.896,457.518 	"/>
	<path style="fill:#E6E6E6;" d="M368.147,228.237l4.176-40.489c0.246-3.736-2.265-6.079-3.792-7.147
		c-3.264-2.285-7.616-2.911-11.487-1.743v58.369h2.774C364.555,237.226,367.281,234.285,368.147,228.237z"/>
	<path style="fill:#E6E6E6;" d="M77.029,361.666c-3.376,0-5.788,0.759-7.169,2.259c-1.985,2.154-1.727,5.582-1.725,5.616
		l7.465,77.933l24.244-85.808H77.029z"/>
</g>
<g>
	<polygon style="fill:#333333;" points="40.834,469.131 32.14,500.387 69.002,500.387 66.008,469.131 	"/>
	<polygon style="fill:#333333;" points="112.337,360.157 78.656,479.373 80.668,500.387 118.921,500.387 164.544,338.904 	"/>
</g>
<path style="fill:#E6E6E6;" d="M160.362,469.598l4.426-88.846l-33.8,119.636h39.071l12.673-17.262l-18.813-7.882
	C161.663,474.298,160.241,472.042,160.362,469.598z"/>
<path style="fill:#333333;" d="M173.282,443.674l-1.118,22.432l21.856,9.157c1.642,0.688,2.878,2.09,3.353,3.804
	s0.138,3.554-0.915,4.987l-11.992,16.333H225.5l-2.47-14.638L173.282,443.674z"/>
<path d="M205.408,204.32h14.705c3.208,0,5.807-2.6,5.807-5.807c0-3.206-2.599-5.807-5.807-5.807h-14.705
	c-3.208,0-5.807,2.6-5.807,5.807C199.602,201.72,202.201,204.32,205.408,204.32z"/>
<path d="M291.885,204.32h14.704c3.208,0,5.807-2.6,5.807-5.807c0-3.206-2.599-5.807-5.807-5.807h-14.704
	c-3.208,0-5.807,2.6-5.807,5.807C286.078,201.72,288.678,204.32,291.885,204.32z"/>
<path d="M256.001,189.232c3.208,0,5.807-2.6,5.807-5.807v-7.727c0-3.206-2.599-5.807-5.807-5.807c-3.208,0-5.807,2.6-5.807,5.807
	v7.727C250.194,186.632,252.793,189.232,256.001,189.232z"/>
<path d="M301.797,283.383h-91.594c-3.208,0-5.807,2.6-5.807,5.807s2.599,5.807,5.807,5.807h4.236v3.256
	c0,12.767,21.571,20.67,41.558,20.67c19.987,0,41.56-7.903,41.56-20.67v-3.256h4.239c3.208,0,5.807-2.6,5.807-5.807
	S305.004,283.383,301.797,283.383z M226.054,298.096v-3.1h3.196v2.657c0,1.913,0.937,3.597,2.366,4.655
	C228.405,300.738,226.458,299.144,226.054,298.096z M255.998,307.31c-9.227,0-16.783-1.833-22.02-3.959
	c0.35,0.066,0.707,0.109,1.078,0.109c3.208,0,5.807-2.6,5.807-5.807v-2.657h2.349v2.657c0,3.206,2.599,5.807,5.807,5.807
	s5.807-2.6,5.807-5.807v-2.657h2.349v2.657c0,3.206,2.599,5.807,5.807,5.807c3.208,0,5.807-2.6,5.807-5.807v-2.657h2.347v2.657
	c0,3.206,2.599,5.807,5.807,5.807c0.369,0,0.727-0.043,1.078-0.109C272.784,305.477,265.226,307.31,255.998,307.31z
	 M285.945,298.096c-0.405,1.049-2.352,2.642-5.56,4.211c1.427-1.058,2.364-2.741,2.364-4.653v-2.657h3.196V298.096z"/>
<path d="M177.909,198.455c0,20.807,14.356,35.339,34.913,35.339c8.735,0,16.177-2.196,21.924-6.271v16.587h-2.687
	c-3.208,0-5.807,2.6-5.807,5.807c0,3.206,2.599,5.807,5.807,5.807h3.594c2.628,8.755,10.748,15.156,20.347,15.156
	s17.722-6.401,20.347-15.156h3.593c3.208,0,5.807-2.6,5.807-5.807c0-3.206-2.599-5.807-5.807-5.807h-2.686v-16.587
	c5.747,4.075,13.188,6.271,21.924,6.271c20.555,0,34.912-14.531,34.912-35.339c0-14.917-7.136-28.501-18.62-35.45
	c-1.691-1.022-3.782-1.115-5.558-0.247l-41.015,20.065c-2.057,1.007-3.232,3.07-3.234,5.215h-0.021v61.567
	c0,0.008-0.002,0.015-0.002,0.023c0,5.315-4.325,9.639-9.64,9.639c-5.314,0-9.638-4.325-9.638-9.639
	c0-0.008-0.002-0.015-0.002-0.023v-61.567h-0.021c-0.002-2.146-1.178-4.209-3.234-5.215l-41.013-20.065
	c-1.773-0.869-3.865-0.777-5.558,0.247C185.044,169.956,177.909,183.539,177.909,198.455z M277.253,191.66l34.7-16.976
	c6.556,5.243,10.523,14.068,10.523,23.77c0,14.413-9.145,23.726-23.299,23.726c-8.055,0-18.298-2.4-21.924-13.597V191.66H277.253z
	 M200.046,174.686l34.699,16.976v16.924c-3.627,11.195-13.868,13.597-21.924,13.597c-14.154,0-23.299-9.314-23.299-23.726
	C189.522,188.754,193.491,179.929,200.046,174.686z"/>
<path d="M455.487,369.432c0.043-2.605-0.393-8.461-4.661-13.215c-3.671-4.09-9.006-6.164-15.854-6.164h-29.332l-18.524-7.542
	c7.287-15.557,8.778-29.078,8.93-36.436c13.174-0.61,25.113,4.131,25.238,4.182c1.708,0.698,3.65,0.541,5.225-0.422
	c1.575-0.964,2.599-2.619,2.756-4.458c3.163-36.977-12.755-61.151-23.42-72.948c0.159-0.001,0.318-0.002,0.477-0.002
	c20.204,0,37.559,16.204,37.757,16.391c1.68,1.606,4.156,2.054,6.294,1.14s3.523-3.015,3.523-5.339
	c0-35.824-15.94-52.878-26.487-64.164c-7.467-7.989-9.136-10.446-7.562-13.789c14.707-31.254,14.466-55.597-0.737-74.42
	c-7.231-8.955-15.213-12.718-22.934-16.356c-11.108-5.235-20.703-9.756-28.941-29.997C348.138-1.031,261.108-0.079,256.001,0.016
	c-5.103-0.096-92.138-1.05-111.234,45.876c-8.238,20.24-17.832,24.761-28.942,29.998c-7.719,3.637-15.702,7.4-22.935,16.355
	c-15.203,18.826-15.443,43.168-0.737,74.42c1.574,3.343-0.095,5.8-7.562,13.789c-10.546,11.286-26.485,28.339-26.485,64.162
	c0,2.325,1.385,4.426,3.523,5.339c2.138,0.914,4.613,0.466,6.294-1.14c0.206-0.195,17.808-16.724,38.245-16.4
	c-10.667,11.792-26.598,35.97-23.434,72.961c0.157,1.84,1.181,3.494,2.756,4.458c1.574,0.964,3.516,1.121,5.224,0.422
	c0.132-0.055,12.006-4.823,25.239-4.185c0.152,7.358,1.627,20.88,8.92,36.443l-18.514,7.537h-29.33
	c-6.849,0-12.186,2.074-15.857,6.164c-4.293,4.783-4.709,10.684-4.663,13.228L18.904,504.637c-0.487,1.748-0.127,3.624,0.971,5.069
	c1.097,1.445,2.809,2.294,4.623,2.294h463.004c1.815,0,3.526-0.849,4.623-2.294c1.097-1.445,1.457-3.32,0.971-5.069L455.487,369.432
	z M452.439,401.811l15.497,55.707h-20.832L452.439,401.811z M122.824,295.119c-11.116-1.783-21.937,0.113-28.876,1.941
	c-0.476-41.976,26.855-62.81,28.071-63.713c1.752-1.286,2.638-3.443,2.298-5.589c-0.34-2.147-1.851-3.923-3.914-4.605
	c-19.991-6.601-38.73,1.895-49.918,9.142c2.992-22.941,14.132-34.86,22.59-43.91c7.236-7.744,14.721-15.751,9.585-26.664
	c-12.622-26.824-12.864-47.163-0.737-62.18c5.558-6.882,11.719-9.785,18.85-13.146c11.626-5.479,24.802-11.687,34.748-36.125
	c16.249-39.934,99.517-38.665,100.355-38.64c0.042,0,0.08-0.01,0.122-0.01s0.081,0.012,0.124,0.01
	c0.838-0.013,84.102-1.293,100.355,38.64c9.945,24.436,23.121,30.646,34.746,36.124c7.133,3.362,13.291,6.264,18.849,13.146
	c12.126,15.016,11.886,35.355-0.737,62.18c-5.135,10.912,2.348,18.92,9.587,26.664c8.458,9.05,19.599,20.97,22.591,43.91
	c-11.19-7.245-29.928-15.742-49.918-9.141c-2.062,0.682-3.573,2.458-3.914,4.605s0.547,4.304,2.298,5.589
	c0.302,0.221,28.487,21.433,28.064,63.711c-6.939-1.827-17.752-3.721-28.871-1.939c-3.066,0.491-5.203,3.307-4.851,6.392
	c0.021,0.173,1.712,16.345-7.958,36.623l-6.278-2.556c-2.864-19.215-18.371-30.227-27.24-35.03
	c8.928-16.045,13.823-33.658,14.166-51.71h2.807c8.307,0,17.882-5.017,19.843-19.098c0.009-0.069,0.019-0.137,0.024-0.206
	l4.196-40.689c0.006-0.053,0.01-0.108,0.015-0.163c0.519-6.948-2.655-13.362-8.709-17.599c-5.294-3.705-11.843-5.113-18.144-4.113
	v-38.508c0-32.817-44.385-58.524-101.046-58.524h-0.001h-0.001c-56.66,0-101.046,25.707-101.046,58.524v38.514
	c-6.301-1.003-12.85,0.402-18.145,4.108c-6.054,4.236-9.225,10.652-8.705,17.599c0.005,0.053,0.009,0.107,0.015,0.161l4.193,40.689
	c0.007,0.07,0.016,0.138,0.024,0.207c1.963,14.08,11.539,19.097,19.843,19.097h2.807c0.343,18.054,5.24,35.669,14.168,51.714
	c-8.87,4.802-24.374,15.807-27.239,35.025l-6.277,2.556c-9.572-20.119-7.981-36.465-7.963-36.621
	C128.026,298.428,125.89,295.611,122.824,295.119z M197.265,115.906c1.05,0.797,2.283,1.182,3.507,1.182
	c1.755,0,3.487-0.792,4.629-2.297l7.603-10.016c0.766-1.01,1.182-2.242,1.182-3.511V87.201c10.927-3.122,23.147-5.074,36.008-5.531
	v22.461c0,3.206,2.599,5.807,5.807,5.807c3.208,0,5.807-2.6,5.807-5.807V81.67c12.86,0.458,25.081,2.41,36.008,5.531v14.063
	c0,1.268,0.415,2.5,1.182,3.511l7.603,10.016c1.142,1.505,2.875,2.297,4.629,2.297c1.223,0,2.456-0.386,3.507-1.182
	c2.554-1.938,3.053-5.581,1.114-8.135l-6.421-8.459v-8.166c21.7,8.652,36.005,22.296,36.005,37.321v118.352
	c0,27.102-11.528,53.32-32.46,73.829c-17.495,17.14-39.857,28.215-56.973,28.215h-0.001h-0.001
	c-30.707,0-89.433-39.739-89.433-102.044V128.465c0-15.026,14.305-28.67,36.008-37.322v8.167l-6.421,8.459
	C194.213,110.323,194.711,113.966,197.265,115.906z M321.643,328.397l11.565,4.708l1.457,29.248l-11.248,9.513l-2.215-43.028
	C321.351,328.692,321.495,328.543,321.643,328.397z M275.374,357.297l-19.375,28.01l-19.374-28.01
	c6.702,2.069,13.248,3.176,19.373,3.176h0.001h0.001C262.124,360.473,268.673,359.368,275.374,357.297z M190.798,328.84
	l-2.215,43.027l-11.251-9.515l1.457-29.248l11.565-4.709C190.504,328.543,190.648,328.693,190.798,328.84z M181.982,319.265
	l-26.451,10.769c4.536-10.266,14.23-16.631,19.776-19.576C177.387,313.465,179.604,316.407,181.982,319.265z M176.605,376.946
	l11.226,9.494l-1.855,36.008c-0.103,1.999,0.83,3.909,2.47,5.056c0.992,0.693,2.155,1.049,3.328,1.049
	c0.768,0,1.539-0.152,2.267-0.461l17.975-7.623l8.02,47.539l-46.029-38.928L176.605,376.946z M198.052,413.78l3.871-75.191
	c4.655,3.635,9.467,6.88,14.34,9.686l30.902,44.676L198.052,413.78z M255.999,401.818l15.121,6.413l-11.367,18.302h-7.506
	l-11.369-18.302L255.999,401.818z M264.832,392.952l30.902-44.676c4.873-2.808,9.686-6.052,14.341-9.688l3.869,75.193
	L264.832,392.952z M299.983,420.471l17.972,7.622c0.728,0.309,1.499,0.461,2.267,0.461c1.173,0,2.338-0.355,3.328-1.049
	c1.64-1.147,2.573-3.058,2.47-5.056l-1.853-36.009l11.226-9.495l2.598,52.135l-46.03,38.928L299.983,420.471z M330.016,319.265
	c2.378-2.857,4.595-5.8,6.674-8.805c5.543,2.945,15.231,9.308,19.769,19.57L330.016,319.265z M357.045,237.226v-58.369
	c3.871-1.168,8.221-0.541,11.487,1.743c1.526,1.067,4.038,3.411,3.792,7.147l-4.176,40.489c-0.866,6.048-3.592,8.989-8.328,8.989
	h-2.774V237.226z M154.953,178.857v58.369h-2.774c-4.735,0-7.46-2.94-8.328-8.99l-4.174-40.488
	c-0.247-3.736,2.263-6.079,3.789-7.147C146.73,178.315,151.083,177.688,154.953,178.857z M59.56,401.814l5.336,55.705h-20.83
	L59.56,401.814z M32.14,500.387l8.694-31.256h25.174l2.994,31.256H32.14z M68.135,369.541c-0.002-0.034-0.26-3.462,1.725-5.616
	c1.38-1.498,3.793-2.259,7.169-2.259h22.815L75.6,447.474L68.135,369.541z M80.668,500.387l-2.013-21.015l33.682-119.214
	l52.207-21.254l-45.623,161.484L80.668,500.387L80.668,500.387z M170.059,500.387h-39.071l33.8-119.636l-4.426,88.846
	c-0.122,2.442,1.301,4.7,3.557,5.645l18.813,7.882L170.059,500.387z M184.465,500.387l11.992-16.333
	c1.053-1.434,1.39-3.273,0.915-4.987s-1.711-3.117-3.353-3.804l-21.856-9.157l1.118-22.432l49.748,42.074l2.47,14.638H184.465z
	 M223.009,415.81l7.049-2.99l12.551,20.206l-11.334,31.784L223.009,415.81z M274.721,500.387h-37.443l-2.042-12.103l17.877-50.137
	h5.775l17.876,50.134L274.721,500.387z M269.39,433.026l12.55-20.206l7.05,2.99l-8.267,48.998L269.39,433.026z M286.498,500.387
	l2.47-14.638l49.751-42.074l1.118,22.432l-21.858,9.157c-1.642,0.688-2.878,2.09-3.353,3.804c-0.475,1.715-0.138,3.554,0.915,4.987
	l11.992,16.333H286.498z M341.94,500.387l-12.673-17.262l18.816-7.883c2.255-0.945,3.678-3.202,3.557-5.645l-4.428-88.845
	l33.802,119.635H341.94z M431.332,500.387h-38.251l-45.626-161.484l52.207,21.254l33.684,119.214L431.332,500.387z M412.155,361.666
	h22.816c3.375,0,5.787,0.759,7.168,2.259c1.985,2.154,1.728,5.584,1.725,5.618l-7.464,77.931L412.155,361.666z M442.998,500.387
	l2.993-31.256h25.174l8.695,31.256H442.998z"/>
<g>
</g>
<g>
</g>
<g>
</g>
<g>
</g>
<g>
</g>
<g>
</g>
<g>
</g>
<g>
</g>
<g>
</g>
<g>
</g>
<g>
</g>
<g>
</g>
<g>
</g>
<g>
</g>
<g>
</g>
</svg>
