<?xml version="1.0" encoding="iso-8859-1"?>
<!-- Generator: Adobe Illustrator 19.0.0, SVG Export Plug-In . SVG Version: 6.00 Build 0)  -->
<svg version="1.1" id="Layer_1" xmlns="http://www.w3.org/2000/svg" xmlns:xlink="http://www.w3.org/1999/xlink" x="0px" y="0px"
	 viewBox="0 0 512.001 512.001" style="enable-background:new 0 0 512.001 512.001;" xml:space="preserve">
<path style="fill:#FFAA2A;" d="M208.814,476.116l-1.709,3.783c-0.942,2.086-2.995,3.319-5.144,3.319
	c-0.777,0-1.566-0.161-2.319-0.501c-2.839-1.283-4.1-4.624-2.818-7.462l2.427-5.374c-2.69-1.255-5.411-2.195-8.064-2.88
	l-1.595,5.353c-0.73,2.448-2.973,4.03-5.403,4.03c-0.534,0-1.076-0.076-1.613-0.236c-2.985-0.89-4.685-4.03-3.795-7.016l1.134-3.804
	c-3.033-0.149-5.64-0.051-7.552,0.095c-2.397,8.92-2.421,16.662-0.033,22.536c2.281,5.612,6.638,9.498,12.952,11.552
	s12.125,1.479,17.271-1.715c4.761-2.954,8.856-8.201,12.031-15.327C212.811,480.033,210.868,477.929,208.814,476.116z"/>
<path style="fill:#808080;" d="M205.141,324.765c0.689,0.196,1.396,0.297,2.101,0.297c3.402,0,6.43-2.29,7.362-5.57
	c0.559-1.967,0.32-4.035-0.676-5.822c-0.996-1.788-2.629-3.081-4.598-3.641c-0.689-0.196-1.396-0.297-2.101-0.297
	c-3.401,0-6.428,2.29-7.361,5.568C198.712,319.363,201.078,323.609,205.141,324.765z"/>
<g>
	<path style="fill:#FFAA2A;" d="M203.287,394.306c-2.126-1.091-4.316-2.558-6.485-4.271l-20.822,63.969
		c2.147-0.024,4.576,0.037,7.23,0.27l1.787-5.996c0.89-2.985,4.03-4.685,7.016-3.795c2.986,0.89,4.685,4.03,3.795,7.016
		l-1.399,4.696c3.119,0.819,6.32,1.919,9.499,3.383l2.24-4.96c1.281-2.839,4.624-4.099,7.462-2.818
		c2.839,1.283,4.1,4.624,2.818,7.462l-2.791,6.177c1.83,1.403,3.599,2.994,5.306,4.748l20.942-64.343
		c-12.193-1.792-24.367-5.615-36.482-11.478C203.365,394.344,203.326,394.325,203.287,394.306z"/>
	<path style="fill:#FFAA2A;" d="M188.343,224.478c-14.053,45.284-14.053,91.209,0,136.495c2.734,8.071,12.44,19.341,20.038,23.268
		c14.116,6.822,28.059,10.635,41.983,11.446v-15.146h-6.183c-3.114,0-5.64-2.524-5.64-5.64s2.526-5.64,5.64-5.64h6.183v-22.674
		h-6.183c-3.114,0-5.64-2.524-5.64-5.64c0-3.116,2.526-5.64,5.64-5.64h6.183v-22.675h-6.183c-3.114,0-5.64-2.524-5.64-5.64
		c0-3.116,2.526-5.64,5.64-5.64h6.183v-22.674h-6.183c-3.114,0-5.64-2.524-5.64-5.64c0-3.116,2.526-5.64,5.64-5.64h6.183v-22.674
		h-6.183c-3.114,0-5.64-2.524-5.64-5.64s2.526-5.64,5.64-5.64h6.183v-12.841c-17.773-0.928-34.319-6.232-48.471-14.76
		C195.898,211.149,190.273,218.772,188.343,224.478z M212.075,279.775c0.852-2.997,3.973-4.732,6.968-3.881
		c2.996,0.853,4.734,3.972,3.881,6.969l-5.315,18.683c2.539,1.657,4.658,3.911,6.175,6.634c2.462,4.421,3.057,9.534,1.672,14.4
		c-2.306,8.104-9.794,13.763-18.212,13.763c-1.748,0-3.493-0.245-5.188-0.725c-10.045-2.858-15.892-13.355-13.036-23.4
		c2.262-7.95,9.516-13.533,17.737-13.742L212.075,279.775z"/>
</g>
<path style="fill:#808080;" d="M203.361,15.358c-1.332-2.514-3.931-4.078-6.782-4.078c-1.252,0-2.455,0.301-3.575,0.893
	c-3.733,1.977-5.161,6.622-3.183,10.357c1.331,2.513,3.93,4.074,6.779,4.074c1.252,0,2.456-0.301,3.575-0.893
	c1.808-0.959,3.135-2.563,3.737-4.519C204.515,19.238,204.318,17.165,203.361,15.358z"/>
<path style="fill:#E6E6E6;" d="M299.184,144.587c12.963,0,23.51-10.547,23.51-23.509c0-12.964-10.547-23.511-23.51-23.511
	c-12.963,0-23.51,10.547-23.51,23.511C275.675,134.04,286.221,144.587,299.184,144.587z M285.251,115.119
	c-2.203-2.202-2.203-5.773,0-7.975c2.201-2.203,5.774-2.203,7.975,0l5.958,5.958l5.958-5.958c2.201-2.203,5.774-2.203,7.975,0
	c2.203,2.202,2.203,5.773,0,7.975l-5.958,5.958l5.958,5.958c2.203,2.202,2.203,5.773,0,7.975c-1.101,1.102-2.545,1.653-3.987,1.653
	c-1.443,0-2.888-0.55-3.987-1.653l-5.958-5.958l-5.958,5.958c-1.101,1.102-2.545,1.653-3.987,1.653s-2.887-0.55-3.987-1.653
	c-2.203-2.202-2.203-5.773,0-7.975l5.958-5.958L285.251,115.119z"/>
<g>
	<path style="fill:#FFAA2A;" d="M125.254,240.715c1.502,1.799,2.999,3.822,4.423,6.035l5.139-1.999
		c2.901-1.128,6.171,0.307,7.302,3.213c1.13,2.902-0.308,6.171-3.211,7.302l-4.018,1.563c1.067,2.669,1.965,5.497,2.621,8.467
		l2.647-1.03c2.905-1.129,6.171,0.308,7.302,3.213c1.129,2.902-0.309,6.171-3.211,7.302l-5.538,2.154
		c-0.036,2.654-0.296,5.383-0.795,8.172l29.451-12.15c1.473-17.341,4.875-34.658,10.226-51.887c0.012-0.039,0.025-0.079,0.038-0.118
		c0.239-0.714,0.523-1.445,0.834-2.186L125.254,240.715z"/>
	<path style="fill:#FFAA2A;" d="M124.108,282.202c-2.257,0-4.389-1.365-5.258-3.597c-1.129-2.902,0.308-6.171,3.211-7.302
		l4.796-1.866c-0.545-3.063-1.42-5.911-2.491-8.519l-3.559,1.384c-0.672,0.261-1.364,0.385-2.044,0.385
		c-2.258,0-4.389-1.365-5.258-3.596c-1.129-2.902,0.308-6.171,3.211-7.302l2.1-0.818c-1.704-2.372-3.351-4.254-4.629-5.589
		c-8.32,3.96-14.211,8.956-17.128,14.575c-2.791,5.377-2.92,11.213-0.388,17.352c2.532,6.139,6.741,10.186,12.51,12.03
		c4.494,1.438,9.917,1.46,15.984,0.116c0.959-2.757,1.579-5.429,1.932-8.009l-0.949,0.369
		C125.479,282.078,124.788,282.202,124.108,282.202z"/>
</g>
<path style="fill:#808080;" d="M361.695,66.217c1.733,0,3.37-0.57,4.735-1.647c3.315-2.617,3.884-7.446,1.268-10.76
	c-1.463-1.853-3.657-2.916-6.021-2.916c-1.734,0-3.373,0.571-4.74,1.649c-1.606,1.268-2.621,3.084-2.861,5.115
	c-0.239,2.032,0.327,4.035,1.595,5.64C357.134,65.154,359.329,66.217,361.695,66.217z"/>
<g>
	<path style="fill:#FFAA2A;" d="M345.363,126.04c0-46.007-40.087-83.437-89.361-83.437c-13.039,0-25.422,2.643-36.601,7.35
		l7.494,14.145c1.457,2.753,0.408,6.167-2.344,7.624c-0.841,0.447-1.745,0.658-2.636,0.658c-2.021,0-3.976-1.09-4.989-3
		l-7.644-14.429c-25.563,14.698-42.645,41.063-42.645,71.09c0,46.007,40.089,83.437,89.365,83.437S345.363,172.048,345.363,126.04z
		 M299.184,86.287c19.183,0,34.79,15.607,34.79,34.791c0,19.183-15.607,34.789-34.79,34.789c-19.183,0-34.79-15.606-34.79-34.789
		C264.395,101.894,280.002,86.287,299.184,86.287z M195.908,130.012l8.935-8.935l-8.935-8.936c-2.203-2.202-2.203-5.773,0-7.975
		c2.204-2.203,5.774-2.202,7.976,0l8.934,8.935l8.934-8.935c2.203-2.203,5.773-2.203,7.976,0c2.203,2.202,2.203,5.773,0,7.975
		l-8.935,8.936l8.935,8.935c2.203,2.202,2.203,5.773,0,7.975c-1.101,1.102-2.545,1.653-3.989,1.653s-2.887-0.55-3.989-1.653
		l-8.934-8.935l-8.934,8.935c-1.102,1.102-2.545,1.653-3.989,1.653c-1.444,0-2.887-0.55-3.989-1.653
		C193.705,135.785,193.705,132.214,195.908,130.012z M311.561,188.509c-0.98,0.68-2.101,1.006-3.21,1.006
		c-1.787,0-3.544-0.846-4.639-2.424l-2.756-3.972c-3.893,1.981-8.215,3.684-12.87,5.082l1.267,3.753
		c0.996,2.951-0.588,6.151-3.541,7.147c-0.597,0.202-1.206,0.298-1.805,0.298c-2.353,0-4.548-1.483-5.342-3.837l-1.6-4.738
		c-4.943,0.893-10.115,1.474-15.422,1.716v3.628c0,3.116-2.524,5.64-5.64,5.64c-3.114,0-5.64-2.524-5.64-5.64v-3.628
		c-5.308-0.243-10.48-0.822-15.424-1.716l-1.598,4.738c-0.794,2.354-2.99,3.837-5.343,3.837c-0.598,0-1.206-0.096-1.805-0.298
		c-2.951-0.996-4.536-4.196-3.54-7.147l1.267-3.753c-4.655-1.398-8.978-3.101-12.87-5.081l-2.756,3.971
		c-1.095,1.578-2.853,2.424-4.638,2.424c-1.109,0-2.23-0.326-3.21-1.006c-2.558-1.775-3.193-5.29-1.418-7.85l2.545-3.668
		c-2.006-1.998-2.259-5.211-0.457-7.482c1.647-2.074,4.457-2.664,6.762-1.606l3.04-4.382c1.775-2.559,5.289-3.192,7.85-1.419
		c2.559,1.775,3.193,5.291,1.418,7.85l-2.638,3.802c3.03,1.433,6.389,2.682,9.986,3.74l1.791-5.306
		c0.996-2.952,4.196-4.535,7.147-3.541c2.951,0.996,4.536,4.196,3.54,7.147l-1.42,4.207c3.797,0.623,7.747,1.033,11.773,1.24v-5.938
		c0-3.116,2.526-5.64,5.64-5.64c3.116,0,5.64,2.524,5.64,5.64v5.938c4.025-0.206,7.974-0.617,11.772-1.239l-1.421-4.209
		c-0.996-2.951,0.588-6.151,3.541-7.147c2.945-0.995,6.151,0.588,7.147,3.541l1.791,5.306c3.597-1.058,6.956-2.309,9.988-3.742
		l-2.638-3.801c-1.775-2.561-1.14-6.074,1.419-7.85c2.562-1.775,6.073-1.14,7.85,1.419l3.039,4.381
		c2.305-1.058,5.112-0.473,6.761,1.605c1.803,2.271,1.55,5.483-0.457,7.482l2.547,3.671
		C314.755,183.22,314.119,186.734,311.561,188.509z"/>
	<path style="fill:#FFAA2A;" d="M310.112,205.846c-14.151,8.527-30.696,13.83-48.469,14.759v12.841h6.179
		c3.116,0,5.64,2.524,5.64,5.64s-2.524,5.64-5.64,5.64h-6.179V267.4h6.179c3.116,0,5.64,2.524,5.64,5.64
		c0,3.116-2.524,5.64-5.64,5.64h-6.179v22.674h6.179c3.116,0,5.64,2.524,5.64,5.64c0,3.116-2.524,5.64-5.64,5.64h-6.179v22.675
		h6.179c3.116,0,5.64,2.524,5.64,5.64c0,3.116-2.524,5.64-5.64,5.64h-6.179v22.674h6.179c3.116,0,5.64,2.524,5.64,5.64
		c0,3.116-2.524,5.64-5.64,5.64h-6.179v15.146c13.924-0.812,27.867-4.625,41.982-11.446c7.597-3.929,17.303-15.2,20.037-23.268
		c14.053-45.286,14.053-91.209,0.001-136.494C321.727,218.771,316.102,211.149,310.112,205.846z"/>
	<path style="fill:#FFAA2A;" d="M332.088,465.33l1.134,3.804c0.889,2.985-0.81,6.126-3.795,7.016
		c-0.538,0.16-1.079,0.236-1.613,0.236c-2.43,0-4.673-1.583-5.403-4.03l-1.595-5.355c-2.653,0.684-5.375,1.623-8.064,2.88
		l2.427,5.375c1.283,2.839,0.021,6.18-2.818,7.462c-0.754,0.341-1.542,0.501-2.319,0.501c-2.149,0-4.202-1.234-5.144-3.319
		l-1.709-3.783c-2.054,1.813-3.998,3.916-5.771,6.355c3.174,7.127,7.269,12.372,12.03,15.327c5.147,3.193,10.957,3.773,17.271,1.715
		c6.316-2.054,10.673-5.941,12.953-11.551c2.388-5.876,2.364-13.616-0.034-22.537C337.727,465.281,335.12,465.182,332.088,465.33z"
		/>
	<path style="fill:#FFAA2A;" d="M333.541,218.763c0.31,0.739,0.594,1.47,0.834,2.183c0.014,0.041,0.026,0.08,0.039,0.121
		c5.351,17.228,8.753,34.546,10.226,51.887l29.444,12.147c-0.501-2.788-0.757-5.517-0.792-8.17l-5.536-2.153
		c-2.903-1.13-4.342-4.398-3.213-7.302c1.13-2.905,4.401-4.339,7.302-3.213l2.652,1.031c0.658-2.969,1.552-5.798,2.62-8.467
		l-4.02-1.565c-2.902-1.13-4.341-4.398-3.211-7.303c1.13-2.902,4.399-4.337,7.303-3.211l5.132,1.997
		c1.428-2.219,2.928-4.233,4.433-6.033L333.541,218.763z"/>
	<path style="fill:#FFAA2A;" d="M308.718,394.305c-0.038,0.02-0.078,0.039-0.118,0.06c-12.115,5.862-24.289,9.686-36.483,11.478
		l20.94,64.338c1.707-1.753,3.479-3.34,5.308-4.743l-2.79-6.176c-1.283-2.839-0.021-6.18,2.818-7.462
		c2.841-1.28,6.179-0.021,7.462,2.818l2.239,4.959c3.178-1.464,6.379-2.564,9.498-3.383l-1.399-4.695
		c-0.889-2.986,0.81-6.126,3.795-7.016c2.987-0.89,6.126,0.81,7.016,3.795l1.787,5.995c2.653-0.232,5.084-0.294,7.228-0.27
		L315.2,390.035C313.033,391.747,310.844,393.214,308.718,394.305z"/>
	<path style="fill:#FFAA2A;" d="M397.794,245.375c-1.293,1.338-2.954,3.216-4.664,5.577l2.153,0.838
		c2.902,1.13,4.341,4.398,3.211,7.303c-0.869,2.231-3,3.596-5.258,3.596c-0.681,0-1.372-0.123-2.045-0.385l-3.638-1.416
		c-1.067,2.606-1.935,5.458-2.47,8.525l4.858,1.891c2.903,1.13,4.342,4.398,3.213,7.302c-0.869,2.232-3,3.597-5.258,3.597
		c-0.681,0-1.372-0.123-2.044-0.385l-0.969-0.377c0.362,2.579,0.997,5.254,1.956,8.017c6.064,1.342,11.488,1.322,15.979-0.116
		c5.77-1.844,9.979-5.892,12.511-12.029c2.532-6.139,2.403-11.976-0.389-17.352C412.021,254.337,406.125,249.337,397.794,245.375z"
		/>
</g>
<path d="M229.729,112.141c2.203-2.202,2.203-5.773,0-7.975c-2.203-2.203-5.773-2.203-7.976,0l-8.934,8.935l7.976,7.976
	L229.729,112.141z"/>
<path d="M203.884,137.987l8.934-8.935l-7.976-7.975l-8.935,8.935c-2.203,2.202-2.203,5.773,0,7.975
	c1.102,1.102,2.545,1.653,3.989,1.653S202.783,139.089,203.884,137.987z"/>
<path d="M221.753,137.987c1.102,1.102,2.545,1.653,3.989,1.653c1.443,0,2.887-0.55,3.989-1.653c2.203-2.202,2.203-5.773,0-7.975
	l-8.935-8.935l-7.976-7.976l-8.934-8.935c-2.202-2.202-5.772-2.203-7.976,0c-2.203,2.202-2.203,5.773,0,7.975l8.935,8.936
	l7.976,7.975L221.753,137.987z"/>
<path d="M299.184,155.867c19.183,0,34.79-15.606,34.79-34.789c0-19.184-15.607-34.791-34.79-34.791
	c-19.183,0-34.79,15.607-34.79,34.791C264.395,140.261,280.002,155.867,299.184,155.867z M299.184,97.567
	c12.963,0,23.51,10.547,23.51,23.511c0,12.962-10.547,23.509-23.51,23.509c-12.963,0-23.51-10.547-23.51-23.509
	C275.675,108.114,286.221,97.567,299.184,97.567z"/>
<path d="M285.251,135.01c1.101,1.102,2.545,1.653,3.987,1.653c1.443,0,2.888-0.55,3.987-1.653l5.958-5.958l5.958,5.958
	c1.1,1.102,2.545,1.653,3.987,1.653c1.443,0,2.888-0.55,3.987-1.653c2.203-2.202,2.203-5.773,0-7.975l-5.958-5.958l5.958-5.958
	c2.203-2.202,2.203-5.773,0-7.975c-2.201-2.203-5.774-2.203-7.975,0l-5.958,5.958l-5.958-5.958c-2.201-2.203-5.774-2.203-7.975,0
	c-2.203,2.202-2.203,5.773,0,7.975l5.958,5.958l-5.958,5.958C283.048,129.237,283.048,132.808,285.251,135.01z"/>
<path d="M310.433,176.989c2.007-1.998,2.259-5.211,0.457-7.482c-1.649-2.078-4.457-2.662-6.761-1.605l-3.039-4.381
	c-1.777-2.559-5.288-3.194-7.85-1.419c-2.558,1.775-3.194,5.29-1.419,7.85l2.638,3.801c-3.032,1.433-6.39,2.684-9.988,3.742
	l-1.791-5.306c-0.996-2.953-4.202-4.536-7.147-3.541c-2.952,0.996-4.536,4.196-3.541,7.147l1.421,4.209
	c-3.797,0.622-7.746,1.032-11.772,1.239v-5.938c0-3.116-2.524-5.64-5.64-5.64c-3.114,0-5.64,2.524-5.64,5.64v5.938
	c-4.026-0.206-7.976-0.617-11.773-1.24l1.42-4.207c0.996-2.951-0.589-6.151-3.54-7.147c-2.951-0.994-6.151,0.588-7.147,3.541
	l-1.791,5.306c-3.597-1.058-6.956-2.309-9.986-3.74l2.638-3.802c1.775-2.559,1.14-6.074-1.418-7.85
	c-2.561-1.773-6.073-1.14-7.85,1.419l-3.04,4.382c-2.306-1.058-5.115-0.468-6.762,1.606c-1.803,2.271-1.55,5.483,0.457,7.482
	l-2.545,3.668c-1.775,2.559-1.14,6.074,1.418,7.85c0.981,0.68,2.101,1.006,3.21,1.006c1.786,0,3.543-0.846,4.638-2.424l2.756-3.971
	c3.893,1.98,8.215,3.683,12.87,5.081l-1.267,3.753c-0.996,2.951,0.589,6.151,3.54,7.147c0.598,0.202,1.206,0.298,1.805,0.298
	c2.353,0,4.549-1.483,5.343-3.837l1.598-4.738c4.944,0.893,10.116,1.473,15.424,1.716v3.628c0,3.116,2.526,5.64,5.64,5.64
	c3.116,0,5.64-2.524,5.64-5.64v-3.628c5.307-0.241,10.479-0.822,15.422-1.716l1.6,4.738c0.794,2.354,2.989,3.837,5.342,3.837
	c0.598,0,1.207-0.096,1.805-0.298c2.952-0.996,4.536-4.196,3.541-7.147l-1.267-3.753c4.655-1.398,8.978-3.101,12.87-5.082
	l2.756,3.972c1.096,1.578,2.853,2.424,4.639,2.424c1.108,0,2.23-0.326,3.21-1.006c2.559-1.775,3.194-5.289,1.419-7.85
	L310.433,176.989z"/>
<path d="M189.018,312.214c-2.857,10.045,2.99,20.542,13.036,23.4c1.694,0.482,3.438,0.725,5.188,0.725
	c8.417,0,15.906-5.66,18.212-13.763c1.385-4.866,0.791-9.979-1.672-14.4c-1.517-2.723-3.636-4.977-6.175-6.634l5.315-18.683
	c0.853-2.996-0.885-6.116-3.881-6.969c-2.995-0.85-6.116,0.884-6.968,3.881l-5.32,18.697
	C198.534,298.682,191.281,304.264,189.018,312.214z M199.868,315.301c0.933-3.277,3.96-5.568,7.361-5.568
	c0.706,0,1.413,0.1,2.101,0.297c1.969,0.559,3.602,1.853,4.598,3.641c0.996,1.787,1.235,3.854,0.676,5.822
	c-0.933,3.279-3.96,5.57-7.362,5.57c-0.705,0-1.412-0.1-2.101-0.297C201.078,323.609,198.712,319.363,199.868,315.301z"/>
<path d="M398.801,233.483l-76.661-31.625c-0.81-0.872-1.638-1.718-2.482-2.536c22.553-17.382,36.985-43.77,36.985-73.283
	c0-16.769-4.661-32.53-12.817-46.207l7.172-5.661c3.11,2.135,6.803,3.324,10.696,3.324c4.233,0,8.396-1.446,11.726-4.073
	c8.196-6.471,9.602-18.404,3.132-26.602c-3.614-4.581-9.036-7.208-14.876-7.208c-4.234,0-8.399,1.447-11.728,4.074
	c-3.972,3.132-6.484,7.626-7.075,12.651c-0.364,3.095,0.033,6.163,1.12,8.992l-6.531,5.155
	c-18.309-23.713-48.001-39.163-81.46-39.163c-14.947,0-29.142,3.086-41.907,8.612l-4.054-7.653c2.136-2.149,3.738-4.795,4.654-7.775
	c1.487-4.836,1.002-9.96-1.367-14.43C210.035,3.861,203.618,0,196.58,0c-3.068,0-6.13,0.764-8.855,2.205
	c-9.228,4.888-12.76,16.373-7.871,25.604c3.293,6.215,9.71,10.075,16.747,10.075c1.164,0,2.326-0.111,3.47-0.325l3.928,7.415
	c-29.132,16.613-48.64,46.735-48.64,81.065c0,29.513,14.432,55.9,36.987,73.283c-0.845,0.818-1.673,1.666-2.484,2.536
	l-76.661,31.625c-12.754,5.262-21.553,12.422-26.15,21.279c-4.332,8.344-4.609,17.628-0.804,26.85
	c3.804,9.223,10.547,15.61,19.501,18.473c3.473,1.11,7.182,1.665,11.114,1.665c6.832,0,14.337-1.673,22.431-5.013l27.344-11.28
	c-0.823,26.361,2.821,52.745,10.953,78.925c0.012,0.039,0.025,0.08,0.038,0.121c1.801,5.37,5.572,11.406,10.159,16.78
	l-25.135,77.223c-4.271,13.12-4.53,24.46-0.773,33.705c3.541,8.71,10.426,14.945,19.911,18.031c3.612,1.175,7.186,1.76,10.67,1.76
	c5.666,0,11.092-1.548,16.039-4.618c8.48-5.262,14.945-14.582,19.213-27.7l23.682-72.76c1.535,0.065,3.07,0.109,4.606,0.109
	c1.535,0,3.069-0.044,4.605-0.108l23.681,72.758c4.269,13.12,10.735,22.439,19.214,27.701c4.947,3.07,10.372,4.618,16.04,4.618
	c3.483,0,7.058-0.584,10.669-1.76c9.486-3.086,16.373-9.322,19.911-18.031c3.757-9.245,3.497-20.585-0.773-33.705l-25.134-77.224
	c4.586-5.374,8.358-11.409,10.159-16.779c0.014-0.039,0.026-0.08,0.039-0.121c8.132-26.18,11.775-52.564,10.953-78.925l27.343,11.28
	c8.096,3.34,15.598,5.013,22.431,5.013c3.931,0,7.641-0.554,11.114-1.665c8.955-2.863,15.698-9.251,19.502-18.472
	c3.805-9.223,3.527-18.507-0.804-26.851C420.355,245.905,411.556,238.746,398.801,233.483z M354.076,57.659
	c0.239-2.032,1.254-3.848,2.861-5.115c1.367-1.078,3.006-1.649,4.74-1.649c2.364,0,4.558,1.063,6.021,2.916
	c2.616,3.314,2.047,8.143-1.268,10.76c-1.365,1.077-3.003,1.647-4.735,1.647c-2.365,0-4.56-1.063-6.023-2.918
	C354.403,61.694,353.837,59.69,354.076,57.659z M203.913,21.193c-0.601,1.956-1.929,3.56-3.737,4.519
	c-1.12,0.592-2.323,0.893-3.575,0.893c-2.849,0-5.448-1.562-6.779-4.074c-1.977-3.735-0.549-8.38,3.183-10.357
	c1.12-0.592,2.323-0.893,3.575-0.893c2.85,0,5.449,1.563,6.782,4.078C204.318,17.165,204.515,19.238,203.913,21.193z
	 M125.167,289.456c-6.066,1.343-11.49,1.323-15.984-0.116c-5.769-1.844-9.977-5.892-12.51-12.03
	c-2.532-6.137-2.402-11.975,0.388-17.352c2.917-5.617,8.807-10.614,17.128-14.575c1.278,1.337,2.925,3.218,4.629,5.589l-2.1,0.818
	c-2.902,1.13-4.341,4.398-3.211,7.302c0.869,2.232,2.999,3.596,5.258,3.596c0.68,0,1.372-0.123,2.044-0.385l3.559-1.384
	c1.07,2.607,1.946,5.456,2.491,8.519l-4.796,1.866c-2.902,1.13-4.341,4.398-3.211,7.302c0.869,2.232,2.999,3.597,5.258,3.597
	c0.68,0,1.372-0.123,2.044-0.385l0.949-0.369C126.746,284.028,126.126,286.699,125.167,289.456z M177.628,220.949
	c-0.014,0.038-0.026,0.078-0.038,0.118c-5.351,17.229-8.753,34.546-10.226,51.887l-29.451,12.15c0.5-2.79,0.759-5.519,0.795-8.172
	l5.538-2.154c2.902-1.13,4.341-4.398,3.211-7.302c-1.13-2.903-4.397-4.342-7.302-3.213l-2.647,1.03
	c-0.656-2.97-1.554-5.798-2.621-8.467l4.018-1.563c2.902-1.13,4.341-4.398,3.211-7.302c-1.129-2.905-4.399-4.341-7.302-3.213
	l-5.139,1.999c-1.424-2.214-2.92-4.237-4.423-6.035l53.209-21.951C178.151,219.504,177.867,220.235,177.628,220.949z
	 M202.553,497.798c-5.146,3.193-10.957,3.77-17.271,1.715c-6.313-2.054-10.672-5.941-12.952-11.552
	c-2.388-5.875-2.364-13.615,0.033-22.536c1.912-0.146,4.519-0.244,7.552-0.095l-1.134,3.804c-0.89,2.985,0.81,6.126,3.795,7.016
	c0.537,0.16,1.079,0.236,1.613,0.236c2.43,0,4.673-1.583,5.403-4.03l1.595-5.353c2.654,0.685,5.375,1.624,8.064,2.88l-2.427,5.374
	c-1.283,2.839-0.02,6.18,2.818,7.462c0.754,0.341,1.542,0.501,2.319,0.501c2.149,0,4.202-1.234,5.144-3.319l1.709-3.783
	c2.054,1.813,3.998,3.916,5.771,6.355C211.41,489.598,207.316,494.843,202.553,497.798z M218.944,470.185
	c-1.706-1.754-3.476-3.345-5.306-4.748l2.791-6.177c1.283-2.839,0.021-6.18-2.818-7.462c-2.839-1.281-6.18-0.021-7.462,2.818
	l-2.24,4.96c-3.179-1.464-6.38-2.564-9.499-3.383l1.399-4.696c0.89-2.986-0.81-6.126-3.795-7.016
	c-2.985-0.89-6.126,0.81-7.016,3.795l-1.787,5.996c-2.654-0.232-5.084-0.293-7.23-0.27l20.822-63.969
	c2.169,1.713,4.359,3.18,6.485,4.271c0.038,0.019,0.078,0.038,0.117,0.059c12.115,5.862,24.289,9.686,36.482,11.479L218.944,470.185
	z M250.363,233.446h-6.183c-3.114,0-5.64,2.524-5.64,5.64s2.526,5.64,5.64,5.64h6.183V267.4h-6.183c-3.114,0-5.64,2.524-5.64,5.64
	c0,3.116,2.526,5.64,5.64,5.64h6.183v22.674h-6.183c-3.114,0-5.64,2.524-5.64,5.64c0,3.116,2.526,5.64,5.64,5.64h6.183v22.675
	h-6.183c-3.114,0-5.64,2.524-5.64,5.64c0,3.116,2.526,5.64,5.64,5.64h6.183v22.674h-6.183c-3.114,0-5.64,2.524-5.64,5.64
	c0,3.116,2.526,5.64,5.64,5.64h6.183v15.146c-13.924-0.812-27.867-4.625-41.983-11.446c-7.598-3.927-17.304-15.198-20.038-23.268
	c-14.053-45.286-14.053-91.211,0-136.495c1.93-5.705,7.555-13.327,13.55-18.632c14.152,8.528,30.699,13.832,48.471,14.76V233.446z
	 M256.003,209.477c-49.276,0-89.365-37.43-89.365-83.437c0-30.027,17.082-56.392,42.645-71.09l7.644,14.429
	c1.012,1.911,2.967,3,4.989,3c0.89,0,1.794-0.212,2.636-0.658c2.752-1.457,3.801-4.871,2.344-7.624l-7.494-14.145
	c11.18-4.707,23.563-7.35,36.601-7.35c49.274,0,89.361,37.43,89.361,83.437C345.363,172.048,305.277,209.477,256.003,209.477z
	 M339.674,487.962c-2.28,5.611-6.638,9.497-12.953,11.551c-6.313,2.057-12.124,1.479-17.271-1.715
	c-4.761-2.955-8.856-8.201-12.03-15.327c1.773-2.439,3.717-4.541,5.771-6.355l1.709,3.783c0.942,2.086,2.994,3.319,5.144,3.319
	c0.777,0,1.566-0.161,2.319-0.501c2.839-1.283,4.1-4.624,2.818-7.462l-2.427-5.375c2.69-1.255,5.411-2.195,8.064-2.88l1.595,5.355
	c0.729,2.448,2.973,4.03,5.403,4.03c0.534,0,1.075-0.076,1.613-0.236c2.985-0.89,4.683-4.03,3.795-7.016l-1.134-3.804
	c3.032-0.149,5.639-0.051,7.551,0.095C342.037,474.346,342.062,482.087,339.674,487.962z M336.021,454.002
	c-2.144-0.025-4.576,0.037-7.228,0.27l-1.787-5.995c-0.89-2.985-4.028-4.685-7.016-3.795c-2.986,0.89-4.683,4.03-3.795,7.016
	l1.399,4.695c-3.119,0.819-6.319,1.919-9.498,3.383l-2.239-4.959c-1.283-2.839-4.621-4.098-7.462-2.818
	c-2.839,1.283-4.1,4.624-2.818,7.462l2.79,6.176c-1.83,1.403-3.602,2.99-5.308,4.743l-20.94-64.338
	c12.194-1.792,24.368-5.615,36.483-11.479c0.039-0.02,0.079-0.038,0.118-0.06c2.126-1.091,4.315-2.557,6.484-4.269L336.021,454.002z
	 M323.661,360.972c-2.733,8.069-12.438,19.34-20.037,23.268c-14.115,6.822-28.058,10.635-41.982,11.446v-15.146h6.179
	c3.116,0,5.64-2.524,5.64-5.64s-2.524-5.64-5.64-5.64h-6.179v-22.674h6.179c3.116,0,5.64-2.524,5.64-5.64
	c0-3.116-2.524-5.64-5.64-5.64h-6.179v-22.675h6.179c3.116,0,5.64-2.524,5.64-5.64c0-3.116-2.524-5.64-5.64-5.64h-6.179v-22.674
	h6.179c3.116,0,5.64-2.524,5.64-5.64c0-3.116-2.524-5.64-5.64-5.64h-6.179v-22.674h6.179c3.116,0,5.64-2.524,5.64-5.64
	s-2.524-5.64-5.64-5.64h-6.179v-12.841c17.773-0.928,34.318-6.232,48.469-14.759c5.991,5.302,11.616,12.925,13.551,18.632
	C337.713,269.762,337.713,315.686,323.661,360.972z M377.189,244.751c-2.903-1.126-6.172,0.308-7.303,3.211
	c-1.129,2.903,0.308,6.172,3.211,7.303l4.02,1.565c-1.068,2.669-1.963,5.498-2.62,8.467l-2.652-1.031
	c-2.899-1.127-6.171,0.308-7.302,3.213c-1.129,2.902,0.308,6.171,3.213,7.302l5.536,2.153c0.035,2.653,0.291,5.382,0.792,8.17
	l-29.444-12.147c-1.474-17.341-4.875-34.659-10.226-51.887c-0.014-0.041-0.026-0.08-0.039-0.121
	c-0.239-0.713-0.523-1.443-0.834-2.183l53.213,21.952c-1.505,1.799-3.005,3.814-4.433,6.033L377.189,244.751z M415.33,277.312
	c-2.531,6.137-6.741,10.185-12.511,12.029c-4.492,1.438-9.915,1.46-15.979,0.116c-0.96-2.762-1.594-5.438-1.956-8.017l0.969,0.377
	c0.672,0.261,1.363,0.385,2.044,0.385c2.257,0,4.39-1.365,5.258-3.597c1.129-2.902-0.308-6.171-3.213-7.302l-4.858-1.891
	c0.537-3.067,1.403-5.92,2.47-8.525l3.638,1.416c0.673,0.261,1.364,0.385,2.045,0.385c2.257,0,4.39-1.365,5.258-3.596
	c1.129-2.903-0.308-6.172-3.211-7.303l-2.153-0.838c1.71-2.362,3.372-4.24,4.664-5.577c8.331,3.963,14.227,8.961,17.147,14.585
	C417.733,265.336,417.862,271.172,415.33,277.312z"/>
<g>
</g>
<g>
</g>
<g>
</g>
<g>
</g>
<g>
</g>
<g>
</g>
<g>
</g>
<g>
</g>
<g>
</g>
<g>
</g>
<g>
</g>
<g>
</g>
<g>
</g>
<g>
</g>
<g>
</g>
</svg>
