<?xml version="1.0" encoding="iso-8859-1"?>
<!-- Generator: Adobe Illustrator 19.0.0, SVG Export Plug-In . SVG Version: 6.00 Build 0)  -->
<svg version="1.1" id="Layer_1" xmlns="http://www.w3.org/2000/svg" xmlns:xlink="http://www.w3.org/1999/xlink" x="0px" y="0px"
	 viewBox="0 0 512 512" style="enable-background:new 0 0 512 512;" xml:space="preserve">
<path style="fill:#81AF31;" d="M246.097,186.274c2.229-4.912,3.413-10.283,3.416-15.73c0-20.974-17.066-38.04-38.042-38.04
	c-20.977,0-38.045,17.066-38.045,38.042c0,5.441,1.184,10.813,3.414,15.728H246.097z"/>
<path style="fill:#754C24;" d="M425.81,51.341c0.033-0.077,0.069-0.154,0.106-0.231c2.143-4.407,0.302-9.737-4.105-11.881
	c-2.135-1.037-4.545-1.183-6.79-0.408c-2.211,0.764-3.998,2.332-5.043,4.421l-62.477,143.032h19.858L425.81,51.341z"/>
<path style="fill:#81AF31;" d="M277.665,108.957c12.506,0,22.68-10.175,22.68-22.681c0-12.505-10.174-22.679-22.68-22.679
	c-12.505,0-22.678,10.174-22.678,22.679C254.987,98.783,265.16,108.957,277.665,108.957z"/>
<path style="fill:#333333;" d="M414.285,223.32c7.036,0,12.76-5.723,12.76-12.758c0-7.036-5.724-12.761-12.76-12.761H97.714
	c-7.037,0-12.762,5.724-12.762,12.761c0,7.035,5.724,12.758,12.762,12.758H414.285z"/>
<path style="fill:#81AF31;" d="M225.211,34.131c6.232,0,11.301-5.071,11.301-11.304c0-6.232-5.07-11.3-11.301-11.3
	c-6.229,0-11.298,5.069-11.298,11.3C213.913,29.06,218.981,34.131,225.211,34.131z"/>
<path style="fill:#808080;" d="M406.778,234.847H105.225c-34.141,29.314-52.911,67.145-52.911,106.748
	c0,87.605,91.373,158.877,203.685,158.877c112.314,0,203.686-71.272,203.686-158.877
	C459.684,301.993,440.915,264.161,406.778,234.847z M107.166,287.483c-11.795,17.173-17.775,35.476-17.775,54.402
	c0,13.26,2.984,26.357,8.871,38.929c1.35,2.882,0.107,6.313-2.776,7.663c-0.79,0.37-1.622,0.545-2.44,0.545
	c-2.167,0-4.244-1.228-5.224-3.321c-6.609-14.113-9.96-28.855-9.96-43.816c0-21.299,6.662-41.797,19.8-60.927
	c1.802-2.624,5.392-3.29,8.014-1.488C108.302,281.271,108.968,284.86,107.166,287.483z"/>
<g>
	<path style="fill:#333333;" d="M389.908,475.048c-5.726,3.614-11.651,6.977-17.755,10.085l12.128,12.127
		c1.859,1.859,4.332,2.884,6.961,2.884c2.628,0,5.1-1.024,6.958-2.883c1.859-1.859,2.883-4.331,2.883-6.96
		c0-2.629-1.024-5.101-2.883-6.961L389.908,475.048z"/>
	<path style="fill:#333333;" d="M113.797,483.341c-3.837,3.837-3.837,10.083,0,13.92c3.837,3.836,10.083,3.837,13.92-0.001
		l12.127-12.127c-6.105-3.108-12.03-6.473-17.754-10.086L113.797,483.341z"/>
</g>
<path d="M225.211,45.658c12.588,0,22.829-10.242,22.829-22.831C248.039,10.241,237.799,0,225.211,0
	c-12.585,0-22.825,10.241-22.825,22.827C202.386,35.416,212.626,45.658,225.211,45.658z M225.211,11.527
	c6.232,0,11.301,5.069,11.301,11.3c0,6.233-5.07,11.304-11.301,11.304c-6.229,0-11.298-5.071-11.298-11.304
	C213.913,16.596,218.981,11.527,225.211,11.527z"/>
<path d="M277.665,120.484c18.861,0,34.207-15.346,34.207-34.208c0-18.861-15.346-34.206-34.207-34.206
	c-18.86,0-34.205,15.345-34.205,34.206C243.46,105.139,258.804,120.484,277.665,120.484z M277.665,63.598
	c12.506,0,22.68,10.174,22.68,22.679c0,12.506-10.174,22.681-22.68,22.681c-12.505,0-22.678-10.175-22.678-22.681
	C254.987,73.772,265.16,63.598,277.665,63.598z"/>
<path d="M105.678,279.47c-2.621-1.802-6.212-1.135-8.014,1.488c-13.139,19.131-19.8,39.628-19.8,60.927
	c0,14.962,3.351,29.703,9.96,43.816c0.98,2.092,3.056,3.321,5.224,3.321c0.818,0,1.651-0.175,2.44-0.545
	c2.883-1.35,4.126-4.782,2.776-7.663c-5.887-12.572-8.871-25.669-8.871-38.929c0-18.924,5.98-37.228,17.775-54.402
	C108.968,284.86,108.302,281.271,105.678,279.47z"/>
<path d="M422.354,233.441c9.432-3.337,16.218-12.319,16.218-22.879c0-13.392-10.894-24.288-24.287-24.288h-34.363L436.34,56.029
	c4.83-10.098,0.594-22.26-9.488-27.166c-4.901-2.385-10.444-2.718-15.595-0.937c-5.155,1.781-9.306,5.463-11.691,10.366
	c-0.035,0.071-0.068,0.142-0.099,0.214L334.92,186.273h-76.48c1.693-5.045,2.598-10.356,2.601-15.728
	c0-27.332-22.237-49.57-49.57-49.57c-27.333,0-49.572,22.237-49.572,49.57c0,5.365,0.889,10.68,2.582,15.728H97.715
	c-13.394,0-24.289,10.896-24.289,24.288c0,10.561,6.788,19.543,16.222,22.88c-31.607,30.424-48.861,68.395-48.861,108.155
	c0,45.783,22.568,88.737,63.548,120.95c2.607,2.05,5.273,4.038,7.987,5.969l-6.675,6.675c-8.331,8.333-8.331,21.89,0.001,30.222
	c4.167,4.165,9.639,6.248,15.111,6.248s10.946-2.083,15.111-6.249l15.014-15.014C182.639,504.495,218.598,512,255.999,512
	s73.362-7.504,105.116-21.603l15.017,15.014c4.037,4.037,9.403,6.259,15.111,6.26c5.708,0,11.074-2.224,15.109-6.259
	c4.037-4.036,6.259-9.403,6.259-15.111c0-5.708-2.222-11.074-6.259-15.111l-6.675-6.674c2.715-1.931,5.379-3.919,7.987-5.969
	c40.981-32.213,63.549-75.167,63.549-120.95C471.211,301.836,453.957,263.864,422.354,233.441z M409.978,43.243
	c1.046-2.089,2.832-3.656,5.043-4.421c2.243-0.776,4.655-0.631,6.79,0.408c4.407,2.144,6.249,7.474,4.105,11.881
	c-0.037,0.076-0.073,0.152-0.106,0.231l-58.45,134.932h-19.858L409.978,43.243z M211.471,132.504
	c20.976,0,38.042,17.066,38.042,38.04c-0.002,5.447-1.186,10.818-3.416,15.73H176.84c-2.231-4.915-3.414-10.287-3.414-15.728
	C173.426,149.57,190.493,132.504,211.471,132.504z M84.952,210.562c0-7.036,5.724-12.761,12.762-12.761h316.571
	c7.036,0,12.76,5.724,12.76,12.761c0,7.035-5.724,12.758-12.76,12.758H97.714C90.676,223.32,84.952,217.597,84.952,210.562z
	 M127.717,497.26c-3.839,3.839-10.084,3.837-13.92,0.001c-3.837-3.837-3.837-10.083,0-13.92l8.293-8.293
	c5.726,3.614,11.649,6.979,17.754,10.086L127.717,497.26z M401.083,490.301c0,2.629-1.024,5.101-2.883,6.96
	c-1.858,1.859-4.33,2.883-6.958,2.883c-2.629,0-5.102-1.025-6.961-2.884l-12.128-12.127c6.106-3.108,12.03-6.473,17.755-10.085
	l8.292,8.293C400.059,485.2,401.083,487.673,401.083,490.301z M255.998,500.473c-112.313,0-203.685-71.272-203.685-158.877
	c0-39.602,18.77-77.434,52.911-106.748h301.553c34.137,29.314,52.906,67.144,52.906,106.748
	C459.684,429.201,368.311,500.473,255.998,500.473z"/>
<g>
</g>
<g>
</g>
<g>
</g>
<g>
</g>
<g>
</g>
<g>
</g>
<g>
</g>
<g>
</g>
<g>
</g>
<g>
</g>
<g>
</g>
<g>
</g>
<g>
</g>
<g>
</g>
<g>
</g>
</svg>
