<?xml version="1.0" encoding="iso-8859-1"?>
<!-- Generator: Adobe Illustrator 19.0.0, SVG Export Plug-In . SVG Version: 6.00 Build 0)  -->
<svg version="1.1" id="Layer_1" xmlns="http://www.w3.org/2000/svg" xmlns:xlink="http://www.w3.org/1999/xlink" x="0px" y="0px"
	 viewBox="0 0 511.999 511.999" style="enable-background:new 0 0 511.999 511.999;" xml:space="preserve">
<path style="fill:#E6E6E6;" d="M177.305,230.756c0,61.207,33.097,105.631,78.695,105.631s78.695-44.425,78.695-105.631
	c0-7.381-0.484-14.786-1.439-22.007c-0.226-1.712,0.319-3.437,1.489-4.707c16.556-17.973,25.674-40.986,25.674-64.8
	c0-54.447-46.842-98.741-104.418-98.741s-104.418,44.296-104.418,98.741c0,23.813,9.116,46.825,25.672,64.8
	c1.169,1.269,1.715,2.992,1.489,4.702C177.79,215.99,177.305,223.396,177.305,230.756z M201.509,186.088
	c0-1.537,0.63-3.038,1.712-4.121s2.584-1.7,4.108-1.7c1.537,0,3.038,0.617,4.122,1.7c1.083,1.083,1.698,2.584,1.698,4.121
	c0,1.525-0.616,3.027-1.698,4.109c-1.084,1.094-2.586,1.711-4.122,1.711c-1.525,0-3.027-0.617-4.108-1.711
	C202.139,189.115,201.509,187.613,201.509,186.088z M271.044,304.07c-2.176,0-4.071-1.192-5.07-2.959
	c-1.467-0.554-4.924-1.332-9.973-1.332c-5.049,0-8.508,0.778-9.973,1.332c-0.999,1.767-2.894,2.959-5.07,2.959
	c-3.214,0-5.821-2.607-5.821-5.821c0-9.126,14.591-10.112,20.865-10.112c6.274,0,20.865,0.985,20.865,10.112
	C276.865,301.464,274.257,304.07,271.044,304.07z M301.986,284.139c-3.214,0-5.821-2.607-5.821-5.821
	c-0.249-1.278-3.019-3.3-8.062-5.2c-4.781,7.664-17.002,12.847-32.105,12.847c-15.098,0-27.317-5.182-32.098-12.844
	c-5.047,1.905-7.818,3.935-8.069,5.225c0,3.215-2.604,5.807-5.82,5.807c-3.215,0-5.82-2.62-5.82-5.835
	c0-14.923,26.854-21.719,51.807-21.719c24.952,0,51.807,6.796,51.807,21.719C307.807,281.533,305.2,284.139,301.986,284.139z
	 M308.786,190.197c-1.083,1.083-2.586,1.711-4.121,1.711c-1.525,0-3.028-0.629-4.109-1.711c-1.083-1.083-1.711-2.573-1.711-4.109
	c0-1.537,0.629-3.038,1.711-4.121s2.586-1.7,4.109-1.7c1.536,0,3.038,0.617,4.121,1.7c1.083,1.083,1.7,2.584,1.7,4.121
	C310.485,187.613,309.867,189.115,308.786,190.197z M286.174,162.425c5.523-3.696,13.035-6.321,21.156-7.391
	s16.057-0.483,22.347,1.657c7.669,2.608,12.32,7.29,13.097,13.184c0.42,3.187-1.823,6.112-5.012,6.531
	c-3.185,0.42-6.111-1.823-6.53-5.01c-0.105-0.79-1.603-2.425-5.303-3.682c-4.565-1.552-10.789-1.966-17.079-1.137
	c-6.29,0.829-12.196,2.842-16.201,5.524c-3.247,2.173-4.27,4.139-4.165,4.929c0.42,3.187-1.821,6.112-5.008,6.533
	c-0.258,0.034-0.516,0.05-0.769,0.05c-2.877,0-5.377-2.13-5.764-5.058C276.163,172.66,279.441,166.932,286.174,162.425z
	 M286.83,211.115c0,16.999-13.831,30.829-30.831,30.829c-16.999,0-30.829-13.83-30.829-30.829c0-17,13.831-30.829,30.829-30.829
	C272.999,180.285,286.83,194.115,286.83,211.115z M174.237,176.406c-3.187-0.42-5.43-3.346-5.009-6.532
	c1.444-10.934,16.678-17.317,35.446-14.839c8.121,1.07,15.633,3.695,21.156,7.391c6.732,4.506,10.01,10.235,9.232,16.129
	c-0.386,2.928-2.887,5.058-5.764,5.058c-0.254,0-0.51-0.016-0.769-0.05c-3.186-0.421-5.428-3.346-5.008-6.533
	c0.105-0.79-0.919-2.756-4.165-4.929c-4.006-2.682-9.912-4.695-16.201-5.524c-13.88-1.828-22.09,2.605-22.383,4.822
	C180.348,174.585,177.421,176.83,174.237,176.406z"/>
<path style="fill:#808080;" d="M374.059,332.759c1.591-0.597,3.242-1.219,4.85-1.856h-56.992v11.304
	c0,18.698-28.339,32.799-65.917,32.799c-37.578,0-65.918-14.1-65.918-32.799v-11.304h-56.923c-0.026,0-0.052-0.006-0.078-0.006
	c1.611,0.639,3.264,1.263,4.86,1.861c8.988,3.37,17.477,6.554,21.141,12.622c3.577,5.924,1.76,14.736-0.164,24.064
	c-1.093,5.303-3.36,16.282-1.284,18.087c2.297,0.774,10.837-3.102,15.44-5.194c9.405-4.276,19.133-8.698,26.688-5.626
	c6.976,2.835,10.243,11.945,13.703,21.59c1.813,5.054,5.584,15.568,8.215,16.049c2.366-0.009,8.774-7.347,12.217-11.288
	c7.15-8.184,13.902-15.914,22.104-15.914c8.201,0,14.955,7.73,22.104,15.914c3.442,3.941,9.851,11.278,12.262,11.282
	c2.586-0.475,6.357-10.99,8.17-16.043c3.461-9.645,6.728-18.755,13.704-21.59c7.552-3.07,17.281,1.352,26.687,5.626
	c4.603,2.092,13.141,5.969,15.44,5.194c2.076-1.803-0.19-12.785-1.284-18.087c-1.923-9.328-3.742-18.138-0.164-24.063
	C356.582,339.315,365.071,336.131,374.059,332.759z"/>
<g>
	<path style="fill:#C43333;" d="M190.082,319.262v-6.141c-15.75-21.193-24.418-50.301-24.418-82.365
		c0-6.962,0.405-13.964,1.205-20.853c-17.384-19.821-26.929-44.807-26.929-70.66c0-60.866,52.065-110.383,116.059-110.383
		s116.06,49.517,116.06,110.382c0,25.854-9.544,50.84-26.93,70.66c0.802,6.872,1.206,13.874,1.206,20.853
		c0,32.064-8.667,61.172-24.419,82.364v6.142h57.397c46.687-14.76,70.361-46.261,70.361-93.64c0-22.825-12.161-42.645-23.921-61.812
		c-9.978-16.264-19.404-31.627-19.404-46.982c0-59.814-64.296-104.952-149.669-105.192c-85.374,0.24-149.669,45.378-149.669,105.192
		c0,15.355-9.426,30.718-19.404,46.982c-11.76,19.168-23.921,38.987-23.921,61.812c0,47.378,23.674,78.88,70.362,93.64h56.034
		V319.262z"/>
	<path style="fill:#C43333;" d="M236.773,269.777c3.744,2.368,10.41,4.548,19.226,4.548c8.817,0,15.484-2.18,19.229-4.548
		c-5.439-0.93-11.867-1.535-19.228-1.535C248.642,268.24,242.212,268.846,236.773,269.777z"/>
	<path style="fill:#C43333;" d="M255.999,230.302c10.582,0,19.19-8.608,19.19-19.187s-8.609-19.187-19.19-19.187
		c-10.58,0-19.187,8.608-19.187,19.187C236.81,221.695,245.419,230.302,255.999,230.302z"/>
</g>
<path style="fill:#FFAA2A;" d="M429.599,410.068c-0.416,13.783-0.887,29.405-11.672,37.555c-9.048,6.838-22.377,4.224-35.269,1.694
	c-9.981-1.958-20.305-3.985-26.875-1.313c-5.494,2.232-10.839,10.417-16.012,18.331c-7.476,11.446-15.21,23.281-27.427,25.513
	c-1.218,0.222-2.434,0.327-3.646,0.327c-9.843,0-19.522-6.882-28.915-13.562c-8.297-5.899-16.875-12-23.785-12
	c-6.909,0-15.488,6.1-23.785,12c-9.393,6.68-19.072,13.562-28.914,13.562c-1.213,0-2.43-0.105-3.647-0.327
	c-12.218-2.233-19.951-14.067-27.426-25.513c-5.171-7.914-10.518-16.099-16.012-18.331c-6.572-2.673-16.894-0.646-26.875,1.313
	c-12.889,2.53-26.219,5.144-35.27-1.694c-10.785-8.15-11.256-23.772-11.671-37.555c-0.246-8.104-0.501-16.457-2.846-21.436
	c-20.771,28.134-19.725,58.74-19.712,59.067c0.003,0.085,0.006,52.66,0.006,52.66h44.539l-17.067-32.901
	c-1.48-2.853-0.366-6.367,2.488-7.848c2.853-1.48,6.367-0.368,7.846,2.487l19.849,38.262h276.997l19.849-38.262
	c1.481-2.854,4.995-3.967,7.846-2.487c2.853,1.481,3.967,4.994,2.488,7.848l-17.068,32.901h44.539c0,0,0.002-52.576,0.006-52.661
	c0.013-0.315,0.96-30.47-19.962-58.496C430.084,394.234,429.836,402.265,429.599,410.068z"/>
<path style="fill:#808080;" d="M88.943,381.521c4.467,7.395,4.771,17.498,5.093,28.197c0.354,11.715,0.718,23.83,7.055,28.617
	c4.895,3.7,15.629,1.595,26.009-0.442c11.659-2.288,23.712-4.653,33.501-0.674c8.865,3.602,15.223,13.335,21.372,22.747
	c6.133,9.388,12.475,19.094,19.774,20.428c6.264,1.147,15.139-5.168,23.722-11.27c9.786-6.958,19.904-14.154,30.531-14.154
	s20.744,7.196,30.531,14.154c8.583,6.104,17.468,12.413,23.723,11.27c7.299-1.334,13.641-11.041,19.773-20.428
	c6.149-9.412,12.508-19.145,21.372-22.748c9.786-3.978,21.842-1.613,33.501,0.675c10.379,2.037,21.113,4.143,26.009,0.442
	c6.335-4.787,6.701-16.902,7.055-28.617c0.322-10.698,0.626-20.802,5.094-28.197c3.542-5.867,9.522-10.629,15.93-15.05
	c-4.434-4.331-9.26-8.407-14.469-12.221c-2.137,1.228-4.336,2.419-6.494,3.582c-7.164,3.858-14.574,7.847-17.107,12.043
	c-2.166,3.588-1.626,12.07-1.149,19.553c0.797,12.515,1.702,26.698-7.747,33.839c-8.033,6.071-19.943,2.548-31.461-0.858
	c-8.313-2.459-17.735-5.246-22.701-3.227c-4.029,1.638-8.263,9.686-11.998,16.786c-5.833,11.09-11.865,22.556-22.639,24.525
	c-0.948,0.173-1.893,0.255-2.83,0.255c-8.81,0-17.185-7.237-25.31-14.261c-6.531-5.645-13.935-12.043-19.084-12.043
	c-5.149,0-12.552,6.398-19.084,12.043c-8.125,7.022-16.499,14.261-25.31,14.261c-0.938,0-1.88-0.083-2.83-0.256
	c-10.774-1.967-16.807-13.435-22.639-24.525c-3.735-7.1-7.969-15.148-11.998-16.786c-4.969-2.021-14.389,0.768-22.701,3.227
	c-11.519,3.406-23.428,6.927-31.461,0.858c-9.449-7.142-8.545-21.326-7.747-33.839c0.476-7.483,1.017-15.965-1.149-19.553
	c-2.534-4.196-9.943-8.185-17.107-12.043c-2.155-1.161-4.348-2.35-6.48-3.575c-5.21,3.816-10.048,7.884-14.484,12.216
	C79.42,370.892,85.4,375.652,88.943,381.521z"/>
<path style="fill:#412559;" d="M121.047,363.856c4.051,6.709,3.445,16.23,2.801,26.312c-0.61,9.584-1.303,20.447,3.149,23.811
	c3.347,2.531,13.214-0.39,21.141-2.733c10.64-3.146,21.643-6.4,30.385-2.848c7.971,3.24,12.802,12.426,17.918,22.151
	c4.325,8.223,9.227,17.542,14.427,18.492c4.364,0.79,12.168-5.944,18.435-11.361c8.462-7.314,17.213-14.877,26.696-14.877
	c9.482,0,18.234,7.563,26.696,14.877c6.267,5.417,14.061,12.155,18.435,11.361c5.201-0.95,10.104-10.27,14.428-18.492
	c5.116-9.725,9.948-18.911,17.917-22.15c8.743-3.554,19.746-0.3,30.386,2.848c7.927,2.345,17.794,5.263,21.141,2.733
	c4.452-3.364,3.76-14.227,3.149-23.811c-0.644-10.08-1.25-19.602,2.801-26.312c4.179-6.92,13.013-11.675,21.555-16.275
	c0.373-0.201,0.737-0.398,1.105-0.597c-6.233-3.778-12.901-7.244-20.012-10.381c-4.17,2.808-9.679,4.891-15.454,7.057
	c-5.778,2.166-13.69,5.134-15.263,7.74c-1.221,2.02,0.546,10.579,1.601,15.694c2.403,11.648,4.887,23.694-3.159,29.775
	c-6.974,5.269-16.806,0.8-27.216-3.932c-5.802-2.638-14.57-6.623-17.487-5.44c-2.185,0.951-5.403,9.92-7.13,14.737
	c-3.858,10.759-7.85,21.884-17.081,23.569c-0.719,0.132-1.43,0.194-2.128,0.194c-7.604,0-14.1-7.439-20.946-15.276
	c-3.9-4.462-10.423-11.931-13.336-11.931s-9.437,7.469-13.336,11.931c-6.845,7.836-13.343,15.275-20.948,15.275
	c-0.7,0-1.409-0.063-2.128-0.194c-9.23-1.686-13.221-12.81-17.08-23.569c-1.728-4.817-4.945-13.785-7.132-14.737
	c-2.919-1.186-11.683,2.802-17.485,5.44c-10.41,4.732-20.244,9.203-27.215,3.934c-8.048-6.081-5.562-18.127-3.161-29.775
	c1.055-5.114,2.822-13.673,1.601-15.694c-1.573-2.605-9.485-5.574-15.263-7.739c-5.771-2.164-11.255-4.256-15.418-7.063
	c-7.119,3.14-13.803,6.605-20.041,10.39c0.366,0.198,0.728,0.393,1.098,0.594C108.034,352.18,116.868,356.936,121.047,363.856z"/>
<path style="fill:#E6E6E6;" d="M201.723,326.202v16.006c0,9.987,23.212,21.157,54.277,21.157s54.276-11.17,54.276-21.157v-16.007
	c-15.258,14.169-34.097,21.828-54.276,21.828S216.98,340.371,201.723,326.202z"/>
<path d="M225.169,211.115c0,16.999,13.831,30.829,30.829,30.829c17.001,0,30.831-13.83,30.831-30.829
	c0-17-13.831-30.829-30.831-30.829C239,180.285,225.169,194.115,225.169,211.115z M255.999,191.926
	c10.582,0,19.19,8.608,19.19,19.187s-8.609,19.187-19.19,19.187c-10.58,0-19.187-8.608-19.187-19.187
	C236.81,200.534,245.419,191.926,255.999,191.926z"/>
<path d="M211.452,190.197c1.083-1.083,1.698-2.584,1.698-4.109c0-1.537-0.616-3.038-1.698-4.121c-1.084-1.083-2.586-1.7-4.122-1.7
	c-1.525,0-3.027,0.617-4.108,1.7c-1.083,1.083-1.712,2.584-1.712,4.121c0,1.525,0.63,3.027,1.712,4.109
	c1.083,1.094,2.584,1.711,4.108,1.711C208.868,191.909,210.369,191.292,211.452,190.197z"/>
<path d="M180.769,171.397c0.293-2.217,8.504-6.65,22.383-4.822c6.29,0.829,12.196,2.842,16.201,5.524
	c3.247,2.173,4.27,4.139,4.165,4.929c-0.42,3.187,1.821,6.112,5.008,6.533c0.26,0.034,0.516,0.05,0.77,0.05
	c2.877,0,5.377-2.13,5.764-5.058c0.779-5.895-2.498-11.623-9.232-16.129c-5.523-3.696-13.035-6.321-21.156-7.391
	c-18.768-2.476-34.002,3.906-35.446,14.839c-0.42,3.186,1.821,6.112,5.009,6.532C177.421,176.83,180.348,174.585,180.769,171.397z"
	/>
<path d="M304.665,180.267c-1.525,0-3.028,0.617-4.109,1.7c-1.083,1.083-1.711,2.584-1.711,4.121s0.629,3.027,1.711,4.109
	s2.586,1.711,4.109,1.711c1.535,0,3.038-0.629,4.121-1.711c1.083-1.083,1.7-2.584,1.7-4.109c0-1.537-0.617-3.038-1.7-4.121
	C307.703,180.884,306.2,180.267,304.665,180.267z"/>
<path d="M282.706,183.613c0.254,0,0.511-0.016,0.77-0.05c3.186-0.421,5.428-3.346,5.008-6.533c-0.105-0.79,0.919-2.756,4.165-4.929
	c4.006-2.682,9.911-4.695,16.201-5.524c6.29-0.829,12.515-0.413,17.079,1.137c3.7,1.258,5.198,2.892,5.303,3.682
	c0.419,3.187,3.345,5.431,6.53,5.01c3.187-0.419,5.432-3.343,5.012-6.531c-0.776-5.894-5.427-10.576-13.097-13.184
	c-6.29-2.14-14.227-2.728-22.347-1.657c-8.121,1.07-15.633,3.695-21.156,7.391c-6.732,4.506-10.01,10.235-9.232,16.129
	C277.328,181.483,279.83,183.613,282.706,183.613z"/>
<path d="M256,256.599c-24.952,0-51.807,6.796-51.807,21.719c0,3.214,2.604,5.835,5.82,5.835c3.215,0,5.82-2.591,5.82-5.807
	c0.25-1.29,3.022-3.321,8.069-5.225c4.781,7.662,17.001,12.844,32.098,12.844c15.102,0,27.325-5.184,32.105-12.847
	c5.043,1.899,7.813,3.922,8.062,5.2c0,3.214,2.607,5.821,5.821,5.821s5.821-2.607,5.821-5.821
	C307.807,263.395,280.951,256.599,256,256.599z M255.999,274.324c-8.815,0-15.482-2.179-19.226-4.548
	c5.439-0.93,11.867-1.537,19.227-1.537c7.36,0,13.789,0.605,19.228,1.535C271.483,272.145,264.816,274.324,255.999,274.324z"/>
<path d="M256,288.139c-6.274,0-20.865,0.985-20.865,10.112c0,3.214,2.607,5.821,5.821,5.821c2.176,0,4.071-1.192,5.07-2.959
	c1.467-0.554,4.924-1.332,9.973-1.332c5.049,0,8.508,0.778,9.973,1.332c0.999,1.767,2.894,2.959,5.07,2.959
	c3.214,0,5.821-2.607,5.821-5.821C276.865,289.124,262.274,288.139,256,288.139z"/>
<path d="M451.967,371.7c2.369-2.173,2.527-5.854,0.355-8.224c-14.391-15.689-33.072-28.5-55.647-38.225
	c17.948-7.616,32.334-18.035,42.863-31.108c14.452-17.944,21.779-40.998,21.779-68.521c0-26.112-13.62-48.312-25.638-67.901
	c-9.097-14.824-17.686-28.826-17.686-40.894c0-33.581-17.396-63.914-48.985-85.411C339.602,11.406,303.242,0,256.681,0
	s-82.921,11.406-112.326,31.417C112.766,52.915,95.37,83.248,95.37,116.827c0,12.069-8.59,26.071-17.686,40.894
	c-12.017,19.588-25.638,41.789-25.638,67.901c0,27.524,7.327,50.577,21.779,68.521c10.396,12.908,24.556,23.227,42.188,30.817
	c-22.885,9.758-41.802,22.669-56.339,38.519c-2.171,2.369-2.012,6.051,0.357,8.223c0.232,0.213,8.289,5.562,11.56,8.151
	c-24.119,31.192-23.487,65.34-23.385,68.208v58.115c0,1.544,0.612,3.024,1.704,4.116c1.092,1.092,2.573,1.704,4.116,1.704h403.946
	c3.215,0,5.821-2.607,5.821-5.821v-58.116c0.1-2.857,0.691-36.599-23.836-67.845C443.328,377.501,451.735,371.913,451.967,371.7z
	 M63.687,225.623c0-22.825,12.161-42.645,23.921-61.812c9.978-16.264,19.404-31.627,19.404-46.982
	c0-59.814,64.296-104.952,149.669-105.192c85.374,0.24,149.669,45.378,149.669,105.192c0,15.355,9.426,30.718,19.404,46.982
	c11.76,19.168,23.921,38.987,23.921,61.812c0,47.378-23.674,78.88-70.361,93.64h-57.397v-6.142
	c15.751-21.193,24.419-50.3,24.419-82.364c0-6.98-0.405-13.983-1.206-20.853c17.386-19.82,26.93-44.804,26.93-70.66
	c0-60.866-52.065-110.383-116.059-110.383S139.942,78.379,139.942,139.244c0,25.853,9.544,50.839,26.929,70.66
	c-0.8,6.889-1.205,13.892-1.205,20.853c0,32.065,8.667,61.172,24.418,82.365v6.141h-56.032
	C87.361,304.502,63.687,273.002,63.687,225.623z M353.081,369.445c1.094,5.303,3.361,16.283,1.284,18.087
	c-2.299,0.774-10.837-3.104-15.44-5.194c-9.406-4.276-19.134-8.696-26.687-5.626c-6.977,2.836-10.244,11.945-13.704,21.59
	c-1.813,5.054-5.584,15.568-8.17,16.043c-2.411-0.003-8.82-7.341-12.262-11.282c-7.15-8.184-13.902-15.914-22.104-15.914
	c-8.201,0-14.955,7.73-22.104,15.914c-3.442,3.941-9.851,11.278-12.217,11.288c-2.631-0.481-6.403-10.995-8.215-16.049
	c-3.461-9.645-6.728-18.755-13.703-21.59c-7.555-3.072-17.283,1.35-26.688,5.626c-4.602,2.092-13.143,5.97-15.44,5.194
	c-2.074-1.804,0.191-12.785,1.284-18.087c1.923-9.328,3.742-18.138,0.164-24.064c-3.665-6.068-12.154-9.251-21.141-12.622
	c-1.596-0.6-3.249-1.222-4.86-1.861c0.027,0,0.052,0.006,0.078,0.006h56.923v11.304c0,18.698,28.34,32.799,65.918,32.799
	s65.917-14.1,65.917-32.799v-11.304h56.992c-1.608,0.637-3.258,1.258-4.85,1.856c-8.988,3.37-17.477,6.554-21.141,12.623
	C349.341,351.307,351.158,360.117,353.081,369.445z M177.253,204.041c-16.555-17.974-25.672-40.987-25.672-64.8
	c0-54.447,46.842-98.741,104.418-98.741s104.419,44.296,104.419,98.741c0,23.814-9.118,46.828-25.674,64.8
	c-1.17,1.27-1.716,2.994-1.489,4.707c0.955,7.222,1.439,14.626,1.439,22.007c0,61.207-33.097,105.631-78.695,105.631
	s-78.695-44.425-78.695-105.631c0-7.36,0.484-14.766,1.437-22.012C178.968,207.033,178.422,205.31,177.253,204.041z
	 M310.276,326.201v16.007c0,9.987-23.211,21.157-54.276,21.157c-31.065,0-54.277-11.17-54.277-21.157v-16.006
	c15.257,14.169,34.098,21.826,54.277,21.826S295.018,340.371,310.276,326.201z M118.435,336.598
	c4.163,2.807,9.647,4.899,15.418,7.063c5.778,2.166,13.69,5.134,15.263,7.739c1.221,2.021-0.546,10.58-1.601,15.694
	c-2.402,11.648-4.887,23.694,3.161,29.775c6.971,5.269,16.806,0.799,27.215-3.934c5.801-2.638,14.567-6.625,17.485-5.44
	c2.186,0.951,5.404,9.92,7.132,14.737c3.858,10.759,7.85,21.884,17.08,23.569c0.719,0.132,1.428,0.194,2.128,0.194
	c7.604,0,14.102-7.439,20.948-15.275c3.9-4.462,10.423-11.931,13.336-11.931s9.437,7.469,13.336,11.931
	c6.846,7.837,13.342,15.276,20.946,15.276c0.7,0,1.409-0.063,2.128-0.194c9.232-1.686,13.222-12.81,17.081-23.569
	c1.728-4.817,4.945-13.785,7.13-14.737c2.916-1.183,11.683,2.802,17.487,5.44c10.41,4.732,20.242,9.203,27.216,3.932
	c8.047-6.081,5.561-18.126,3.159-29.775c-1.055-5.114-2.822-13.673-1.601-15.694c1.574-2.607,9.485-5.574,15.263-7.74
	c5.775-2.166,11.284-4.249,15.454-7.057c7.109,3.136,13.779,6.603,20.012,10.381c-0.368,0.199-0.732,0.396-1.105,0.597
	c-8.542,4.599-17.376,9.355-21.555,16.275c-4.051,6.709-3.445,16.23-2.801,26.312c0.61,9.584,1.303,20.447-3.149,23.811
	c-3.347,2.53-13.215-0.39-21.141-2.733c-10.64-3.148-21.644-6.402-30.386-2.848c-7.97,3.24-12.801,12.425-17.917,22.15
	c-4.325,8.223-9.227,17.542-14.428,18.492c-4.375,0.794-12.169-5.945-18.435-11.361c-8.462-7.314-17.213-14.877-26.696-14.877
	c-9.483,0-18.234,7.563-26.696,14.877c-6.268,5.417-14.071,12.151-18.435,11.361c-5.201-0.95-10.104-10.27-14.427-18.492
	c-5.116-9.725-9.948-18.911-17.918-22.151c-8.743-3.553-19.745-0.298-30.385,2.848c-7.928,2.345-17.794,5.264-21.141,2.733
	c-4.452-3.364-3.759-14.227-3.149-23.811c0.644-10.08,1.25-19.602-2.801-26.312c-4.179-6.92-13.013-11.675-21.555-16.275
	c-0.37-0.2-0.732-0.396-1.098-0.594C104.631,343.203,111.316,339.737,118.435,336.598z M87.494,354.255
	c2.132,1.226,4.326,2.416,6.48,3.575c7.164,3.858,14.574,7.847,17.107,12.043c2.166,3.588,1.626,12.07,1.149,19.553
	c-0.797,12.515-1.702,26.698,7.747,33.839c8.033,6.069,19.943,2.547,31.461-0.858c8.312-2.457,17.732-5.247,22.701-3.227
	c4.029,1.638,8.263,9.686,11.998,16.786c5.834,11.09,11.865,22.556,22.639,24.525c0.949,0.173,1.892,0.256,2.83,0.256
	c8.81,0,17.185-7.239,25.31-14.261c6.531-5.645,13.935-12.043,19.084-12.043c5.149,0,12.552,6.398,19.084,12.043
	c8.126,7.022,16.499,14.261,25.31,14.261c0.937,0,1.882-0.081,2.83-0.255c10.774-1.967,16.806-13.435,22.639-24.525
	c3.735-7.1,7.969-15.148,11.998-16.786c4.966-2.019,14.388,0.767,22.701,3.227c11.519,3.406,23.428,6.929,31.461,0.858
	c9.449-7.142,8.545-21.326,7.747-33.839c-0.476-7.483-1.017-15.965,1.149-19.553c2.534-4.196,9.943-8.185,17.107-12.043
	c2.158-1.163,4.356-2.354,6.494-3.582c5.21,3.814,10.034,7.891,14.469,12.221c-6.41,4.42-12.389,9.183-15.93,15.05
	c-4.468,7.395-4.772,17.499-5.094,28.197c-0.354,11.715-0.718,23.83-7.055,28.617c-4.896,3.701-15.63,1.595-26.009-0.442
	c-11.66-2.288-23.715-4.653-33.501-0.675c-8.865,3.603-15.223,13.336-21.372,22.748c-6.133,9.388-12.475,19.094-19.773,20.428
	c-6.255,1.143-15.14-5.168-23.723-11.27c-9.786-6.958-19.905-14.154-30.531-14.154c-10.626,0-20.744,7.196-30.531,14.154
	c-8.583,6.102-17.457,12.417-23.722,11.27c-7.299-1.334-13.643-11.041-19.774-20.428c-6.149-9.412-12.508-19.145-21.372-22.747
	c-9.788-3.978-21.843-1.613-33.501,0.674c-10.381,2.037-21.114,4.142-26.009,0.442c-6.335-4.787-6.701-16.902-7.055-28.617
	c-0.322-10.698-0.626-20.802-5.093-28.197c-3.544-5.868-9.524-10.629-15.934-15.049C77.446,362.14,82.285,358.071,87.494,354.255z
	 M452.158,447.697c-0.003,0.085-0.006,52.661-0.006,52.661h-44.539l17.068-32.901c1.481-2.853,0.366-6.367-2.488-7.847
	c-2.851-1.48-6.367-0.367-7.846,2.487l-19.849,38.262H117.501l-19.849-38.262c-1.48-2.854-4.993-3.966-7.846-2.487
	c-2.853,1.481-3.967,4.994-2.488,7.847l17.067,32.901H59.848c0,0-0.002-52.576-0.006-52.66c-0.014-0.326-1.058-30.934,19.712-59.067
	c2.347,4.98,2.601,13.334,2.846,21.436c0.414,13.783,0.887,29.405,11.671,37.555c9.05,6.838,22.381,4.222,35.27,1.694
	c9.981-1.959,20.304-3.985,26.875-1.313c5.494,2.232,10.84,10.416,16.012,18.331c7.476,11.446,15.208,23.28,27.426,25.513
	c1.218,0.222,2.434,0.327,3.647,0.327c9.842,0,19.52-6.882,28.914-13.562c8.297-5.899,16.875-12,23.785-12s15.488,6.1,23.785,12
	c9.393,6.68,19.072,13.562,28.915,13.562c1.212,0,2.428-0.105,3.646-0.327c12.218-2.233,19.951-14.067,27.427-25.513
	c5.171-7.914,10.518-16.099,16.012-18.331c6.57-2.671,16.894-0.645,26.875,1.313c12.892,2.53,26.22,5.144,35.269-1.694
	c10.786-8.15,11.257-23.772,11.672-37.555c0.236-7.803,0.484-15.833,2.596-20.866C453.118,417.227,452.171,447.382,452.158,447.697z
	"/>
<g>
</g>
<g>
</g>
<g>
</g>
<g>
</g>
<g>
</g>
<g>
</g>
<g>
</g>
<g>
</g>
<g>
</g>
<g>
</g>
<g>
</g>
<g>
</g>
<g>
</g>
<g>
</g>
<g>
</g>
</svg>
