<?xml version="1.0" encoding="iso-8859-1"?>
<!-- Generator: Adobe Illustrator 19.0.0, SVG Export Plug-In . SVG Version: 6.00 Build 0)  -->
<svg version="1.1" id="Layer_1" xmlns="http://www.w3.org/2000/svg" xmlns:xlink="http://www.w3.org/1999/xlink" x="0px" y="0px"
	 viewBox="0 0 512 512" style="enable-background:new 0 0 512 512;" xml:space="preserve">
<path style="fill:#333333;" d="M183.045,11.777l-71.402,138.878l67.36,349.567h153.993l67.359-349.567L328.953,11.777H183.045z
	 M376.514,150.903l-63.71,325.508c-0.541,2.764-2.963,4.758-5.779,4.758H204.973c-2.816,0-5.238-1.994-5.779-4.758l-63.708-325.508
	c-0.253-1.293-0.066-2.633,0.534-3.806L193.248,34.88c1.006-1.971,3.033-3.213,5.245-3.213h115.013c2.213,0,4.24,1.241,5.246,3.213
	l57.229,112.216C376.579,148.271,376.767,149.611,376.514,150.903z"/>
<path style="fill:#E6E6E6;" d="M265.425,146.205v-44.921h-18.849v44.922c0,3.252-2.637,5.889-5.889,5.889h-39.369v18.85h39.369
	c3.252,0,5.889,2.637,5.889,5.889v121.488h18.849v-121.49c0-3.252,2.637-5.889,5.889-5.889h39.368v-18.85h-39.368
	C268.061,152.093,265.425,149.457,265.425,146.205z"/>
<path style="fill:#808080;" d="M202.099,43.444l-54.667,107.192l62.387,318.755h92.357l62.389-318.755L309.898,43.444
	L202.099,43.444L202.099,43.444z M322.458,146.205v30.627c0,3.252-2.637,5.889-5.889,5.889h-39.368v121.488
	c0,3.252-2.637,5.889-5.889,5.889h-30.626c-3.252,0-5.889-2.637-5.889-5.889V182.721h-39.369c-3.252,0-5.889-2.637-5.889-5.889
	v-30.627c0-3.252,2.637-5.889,5.889-5.889h39.369V95.395c0-3.252,2.637-5.889,5.889-5.889h30.626c3.252,0,5.889,2.637,5.889,5.889
	v44.922h39.368C319.823,140.316,322.458,142.953,322.458,146.205z"/>
<path d="M337.784,3.196C336.775,1.233,334.754,0,332.547,0H179.452c-2.206,0-4.228,1.233-5.237,3.196L100.24,147.08
	c-0.603,1.172-0.795,2.512-0.545,3.806l68.665,356.339c0.535,2.771,2.96,4.774,5.783,4.774h163.717c2.823,0,5.248-2.003,5.783-4.774
	l68.664-356.339c0.25-1.294,0.058-2.635-0.545-3.806L337.784,3.196z M332.997,500.223H179.003l-67.36-349.567l71.402-138.878
	h145.908l71.402,138.878L332.997,500.223z"/>
<path d="M313.506,31.667H198.492c-2.213,0-4.241,1.241-5.245,3.213l-57.228,112.216c-0.598,1.173-0.786,2.513-0.533,3.806
	l63.708,325.508c0.541,2.764,2.963,4.758,5.779,4.758h102.052c2.816,0,5.238-1.994,5.779-4.758l63.71-325.508
	c0.253-1.293,0.066-2.633-0.533-3.806L318.75,34.88C317.745,32.909,315.718,31.667,313.506,31.667z M302.177,469.392H209.82
	l-62.387-318.755l54.667-107.192h107.799l54.667,107.192L302.177,469.392z"/>
<path d="M277.202,95.395c0-3.252-2.637-5.889-5.889-5.889h-30.626c-3.252,0-5.889,2.637-5.889,5.889v44.922h-39.369
	c-3.252,0-5.889,2.637-5.889,5.889v30.627c0,3.252,2.637,5.889,5.889,5.889h39.369V304.21c0,3.252,2.637,5.889,5.889,5.889h30.626
	c3.252,0,5.889-2.637,5.889-5.889v-121.49h39.368c3.252,0,5.889-2.637,5.889-5.889v-30.627c0-3.252-2.637-5.889-5.889-5.889h-39.368
	V95.395z M310.681,152.093v18.85h-39.368c-3.252,0-5.889,2.637-5.889,5.889v121.488h-18.849V176.832
	c0-3.252-2.637-5.889-5.889-5.889h-39.369v-18.85h39.369c3.252,0,5.889-2.637,5.889-5.889v-44.921h18.849v44.922
	c0,3.252,2.637,5.889,5.889,5.889h39.368V152.093z"/>
<g>
</g>
<g>
</g>
<g>
</g>
<g>
</g>
<g>
</g>
<g>
</g>
<g>
</g>
<g>
</g>
<g>
</g>
<g>
</g>
<g>
</g>
<g>
</g>
<g>
</g>
<g>
</g>
<g>
</g>
</svg>
