<?xml version="1.0" encoding="iso-8859-1"?>
<!-- Generator: Adobe Illustrator 19.0.0, SVG Export Plug-In . SVG Version: 6.00 Build 0)  -->
<svg version="1.1" id="Layer_1" xmlns="http://www.w3.org/2000/svg" xmlns:xlink="http://www.w3.org/1999/xlink" x="0px" y="0px"
	 viewBox="0 0 511.999 511.999" style="enable-background:new 0 0 511.999 511.999;" xml:space="preserve">
<g>
	<path style="fill:#333333;" d="M167.145,126.751c15.923,0,27.497-1.396,35.377-4.308c0.394-0.207,0.799-0.356,1.214-0.465
		c3.403-1.394,6.062-3.098,8.001-5.136c6.731-7.072,6.116-19.549,5.264-36.82c-0.118-2.406-0.24-4.888-0.348-7.45
		c-1.065-25.523-9.795-43.541-25.949-53.552c-11.675-7.235-22.934-7.517-23.546-7.527c-2.23,0.03-47.031,1.426-49.518,61.079
		c-0.101,2.41-0.215,4.753-0.324,7.025c-0.845,17.465-1.457,30.083,5.347,37.224C129.117,123.596,143.251,126.751,167.145,126.751z
		 M126.277,75.044c0.069-1.414,0.14-2.872,0.202-4.372c1.957-46.936,40.268-47.609,40.655-47.61c0.007,0,0.014,0,0.02,0
		c0.007,0,0.013,0,0.02,0c0.348,0.001,40.655,0,40.655,47.61c0,1.598,0.143,3.144,0.216,4.642
		c0.603,12.246,1.126,22.823-5.903,30.207c-6.124,6.433-16.588,9.178-34.988,9.178c-18.34,0-28.783-2.748-34.919-9.189
		C125.158,98.084,125.677,87.406,126.277,75.044z"/>
	<path style="fill:#333333;" d="M97.117,169.598c-15.804,24.441-35.127,68.127-38.797,138.5h44.235V204.051
		c0-21.498,4.735-40.334,10.045-54.704C107.797,154.631,102.48,161.304,97.117,169.598z"/>
	<path style="fill:#333333;" d="M220.275,204.052c0-31.642-11.069-57.066-17.764-69.549c-7.729,2.206-17.466,3.396-29.602,3.674
		v17.453c0,3.173-2.572,5.747-5.747,5.747s-5.747-2.573-5.747-5.747v-17.452c-12.131-0.279-21.862-1.477-29.587-3.697
		c-6.695,12.475-17.777,37.909-17.777,69.571v55.6h106.224V204.052z"/>
	<path style="fill:#333333;" d="M146.857,72.167c4.055,0,7.354-3.299,7.354-7.352v-0.082h-14.704v0.082
		C139.507,68.868,142.803,72.167,146.857,72.167z"/>
</g>
<path style="fill:#E6E6E6;" d="M167.152,103.205c14.349,0,23.07-1.834,26.663-5.609c2.983-3.133,3.264-8.763,2.986-16.432
	c-2.756,1.579-5.938,2.496-9.335,2.496c-10.391,0-18.845-8.454-18.845-18.846v-5.828c0-3.173,2.572-5.747,5.747-5.747h18.372
	c-2.518-6.031-6.316-10.714-11.394-13.981c-6.765-4.353-13.577-4.681-14.187-4.701c-0.499,0.015-7.374,0.308-14.201,4.701
	c-5.078,3.266-8.876,7.95-11.394,13.981h18.393c3.175,0,5.747,2.573,5.747,5.747v5.828c0,10.392-8.455,18.846-18.847,18.846
	c-3.402,0-6.588-0.919-9.345-2.503c-0.263,7.658,0.049,13.282,3.044,16.425C144.159,101.366,152.859,103.205,167.152,103.205z
	 M152.95,86.764c0-3.173,2.572-5.747,5.747-5.747h16.934c3.175,0,5.747,2.573,5.747,5.747v6.556c0,3.173-2.572,5.747-5.747,5.747
	c-3.175,0-5.747-2.573-5.747-5.747v-0.809h-5.44v0.809c0,3.173-2.572,5.747-5.747,5.747s-5.747-2.573-5.747-5.747V86.764z"/>
<path style="fill:#333333;" d="M180.114,64.815c0,4.054,3.298,7.352,7.351,7.352c4.055,0,7.354-3.299,7.354-7.352v-0.082h-14.706
	v0.082H180.114z"/>
<g>
	<path style="fill:#E6E6E6;" d="M354.63,80.785v5.738h96.579c-0.964-1.729-2.239-3.681-3.897-5.738H354.63z"/>
	<path style="fill:#E6E6E6;" d="M378.641,56.743h-55.784v29.78h20.28V75.038c0-3.173,2.572-5.747,5.747-5.747h85.082
		C422.728,62.41,405.374,56.743,378.641,56.743z"/>
</g>
<g>
	<path style="fill:#333333;" d="M220.276,329.028l-0.001-57.882h-26.305l12.415,85.769c0.455,3.141-1.723,6.056-4.863,6.511
		c-0.279,0.04-0.556,0.06-0.831,0.06c-2.809,0-5.266-2.062-5.68-4.924l-12.174-84.095l-4.562,50.19
		c-0.271,2.984-2.778,5.227-5.717,5.227c-0.174,0-0.351-0.008-0.526-0.024c-3.162-0.287-5.49-3.083-5.203-6.243l4.769-52.469
		h-57.546v57.971c0.041,5.392,0.597,133.02-36.452,171.389h178.694C218.652,462.103,220.192,334.447,220.276,329.028z"/>
	<path style="fill:#333333;" d="M218.393,141.03c6.254,14.487,12.874,35.554,13.331,60.325
		c19.747,17.258,71.017,29.729,89.436,33.775l0.228-13.249l-4.396-56.645C274.031,164.095,238.105,150.39,218.393,141.03z"/>
</g>
<path style="fill:#754C24;" d="M323.301,98.016l9.566,123.247c0.014,0.18,0.02,0.362,0.016,0.544l-2.398,139.59l8.547,139.11h10.882
	l-10.586-138.545c-0.015-0.192-0.021-0.385-0.016-0.577l3.381-139.471L330.809,98.016L323.301,98.016L323.301,98.016z"/>
<path d="M167.152,114.699c18.401,0,28.864-2.745,34.988-9.178c7.028-7.383,6.507-17.961,5.903-30.207
	c-0.074-1.499-0.216-3.045-0.216-4.642c0-47.61-40.307-47.609-40.655-47.61c-0.007,0-0.013,0-0.02,0c-0.006,0-0.013,0-0.02,0
	c-0.387,0.001-38.698,0.674-40.655,47.61c-0.062,1.5-0.133,2.957-0.202,4.372c-0.599,12.362-1.118,23.04,5.958,30.467
	C138.369,111.951,148.812,114.699,167.152,114.699z M139.507,64.733h14.704v0.082c0,4.054-3.299,7.352-7.354,7.352
	c-4.053,0-7.35-3.299-7.35-7.352V64.733z M137.512,81.157c2.757,1.584,5.943,2.503,9.345,2.503c10.392,0,18.847-8.454,18.847-18.846
	v-5.828c0-3.173-2.572-5.747-5.747-5.747h-18.393c2.517-6.031,6.316-10.714,11.394-13.981c6.827-4.393,13.704-4.687,14.201-4.701
	c0.609,0.021,7.421,0.349,14.187,4.701c5.078,3.266,8.876,7.95,11.394,13.981h-18.372c-3.175,0-5.747,2.573-5.747,5.747v5.828
	c0,10.392,8.454,18.846,18.845,18.846c3.397,0,6.58-0.916,9.335-2.496c0.278,7.67-0.003,13.3-2.986,16.432
	c-3.593,3.774-12.314,5.609-26.663,5.609c-14.293,0-22.993-1.839-26.597-5.623C137.561,94.439,137.248,88.816,137.512,81.157z
	 M194.82,64.733v0.082c0,4.054-3.299,7.352-7.354,7.352c-4.054,0-7.351-3.299-7.351-7.352v-0.082H194.82z"/>
<path d="M158.697,99.067c3.175,0,5.747-2.573,5.747-5.747v-0.809h5.44v0.809c0,3.173,2.572,5.747,5.747,5.747
	c3.175,0,5.747-2.573,5.747-5.747v-6.556c0-3.173-2.572-5.747-5.747-5.747h-16.934c-3.175,0-5.747,2.573-5.747,5.747v6.556
	C152.95,96.494,155.522,99.067,158.697,99.067z"/>
<path d="M378.641,45.249H317.11c-3.175,0-5.747,2.573-5.747,5.747v41.273c0,0.091,4.732,61.439,4.732,61.439
	c-45.124-1.494-82.663-17.862-99.032-26.221c1.08-0.854,2.083-1.757,2.999-2.721c10.129-10.641,9.374-25.94,8.419-45.309
	c-0.118-2.377-0.238-4.832-0.344-7.364c-1.538-36.82-17.913-54.497-31.38-62.843c-14.678-9.096-28.99-9.248-29.593-9.25h-0.038
	c-0.602,0.002-14.915,0.154-29.594,9.251c-13.466,8.345-29.841,26.023-31.377,62.842c-0.099,2.385-0.211,4.701-0.32,6.948
	c-0.947,19.555-1.695,35.001,8.506,45.709c1.167,1.224,2.464,2.357,3.894,3.406c-7.294,5.853-18.649,16.66-30.244,34.392
	c-17.255,26.386-38.447,74.015-41.425,151.074c-0.061,1.561,0.517,3.08,1.601,4.207c1.084,1.125,2.579,1.762,4.142,1.762h50.249
	v9.57c0.01,1.29,0.601,129.275-33.567,163.709c-5.097,5.138-10.521,7.635-16.581,7.635c-3.175,0-5.747,2.573-5.747,5.747
	c0,3.173,2.572,5.747,5.747,5.747h229.506c3.175,0,5.747-2.573,5.747-5.747c0-3.173-2.572-5.747-5.747-5.747
	c-6.388,0-12.064-2.611-17.355-7.985c-34.363-34.893-32.813-162.034-32.792-163.403V215.631
	c26.156,16.892,73.916,27.985,89.191,31.226l-1.969,114.567c-0.003,0.151,0,0.301,0.01,0.452l8.891,144.729
	c0.186,3.031,2.699,5.394,5.735,5.394h22.488c1.601,0,3.129-0.668,4.216-1.841s1.637-2.748,1.514-4.343l-11.036-144.441
	l3.381-139.527c0.006-0.23-0.002-0.459-0.024-0.688L342.358,98.016h117.331c1.722,0,3.353-0.771,4.443-2.103
	c1.092-1.331,1.529-3.083,1.192-4.77C464.95,89.268,455.265,45.249,378.641,45.249z M117.316,79.598
	c0.11-2.272,0.223-4.615,0.324-7.025c2.487-59.653,47.288-61.049,49.518-61.079c0.611,0.009,11.871,0.291,23.546,7.527
	c16.154,10.011,24.884,28.028,25.949,53.552c0.108,2.562,0.23,5.046,0.348,7.45c0.852,17.27,1.467,29.748-5.264,36.82
	c-1.94,2.038-4.597,3.742-8.001,5.136c-0.414,0.108-0.819,0.259-1.214,0.465c-7.881,2.91-19.454,4.308-35.377,4.308
	c-23.894,0-38.029-3.155-44.482-9.929C115.859,109.681,116.47,97.063,117.316,79.598z M114.051,204.052
	c0-31.66,11.082-57.096,17.777-69.571c7.726,2.221,17.456,3.418,29.587,3.697v17.452c0,3.173,2.572,5.747,5.747,5.747
	s5.747-2.573,5.747-5.747v-17.453c12.136-0.278,21.872-1.469,29.602-3.674c6.695,12.483,17.764,37.907,17.764,69.549v55.6H114.051
	V204.052z M102.557,204.052v104.047H58.322c3.669-70.374,22.993-114.059,38.797-138.5c5.363-8.294,10.68-14.968,15.485-20.249
	C107.293,163.717,102.557,182.555,102.557,204.052z M256.293,500.506H77.599c37.048-38.369,36.493-165.997,36.452-171.389v-57.971
	h57.546l-4.769,52.469c-0.287,3.161,2.041,5.956,5.203,6.243c0.176,0.016,0.353,0.024,0.526,0.024c2.939,0,5.445-2.244,5.717-5.227
	l4.562-50.19l12.174,84.095c0.414,2.862,2.871,4.924,5.68,4.924c0.274,0,0.551-0.02,0.831-0.06c3.14-0.455,5.318-3.37,4.863-6.511
	l-12.415-85.769h26.305l0.001,57.882C220.192,334.447,218.652,462.103,256.293,500.506z M321.159,235.13
	c-18.418-4.047-69.689-16.519-89.436-33.775c-0.456-24.771-7.077-45.84-13.331-60.325c19.711,9.36,55.638,23.066,98.598,24.208
	l4.396,56.645L321.159,235.13z M342.694,221.913l-3.381,139.471c-0.005,0.192,0.001,0.385,0.016,0.577l10.586,138.545h-10.882
	l-8.547-139.11l2.398-139.59c0.003-0.182-0.002-0.362-0.016-0.544l-9.566-123.247h7.509L342.694,221.913z M343.136,75.038v11.484
	h-20.28v-29.78h55.784c26.733,0,44.087,5.667,55.326,12.548h-85.082C345.71,69.291,343.136,71.864,343.136,75.038z M354.63,86.523
	v-5.738h92.683c1.657,2.056,2.933,4.009,3.897,5.738H354.63z"/>
<g>
</g>
<g>
</g>
<g>
</g>
<g>
</g>
<g>
</g>
<g>
</g>
<g>
</g>
<g>
</g>
<g>
</g>
<g>
</g>
<g>
</g>
<g>
</g>
<g>
</g>
<g>
</g>
<g>
</g>
</svg>
